<?xml version="1.0" encoding="UTF-8"?>
<!--Generator: Apple Native CoreSVG 175.5-->
<!DOCTYPE svg
PUBLIC "-//W3C//DTD SVG 1.1//EN"
       "http://www.w3.org/Graphics/SVG/1.1/DTD/svg11.dtd">
<svg version="1.1" xmlns="http://www.w3.org/2000/svg" xmlns:xlink="http://www.w3.org/1999/xlink" width="3300" height="2200">
 <!--glyph: "uni1001C4.medium", point size: 100.0, font version: "18.0d12e2", template writer version: "101"-->
 <g id="Notes">
  <rect height="2200" id="artboard" style="fill:white;opacity:1" width="3300" x="0" y="0"/>
  <line style="fill:none;stroke:black;opacity:1;stroke-width:0.5;" x1="263" x2="3036" y1="292" y2="292"/>
  <text style="stroke:none;fill:black;font-family:sans-serif;font-size:13;font-weight:bold;" transform="matrix(1 0 0 1 263 322)">Weight/Scale Variations</text>
  <text style="stroke:none;fill:black;font-family:sans-serif;font-size:13;text-anchor:middle;" transform="matrix(1 0 0 1 559.711 322)">Ultralight</text>
  <text style="stroke:none;fill:black;font-family:sans-serif;font-size:13;text-anchor:middle;" transform="matrix(1 0 0 1 856.422 322)">Thin</text>
  <text style="stroke:none;fill:black;font-family:sans-serif;font-size:13;text-anchor:middle;" transform="matrix(1 0 0 1 1153.13 322)">Light</text>
  <text style="stroke:none;fill:black;font-family:sans-serif;font-size:13;text-anchor:middle;" transform="matrix(1 0 0 1 1449.84 322)">Regular</text>
  <text style="stroke:none;fill:black;font-family:sans-serif;font-size:13;text-anchor:middle;" transform="matrix(1 0 0 1 1746.56 322)">Medium</text>
  <text style="stroke:none;fill:black;font-family:sans-serif;font-size:13;text-anchor:middle;" transform="matrix(1 0 0 1 2043.27 322)">Semibold</text>
  <text style="stroke:none;fill:black;font-family:sans-serif;font-size:13;text-anchor:middle;" transform="matrix(1 0 0 1 2339.98 322)">Bold</text>
  <text style="stroke:none;fill:black;font-family:sans-serif;font-size:13;text-anchor:middle;" transform="matrix(1 0 0 1 2636.69 322)">Heavy</text>
  <text style="stroke:none;fill:black;font-family:sans-serif;font-size:13;text-anchor:middle;" transform="matrix(1 0 0 1 2933.4 322)">Black</text>
  <line style="fill:none;stroke:black;opacity:1;stroke-width:0.5;" x1="263" x2="3036" y1="1903" y2="1903"/>
  <g transform="matrix(1 0 0 1 263 1933)">
   <path d="M9.24805 0.830078C13.5547 0.830078 17.1387-2.74414 17.1387-7.05078C17.1387-11.3574 13.5449-14.9316 9.23828-14.9316C4.94141-14.9316 1.36719-11.3574 1.36719-7.05078C1.36719-2.74414 4.95117 0.830078 9.24805 0.830078ZM9.24805-0.654297C5.70312-0.654297 2.87109-3.49609 2.87109-7.05078C2.87109-10.6055 5.69336-13.4473 9.23828-13.4473C12.793-13.4473 15.6445-10.6055 15.6445-7.05078C15.6445-3.49609 12.8027-0.654297 9.24805-0.654297ZM5.6543-7.05078C5.6543-6.62109 5.95703-6.32812 6.40625-6.32812L8.50586-6.32812L8.50586-4.20898C8.50586-3.76953 8.79883-3.4668 9.22852-3.4668C9.67773-3.4668 9.9707-3.76953 9.9707-4.20898L9.9707-6.32812L12.0898-6.32812C12.5293-6.32812 12.832-6.62109 12.832-7.05078C12.832-7.49023 12.5293-7.79297 12.0898-7.79297L9.9707-7.79297L9.9707-9.90234C9.9707-10.3516 9.67773-10.6543 9.22852-10.6543C8.79883-10.6543 8.50586-10.3516 8.50586-9.90234L8.50586-7.79297L6.40625-7.79297C5.95703-7.79297 5.6543-7.49023 5.6543-7.05078Z"/>
  </g>
  <g transform="matrix(1 0 0 1 281.867 1933)">
   <path d="M11.709 2.91016C17.1582 2.91016 21.6699-1.61133 21.6699-7.05078C21.6699-12.5 17.1484-17.0117 11.6992-17.0117C6.25977-17.0117 1.74805-12.5 1.74805-7.05078C1.74805-1.61133 6.26953 2.91016 11.709 2.91016ZM11.709 1.25C7.09961 1.25 3.41797-2.44141 3.41797-7.05078C3.41797-11.6602 7.08984-15.3516 11.6992-15.3516C16.3086-15.3516 20.0098-11.6602 20.0098-7.05078C20.0098-2.44141 16.3184 1.25 11.709 1.25ZM7.17773-7.05078C7.17773-6.57227 7.50977-6.25 8.00781-6.25L10.8789-6.25L10.8789-3.36914C10.8789-2.88086 11.2109-2.53906 11.6895-2.53906C12.1777-2.53906 12.5195-2.87109 12.5195-3.36914L12.5195-6.25L15.4004-6.25C15.8887-6.25 16.2305-6.57227 16.2305-7.05078C16.2305-7.53906 15.8887-7.88086 15.4004-7.88086L12.5195-7.88086L12.5195-10.752C12.5195-11.25 12.1777-11.5918 11.6895-11.5918C11.2109-11.5918 10.8789-11.25 10.8789-10.752L10.8789-7.88086L8.00781-7.88086C7.50977-7.88086 7.17773-7.53906 7.17773-7.05078Z"/>
  </g>
  <g transform="matrix(1 0 0 1 305.646 1933)">
   <path d="M14.9707 5.66406C21.9336 5.66406 27.6953-0.0976562 27.6953-7.05078C27.6953-14.0137 21.9238-19.7754 14.9609-19.7754C8.00781-19.7754 2.25586-14.0137 2.25586-7.05078C2.25586-0.0976562 8.01758 5.66406 14.9707 5.66406ZM14.9707 3.84766C8.93555 3.84766 4.08203-1.01562 4.08203-7.05078C4.08203-13.0957 8.92578-17.9492 14.9609-17.9492C21.0059-17.9492 25.8691-13.0957 25.8691-7.05078C25.8691-1.01562 21.0156 3.84766 14.9707 3.84766ZM9.19922-7.05078C9.19922-6.5332 9.57031-6.17188 10.1172-6.17188L14.0625-6.17188L14.0625-2.2168C14.0625-1.67969 14.4336-1.29883 14.9512-1.29883C15.4883-1.29883 15.8594-1.66992 15.8594-2.2168L15.8594-6.17188L19.8145-6.17188C20.3516-6.17188 20.7324-6.5332 20.7324-7.05078C20.7324-7.59766 20.3613-7.96875 19.8145-7.96875L15.8594-7.96875L15.8594-11.9141C15.8594-12.4609 15.4883-12.8418 14.9512-12.8418C14.4336-12.8418 14.0625-12.4609 14.0625-11.9141L14.0625-7.96875L10.1172-7.96875C9.57031-7.96875 9.19922-7.59766 9.19922-7.05078Z"/>
  </g>
  <text style="stroke:none;fill:black;font-family:sans-serif;font-size:13;font-weight:bold;" transform="matrix(1 0 0 1 263 1953)">Design Variations</text>
  <text style="stroke:none;fill:black;font-family:sans-serif;font-size:13;" transform="matrix(1 0 0 1 263 1971)">Symbols are supported in up to nine weights and three scales.</text>
  <text style="stroke:none;fill:black;font-family:sans-serif;font-size:13;" transform="matrix(1 0 0 1 263 1989)">For optimal layout with text and other symbols, vertically align</text>
  <text style="stroke:none;fill:black;font-family:sans-serif;font-size:13;" transform="matrix(1 0 0 1 263 2007)">symbols with the adjacent text.</text>
  <line style="fill:none;stroke:#00AEEF;stroke-width:0.5;opacity:1.0;" x1="776" x2="776" y1="1919" y2="1933"/>
  <g transform="matrix(1 0 0 1 776 1933)">
   <path d="M3.31055 0.15625C3.82812 0.15625 4.08203-0.0390625 4.26758-0.585938L5.52734-4.0332L11.2891-4.0332L12.5488-0.585938C12.7344-0.0390625 12.9883 0.15625 13.4961 0.15625C14.0137 0.15625 14.3457-0.15625 14.3457-0.644531C14.3457-0.810547 14.3164-0.966797 14.2383-1.17188L9.6582-13.3691C9.43359-13.9648 9.0332-14.2676 8.4082-14.2676C7.80273-14.2676 7.39258-13.9746 7.17773-13.3789L2.59766-1.16211C2.51953-0.957031 2.49023-0.800781 2.49023-0.634766C2.49023-0.146484 2.80273 0.15625 3.31055 0.15625ZM6.00586-5.51758L8.37891-12.0898L8.42773-12.0898L10.8008-5.51758Z"/>
  </g>
  <line style="fill:none;stroke:#00AEEF;stroke-width:0.5;opacity:1.0;" x1="793.197" x2="793.197" y1="1919" y2="1933"/>
  <text style="stroke:none;fill:black;font-family:sans-serif;font-size:13;font-weight:bold;" transform="matrix(1 0 0 1 776 1953)">Margins</text>
  <text style="stroke:none;fill:black;font-family:sans-serif;font-size:13;" transform="matrix(1 0 0 1 776 1971)">Leading and trailing margins on the left and right side of each symbol</text>
  <text style="stroke:none;fill:black;font-family:sans-serif;font-size:13;" transform="matrix(1 0 0 1 776 1989)">can be adjusted by modifying the x-location of the margin guidelines.</text>
  <text style="stroke:none;fill:black;font-family:sans-serif;font-size:13;" transform="matrix(1 0 0 1 776 2007)">Modifications are automatically applied proportionally to all</text>
  <text style="stroke:none;fill:black;font-family:sans-serif;font-size:13;" transform="matrix(1 0 0 1 776 2025)">scales and weights.</text>
  <g transform="matrix(1 0 0 1 1289 1933)">
   <path d="M2.8418 1.86523L4.54102 3.57422C5.40039 4.44336 6.38672 4.38477 7.31445 3.35938L18.0078-8.42773L17.041-9.4043L6.42578 2.27539C6.07422 2.67578 5.74219 2.77344 5.27344 2.30469L4.10156 1.14258C3.63281 0.683594 3.74023 0.341797 4.14062-0.0195312L15.6152-10.8203L14.6387-11.7871L3.04688-0.898438C2.06055 0.0195312 1.98242 0.996094 2.8418 1.86523ZM9.25781-16.3281C8.83789-15.918 8.80859-15.3418 9.04297-14.9512C9.27734-14.5898 9.73633-14.3555 10.3809-14.5215C11.8457-14.8633 13.3691-14.9219 14.7949-13.9844L14.209-12.5293C13.8672-11.6992 14.043-11.1133 14.5801-10.5664L16.875-8.25195C17.3633-7.76367 17.7734-7.74414 18.3398-7.8418L19.4043-8.03711L20.0684-7.36328L20.0293-6.80664C19.9902-6.30859 20.1172-5.92773 20.6055-5.44922L21.3672-4.70703C21.8457-4.22852 22.4609-4.19922 22.9297-4.66797L25.8398-7.58789C26.3086-8.05664 26.2891-8.65234 25.8105-9.13086L25.0391-9.89258C24.5605-10.3711 24.1895-10.5273 23.7109-10.4883L23.1348-10.4395L22.4902-11.0742L22.7344-12.1973C22.8613-12.7637 22.7051-13.2031 22.1191-13.7891L19.9219-15.9766C16.582-19.2969 12.1484-19.2188 9.25781-16.3281ZM10.752-15.957C13.1836-17.7344 16.4746-17.4316 18.7012-15.2051L21.1328-12.793C21.3672-12.5586 21.4062-12.373 21.3379-12.0312L21.0156-10.5469L22.5195-9.0625L23.5059-9.12109C23.7598-9.13086 23.8379-9.11133 24.0332-8.91602L24.6094-8.33984L22.168-5.89844L21.5918-6.47461C21.3965-6.66992 21.3672-6.74805 21.377-7.01172L21.4453-7.98828L19.9512-9.47266L18.4277-9.21875C18.1055-9.15039 17.959-9.17969 17.7148-9.41406L15.7129-11.416C15.459-11.6504 15.4297-11.8164 15.5859-12.1875L16.4648-14.2773C14.9023-15.7324 12.8711-16.3574 10.8398-15.7617C10.6836-15.7227 10.625-15.8496 10.752-15.957Z"/>
  </g>
  <text style="stroke:none;fill:black;font-family:sans-serif;font-size:13;font-weight:bold;" transform="matrix(1 0 0 1 1289 1953)">Exporting</text>
  <text style="stroke:none;fill:black;font-family:sans-serif;font-size:13;" transform="matrix(1 0 0 1 1289 1971)">Symbols should be outlined when exporting to ensure the</text>
  <text style="stroke:none;fill:black;font-family:sans-serif;font-size:13;" transform="matrix(1 0 0 1 1289 1989)">design is preserved when submitting to Xcode.</text>
  <text id="template-version" style="stroke:none;fill:black;font-family:sans-serif;font-size:13;text-anchor:end;" transform="matrix(1 0 0 1 3036 1933)">Template v.4.0</text>
  <text style="stroke:none;fill:black;font-family:sans-serif;font-size:13;text-anchor:end;" transform="matrix(1 0 0 1 3036 1951)">Requires Xcode 14 or greater</text>
  <text id="descriptive-name" style="stroke:none;fill:black;font-family:sans-serif;font-size:13;text-anchor:end;" transform="matrix(1 0 0 1 3036 1969)">Generated from cloud.drizzle</text>
  <text style="stroke:none;fill:black;font-family:sans-serif;font-size:13;text-anchor:end;" transform="matrix(1 0 0 1 3036 1987)">Typeset at 100 points</text>
  <text style="stroke:none;fill:black;font-family:sans-serif;font-size:13;" transform="matrix(1 0 0 1 263 726)">Small</text>
  <text style="stroke:none;fill:black;font-family:sans-serif;font-size:13;" transform="matrix(1 0 0 1 263 1156)">Medium</text>
  <text style="stroke:none;fill:black;font-family:sans-serif;font-size:13;" transform="matrix(1 0 0 1 263 1586)">Large</text>
 </g>
 <g id="Guides">
  <g id="H-reference" style="fill:#27AAE1;stroke:none;" transform="matrix(1 0 0 1 339 696)">
   <path d="M0.993654 0L3.63775 0L29.3281-67.1323L30.0303-67.1323L30.0303-70.459L28.1226-70.459ZM11.6885-24.4799L46.9815-24.4799L46.2315-26.7285L12.4385-26.7285ZM55.1196 0L57.7637 0L30.6382-70.459L29.4326-70.459L29.4326-67.1323Z"/>
  </g>
  <line id="Baseline-S" style="fill:none;stroke:#27AAE1;opacity:1;stroke-width:0.5;" x1="263" x2="3036" y1="696" y2="696"/>
  <line id="Capline-S" style="fill:none;stroke:#27AAE1;opacity:1;stroke-width:0.5;" x1="263" x2="3036" y1="625.541" y2="625.541"/>
  <g id="H-reference" style="fill:#27AAE1;stroke:none;" transform="matrix(1 0 0 1 339 1126)">
   <path d="M0.993654 0L3.63775 0L29.3281-67.1323L30.0303-67.1323L30.0303-70.459L28.1226-70.459ZM11.6885-24.4799L46.9815-24.4799L46.2315-26.7285L12.4385-26.7285ZM55.1196 0L57.7637 0L30.6382-70.459L29.4326-70.459L29.4326-67.1323Z"/>
  </g>
  <line id="Baseline-M" style="fill:none;stroke:#27AAE1;opacity:1;stroke-width:0.5;" x1="263" x2="3036" y1="1126" y2="1126"/>
  <line id="Capline-M" style="fill:none;stroke:#27AAE1;opacity:1;stroke-width:0.5;" x1="263" x2="3036" y1="1055.54" y2="1055.54"/>
  <g id="H-reference" style="fill:#27AAE1;stroke:none;" transform="matrix(1 0 0 1 339 1556)">
   <path d="M0.993654 0L3.63775 0L29.3281-67.1323L30.0303-67.1323L30.0303-70.459L28.1226-70.459ZM11.6885-24.4799L46.9815-24.4799L46.2315-26.7285L12.4385-26.7285ZM55.1196 0L57.7637 0L30.6382-70.459L29.4326-70.459L29.4326-67.1323Z"/>
  </g>
  <line id="Baseline-L" style="fill:none;stroke:#27AAE1;opacity:1;stroke-width:0.5;" x1="263" x2="3036" y1="1556" y2="1556"/>
  <line id="Capline-L" style="fill:none;stroke:#27AAE1;opacity:1;stroke-width:0.5;" x1="263" x2="3036" y1="1485.54" y2="1485.54"/>
  <line id="left-margin-Regular-M" style="fill:none;stroke:#00AEEF;stroke-width:0.5;opacity:1.0;" x1="1387.89" x2="1387.89" y1="1030.79" y2="1150.12"/>
  <line id="right-margin-Regular-M" style="fill:none;stroke:#00AEEF;stroke-width:0.5;opacity:1.0;" x1="1511.8" x2="1511.8" y1="1030.79" y2="1150.12"/>
 </g>
 <g id="Symbols">
  <g id="Black-L" transform="matrix(1 0 0 1 2848.89 1556)">
   <path d="M44.9908-7.89272L124.519-7.89272C147.058-7.89272 164.185-25.0781 164.185-46.8985C164.185-68.989 147.107-86.1266 124.465-86.1266C117.168-100.179 103.598-111.366 81.4948-111.366C55.8002-111.366 35.9789-92.8474 32.6054-69.1532C20.4413-64.925 11.2588-54.2236 11.2588-39.6509C11.2588-21.734 24.7138-7.89272 44.9908-7.89272ZM45.5332-25.6507C34.4465-25.6507 29.018-31.3793 29.018-39.3341C29.018-46.4644 33.4964-51.7806 43.4021-54.364C47.5816-55.4387 48.7031-57.3288 49.3133-61.5452C52.2966-82.4934 65.2387-93.6068 81.4948-93.6068C93.6702-93.6068 103.932-86.6728 110.863-73.5927C112.693-70.1234 114.688-68.8694 118.991-68.8694C137.836-68.8694 146.426-59.0329 146.426-46.5416C146.426-34.7674 137.578-25.6507 124.121-25.6507ZM47.9056 25.4925L55.7435 11.977C57.175 9.47314 56.5376 6.32398 53.9402 4.8156C51.3231 3.33043 48.4672 4.25984 46.898 6.93889L39.0394 20.4741C37.6311 22.9375 38.2076 26.049 40.8259 27.5354C43.4233 29.023 46.4961 27.9547 47.9056 25.4925ZM67.8261 43.1253L75.6639 29.6306C77.1163 27.1267 76.4581 23.9568 73.8607 22.4692C71.2448 20.984 68.3877 21.9134 66.8185 24.5925L58.9807 38.1277C57.5515 40.5911 58.1293 43.7026 60.7464 45.189C63.3438 46.6765 66.4166 45.6083 67.8261 43.1253ZM98.0669 25.4717L105.905 11.9573C107.336 9.47314 106.699 6.30317 104.101 4.79479C101.484 3.30961 98.6284 4.23902 97.0593 6.91808L89.2214 20.4532C87.7923 22.9166 88.3689 26.0282 90.9871 27.5146C93.5845 29.0021 96.6573 27.9339 98.0669 25.4717ZM117.987 43.1253L125.825 29.6097C127.278 27.1059 126.619 23.9568 124.022 22.4484C121.406 20.9632 118.549 21.8926 116.98 24.5717L109.143 38.1068C107.713 40.5702 108.291 43.6818 110.908 45.1682C113.505 46.6557 116.578 45.5875 117.987 43.1253Z"/>
  </g>
  <g id="Heavy-L" transform="matrix(1 0 0 1 2553.29 1556)">
   <path d="M43.964-8.84542L123.208-8.84542C145.273-8.84542 161.974-25.6436 161.974-46.8607C161.974-68.4411 145.073-84.9749 122.769-84.9749C115.334-99.4063 101.544-110.33 80.3358-110.33C55.1386-110.33 35.4061-91.7978 32.3447-68.1725C20.3471-64.1781 11.2588-53.672 11.2588-39.402C11.2588-22.2345 24.0775-8.84542 43.964-8.84542ZM44.3498-24.6333C32.7782-24.6333 27.0523-30.7685 27.0523-39.1028C27.0523-46.4032 31.5867-52.1149 41.6926-54.7623C45.6746-55.7829 46.8071-57.593 47.335-61.6129C49.9561-82.4895 63.5524-94.5366 80.3358-94.5366C93.0606-94.5366 103.58-87.3477 110.475-74.0619C112.206-70.7129 114.143-69.5125 118.272-69.5125C137.054-69.5125 146.181-59.313 146.181-46.5358C146.181-34.2492 136.776-24.6333 123.028-24.6333ZM46.5063 23.6633L54.4811 9.89986C55.8266 7.54499 55.2113 4.65894 52.8086 3.24986C50.3813 1.88219 47.724 2.7206 46.259 5.20935L38.2541 18.9973C36.95 21.2975 37.5095 24.1691 39.9424 25.5423C42.3451 26.9212 45.1966 25.9578 46.5063 23.6633ZM66.38 41.3054L74.3547 27.5722C75.7304 25.2173 75.0849 22.3011 72.6822 20.9222C70.2605 19.5545 67.5976 20.3929 66.1327 22.8817L58.1579 36.6697C56.8237 38.9698 57.3887 41.8414 59.816 43.2147C62.2187 44.5936 65.0703 43.6301 66.38 41.3054ZM96.6582 23.6331L104.633 9.87529C105.978 7.54499 105.363 4.62875 102.96 3.21968C100.533 1.85201 97.8758 2.69041 96.4109 5.17916L88.4361 18.9671C87.1019 21.2673 87.6613 24.1389 90.0942 25.5122C92.4969 26.8911 95.3485 25.9276 96.6582 23.6331ZM116.532 41.3054L124.507 27.542C125.882 25.1871 125.237 22.3011 122.834 20.892C120.412 19.5243 117.749 20.3627 116.285 22.8515L108.315 36.6395C106.976 38.9396 107.541 41.8112 109.968 43.1845C112.371 44.5634 115.222 43.5999 116.532 41.3054Z"/>
  </g>
  <g id="Bold-L" transform="matrix(1 0 0 1 2257.88 1556)">
   <path d="M42.7109-9.88706L121.691-9.88706C143.165-9.88706 159.373-26.2013 159.373-46.6953C159.373-67.6381 142.702-83.4563 120.82-83.4563C113.231-98.3416 99.2468-108.995 78.9883-108.995C54.3985-108.995 34.8109-90.447 32.104-66.8988C20.2765-63.174 11.2588-52.921 11.2588-38.9978C11.2588-22.7301 23.3309-9.88706 42.7109-9.88706ZM42.9269-23.1794C30.7112-23.1794 24.5644-29.8738 24.5644-38.729C24.5644-46.3562 29.2871-52.5745 39.6465-55.2988C43.3378-56.2429 44.4559-57.9233 44.8839-61.6378C47.089-82.4745 61.5295-95.6892 78.9883-95.6892C92.4938-95.6892 103.358-88.1107 110.214-74.5787C111.807-71.4205 113.646-70.3041 117.507-70.3041C136.197-70.3041 146.067-59.629 146.067-46.4089C146.067-33.4474 135.926-23.1794 121.727-23.1794ZM44.7028 21.6946L52.9137 7.51209C54.1442 5.36398 53.567 2.82311 51.4249 1.55188C49.2581 0.3451 46.8764 1.06832 45.5496 3.30404L37.3007 17.5113C36.1346 19.5967 36.6562 22.1464 38.8362 23.3664C40.9783 24.5996 43.5235 23.7668 44.7028 21.6946ZM64.5374 39.3446L72.7483 25.2C74.0168 23.0519 73.4016 20.4731 71.2595 19.2398C69.1059 18.033 66.7111 18.7563 65.3842 20.992L57.1733 35.1993C55.9693 37.2846 56.504 39.8343 58.6709 41.0543C60.8129 42.2875 63.3581 41.4547 64.5374 39.3446ZM94.8468 21.6566L103.058 7.48733C104.288 5.36398 103.711 2.78513 101.569 1.5139C99.4021 0.307113 97.0205 1.03034 95.6936 3.26605L87.4827 17.4734C86.2787 19.5587 86.8002 22.1084 88.9803 23.3284C91.1224 24.5616 93.6676 23.7288 94.8468 21.6566ZM114.681 39.3446L122.892 25.162C124.161 23.0139 123.546 20.4731 121.404 19.2018C119.25 17.995 116.855 18.7183 115.528 20.954L107.331 35.1613C106.113 37.2466 106.648 39.7963 108.815 41.0163C110.957 42.2496 113.502 41.4167 114.681 39.3446Z"/>
  </g>
  <g id="Semibold-L" transform="matrix(1 0 0 1 1962.06 1556)">
   <path d="M41.847-10.6052L120.645-10.6052C141.711-10.6052 157.579-26.5858 157.579-46.5813C157.579-67.0846 141.068-82.4094 119.476-82.4094C111.781-97.6076 97.6629-108.074 78.0594-108.074C53.8882-108.074 34.4006-89.5157 31.938-66.0207C20.2279-62.4817 11.2588-52.4034 11.2588-38.7191C11.2588-23.0718 22.8161-10.6052 41.847-10.6052ZM41.946-22.1771C29.2863-22.1771 22.8492-29.2569 22.8492-38.4713C22.8492-46.3238 27.7019-52.8914 38.2358-55.6687C41.7269-56.56 42.835-58.151 43.1941-61.6549C45.1124-82.4641 60.1349-96.4838 78.0594-96.4838C92.1031-96.4838 103.205-88.6367 110.035-74.935C111.533-71.9083 113.303-70.8498 116.98-70.8498C135.607-70.8498 145.989-59.8469 145.989-46.3214C145.989-32.8946 135.34-22.1771 120.831-22.1771ZM43.4594 20.3375L51.8331 5.86597C52.9843 3.86041 52.4334 1.55751 50.471 0.381309C48.4837-0.714561 46.2922-0.0707423 45.0604 1.99053L36.6434 16.4869C35.5725 18.4242 36.0679 20.7519 38.0737 21.8663C40.0361 22.9991 42.3701 22.2563 43.4594 20.3375ZM63.2672 37.9928L71.6408 23.5647C72.8354 21.5591 72.2411 19.2128 70.2787 18.08C68.31 16.9841 66.0999 17.628 64.8682 19.6892L56.4945 34.1856C55.3803 36.1229 55.8942 38.4506 57.8814 39.565C59.8438 40.6978 62.1778 39.955 63.2672 37.9928ZM93.5981 20.2941L101.972 5.84108C103.123 3.86041 102.572 1.51414 100.61 0.337944C98.6224-0.757926 96.4308-0.114108 95.1991 1.94717L86.8255 16.4435C85.7112 18.3808 86.2066 20.7085 88.2124 21.8229C90.1747 22.9557 92.5087 22.2129 93.5981 20.2941ZM113.406 37.9928L121.779 23.5213C122.974 21.5157 122.38 19.2128 120.417 18.0366C118.449 16.9408 116.239 17.5846 115.007 19.6459L106.652 34.1422C105.519 36.0795 106.033 38.4072 108.02 39.5216C109.982 40.6544 112.316 39.9116 113.406 37.9928Z"/>
  </g>
  <g id="Medium-L" transform="matrix(1 0 0 1 1666.03 1556)">
   <path d="M41.192-11.1496L119.852-11.1496C140.609-11.1496 156.22-26.8773 156.22-46.4949C156.22-66.6649 139.828-81.6156 118.458-81.6156C110.682-97.051 96.462-107.376 77.3551-107.376C53.5014-107.376 34.0894-88.8096 31.8121-65.3549C20.191-61.9568 11.2588-52.0108 11.2588-38.5077C11.2588-23.3309 22.4259-11.1496 41.192-11.1496ZM41.2023-21.4171C28.2058-21.4171 21.5487-28.7893 21.5487-38.2759C21.5487-46.2993 26.4998-53.1316 37.1663-55.9492C40.5055-56.8005 41.6059-58.3237 41.9128-61.6679C43.6137-82.4563 59.0774-97.0863 77.3551-97.0863C91.8068-97.0863 103.09-89.0355 109.899-75.2052C111.325-72.2782 113.043-71.2636 116.58-71.2636C135.159-71.2636 145.93-60.0121 145.93-46.2551C145.93-32.4754 134.896-21.4171 120.151-21.4171ZM42.5167 19.3084L51.0138 4.61781C52.1049 2.72034 51.5738 0.59787 49.7477-0.50627C47.8966-1.51804 45.8492-0.93443 44.6896 0.994579L36.1451 15.7101C35.1463 17.5352 35.6219 19.6946 37.4955 20.7288C39.3216 21.7855 41.4955 21.111 42.5167 19.3084ZM62.304 36.9678L70.8011 22.3247C71.9397 20.4272 71.3612 18.2573 69.5351 17.2006C67.7064 16.1888 65.6365 16.7724 64.4769 18.7014L55.9798 33.417C54.9337 35.242 55.4317 37.4014 57.2828 38.4357C59.109 39.4924 61.2828 38.8178 62.304 36.9678ZM92.6513 19.2609L101.148 4.59283C102.239 2.72034 101.708 0.550427 99.8823-0.553713C98.0312-1.56548 95.9838-0.981874 94.8242 0.947136L86.3271 15.6627C85.2809 17.4877 85.7565 19.6471 87.6301 20.6814C89.4562 21.7381 91.6301 21.0635 92.6513 19.2609ZM112.439 36.9678L120.936 22.2772C122.074 20.3797 121.496 18.2573 119.67 17.1531C117.841 16.1414 115.771 16.725 114.612 18.654L106.137 33.3695C105.068 35.1946 105.566 37.354 107.417 38.3882C109.244 39.4449 111.417 38.7704 112.439 36.9678Z"/>
  </g>
  <g id="Regular-L" transform="matrix(1 0 0 1 1370.21 1556)">
   <path d="M40.3376-11.8599L118.818-11.8599C139.171-11.8599 154.446-27.2575 154.446-46.3822C154.446-66.1174 138.211-80.5802 117.129-80.5802C109.248-96.3251 94.8955-106.466 76.4364-106.466C52.9967-106.466 33.6836-87.8886 31.648-64.4865C20.1428-61.2722 11.2588-51.4988 11.2588-38.2321C11.2588-23.6688 21.9168-11.8599 40.3376-11.8599ZM40.2321-20.4257C26.7965-20.4257 19.8523-28.1792 19.8523-38.021C19.8523-46.2672 24.9319-53.445 35.7712-56.315C38.9123-57.1141 40.0028-58.5489 40.2415-61.6849C41.6589-82.446 57.6982-97.8721 76.4364-97.8721C91.4204-97.8721 102.938-89.5557 109.721-75.5575C111.053-72.7607 112.704-71.8033 116.059-71.8033C134.575-71.8033 145.852-60.2275 145.852-46.1686C145.852-31.9287 134.317-20.4257 119.265-20.4257ZM41.287 17.9661L49.9451 2.98978C50.9578 1.23329 50.4527-0.653829 48.8043-1.66398C47.1308-2.56606 45.2713-2.06098 44.2059-0.304492L35.495 14.697C34.5904 16.3756 35.0401 18.3155 36.7413 19.2452C38.3897 20.2026 40.3547 19.6171 41.287 17.9661ZM61.0477 35.6309L69.7058 20.7073C70.7713 18.9508 70.2135 17.0109 68.565 16.0535C66.9192 15.1514 65.0321 15.6565 63.9666 17.413L55.3085 32.4145C54.3511 34.0931 54.8285 36.033 56.5021 36.9627C58.1505 37.9201 60.1155 37.3346 61.0477 35.6309ZM91.4163 17.9134L100.074 2.96467C101.087 1.23329 100.582-0.706592 98.9336-1.71674C97.26-2.61882 95.4006-2.11374 94.3351-0.357256L85.677 14.6442C84.7196 16.3228 85.1694 18.2627 86.8706 19.1924C88.519 20.1498 90.484 19.5643 91.4163 17.9134ZM111.177 35.6309L119.835 20.6545C120.901 18.898 120.343 17.0109 118.694 16.0007C117.048 15.0987 115.161 15.6037 114.096 17.3602L105.465 32.3617C104.48 34.0403 104.958 35.9802 106.631 36.9099C108.28 37.8673 110.245 37.2818 111.177 35.6309Z"/>
  </g>
  <g id="Light-L" transform="matrix(1 0 0 1 1073.96 1556)">
   <path d="M39.5933-11.6881L118.455-11.6881C138.37-11.6881 153.53-26.7231 153.53-45.5042C153.53-64.7624 137.524-78.9389 116.766-78.9389C108.885-94.8937 94.8955-105.206 76.0738-105.206C52.9967-105.206 34.008-86.629 32.0106-63.2268C20.3909-60.0698 11.2588-50.5446 11.2588-37.3351C11.2588-23.2108 21.6687-11.6881 39.5933-11.6881ZM39.526-18.1737C25.3651-18.1737 17.7911-26.6715 17.7911-37.2004C17.7911-46.4199 23.7677-54.0557 34.8169-56.9639C37.4618-57.6485 38.3615-58.797 38.5429-61.3223C39.884-82.3696 56.7248-98.6737 76.0738-98.6737C92.2411-98.6737 104.16-89.613 110.962-75.5003C112.103-73.1042 113.506-72.3186 116.345-72.3186C134.709-72.3186 146.997-60.2466 146.997-45.3097C146.997-30.3447 134.66-18.1737 118.711-18.1737ZM39.5884 18.5196L48.8381 2.53173C49.7172 1.06152 49.3076-0.462976 47.9645-1.28228C46.6346-1.97441 45.1568-1.56476 44.244-0.0945544L34.9606 15.8803C34.2087 17.3298 34.5248 18.888 35.9016 19.6269C37.2446 20.4125 38.7897 19.9225 39.5884 18.5196ZM59.4446 36.1652L68.6943 20.2111C69.6071 18.7408 69.1638 17.1827 67.8207 16.397C66.5375 15.7049 65.013 16.1146 64.1002 17.5848L54.8505 33.5596C54.0648 35.0092 54.4277 36.5673 55.7577 37.3062C57.1008 38.0918 58.6459 37.6018 59.4446 36.1652ZM89.7368 18.4859L98.9865 2.5448C99.8656 1.06152 99.4559-0.496654 98.1129-1.31595C96.7829-2.00809 95.3052-1.59844 94.3924-0.128232L85.1426 15.8466C84.357 17.2962 84.6732 18.8543 86.0499 19.5932C87.393 20.3788 88.9381 19.8888 89.7368 18.4859ZM109.593 36.1652L118.843 20.1774C119.755 18.7072 119.312 17.1827 117.969 16.3634C116.686 15.6712 115.161 16.0809 114.249 17.5511L105.046 33.5259C104.213 34.9755 104.576 36.5337 105.906 37.2725C107.249 38.0582 108.794 37.5681 109.593 36.1652Z"/>
  </g>
  <g id="Thin-L" transform="matrix(1 0 0 1 777.851 1556)">
   <path d="M38.6089-11.4609L117.975-11.4609C137.309-11.4609 152.318-26.0164 152.318-44.3431C152.318-62.9702 136.615-76.7681 116.287-76.7681C108.406-93.0006 94.8955-103.54 75.5942-103.54C52.9967-103.54 34.4372-84.9631 32.4902-61.5609C20.7191-58.4796 11.2588-49.2825 11.2588-36.1487C11.2588-22.605 21.3405-11.4609 38.6089-11.4609ZM38.592-15.1951C23.472-15.1951 15.065-24.6774 15.065-36.115C15.065-46.6218 22.228-54.8635 33.5548-57.8221C35.5434-58.3553 36.1907-59.1252 36.2964-60.8427C37.5365-82.2687 55.4375-99.7338 75.5942-99.7338C93.3265-99.7338 105.775-89.6887 112.602-75.4246C113.491-73.5586 114.566-73.0001 116.724-73.0001C134.886-73.0001 148.512-60.2719 148.512-44.1738C148.512-28.2496 135.114-15.1951 117.979-15.1951ZM37.3419 19.2516L47.3741 1.92593C48.0765 0.834348 47.7931-0.210558 46.8539-0.777439C45.9783-1.19192 45.0054-0.908476 44.2945 0.183106L34.2538 17.4452C33.7038 18.5919 33.8433 19.6453 34.7909 20.1317C35.7301 20.6902 36.7199 20.3263 37.3419 19.2516ZM57.3243 36.872L67.3565 19.5548C68.0673 18.4632 67.7755 17.4098 66.8363 16.8514C66.0326 16.4369 64.9877 16.7204 64.2769 17.8119L54.2447 35.0741C53.6862 36.2208 53.8977 37.2741 54.7733 37.7606C55.7125 38.319 56.7023 37.9552 57.3243 36.872ZM87.5155 19.2432L97.5477 1.98948C98.2501 0.834348 97.9667-0.218994 97.0275-0.785875C96.1519-1.20035 95.1789-0.916912 94.4681 0.174669L84.4359 17.4368C83.8774 18.5835 84.0169 19.6368 84.9645 20.1233C85.9037 20.6817 86.8935 20.3179 87.5155 19.2432ZM107.498 36.872L117.53 19.5463C118.241 18.4547 117.949 17.4098 117.01 16.843C116.206 16.4285 115.161 16.7119 114.45 17.8035L104.49 35.0656C103.86 36.2123 104.071 37.2657 104.947 37.7521C105.886 38.3106 106.876 37.9467 107.498 36.872Z"/>
  </g>
  <g id="Ultralight-L" transform="matrix(1 0 0 1 481.45 1556)">
   <path d="M38.1047-11.3446L117.73-11.3446C136.766-11.3446 151.698-25.6544 151.698-43.7484C151.698-62.0522 136.15-75.6562 116.041-75.6562C108.16-92.0309 94.8955-102.687 75.3485-102.687C52.9967-102.687 34.6569-84.1098 32.7358-60.7076C20.8872-57.6651 11.2588-48.636 11.2588-35.5411C11.2588-22.2947 21.1725-11.3446 38.1047-11.3446ZM38.1137-13.6696C22.5023-13.6696 13.6687-23.656 13.6687-35.559C13.6687-46.7253 21.4393-55.2772 32.9084-58.2617C34.5608-58.7173 35.0788-59.2932 35.1458-60.597C36.3341-82.217 54.7781-100.277 75.3485-100.277C93.8824-100.277 106.603-89.7275 113.443-75.3858C114.202-73.7913 115.109-73.3492 116.918-73.3492C134.976-73.3492 149.288-60.2848 149.288-43.592C149.288-27.1765 135.347-13.6696 117.604-13.6696ZM36.1912 19.6265L46.6242 1.61564C47.2362 0.71799 47.0174-0.0812705 46.285-0.518864C45.6421-0.791126 44.9278-0.572329 44.3204 0.325322L33.8918 18.2468C33.4453 19.2384 33.4942 20.0331 34.2221 20.3903C34.9544 20.8324 35.6597 20.5332 36.1912 19.6265ZM56.2382 37.234L66.6713 19.2186C67.2787 18.321 67.0644 17.5262 66.3321 17.0841C65.7741 16.8119 64.9748 17.0306 64.3674 17.9283L53.9344 35.8498C53.4923 36.8414 53.6262 37.6361 54.2691 37.9933C55.0014 38.4354 55.7068 38.1362 56.2382 37.234ZM86.3777 19.631L96.8108 1.70505C97.4227 0.71799 97.2039-0.0767779 96.4716-0.514372C95.8287-0.786633 95.1143-0.567836 94.5069 0.329814L84.0739 18.2513C83.6318 19.2429 83.6808 20.0376 84.4086 20.3948C85.1409 20.8369 85.8463 20.5377 86.3777 19.631ZM106.425 37.234L116.858 19.2231C117.465 18.3255 117.251 17.5262 116.519 17.0886C115.961 16.8163 115.161 17.0351 114.554 17.9328L104.206 35.8543C103.679 36.8458 103.813 37.6406 104.456 37.9978C105.188 38.4399 105.893 38.1407 106.425 37.234Z"/>
  </g>
  <g id="Black-M" transform="matrix(1 0 0 1 2867.04 1126)">
   <path d="M35.6379-13.2085L97.5471-13.2085C115.357-13.2085 128.977-26.8063 128.977-44.1834C128.977-61.6717 115.625-75.4291 97.8374-75.4291C92.3025-86.0181 82.0269-94.9352 64.0845-94.9352C43.7994-94.9352 28.4106-80.5999 25.5339-62.1838C15.9513-58.7149 8.72266-50.2898 8.72266-38.7474C8.72266-24.2818 19.6601-13.2085 35.6379-13.2085ZM36.1979-28.3776C27.927-28.3776 23.8915-32.5673 23.8915-38.497C23.8915-44.0069 27.4346-47.8477 34.9653-49.7995C38.3059-50.663 39.1395-52.1574 39.6751-55.51C42.2874-71.8398 51.8606-79.7663 64.0845-79.7663C73.2053-79.7663 80.9876-74.5125 86.3922-64.5401C87.8695-61.8031 89.4308-60.8089 92.8444-60.8089C107.478-60.8089 113.808-53.4329 113.808-43.882C113.808-35.1022 107.324-28.3776 97.0259-28.3776ZM38.087 13.4615L44.1218 3.0664C45.2867 1.03735 44.7868-1.57943 42.6485-2.80752C40.5044-4.03068 38.1729-3.24535 36.8882-1.04501L30.848 9.35586C29.688 11.3736 30.1313 13.9388 32.2751 15.1617C34.4134 16.3843 36.9272 15.4796 38.087 13.4615ZM53.5734 27.1117L59.6082 16.7221C60.7786 14.6931 60.2733 12.0708 58.1349 10.8482C55.9906 9.62503 53.6593 10.4104 52.3746 12.6107L46.3399 23.0116C45.1744 25.0293 45.6174 27.5945 47.7615 28.8174C49.8998 30.04 52.4137 29.1353 53.5734 27.1117ZM76.9596 13.456L82.9944 3.06062C84.1593 1.03735 83.6595-1.58492 81.5212-2.81301C79.3771-4.03617 77.0455-3.25084 75.7609-1.0505L69.7261 9.35036C68.5606 11.3681 69.0039 13.9333 71.1477 15.1562C73.286 16.3788 75.7999 15.4741 76.9596 13.456ZM92.446 27.1117L98.4808 16.7166C99.6512 14.6876 99.1459 12.0708 97.0076 10.8427C94.8632 9.61954 92.5319 10.4049 91.2473 12.6052L85.2122 23.0061C84.047 25.0239 84.49 27.589 86.6341 28.8119C88.7724 30.0345 91.2863 29.1298 92.446 27.1117Z"/>
  </g>
  <g id="Heavy-M" transform="matrix(1 0 0 1 2571.37 1126)">
   <path d="M34.7028-14.1557L96.2993-14.1557C113.686-14.1557 126.9-27.4085 126.9-44.2275C126.9-61.2611 113.7-74.4546 96.2123-74.4546C90.5426-85.3952 80.0192-94.0388 62.9849-94.0388C43.1526-94.0388 27.8207-79.69 25.2457-61.3413C15.8364-58.0956 8.72266-49.8386 8.72266-38.5868C8.72266-24.8133 19.0609-14.1557 34.7028-14.1557ZM35.1062-27.5908C26.4281-27.5908 22.1601-32.1092 22.1601-38.3467C22.1601-43.933 25.6751-48.1182 33.3822-50.1289C36.5754-50.9502 37.4374-52.3927 37.8979-55.6097C40.1631-71.8431 50.3019-80.6014 62.9849-80.6014C72.5337-80.6014 80.5314-75.167 85.8981-65.004C87.296-62.3477 88.824-61.39 92.1147-61.39C106.701-61.39 113.463-53.7049 113.463-43.9556C113.463-34.7418 106.508-27.5908 96.0085-27.5908ZM36.8758 11.6222L42.9898 1.07814C44.0829-0.831705 43.5959-3.22472 41.6197-4.37335C39.6295-5.50102 37.4568-4.79584 36.26-2.75512L30.1296 7.80309C29.0574 9.68239 29.4963 12.0482 31.4888 13.1781C33.465 14.3104 35.8013 13.4993 36.8758 11.6222ZM52.3076 25.2834L58.4216 14.7557C59.5312 12.8458 59.0277 10.4364 57.0516 9.3042C55.0636 8.17653 52.8887 8.88171 51.6919 10.9224L45.5778 21.4806C44.4892 23.3599 44.9304 25.7257 46.9207 26.8557C48.8968 27.9879 51.2331 27.1768 52.3076 25.2834ZM75.7375 11.6058L81.8515 1.06401C82.9447-0.831705 82.4576-3.24113 80.4815-4.38976C78.4912-5.51742 76.3185-4.81225 75.1218-2.77153L69.0077 7.78668C67.9191 9.66598 68.358 12.0318 70.3506 13.1617C72.3267 14.2939 74.663 13.4828 75.7375 11.6058ZM91.1693 25.2834L97.2833 14.7393C98.3929 12.8294 97.8894 10.4364 95.9133 9.28779C93.9253 8.16012 91.7504 8.8653 90.5536 10.906L84.4418 21.4642C83.3509 23.3435 83.7921 25.7093 85.7824 26.8393C87.7585 27.9715 90.0948 27.1604 91.1693 25.2834Z"/>
  </g>
  <g id="Bold-M" transform="matrix(1 0 0 1 2275.82 1126)">
   <path d="M33.6567-15.2152L94.9034-15.2152C111.818-15.2152 124.577-28.0821 124.577-44.2768C124.577-60.8018 111.547-73.3645 94.3943-73.3645C88.574-84.6983 77.7732-93.0361 61.7548-93.0361C42.4291-93.0361 27.1609-78.6722 24.9232-60.3988C15.7077-57.403 8.72266-49.3338 8.72266-38.4071C8.72266-25.4079 18.3907-15.2152 33.6567-15.2152ZM33.8849-26.7107C24.7515-26.7107 20.2233-31.5969 20.2233-38.1785C20.2233-43.8504 23.7069-48.4208 31.6113-50.4975C34.6397-51.2715 35.5333-52.656 35.9099-55.7211C37.7869-71.8467 48.5582-81.5355 61.7548-81.5355C71.7824-81.5355 80.0211-75.8991 85.3455-65.523C86.6544-62.9569 88.1453-62.04 91.2984-62.04C105.831-62.04 113.077-54.0093 113.077-44.0379C113.077-34.3386 105.594-26.7107 94.8704-26.7107ZM35.5208 9.56474L41.7236-1.146C42.7364-2.92251 42.2636-5.06523 40.4689-6.12496C38.6507-7.14579 36.6558-6.53029 35.5573-4.66814L29.326 6.06609C28.352 7.79049 28.786 9.93328 30.6093 10.9593C32.404 11.9904 34.5418 11.284 35.5208 9.56474ZM50.8916 23.2381L57.0943 12.556C58.1358 10.7795 57.6344 8.60812 55.8397 7.57701C54.0266 6.55618 52.0266 7.17169 50.9281 9.03384L44.7254 19.7681C43.7228 21.4925 44.1619 23.6353 45.9801 24.6612C47.7748 25.6923 49.9125 24.986 50.8916 23.2381ZM74.3703 9.53612L80.5731-1.16949C81.5859-2.92251 81.1131-5.09385 79.3184-6.15358C77.5002-7.17442 75.5054-6.55891 74.4068-4.69676L68.2041 6.03747C67.2015 7.76187 67.6355 9.90466 69.4588 10.9306C71.2535 11.9617 73.3913 11.2554 74.3703 9.53612ZM89.7411 23.2381L95.9438 12.5273C96.9853 10.7508 96.4839 8.60812 94.6892 7.54839C92.8761 6.52755 90.8761 7.14306 89.7776 9.00521L83.58 19.7394C82.5723 21.4638 83.0114 23.6066 84.8296 24.6326C86.6243 25.6637 88.762 24.9573 89.7411 23.2381Z"/>
  </g>
  <g id="Semibold-M" transform="matrix(1 0 0 1 1979.91 1126)">
   <path d="M32.9355-15.9457L93.9411-15.9457C110.529-15.9457 122.976-28.5464 122.976-44.3108C122.976-60.4851 110.063-72.613 93.1411-72.613C87.2168-84.2179 76.2249-92.3448 60.9068-92.3448C41.9303-92.3448 26.706-77.9706 24.7008-59.7491C15.6191-56.9254 8.72266-48.9858 8.72266-38.2833C8.72266-25.8178 17.9286-15.9457 32.9355-15.9457ZM33.043-26.1039C23.5956-26.1039 18.888-31.2437 18.888-38.0625C18.888-43.7934 22.35-48.6293 30.3904-50.7516C33.3052-51.4929 34.2207-52.8375 34.5394-55.798C36.1487-71.8492 47.3562-82.1794 60.9068-82.1794C71.2645-82.1794 79.6693-76.4038 84.9644-65.8808C86.2121-63.3769 87.6773-62.4881 90.7357-62.4881C105.232-62.4881 112.81-54.2191 112.81-44.0947C112.81-34.0606 104.965-26.1039 94.0858-26.1039ZM34.5868 8.14632L40.8506-2.67932C41.8081-4.36389 41.3452-6.33406 39.6755-7.33251C37.9759-8.27969 36.1037-7.726 35.0728-5.98695L28.772 4.86862C27.8658 6.48622 28.2963 8.47527 30.003 9.42957C31.6726 10.391 33.6735 9.75682 34.5868 8.14632ZM49.9154 21.8281L56.1793 11.0395C57.1738 9.35492 56.6738 7.34771 55.0042 6.38631C53.3117 5.43912 51.4323 5.99281 50.4015 7.73186L44.1377 18.5874C43.1944 20.205 43.6321 22.1941 45.3316 23.1484C47.0013 24.1098 49.0021 23.4756 49.9154 21.8281ZM73.4279 8.10928L79.6917-2.70925C80.6491-4.36389 80.1862-6.3711 78.5166-7.36955C76.817-8.31674 74.9447-7.76305 73.9139-6.024L67.6501 4.83158C66.7069 6.44918 67.1374 8.43823 68.8441 9.39253C70.5137 10.3539 72.5145 9.71978 73.4279 8.10928ZM88.7565 21.8281L95.0203 11.0025C96.0148 9.31787 95.5149 7.34771 93.8453 6.34926C92.1528 5.40207 90.2734 5.95577 89.2426 7.69481L82.9859 18.5504C82.0355 20.168 82.4732 22.157 84.1727 23.1113C85.8424 24.0727 87.8432 23.4386 88.7565 21.8281Z"/>
  </g>
  <g id="Medium-M" transform="matrix(1 0 0 1 1683.81 1126)">
   <path d="M32.3887-16.4995L93.2114-16.4995C109.553-16.4995 121.762-28.8985 121.762-44.3366C121.762-60.245 108.938-72.0432 92.1908-72.0432C86.1877-83.8536 75.0509-91.8206 60.2638-91.8206C41.5521-91.8206 26.3611-77.4385 24.5323-59.2565C15.5518-56.5633 8.72266-48.722 8.72266-38.1894C8.72266-26.1286 17.5782-16.4995 32.3887-16.4995ZM32.4046-25.6438C22.7192-25.6438 17.8756-30.9759 17.8756-37.9746C17.8756-43.7502 21.3212-48.7875 29.4647-50.9443C32.2933-51.6609 33.2254-52.9751 33.5002-55.8562C34.9065-71.8511 46.4447-82.6677 60.2638-82.6677C70.8718-82.6677 79.4025-76.7865 84.6755-66.1521C85.8767-63.6954 87.3225-62.8279 90.309-62.8279C104.778-62.8279 112.609-54.3782 112.609-44.1377C112.609-33.8499 104.488-25.6438 93.4909-25.6438ZM33.8785 7.07082L40.1887-3.84194C41.1042-5.45681 40.6487-7.29614 39.0739-8.24812C37.4643-9.13947 35.685-8.63265 34.7055-6.98694L28.3519 3.96065C27.4971 5.49727 27.925 7.36975 29.5432 8.2697C31.118 9.17825 33.0151 8.59884 33.8785 7.07082ZM49.1753 20.759L55.4854 9.88964C56.4443 8.27477 55.9455 6.39201 54.3707 5.48346C52.7696 4.59211 50.9817 5.09893 50.0022 6.74464L43.6921 17.6922C42.7938 19.2289 43.2303 21.1013 44.84 22.0013C46.4148 22.9098 48.3118 22.3304 49.1753 20.759ZM72.7132 7.02739L79.0234-3.87676C79.9389-5.45681 79.4834-7.33957 77.9086-8.29155C76.299-9.18289 74.5197-8.67607 73.5402-7.03036L67.23 3.91722C66.3318 5.45385 66.7597 7.32632 68.3779 8.22627C69.9527 9.13482 71.8498 8.55542 72.7132 7.02739ZM88.0099 20.759L94.3201 9.84622C95.279 8.23134 94.7802 6.39201 93.2054 5.44003C91.6043 4.54869 89.8164 5.05551 88.8369 6.70122L82.5354 17.6488C81.6285 19.1854 82.065 21.0579 83.6747 21.9579C85.2495 22.8664 87.1465 22.287 88.0099 20.759Z"/>
  </g>
  <g id="Regular-M" transform="matrix(1 0 0 1 1387.89 1126)">
   <path d="M31.6754-17.2219L92.2597-17.2219C108.279-17.2219 120.178-29.3578 120.178-44.3702C120.178-59.9318 107.47-71.2999 90.9513-71.2999C84.8454-83.3785 73.5195-91.1369 59.4251-91.1369C41.0588-91.1369 25.9112-76.7445 24.3124-58.6139C15.4641-56.091 8.72266-48.3778 8.72266-38.0669C8.72266-26.534 17.1212-17.2219 31.6754-17.2219ZM31.5719-25.0437C21.5761-25.0437 16.555-30.6265 16.555-37.8599C16.555-43.6939 19.9792-48.9938 28.2572-51.1956C30.9735-51.8799 31.9272-53.1546 32.1447-55.9322C33.2863-71.8536 45.2558-83.3046 59.4251-83.3046C70.3596-83.3046 79.0546-77.2857 84.2987-66.5059C85.4393-64.1107 86.8597-63.2711 89.7524-63.2711C104.185-63.2711 112.345-54.5856 112.345-44.1939C112.345-33.5749 103.865-25.0437 92.7149-25.0437ZM32.9547 5.66799L39.3253-5.3584C40.1861-6.88236 39.7404-8.55103 38.2893-9.4424C36.797-10.2609 35.1388-9.81522 34.2264-8.29126L27.804 2.77633C27.0161 4.20734 27.4407 5.92776 28.9436 6.75682C30.3947 7.59643 32.1563 7.08845 32.9547 5.66799ZM48.2098 19.3645L54.5804 8.38983C55.4929 6.86587 54.9955 5.14545 53.5444 4.30584C52.0626 3.48733 50.3939 3.93301 49.4815 5.45697L43.1108 16.5246C42.2712 17.9556 42.7064 19.676 44.1987 20.5051C45.6498 21.3447 47.4114 20.8367 48.2098 19.3645ZM71.7811 5.61624L78.1517-5.3996C79.0124-6.88236 78.5667-8.60279 77.1156-9.49415C75.6233-10.3127 73.9652-9.86698 73.0527-8.34302L66.6821 2.72458C65.8425 4.15558 66.2671 5.87601 67.7699 6.70507C69.221 7.54468 70.9827 7.03669 71.7811 5.61624ZM87.0362 19.3645L93.4068 8.33808C94.3193 6.81412 93.8218 5.14545 92.3707 4.25408C90.889 3.43557 89.2203 3.88126 88.3078 5.40522L81.9478 16.4728C81.0976 17.9038 81.5327 19.6242 83.025 20.4533C84.4761 21.2929 86.2378 20.7849 87.0362 19.3645Z"/>
  </g>
  <g id="Light-M" transform="matrix(1 0 0 1 1091.59 1126)">
   <path d="M31.0081-17.0679L91.9346-17.0679C107.56-17.0679 119.356-28.8787 119.356-43.5831C119.356-58.717 106.854-69.8284 90.6262-69.8284C84.5203-82.0952 73.5195-90.0076 59.1-90.0076C41.0588-90.0076 26.2021-75.6152 24.6375-57.4846C15.6866-55.0131 8.72266-47.5223 8.72266-37.2627C8.72266-26.1233 16.8988-17.0679 31.0081-17.0679ZM30.9388-23.0247C20.2927-23.0247 14.707-29.2748 14.707-37.1241C14.707-43.8308 18.9355-49.5413 27.4017-51.7773C29.6731-52.359 30.4556-53.3771 30.6219-55.6071C31.695-71.7852 44.3832-84.0232 59.1-84.0232C71.0953-84.0232 80.1497-77.337 85.4109-66.4546C86.3804-64.4187 87.5784-63.7331 90.0091-63.7331C104.305-63.7331 113.372-54.6028 113.372-43.4239C113.372-32.1547 104.173-23.0247 92.2187-23.0247ZM31.4318 6.16421L38.3329-5.76906C39.0738-7.03636 38.7137-8.37992 37.5364-9.10018C36.3521-9.73047 35.0362-9.37034 34.2606-8.10304L27.3249 3.83721C26.6739 5.06288 26.9787 6.44109 28.1907 7.09904C29.368 7.78465 30.7532 7.36222 31.4318 6.16421ZM46.7725 19.8436L53.6736 7.94495C54.4491 6.67765 54.0544 5.29945 52.877 4.61383C51.7204 3.98354 50.3768 4.34367 49.6013 5.61097L42.7002 17.5512C42.0146 18.7769 42.347 20.1551 43.5313 20.8131C44.7087 21.4987 46.0939 21.0762 46.7725 19.8436ZM70.2753 6.12957L77.1764-5.77604C77.9173-7.03636 77.5572-8.41457 76.3799-9.13482C75.1956-9.76511 73.8797-9.40498 73.1041-8.13769L66.203 3.80257C65.5174 5.02824 65.8222 6.40645 67.0342 7.0644C68.2115 7.75001 69.5967 7.32758 70.2753 6.12957ZM85.616 19.8436L92.517 7.91031C93.2926 6.64301 92.8979 5.29945 91.7205 4.57919C90.5639 3.9489 89.2203 4.30903 88.4447 5.57633L81.5713 17.5166C80.858 18.7423 81.1905 20.1205 82.3748 20.7784C83.5522 21.464 84.9373 21.0416 85.616 19.8436Z"/>
  </g>
  <g id="Thin-M" transform="matrix(1 0 0 1 795.418 1126)">
   <path d="M30.1255-16.8643L91.5046-16.8643C106.609-16.8643 118.27-28.245 118.27-42.5421C118.27-57.1102 106.039-67.8822 90.1962-67.8822C84.0903-80.3979 73.5195-88.514 58.67-88.514C41.0588-88.514 26.5868-74.1216 25.0675-55.9909C15.9808-53.5873 8.72266-46.3907 8.72266-36.199C8.72266-25.5802 16.6046-16.8643 30.1255-16.8643ZM30.1015-20.3542C18.5954-20.3542 12.2629-27.4869 12.2629-36.151C12.2629-44.0118 17.555-50.2655 26.2701-52.5468C27.9532-52.9927 28.5094-53.6713 28.6078-55.1772C29.5904-71.6946 43.229-84.9737 58.67-84.9737C72.0684-84.9737 81.598-77.4049 86.8819-66.3867C87.6251-64.8261 88.5289-64.3441 90.3485-64.3441C104.463-64.3441 114.73-54.6254 114.73-42.4055C114.73-30.2764 104.58-20.3542 91.5624-20.3542ZM29.4177 6.8205L37.0203-6.3122C37.6029-7.24004 37.3559-8.15362 36.5406-8.64757C35.7637-9.02892 34.9004-8.78194 34.3059-7.85411L26.6912 5.24031C26.2213 6.19441 26.3677 7.12001 27.1949 7.55165C28.0102 8.03359 28.8975 7.72431 29.4177 6.8205ZM44.8715 20.4772L52.4741 7.35655C53.0687 6.42872 52.8097 5.50312 51.9944 5.02118C51.2678 4.63983 50.3542 4.88681 49.7597 5.81464L42.157 18.9091C41.6751 19.8632 41.8718 20.7888 42.6487 21.2204C43.464 21.7023 44.3513 21.3931 44.8715 20.4772ZM68.2838 6.80848L75.8864-6.27392C76.469-7.24004 76.222-8.16563 75.4068-8.65958C74.6298-9.04093 73.7665-8.79396 73.172-7.86612L65.5693 5.2283C65.0874 6.1824 65.2338 7.108 66.0611 7.53964C66.8763 8.02158 67.7636 7.7123 68.2838 6.80848ZM83.7376 20.4772L91.3403 7.34454C91.9348 6.4167 91.6758 5.50312 90.8606 5.00917C90.1339 4.62782 89.2203 4.87479 88.6258 5.80263L81.0734 18.897C80.5412 19.8512 80.7379 20.7767 81.5149 21.2084C82.3301 21.6903 83.2174 21.381 83.7376 20.4772Z"/>
  </g>
  <g id="Ultralight-M" transform="matrix(1 0 0 1 498.985 1126)">
   <path d="M29.6734-16.7599L91.2844-16.7599C106.123-16.7599 117.714-27.9205 117.714-42.0089C117.714-56.2872 105.622-66.8853 89.976-66.8853C83.8701-79.5285 73.5195-87.749 58.4498-87.749C41.0588-87.749 26.7839-73.3566 25.2877-55.2259C16.1314-52.8571 8.72266-45.8112 8.72266-35.6543C8.72266-25.302 16.4539-16.7599 29.6734-16.7599ZM29.6726-18.9865C17.7261-18.9865 11.0111-26.5712 11.0111-35.6526C11.0111-44.1045 16.8479-50.6364 25.6906-52.9409C27.0722-53.3172 27.5126-53.822 27.5761-54.9569C28.5124-71.6483 42.6379-85.4605 58.4498-85.4605C72.5669-85.4605 82.3399-77.4397 87.6353-66.3519C88.2626-65.0347 89.0157-64.6571 90.5224-64.6571C104.544-64.6571 115.425-54.637 115.425-41.8839C115.425-29.3143 104.789-18.9865 91.2263-18.9865ZM28.3861 7.15664L36.348-6.59039C36.8494-7.34436 36.6604-8.0377 36.0306-8.41574C35.4623-8.66959 34.8308-8.48057 34.329-7.7266L26.3667 5.95897C25.9895 6.77398 26.0547 7.46775 26.6849 7.78348C27.3147 8.16109 27.947 7.90977 28.3861 7.15664ZM43.8979 20.8018L51.8598 7.05518C52.3616 6.30121 52.1722 5.60744 51.5424 5.22983C51.036 4.97598 50.3426 5.165 49.8408 5.91897L41.8789 19.6045C41.5012 20.4195 41.6284 21.1133 42.1967 21.429C42.8265 21.8067 43.4588 21.5553 43.8979 20.8018ZM67.2638 7.15622L75.2257-6.52893C75.7271-7.34436 75.5381-8.03813 74.9083-8.41616C74.34-8.67001 73.7085-8.48099 73.2067-7.72702L65.2448 5.95855C64.8672 6.77356 64.9324 7.46733 65.5626 7.78306C66.1924 8.16067 66.8247 7.90935 67.2638 7.15622ZM82.7756 20.8018L90.7375 7.05476C91.2393 6.30079 91.0499 5.60744 90.4201 5.22941C89.9137 4.97556 89.2203 5.16458 88.7185 5.91855L80.8184 19.6041C80.3789 20.4191 80.5061 21.1129 81.0744 21.4286C81.7042 21.8062 82.3365 21.5549 82.7756 20.8018Z"/>
  </g>
  <g id="Black-S" transform="matrix(1 0 0 1 2881.11 696)">
   <path d="M28.1738-17.6758L76.8066-17.6758C90.8691-17.6758 101.66-28.418 101.66-42.1875C101.66-56.0059 91.1621-66.9434 77.1484-66.9434C72.8516-75.1465 64.8926-82.2266 50.5371-82.2266C34.5215-82.2266 22.4609-70.9961 20.1172-56.543C12.5488-53.7598 6.83594-47.1191 6.83594-37.9883C6.83594-26.4648 15.5762-17.6758 28.1738-17.6758ZM28.6621-29.9805C22.2656-29.9805 19.1406-33.2031 19.1406-37.793C19.1406-42.1387 21.9727-45.0684 27.832-46.582C30.4688-47.2656 31.1035-48.4375 31.543-51.0742C33.6914-63.916 41.0645-69.9219 50.5371-69.9219C57.6172-69.9219 63.6719-65.8203 67.9199-58.0566C69.0918-55.9082 70.3125-55.127 72.998-55.127C84.4727-55.127 89.3555-49.4141 89.3555-41.9434C89.3555-35.1562 84.375-29.9805 76.3184-29.9805ZM30.127 3.51562L34.8633-4.63867C35.791-6.25 35.4004-8.34961 33.6914-9.32617C31.9824-10.3027 30.127-9.66797 29.1016-7.91016L24.3652 0.244141C23.4375 1.85547 23.7793 3.90625 25.4883 4.88281C27.1973 5.85938 29.1992 5.12695 30.127 3.51562ZM42.2852 14.209L47.0215 6.05469C47.9492 4.44336 47.5586 2.34375 45.8496 1.36719C44.1406 0.390625 42.2852 1.02539 41.2598 2.7832L36.5234 10.9375C35.5957 12.5488 35.9375 14.5996 37.6465 15.5762C39.3555 16.5527 41.3574 15.8203 42.2852 14.209ZM60.5957 3.51562L65.332-4.63867C66.2598-6.25 65.8691-8.34961 64.1602-9.32617C62.4512-10.3027 60.5957-9.66797 59.5703-7.91016L54.834 0.244141C53.9062 1.85547 54.248 3.90625 55.957 4.88281C57.666 5.85938 59.668 5.12695 60.5957 3.51562ZM72.7539 14.209L77.4902 6.05469C78.418 4.44336 78.0273 2.34375 76.3184 1.36719C74.6094 0.390625 72.7539 1.02539 71.7285 2.7832L66.9922 10.9375C66.0645 12.5488 66.4062 14.5996 68.1152 15.5762C69.8242 16.5527 71.8262 15.8203 72.7539 14.209Z"/>
  </g>
  <g id="Heavy-S" transform="matrix(1 0 0 1 2585.23 696)">
   <path d="M27.4593-18.5055L75.781-18.5055C89.5323-18.5055 99.9891-28.9942 99.9891-42.3258C99.9891-55.8099 89.5948-66.298 75.8001-66.298C71.388-74.7777 63.1754-81.6042 49.6382-81.6042C33.9683-81.6042 21.9193-70.3622 19.8291-55.9667C12.4221-53.3679 6.83594-46.8426 6.83594-37.9537C6.83594-26.9719 15.0921-18.5055 27.4593-18.5055ZM27.8093-29.5656C21.1478-29.5656 17.896-32.9842 17.896-37.7584C17.896-42.058 20.6012-45.2297 26.5874-46.7895C29.155-47.45 29.8358-48.6104 30.2177-51.201C32.078-63.9275 39.8429-70.5442 49.6382-70.5442C56.9488-70.5442 63.1417-66.3735 67.3552-58.46C68.481-56.3346 69.7017-55.5649 72.3412-55.5649C83.7927-55.5649 88.9291-49.6446 88.9291-42.1047C88.9291-35.0295 83.6374-29.5656 75.5116-29.5656ZM29.2857 1.87915L34.022-6.28667C34.9036-7.82885 34.513-9.77864 32.9077-10.7091C31.291-11.628 29.5277-11.0509 28.5599-9.39681L23.8121-1.21947C22.9419 0.299666 23.2953 2.22368 24.9121 3.14262C26.5173 4.06156 28.4156 3.39828 29.2857 1.87915ZM41.3862 12.584L46.1226 4.42974C47.0157 2.88756 46.6136 0.926241 45.0083 0.00730058C43.3915-0.91164 41.6283-0.334496 40.6605 1.3196L35.9242 9.49694C35.0425 11.0161 35.3959 12.9401 37.0126 13.859C38.6179 14.778 40.5161 14.1147 41.3862 12.584ZM59.7429 1.86763L64.4792-6.29819C65.3609-7.82885 64.9702-9.79017 63.365-10.7206C61.7482-11.6396 59.9849-11.0624 59.0171-9.40834L54.2808-1.23099C53.3992 0.288141 53.7525 2.21215 55.3693 3.13109C56.9745 4.05003 58.8728 3.38676 59.7429 1.86763ZM71.8435 12.584L76.5798 4.41821C77.473 2.87603 77.0708 0.926241 75.4655-0.00422389C73.8488-0.923164 72.0855-0.346021 71.1177 1.30807L66.3814 9.48542C65.4998 11.0045 65.8531 12.9286 67.4699 13.8475C69.0751 14.7664 70.9734 14.1032 71.8435 12.584Z"/>
  </g>
  <g id="Bold-S" transform="matrix(1 0 0 1 2289.45 696)">
   <path d="M26.6602-19.4336L74.6338-19.4336C88.0371-19.4336 98.1201-29.6387 98.1201-42.4805C98.1201-55.5908 87.8418-65.5762 74.292-65.5762C69.751-74.3652 61.2549-80.9082 48.6328-80.9082C33.3496-80.9082 21.3135-69.6533 19.5068-55.3223C12.2803-52.9297 6.83594-46.5332 6.83594-37.915C6.83594-27.5391 14.5508-19.4336 26.6602-19.4336ZM26.8555-29.1016C19.8975-29.1016 16.5039-32.7393 16.5039-37.7197C16.5039-41.9678 19.0674-45.4102 25.1953-47.0215C27.6855-47.6562 28.418-48.8037 28.7354-51.3428C30.2734-63.9404 38.4766-71.2402 48.6328-71.2402C56.2012-71.2402 62.5488-66.9922 66.7236-58.9111C67.7979-56.8115 69.0186-56.0547 71.6064-56.0547C83.0322-56.0547 88.4521-49.9023 88.4521-42.2852C88.4521-34.8877 82.8125-29.1016 74.6094-29.1016ZM28.3447 0.0488281L33.0811-8.12988C33.9111-9.59473 33.5205-11.377 32.0312-12.2559C30.5176-13.1104 28.8574-12.5977 27.9541-11.0596L23.1934-2.85645C22.3877-1.44043 22.7539 0.341797 24.2676 1.19629C25.7568 2.05078 27.5391 1.46484 28.3447 0.0488281ZM40.3809 10.7666L45.1172 2.6123C45.9717 1.14746 45.5566-0.65918 44.0674-1.51367C42.5537-2.36816 40.8936-1.85547 39.9902-0.317383L35.2539 7.88574C34.4238 9.30176 34.79 11.084 36.3037 11.9385C37.793 12.793 39.5752 12.207 40.3809 10.7666ZM58.7891 0.0244141L63.5254-8.1543C64.3555-9.59473 63.9648-11.4014 62.4756-12.2803C60.9619-13.1348 59.3018-12.6221 58.3984-11.084L53.6621-2.88086C52.832-1.46484 53.1982 0.317383 54.7119 1.17188C56.2012 2.02637 57.9834 1.44043 58.7891 0.0244141ZM70.8252 10.7666L75.5615 2.58789C76.416 1.12305 76.001-0.65918 74.5117-1.53809C72.998-2.39258 71.3379-1.87988 70.4346-0.341797L65.6982 7.86133C64.8682 9.27734 65.2344 11.0596 66.748 11.9141C68.2373 12.7686 70.0195 12.1826 70.8252 10.7666Z"/>
  </g>
  <g id="Semibold-S" transform="matrix(1 0 0 1 1993.39 696)">
   <path d="M26.1092-20.0734L73.8429-20.0734C87.0062-20.0734 96.8315-30.083 96.8315-42.5871C96.8315-55.4397 86.6332-65.0785 73.2522-65.0785C68.6224-74.0809 59.9308-80.4283 47.9396-80.4283C32.923-80.4283 20.8958-69.1646 19.2847-54.8779C12.1825-52.6275 6.83594-46.3199 6.83594-37.8884C6.83594-27.9301 14.1775-20.0734 26.1092-20.0734ZM26.1979-28.7816C19.0354-28.7816 15.5441-32.5704 15.5441-37.6931C15.5441-41.9056 18.0099-45.5346 24.2355-47.1814C26.6725-47.7984 27.4404-48.937 27.7134-51.4405C29.0293-63.9493 37.5346-71.7201 47.9396-71.7201C55.6857-71.7201 62.14-67.4188 66.2882-59.2222C67.3269-57.1403 68.5476-56.3924 71.0999-56.3924C82.5079-56.3924 88.1233-50.0801 88.1233-42.4096C88.1233-34.7899 82.2438-28.7816 73.9873-28.7816ZM27.696-1.21309L32.4323-9.40068C33.2269-10.8122 32.8362-12.4789 31.427-13.3223C29.9844-14.1323 28.3953-13.6641 27.5364-12.206L22.7668-3.98506C22.0056-2.64014 22.3807-0.955664 23.8232-0.145605C25.2325 0.664453 26.9348 0.131836 27.696-1.21309ZM39.6877 9.51357L44.424 1.35928C45.2519-0.0522461 44.8279-1.75225 43.4187-2.5623C41.9761-3.37236 40.387-2.9041 39.5281-1.446L34.7918 6.7749C33.9973 8.11982 34.3724 9.8043 35.8149 10.6144C37.2242 11.4244 38.9265 10.8918 39.6877 9.51357ZM58.1314-1.24639L62.8678-9.43398C63.6623-10.8122 63.2717-12.5122 61.8624-13.3556C60.4198-14.1656 58.8308-13.6974 57.9719-12.2393L53.2355-4.01836C52.441-2.67344 52.8161-0.988965 54.2587-0.178906C55.668 0.631152 57.3702 0.0985352 58.1314-1.24639ZM70.1231 9.51357L74.8595 1.32598C75.6873-0.0855469 75.2634-1.75225 73.8541-2.59561C72.4115-3.40566 70.8225-2.9374 69.9636-1.4793L65.2272 6.7416C64.4327 8.08652 64.8078 9.771 66.2504 10.5811C67.6597 11.3911 69.3619 10.8585 70.1231 9.51357Z"/>
  </g>
  <g id="Medium-S" transform="matrix(1 0 0 1 1697.16 696)">
   <path d="M25.6914-20.5586L73.2432-20.5586C86.2246-20.5586 95.8545-30.4199 95.8545-42.668C95.8545-55.3252 85.7168-64.7012 72.4639-64.7012C67.7666-73.8652 58.9268-80.0645 47.4141-80.0645C32.5996-80.0645 20.5791-68.7939 19.1162-54.541C12.1084-52.3984 6.83594-46.1582 6.83594-37.8682C6.83594-28.2266 13.8945-20.5586 25.6914-20.5586ZM25.6992-28.5391C18.3818-28.5391 14.8164-32.4424 14.8164-37.6729C14.8164-41.8584 17.208-45.6289 23.5078-47.3027C25.9043-47.9062 26.6992-49.0381 26.9385-51.5146C28.0859-63.9561 36.8203-72.084 47.4141-72.084C55.2949-72.084 61.8301-67.7422 65.958-59.458C66.9697-57.3896 68.1904-56.6484 70.7158-56.6484C82.1104-56.6484 87.874-50.2148 87.874-42.5039C87.874-34.7158 81.8125-28.5391 73.5156-28.5391ZM27.2041-2.16992L31.9404-10.3643C32.708-11.7354 32.3174-13.3145 30.9688-14.1309C29.5801-14.9072 28.0449-14.4727 27.2197-13.0752L22.4434-4.84082C21.7158-3.5498 22.0977-1.93945 23.4863-1.16309C24.835-0.386719 26.4766-0.878906 27.2041-2.16992ZM39.1621 8.56348L43.8984 0.40918C44.7061-0.961914 44.2754-2.58105 42.9268-3.35742C41.5381-4.13379 40.0029-3.69922 39.1777-2.30176L34.4414 5.93262C33.6738 7.22363 34.0557 8.83398 35.4443 9.61035C36.793 10.3867 38.4346 9.89453 39.1621 8.56348ZM57.6328-2.20996L62.3691-10.4043C63.1367-11.7354 62.7461-13.3545 61.3975-14.1709C60.0088-14.9473 58.4736-14.5127 57.6484-13.1152L52.9121-4.88086C52.1445-3.58984 52.5264-1.97949 53.915-1.20312C55.2637-0.426758 56.9053-0.918945 57.6328-2.20996ZM69.5908 8.56348L74.3271 0.369141C75.1348-1.00195 74.7041-2.58105 73.3555-3.39746C71.9668-4.17383 70.4316-3.73926 69.6064-2.3418L64.8701 5.89258C64.1025 7.18359 64.4844 8.79395 65.873 9.57031C67.2217 10.3467 68.8633 9.85449 69.5908 8.56348Z"/>
  </g>
  <g id="Regular-S" transform="matrix(1 0 0 1 1401.09 696)">
   <path d="M25.1465-21.1914L72.4609-21.1914C85.2051-21.1914 94.5801-30.8594 94.5801-42.7734C94.5801-55.1758 84.5215-64.209 71.4355-64.209C66.6504-73.584 57.6172-79.5898 46.7285-79.5898C32.1777-79.5898 20.166-68.3105 18.8965-54.1016C12.0117-52.0996 6.83594-45.9473 6.83594-37.8418C6.83594-28.6133 13.5254-21.1914 25.1465-21.1914ZM25.0488-28.2227C17.5293-28.2227 13.8672-32.2754 13.8672-37.6465C13.8672-41.7969 16.1621-45.752 22.5586-47.4609C24.9023-48.0469 25.7324-49.1699 25.9277-51.6113C26.8555-63.9648 35.8887-72.5586 46.7285-72.5586C54.7852-72.5586 61.4258-68.1641 65.5273-59.7656C66.5039-57.7148 67.7246-56.9824 70.2148-56.9824C81.5918-56.9824 87.5488-50.3906 87.5488-42.627C87.5488-34.6191 81.25-28.2227 72.9004-28.2227ZM26.5625-3.41797L31.2988-11.6211C32.0312-12.9395 31.6406-14.4043 30.3711-15.1855C29.0527-15.918 27.5879-15.5273 26.8066-14.209L22.0215-5.95703C21.3379-4.73633 21.7285-3.22266 23.0469-2.49023C24.3164-1.75781 25.8789-2.19727 26.5625-3.41797ZM38.4766 7.32422L43.2129-0.830078C43.9941-2.14844 43.5547-3.66211 42.2852-4.39453C40.9668-5.12695 39.502-4.73633 38.7207-3.41797L33.9844 4.83398C33.252 6.05469 33.6426 7.56836 34.9609 8.30078C36.2305 9.0332 37.793 8.59375 38.4766 7.32422ZM56.9824-3.4668L61.7188-11.6699C62.4512-12.9395 62.0605-14.4531 60.791-15.2344C59.4727-15.9668 58.0078-15.5762 57.2266-14.2578L52.4902-6.00586C51.7578-4.78516 52.1484-3.27148 53.4668-2.53906C54.7363-1.80664 56.2988-2.24609 56.9824-3.4668ZM68.8965 7.32422L73.6328-0.878906C74.4141-2.19727 73.9746-3.66211 72.7051-4.44336C71.3867-5.17578 69.9219-4.78516 69.1406-3.4668L64.4043 4.78516C63.6719 6.00586 64.0625 7.51953 65.3809 8.25195C66.6504 8.98438 68.2129 8.54492 68.8965 7.32422Z"/>
  </g>
  <g id="Light-S" transform="matrix(1 0 0 1 1104.74 696)">
   <path d="M24.5562-21.0552L72.1733-21.0552C84.5693-21.0552 93.8535-30.4356 93.8535-42.0772C93.8535-54.1011 83.9766-62.9072 71.148-62.9072C66.3628-72.4487 57.6172-78.5908 46.4409-78.5908C32.1777-78.5908 20.4233-67.3115 19.1841-53.1025C12.2085-51.146 6.83594-45.1904 6.83594-37.1304C6.83594-28.25 13.3286-21.0552 24.5562-21.0552ZM24.4888-26.4365C16.3941-26.4365 12.2324-31.0796 12.2324-36.9956C12.2324-41.918 15.2388-46.2363 21.8018-47.9756C23.752-48.4707 24.4307-49.3667 24.5806-51.3237C25.4478-63.9043 35.1167-73.1943 46.4409-73.1943C55.436-73.1943 62.3945-68.2095 66.5112-59.7202C67.3364-57.9873 68.3603-57.3911 70.4419-57.3911C81.6978-57.3911 88.457-50.4058 88.457-41.9458C88.457-33.3628 81.5225-26.4365 72.4614-26.4365ZM25.2153-2.97901L30.4209-11.9844C31.0474-13.0757 30.7324-14.2529 29.7051-14.8828C28.6592-15.4487 27.4971-15.1338 26.8369-14.0425L21.5977-5.01856C21.0352-3.9795 21.3198-2.76856 22.3809-2.1875C23.4082-1.59131 24.6377-1.95508 25.2153-2.97901ZM37.2051 7.74804L42.4107-1.22363C43.0708-2.31494 42.7222-3.52588 41.6948-4.12207C40.6641-4.68799 39.4868-4.37305 38.8267-3.28174L33.6211 5.74218C33.0249 6.78124 33.3247 7.99218 34.3706 8.57324C35.398 9.16943 36.6275 8.80566 37.2051 7.74804ZM55.6504-3.0127L60.856-12.0029C61.4824-13.0757 61.1675-14.2866 60.1401-14.9165C59.0942-15.4824 57.9321-15.1675 57.272-14.0762L52.0664-5.05225C51.4702-4.01319 51.7549-2.80225 52.8159-2.22119C53.8433-1.625 55.0728-1.98877 55.6504-3.0127ZM67.6401 7.74804L72.8457-1.25732C73.5059-2.34863 73.1572-3.52588 72.1299-4.15576C71.0991-4.72168 69.9219-4.40674 69.2617-3.31543L64.0713 5.70849C63.46 6.74755 63.7598 7.95849 64.8057 8.53955C65.833 9.13574 67.0625 8.77197 67.6401 7.74804Z"/>
  </g>
  <g id="Thin-S" transform="matrix(1 0 0 1 808.511 696)">
   <path d="M23.7754-20.875L71.793-20.875C83.7285-20.875 92.8926-29.875 92.8926-41.1563C92.8926-52.6797 83.2559-61.1856 70.7676-61.1856C65.9824-70.9473 57.6172-77.2695 46.0606-77.2695C32.1777-77.2695 20.7637-65.9903 19.5644-51.7813C12.4687-49.8848 6.83594-44.1895 6.83594-36.1895C6.83594-27.7695 13.0684-20.875 23.7754-20.875ZM23.7481-24.0743C14.8926-24.0743 10.0703-29.4981 10.0703-36.1348C10.0703-42.0781 14.0176-46.8769 20.8008-48.6562C22.2305-49.0312 22.709-49.6269 22.7989-50.9434C23.586-63.8242 34.0957-74.0351 46.0606-74.0351C56.2969-74.0351 63.6758-68.2695 67.8125-59.6602C68.4375-58.3477 69.2012-57.9316 70.7422-57.9316C81.8379-57.9316 89.6582-50.4258 89.6582-41.0449C89.6582-31.7012 81.8828-24.0743 71.8809-24.0743ZM23.4336-2.39845L29.2598-12.4648C29.7461-13.2559 29.5313-14.0527 28.8242-14.4824C28.1387-14.8281 27.377-14.6133 26.877-13.8223L21.0371-3.77736C20.6348-2.97853 20.7793-2.16798 21.5-1.78711C22.207-1.3711 22.9961-1.63477 23.4336-2.39845ZM35.5235 8.30859L41.3496-1.74413C41.8496-2.53515 41.6211-3.34571 40.9141-3.76172C40.2637-4.10743 39.4668-3.89258 38.9668-3.10156L33.1406 6.94334C32.7246 7.74217 32.9043 8.55273 33.5899 8.93359C34.2969 9.34961 35.086 9.08593 35.5235 8.30859ZM53.8887-2.41212L59.7149-12.4434C60.2012-13.2559 59.9863-14.0664 59.2793-14.4961C58.5938-14.8418 57.832-14.627 57.332-13.8359L51.5059-3.79103C51.0898-2.9922 51.2344-2.18165 51.9551-1.80079C52.6621-1.38477 53.4512-1.64844 53.8887-2.41212ZM65.9785 8.30859L71.8047-1.75781C72.3047-2.54883 72.0762-3.34571 71.3692-3.7754C70.7188-4.1211 69.9219-3.90626 69.4219-3.11524L63.6309 6.92967C63.1797 7.7285 63.3594 8.53905 64.0449 8.91992C64.752 9.33593 65.541 9.07226 65.9785 8.30859Z"/>
  </g>
  <g id="Ultralight-S" transform="matrix(1 0 0 1 512.046 696)">
   <path d="M23.3755-20.7827L71.5982-20.7827C83.2979-20.7827 92.4004-29.5879 92.4004-40.6846C92.4004-51.9517 82.8867-60.3037 70.5728-60.3037C65.7876-70.1782 57.6172-76.5928 45.8657-76.5928C32.1777-76.5928 20.938-65.3135 19.7593-51.1045C12.602-49.2388 6.83594-43.6768 6.83594-35.7075C6.83594-27.5234 12.9351-20.7827 23.3755-20.7827ZM23.3687-22.8643C14.1236-22.8643 8.96293-28.688 8.96293-35.6939C8.96293-42.1602 13.3921-47.2051 20.2881-49.0049C21.4512-49.3183 21.8272-49.7602 21.8863-50.7485C22.6324-63.7832 33.5728-74.4658 45.8657-74.4658C56.7378-74.4658 64.332-68.3003 68.479-59.6294C69.0014-58.5322 69.6318-58.2085 70.896-58.2085C81.9097-58.2085 90.2734-50.436 90.2734-40.5835C90.2734-30.8501 82.0674-22.8643 71.5835-22.8643ZM22.521-2.10108L28.6651-12.7109C29.0796-13.3481 28.916-13.9502 28.3731-14.2774C27.8721-14.5103 27.3154-14.3467 26.8975-13.7095L20.75-3.14162C20.4297-2.46584 20.5025-1.86036 21.0488-1.58204C21.5918-1.2583 22.1553-1.47071 22.521-2.10108ZM34.6621 8.59569L40.8062-2.01073C41.2241-2.64795 41.0571-3.25342 40.5142-3.57715C40.0586-3.81007 39.4565-3.64649 39.0386-3.00928L32.8945 7.55857C32.5708 8.23436 32.689 8.83983 33.19 9.11816C33.7329 9.44189 34.2964 9.22949 34.6621 8.59569ZM52.9864-2.1045L59.1304-12.6689C59.5449-13.3481 59.3814-13.9536 58.8384-14.2808C58.3374-14.5137 57.7808-14.3501 57.3628-13.7129L51.2188-3.14504C50.895-2.46926 50.9678-1.86378 51.5142-1.58546C52.0572-1.26172 52.6206-1.47413 52.9864-2.1045ZM65.1275 8.59569L71.2715-2.01415C71.6895-2.65136 71.5225-3.25342 70.9795-3.58057C70.5239-3.81349 69.9219-3.64991 69.5039-3.0127L63.4053 7.55515C63.0361 8.23094 63.1543 8.83642 63.6553 9.11474C64.1983 9.43847 64.7617 9.22607 65.1275 8.59569Z"/>
  </g>
 </g>
</svg>
