<?xml version="1.0" encoding="UTF-8"?>
<!--Generator: Apple Native CoreSVG 175.5-->
<!DOCTYPE svg
PUBLIC "-//W3C//DTD SVG 1.1//EN"
       "http://www.w3.org/Graphics/SVG/1.1/DTD/svg11.dtd">
<svg version="1.1" xmlns="http://www.w3.org/2000/svg" xmlns:xlink="http://www.w3.org/1999/xlink" width="3300" height="2200">
 <!--glyph: "uni1001CA.medium", point size: 100.0, font version: "18.0d12e2", template writer version: "101"-->
 <g id="Notes">
  <rect height="2200" id="artboard" style="fill:white;opacity:1" width="3300" x="0" y="0"/>
  <line style="fill:none;stroke:black;opacity:1;stroke-width:0.5;" x1="263" x2="3036" y1="292" y2="292"/>
  <text style="stroke:none;fill:black;font-family:sans-serif;font-size:13;font-weight:bold;" transform="matrix(1 0 0 1 263 322)">Weight/Scale Variations</text>
  <text style="stroke:none;fill:black;font-family:sans-serif;font-size:13;text-anchor:middle;" transform="matrix(1 0 0 1 559.711 322)">Ultralight</text>
  <text style="stroke:none;fill:black;font-family:sans-serif;font-size:13;text-anchor:middle;" transform="matrix(1 0 0 1 856.422 322)">Thin</text>
  <text style="stroke:none;fill:black;font-family:sans-serif;font-size:13;text-anchor:middle;" transform="matrix(1 0 0 1 1153.13 322)">Light</text>
  <text style="stroke:none;fill:black;font-family:sans-serif;font-size:13;text-anchor:middle;" transform="matrix(1 0 0 1 1449.84 322)">Regular</text>
  <text style="stroke:none;fill:black;font-family:sans-serif;font-size:13;text-anchor:middle;" transform="matrix(1 0 0 1 1746.56 322)">Medium</text>
  <text style="stroke:none;fill:black;font-family:sans-serif;font-size:13;text-anchor:middle;" transform="matrix(1 0 0 1 2043.27 322)">Semibold</text>
  <text style="stroke:none;fill:black;font-family:sans-serif;font-size:13;text-anchor:middle;" transform="matrix(1 0 0 1 2339.98 322)">Bold</text>
  <text style="stroke:none;fill:black;font-family:sans-serif;font-size:13;text-anchor:middle;" transform="matrix(1 0 0 1 2636.69 322)">Heavy</text>
  <text style="stroke:none;fill:black;font-family:sans-serif;font-size:13;text-anchor:middle;" transform="matrix(1 0 0 1 2933.4 322)">Black</text>
  <line style="fill:none;stroke:black;opacity:1;stroke-width:0.5;" x1="263" x2="3036" y1="1903" y2="1903"/>
  <g transform="matrix(1 0 0 1 263 1933)">
   <path d="M9.24805 0.830078C13.5547 0.830078 17.1387-2.74414 17.1387-7.05078C17.1387-11.3574 13.5449-14.9316 9.23828-14.9316C4.94141-14.9316 1.36719-11.3574 1.36719-7.05078C1.36719-2.74414 4.95117 0.830078 9.24805 0.830078ZM9.24805-0.654297C5.70312-0.654297 2.87109-3.49609 2.87109-7.05078C2.87109-10.6055 5.69336-13.4473 9.23828-13.4473C12.793-13.4473 15.6445-10.6055 15.6445-7.05078C15.6445-3.49609 12.8027-0.654297 9.24805-0.654297ZM5.6543-7.05078C5.6543-6.62109 5.95703-6.32812 6.40625-6.32812L8.50586-6.32812L8.50586-4.20898C8.50586-3.76953 8.79883-3.4668 9.22852-3.4668C9.67773-3.4668 9.9707-3.76953 9.9707-4.20898L9.9707-6.32812L12.0898-6.32812C12.5293-6.32812 12.832-6.62109 12.832-7.05078C12.832-7.49023 12.5293-7.79297 12.0898-7.79297L9.9707-7.79297L9.9707-9.90234C9.9707-10.3516 9.67773-10.6543 9.22852-10.6543C8.79883-10.6543 8.50586-10.3516 8.50586-9.90234L8.50586-7.79297L6.40625-7.79297C5.95703-7.79297 5.6543-7.49023 5.6543-7.05078Z"/>
  </g>
  <g transform="matrix(1 0 0 1 281.867 1933)">
   <path d="M11.709 2.91016C17.1582 2.91016 21.6699-1.61133 21.6699-7.05078C21.6699-12.5 17.1484-17.0117 11.6992-17.0117C6.25977-17.0117 1.74805-12.5 1.74805-7.05078C1.74805-1.61133 6.26953 2.91016 11.709 2.91016ZM11.709 1.25C7.09961 1.25 3.41797-2.44141 3.41797-7.05078C3.41797-11.6602 7.08984-15.3516 11.6992-15.3516C16.3086-15.3516 20.0098-11.6602 20.0098-7.05078C20.0098-2.44141 16.3184 1.25 11.709 1.25ZM7.17773-7.05078C7.17773-6.57227 7.50977-6.25 8.00781-6.25L10.8789-6.25L10.8789-3.36914C10.8789-2.88086 11.2109-2.53906 11.6895-2.53906C12.1777-2.53906 12.5195-2.87109 12.5195-3.36914L12.5195-6.25L15.4004-6.25C15.8887-6.25 16.2305-6.57227 16.2305-7.05078C16.2305-7.53906 15.8887-7.88086 15.4004-7.88086L12.5195-7.88086L12.5195-10.752C12.5195-11.25 12.1777-11.5918 11.6895-11.5918C11.2109-11.5918 10.8789-11.25 10.8789-10.752L10.8789-7.88086L8.00781-7.88086C7.50977-7.88086 7.17773-7.53906 7.17773-7.05078Z"/>
  </g>
  <g transform="matrix(1 0 0 1 305.646 1933)">
   <path d="M14.9707 5.66406C21.9336 5.66406 27.6953-0.0976562 27.6953-7.05078C27.6953-14.0137 21.9238-19.7754 14.9609-19.7754C8.00781-19.7754 2.25586-14.0137 2.25586-7.05078C2.25586-0.0976562 8.01758 5.66406 14.9707 5.66406ZM14.9707 3.84766C8.93555 3.84766 4.08203-1.01562 4.08203-7.05078C4.08203-13.0957 8.92578-17.9492 14.9609-17.9492C21.0059-17.9492 25.8691-13.0957 25.8691-7.05078C25.8691-1.01562 21.0156 3.84766 14.9707 3.84766ZM9.19922-7.05078C9.19922-6.5332 9.57031-6.17188 10.1172-6.17188L14.0625-6.17188L14.0625-2.2168C14.0625-1.67969 14.4336-1.29883 14.9512-1.29883C15.4883-1.29883 15.8594-1.66992 15.8594-2.2168L15.8594-6.17188L19.8145-6.17188C20.3516-6.17188 20.7324-6.5332 20.7324-7.05078C20.7324-7.59766 20.3613-7.96875 19.8145-7.96875L15.8594-7.96875L15.8594-11.9141C15.8594-12.4609 15.4883-12.8418 14.9512-12.8418C14.4336-12.8418 14.0625-12.4609 14.0625-11.9141L14.0625-7.96875L10.1172-7.96875C9.57031-7.96875 9.19922-7.59766 9.19922-7.05078Z"/>
  </g>
  <text style="stroke:none;fill:black;font-family:sans-serif;font-size:13;font-weight:bold;" transform="matrix(1 0 0 1 263 1953)">Design Variations</text>
  <text style="stroke:none;fill:black;font-family:sans-serif;font-size:13;" transform="matrix(1 0 0 1 263 1971)">Symbols are supported in up to nine weights and three scales.</text>
  <text style="stroke:none;fill:black;font-family:sans-serif;font-size:13;" transform="matrix(1 0 0 1 263 1989)">For optimal layout with text and other symbols, vertically align</text>
  <text style="stroke:none;fill:black;font-family:sans-serif;font-size:13;" transform="matrix(1 0 0 1 263 2007)">symbols with the adjacent text.</text>
  <line style="fill:none;stroke:#00AEEF;stroke-width:0.5;opacity:1.0;" x1="776" x2="776" y1="1919" y2="1933"/>
  <g transform="matrix(1 0 0 1 776 1933)">
   <path d="M3.31055 0.15625C3.82812 0.15625 4.08203-0.0390625 4.26758-0.585938L5.52734-4.0332L11.2891-4.0332L12.5488-0.585938C12.7344-0.0390625 12.9883 0.15625 13.4961 0.15625C14.0137 0.15625 14.3457-0.15625 14.3457-0.644531C14.3457-0.810547 14.3164-0.966797 14.2383-1.17188L9.6582-13.3691C9.43359-13.9648 9.0332-14.2676 8.4082-14.2676C7.80273-14.2676 7.39258-13.9746 7.17773-13.3789L2.59766-1.16211C2.51953-0.957031 2.49023-0.800781 2.49023-0.634766C2.49023-0.146484 2.80273 0.15625 3.31055 0.15625ZM6.00586-5.51758L8.37891-12.0898L8.42773-12.0898L10.8008-5.51758Z"/>
  </g>
  <line style="fill:none;stroke:#00AEEF;stroke-width:0.5;opacity:1.0;" x1="793.197" x2="793.197" y1="1919" y2="1933"/>
  <text style="stroke:none;fill:black;font-family:sans-serif;font-size:13;font-weight:bold;" transform="matrix(1 0 0 1 776 1953)">Margins</text>
  <text style="stroke:none;fill:black;font-family:sans-serif;font-size:13;" transform="matrix(1 0 0 1 776 1971)">Leading and trailing margins on the left and right side of each symbol</text>
  <text style="stroke:none;fill:black;font-family:sans-serif;font-size:13;" transform="matrix(1 0 0 1 776 1989)">can be adjusted by modifying the x-location of the margin guidelines.</text>
  <text style="stroke:none;fill:black;font-family:sans-serif;font-size:13;" transform="matrix(1 0 0 1 776 2007)">Modifications are automatically applied proportionally to all</text>
  <text style="stroke:none;fill:black;font-family:sans-serif;font-size:13;" transform="matrix(1 0 0 1 776 2025)">scales and weights.</text>
  <g transform="matrix(1 0 0 1 1289 1933)">
   <path d="M2.8418 1.86523L4.54102 3.57422C5.40039 4.44336 6.38672 4.38477 7.31445 3.35938L18.0078-8.42773L17.041-9.4043L6.42578 2.27539C6.07422 2.67578 5.74219 2.77344 5.27344 2.30469L4.10156 1.14258C3.63281 0.683594 3.74023 0.341797 4.14062-0.0195312L15.6152-10.8203L14.6387-11.7871L3.04688-0.898438C2.06055 0.0195312 1.98242 0.996094 2.8418 1.86523ZM9.25781-16.3281C8.83789-15.918 8.80859-15.3418 9.04297-14.9512C9.27734-14.5898 9.73633-14.3555 10.3809-14.5215C11.8457-14.8633 13.3691-14.9219 14.7949-13.9844L14.209-12.5293C13.8672-11.6992 14.043-11.1133 14.5801-10.5664L16.875-8.25195C17.3633-7.76367 17.7734-7.74414 18.3398-7.8418L19.4043-8.03711L20.0684-7.36328L20.0293-6.80664C19.9902-6.30859 20.1172-5.92773 20.6055-5.44922L21.3672-4.70703C21.8457-4.22852 22.4609-4.19922 22.9297-4.66797L25.8398-7.58789C26.3086-8.05664 26.2891-8.65234 25.8105-9.13086L25.0391-9.89258C24.5605-10.3711 24.1895-10.5273 23.7109-10.4883L23.1348-10.4395L22.4902-11.0742L22.7344-12.1973C22.8613-12.7637 22.7051-13.2031 22.1191-13.7891L19.9219-15.9766C16.582-19.2969 12.1484-19.2188 9.25781-16.3281ZM10.752-15.957C13.1836-17.7344 16.4746-17.4316 18.7012-15.2051L21.1328-12.793C21.3672-12.5586 21.4062-12.373 21.3379-12.0312L21.0156-10.5469L22.5195-9.0625L23.5059-9.12109C23.7598-9.13086 23.8379-9.11133 24.0332-8.91602L24.6094-8.33984L22.168-5.89844L21.5918-6.47461C21.3965-6.66992 21.3672-6.74805 21.377-7.01172L21.4453-7.98828L19.9512-9.47266L18.4277-9.21875C18.1055-9.15039 17.959-9.17969 17.7148-9.41406L15.7129-11.416C15.459-11.6504 15.4297-11.8164 15.5859-12.1875L16.4648-14.2773C14.9023-15.7324 12.8711-16.3574 10.8398-15.7617C10.6836-15.7227 10.625-15.8496 10.752-15.957Z"/>
  </g>
  <text style="stroke:none;fill:black;font-family:sans-serif;font-size:13;font-weight:bold;" transform="matrix(1 0 0 1 1289 1953)">Exporting</text>
  <text style="stroke:none;fill:black;font-family:sans-serif;font-size:13;" transform="matrix(1 0 0 1 1289 1971)">Symbols should be outlined when exporting to ensure the</text>
  <text style="stroke:none;fill:black;font-family:sans-serif;font-size:13;" transform="matrix(1 0 0 1 1289 1989)">design is preserved when submitting to Xcode.</text>
  <text id="template-version" style="stroke:none;fill:black;font-family:sans-serif;font-size:13;text-anchor:end;" transform="matrix(1 0 0 1 3036 1933)">Template v.4.0</text>
  <text style="stroke:none;fill:black;font-family:sans-serif;font-size:13;text-anchor:end;" transform="matrix(1 0 0 1 3036 1951)">Requires Xcode 14 or greater</text>
  <text id="descriptive-name" style="stroke:none;fill:black;font-family:sans-serif;font-size:13;text-anchor:end;" transform="matrix(1 0 0 1 3036 1969)">Generated from cloud.fog</text>
  <text style="stroke:none;fill:black;font-family:sans-serif;font-size:13;text-anchor:end;" transform="matrix(1 0 0 1 3036 1987)">Typeset at 100 points</text>
  <text style="stroke:none;fill:black;font-family:sans-serif;font-size:13;" transform="matrix(1 0 0 1 263 726)">Small</text>
  <text style="stroke:none;fill:black;font-family:sans-serif;font-size:13;" transform="matrix(1 0 0 1 263 1156)">Medium</text>
  <text style="stroke:none;fill:black;font-family:sans-serif;font-size:13;" transform="matrix(1 0 0 1 263 1586)">Large</text>
 </g>
 <g id="Guides">
  <g id="H-reference" style="fill:#27AAE1;stroke:none;" transform="matrix(1 0 0 1 339 696)">
   <path d="M0.993654 0L3.63775 0L29.3281-67.1323L30.0303-67.1323L30.0303-70.459L28.1226-70.459ZM11.6885-24.4799L46.9815-24.4799L46.2315-26.7285L12.4385-26.7285ZM55.1196 0L57.7637 0L30.6382-70.459L29.4326-70.459L29.4326-67.1323Z"/>
  </g>
  <line id="Baseline-S" style="fill:none;stroke:#27AAE1;opacity:1;stroke-width:0.5;" x1="263" x2="3036" y1="696" y2="696"/>
  <line id="Capline-S" style="fill:none;stroke:#27AAE1;opacity:1;stroke-width:0.5;" x1="263" x2="3036" y1="625.541" y2="625.541"/>
  <g id="H-reference" style="fill:#27AAE1;stroke:none;" transform="matrix(1 0 0 1 339 1126)">
   <path d="M0.993654 0L3.63775 0L29.3281-67.1323L30.0303-67.1323L30.0303-70.459L28.1226-70.459ZM11.6885-24.4799L46.9815-24.4799L46.2315-26.7285L12.4385-26.7285ZM55.1196 0L57.7637 0L30.6382-70.459L29.4326-70.459L29.4326-67.1323Z"/>
  </g>
  <line id="Baseline-M" style="fill:none;stroke:#27AAE1;opacity:1;stroke-width:0.5;" x1="263" x2="3036" y1="1126" y2="1126"/>
  <line id="Capline-M" style="fill:none;stroke:#27AAE1;opacity:1;stroke-width:0.5;" x1="263" x2="3036" y1="1055.54" y2="1055.54"/>
  <g id="H-reference" style="fill:#27AAE1;stroke:none;" transform="matrix(1 0 0 1 339 1556)">
   <path d="M0.993654 0L3.63775 0L29.3281-67.1323L30.0303-67.1323L30.0303-70.459L28.1226-70.459ZM11.6885-24.4799L46.9815-24.4799L46.2315-26.7285L12.4385-26.7285ZM55.1196 0L57.7637 0L30.6382-70.459L29.4326-70.459L29.4326-67.1323Z"/>
  </g>
  <line id="Baseline-L" style="fill:none;stroke:#27AAE1;opacity:1;stroke-width:0.5;" x1="263" x2="3036" y1="1556" y2="1556"/>
  <line id="Capline-L" style="fill:none;stroke:#27AAE1;opacity:1;stroke-width:0.5;" x1="263" x2="3036" y1="1485.54" y2="1485.54"/>
  <line id="left-margin-Regular-M" style="fill:none;stroke:#00AEEF;stroke-width:0.5;opacity:1.0;" x1="1387.89" x2="1387.89" y1="1030.79" y2="1150.12"/>
  <line id="right-margin-Regular-M" style="fill:none;stroke:#00AEEF;stroke-width:0.5;opacity:1.0;" x1="1511.8" x2="1511.8" y1="1030.79" y2="1150.12"/>
 </g>
 <g id="Symbols">
  <g id="Black-L" transform="matrix(1 0 0 1 2848.89 1556)">
   <path d="M44.9908-7.89272L124.519-7.89272C147.058-7.89272 164.185-25.0781 164.185-46.8985C164.185-68.989 147.107-86.1266 124.465-86.1266C117.168-100.179 103.598-111.366 81.4948-111.366C55.8002-111.366 35.9789-92.8474 32.6054-69.1532C20.4413-64.925 11.2588-54.2236 11.2588-39.6509C11.2588-21.734 24.7138-7.89272 44.9908-7.89272ZM45.5332-25.6507C34.4465-25.6507 29.018-31.3793 29.018-39.3341C29.018-46.4644 33.4964-51.7806 43.4021-54.364C47.5816-55.4387 48.7031-57.3288 49.3133-61.5452C52.2966-82.4934 65.2387-93.6068 81.4948-93.6068C93.6702-93.6068 103.932-86.6728 110.863-73.5927C112.693-70.1234 114.688-68.8694 118.991-68.8694C137.836-68.8694 146.426-59.0329 146.426-46.5416C146.426-34.7674 137.578-25.6507 124.121-25.6507ZM127.838 7.12314L48.9136 7.12314C45.8009 7.12314 43.4203 9.32611 43.4203 12.2613C43.4203 15.2184 45.8009 17.4202 48.9136 17.4202L127.838 17.4202C130.93 17.4202 133.33 15.2184 133.33 12.2613C133.33 9.32611 130.93 7.12314 127.838 7.12314ZM127.838 28.5148L48.9136 28.5148C45.8009 28.5148 43.4203 30.7178 43.4203 33.653C43.4203 36.6101 45.8009 38.8119 48.9136 38.8119L127.838 38.8119C130.93 38.8119 133.33 36.6101 133.33 33.653C133.33 30.7178 130.93 28.5148 127.838 28.5148Z"/>
  </g>
  <g id="Heavy-L" transform="matrix(1 0 0 1 2553.29 1556)">
   <path d="M43.964-8.84542L123.208-8.84542C145.273-8.84542 161.974-25.6436 161.974-46.8607C161.974-68.4411 145.073-84.9749 122.769-84.9749C115.334-99.4063 101.544-110.33 80.3358-110.33C55.1386-110.33 35.4061-91.7978 32.3447-68.1725C20.3471-64.1781 11.2588-53.672 11.2588-39.402C11.2588-22.2345 24.0775-8.84542 43.964-8.84542ZM44.3498-24.6333C32.7782-24.6333 27.0523-30.7685 27.0523-39.1028C27.0523-46.4032 31.5867-52.1149 41.6926-54.7623C45.6746-55.7829 46.8071-57.593 47.335-61.6129C49.9561-82.4895 63.5524-94.5366 80.3358-94.5366C93.0606-94.5366 103.58-87.3477 110.475-74.0619C112.206-70.7129 114.143-69.5125 118.272-69.5125C137.054-69.5125 146.181-59.313 146.181-46.5358C146.181-34.2492 136.776-24.6333 123.028-24.6333ZM127.147 6.14088L47.4031 6.14088C44.5259 6.14088 42.3174 8.20427 42.3174 10.9364C42.3174 13.7043 44.5259 15.7621 47.4031 15.7621L127.147 15.7621C129.994 15.7621 132.227 13.7043 132.227 10.9364C132.227 8.20427 129.994 6.14088 127.147 6.14088ZM127.147 27.5326L47.4031 27.5326C44.5259 27.5326 42.3174 29.596 42.3174 32.3281C42.3174 35.096 44.5259 37.1538 47.4031 37.1538L127.147 37.1538C129.994 37.1538 132.227 35.096 132.227 32.3281C132.227 29.596 129.994 27.5326 127.147 27.5326Z"/>
  </g>
  <g id="Bold-L" transform="matrix(1 0 0 1 2257.88 1556)">
   <path d="M42.7109-9.88706L121.691-9.88706C143.165-9.88706 159.373-26.2013 159.373-46.6953C159.373-67.6381 142.702-83.4563 120.82-83.4563C113.231-98.3416 99.2468-108.995 78.9883-108.995C54.3985-108.995 34.8109-90.447 32.104-66.8988C20.2765-63.174 11.2588-52.921 11.2588-38.9978C11.2588-22.7301 23.3309-9.88706 42.7109-9.88706ZM42.9269-23.1794C30.7112-23.1794 24.5644-29.8738 24.5644-38.729C24.5644-46.3562 29.2871-52.5745 39.6465-55.2988C43.3378-56.2429 44.4559-57.9233 44.8839-61.6378C47.089-82.4745 61.5295-95.6892 78.9883-95.6892C92.4938-95.6892 103.358-88.1107 110.214-74.5787C111.807-71.4205 113.646-70.3041 117.507-70.3041C136.197-70.3041 146.067-59.629 146.067-46.4089C146.067-33.4474 135.926-23.1794 121.727-23.1794ZM126.398 5.16521L45.5582 5.16521C42.9953 5.16521 41.0168 7.02962 41.0168 9.47843C41.0168 11.9785 42.9953 13.8296 45.5582 13.8296L126.398 13.8296C128.923 13.8296 130.926 11.9785 130.926 9.47843C130.926 7.02962 128.923 5.16521 126.398 5.16521ZM126.398 26.5569L45.5582 26.5569C42.9953 26.5569 41.0168 28.4213 41.0168 30.8701C41.0168 33.3702 42.9953 35.2213 45.5582 35.2213L126.398 35.2213C128.923 35.2213 130.926 33.3702 130.926 30.8701C130.926 28.4213 128.923 26.5569 126.398 26.5569Z"/>
  </g>
  <g id="Semibold-L" transform="matrix(1 0 0 1 1962.06 1556)">
   <path d="M41.847-10.6052L120.645-10.6052C141.711-10.6052 157.579-26.5858 157.579-46.5813C157.579-67.0846 141.068-82.4094 119.476-82.4094C111.781-97.6076 97.6629-108.074 78.0594-108.074C53.8882-108.074 34.4006-89.5157 31.938-66.0207C20.2279-62.4817 11.2588-52.4034 11.2588-38.7191C11.2588-23.0718 22.8161-10.6052 41.847-10.6052ZM41.946-22.1771C29.2863-22.1771 22.8492-29.2569 22.8492-38.4713C22.8492-46.3238 27.7019-52.8914 38.2358-55.6687C41.7269-56.56 42.835-58.151 43.1941-61.6549C45.1124-82.4641 60.1349-96.4838 78.0594-96.4838C92.1031-96.4838 103.205-88.6367 110.035-74.935C111.533-71.9083 113.303-70.8498 116.98-70.8498C135.607-70.8498 145.989-59.8469 145.989-46.3214C145.989-32.8946 135.34-22.1771 120.831-22.1771ZM125.882 4.49259L44.2863 4.49259C41.9401 4.49259 40.1202 6.21983 40.1202 8.47333C40.1202 10.7887 41.9401 12.4974 44.2863 12.4974L125.882 12.4974C128.185 12.4974 130.03 10.7887 130.03 8.47333C130.03 6.21983 128.185 4.49259 125.882 4.49259ZM125.882 25.8843L44.2863 25.8843C41.9401 25.8843 40.1202 27.6115 40.1202 29.865C40.1202 32.1804 41.9401 33.8891 44.2863 33.8891L125.882 33.8891C128.185 33.8891 130.03 32.1804 130.03 29.865C130.03 27.6115 128.185 25.8843 125.882 25.8843Z"/>
  </g>
  <g id="Medium-L" transform="matrix(1 0 0 1 1666.03 1556)">
   <path d="M41.192-11.1496L119.852-11.1496C140.609-11.1496 156.22-26.8773 156.22-46.4949C156.22-66.6649 139.828-81.6156 118.458-81.6156C110.682-97.051 96.462-107.376 77.3551-107.376C53.5014-107.376 34.0894-88.8096 31.8121-65.3549C20.191-61.9568 11.2588-52.0108 11.2588-38.5077C11.2588-23.3309 22.4259-11.1496 41.192-11.1496ZM41.2023-21.4171C28.2058-21.4171 21.5487-28.7893 21.5487-38.2759C21.5487-46.2993 26.4998-53.1316 37.1663-55.9492C40.5055-56.8005 41.6059-58.3237 41.9128-61.6679C43.6137-82.4563 59.0774-97.0863 77.3551-97.0863C91.8068-97.0863 103.09-89.0355 109.899-75.2052C111.325-72.2782 113.043-71.2636 116.58-71.2636C135.159-71.2636 145.93-60.0121 145.93-46.2551C145.93-32.4754 134.896-21.4171 120.151-21.4171ZM125.491 3.98258L43.3219 3.98258C41.14 3.98258 39.4403 5.60581 39.4403 7.71121C39.4403 9.88651 41.14 11.4873 43.3219 11.4873L125.491 11.4873C127.625 11.4873 129.35 9.88651 129.35 7.71121C129.35 5.60581 127.625 3.98258 125.491 3.98258ZM125.491 25.3743L43.3219 25.3743C41.14 25.3743 39.4403 26.9975 39.4403 29.1029C39.4403 31.2782 41.14 32.879 43.3219 32.879L125.491 32.879C127.625 32.879 129.35 31.2782 129.35 29.1029C129.35 26.9975 127.625 25.3743 125.491 25.3743Z"/>
  </g>
  <g id="Regular-L" transform="matrix(1 0 0 1 1370.21 1556)">
   <path d="M40.3376-11.8599L118.818-11.8599C139.171-11.8599 154.446-27.2575 154.446-46.3822C154.446-66.1174 138.211-80.5802 117.129-80.5802C109.248-96.3251 94.8955-106.466 76.4364-106.466C52.9967-106.466 33.6836-87.8886 31.648-64.4865C20.1428-61.2722 11.2588-51.4988 11.2588-38.2321C11.2588-23.6688 21.9168-11.8599 40.3376-11.8599ZM40.2321-20.4257C26.7965-20.4257 19.8523-28.1792 19.8523-38.021C19.8523-46.2672 24.9319-53.445 35.7712-56.315C38.9123-57.1141 40.0028-58.5489 40.2415-61.6849C41.6589-82.446 57.6982-97.8721 76.4364-97.8721C91.4204-97.8721 102.938-89.5557 109.721-75.5575C111.053-72.7607 112.704-71.8033 116.059-71.8033C134.575-71.8033 145.852-60.2275 145.852-46.1686C145.852-31.9287 134.317-20.4257 119.265-20.4257ZM124.98 3.31735L42.0639 3.31735C40.0964 3.31735 38.5535 4.80492 38.5535 6.71715C38.5535 8.70979 40.0964 10.1697 42.0639 10.1697L124.98 10.1697C126.895 10.1697 128.463 8.70979 128.463 6.71715C128.463 4.80492 126.895 3.31735 124.98 3.31735ZM124.98 24.709L42.0639 24.709C40.0964 24.709 38.5535 26.1966 38.5535 28.1088C38.5535 30.1015 40.0964 31.5614 42.0639 31.5614L124.98 31.5614C126.895 31.5614 128.463 30.1015 128.463 28.1088C128.463 26.1966 126.895 24.709 124.98 24.709Z"/>
  </g>
  <g id="Light-L" transform="matrix(1 0 0 1 1073.96 1556)">
   <path d="M39.5933-11.6881L118.455-11.6881C138.37-11.6881 153.53-26.7231 153.53-45.5042C153.53-64.7624 137.524-78.9389 116.766-78.9389C108.885-94.8937 94.8955-105.206 76.0738-105.206C52.9967-105.206 34.008-86.629 32.0106-63.2268C20.3909-60.0698 11.2588-50.5446 11.2588-37.3351C11.2588-23.2108 21.6687-11.6881 39.5933-11.6881ZM39.526-18.1737C25.3651-18.1737 17.7911-26.6715 17.7911-37.2004C17.7911-46.4199 23.7677-54.0557 34.8169-56.9639C37.4618-57.6485 38.3615-58.797 38.5429-61.3223C39.884-82.3696 56.7248-98.6737 76.0738-98.6737C92.2411-98.6737 104.16-89.613 110.962-75.5003C112.103-73.1042 113.506-72.3186 116.345-72.3186C134.709-72.3186 146.997-60.2466 146.997-45.3097C146.997-30.3447 134.66-18.1737 118.711-18.1737ZM125.152 4.19527L40.957 4.19527C39.3521 4.19527 38.0764 5.37748 38.0764 6.88891C38.0764 8.48077 39.3521 9.61624 40.957 9.61624L125.152 9.61624C126.723 9.61624 127.986 8.48077 127.986 6.88891C127.986 5.37748 126.723 4.19527 125.152 4.19527ZM125.152 25.587L40.957 25.587C39.3521 25.587 38.0764 26.7692 38.0764 28.2806C38.0764 29.8725 39.3521 31.0079 40.957 31.0079L125.152 31.0079C126.723 31.0079 127.986 29.8725 127.986 28.2806C127.986 26.7692 126.723 25.587 125.152 25.587Z"/>
  </g>
  <g id="Thin-L" transform="matrix(1 0 0 1 777.851 1556)">
   <path d="M38.6089-11.4609L117.975-11.4609C137.309-11.4609 152.318-26.0164 152.318-44.3431C152.318-62.9702 136.615-76.7681 116.287-76.7681C108.406-93.0006 94.8955-103.54 75.5942-103.54C52.9967-103.54 34.4372-84.9631 32.4902-61.5609C20.7191-58.4796 11.2588-49.2825 11.2588-36.1487C11.2588-22.605 21.3405-11.4609 38.6089-11.4609ZM38.592-15.1951C23.472-15.1951 15.065-24.6774 15.065-36.115C15.065-46.6218 22.228-54.8635 33.5548-57.8221C35.5434-58.3553 36.1907-59.1252 36.2964-60.8427C37.5365-82.2687 55.4375-99.7338 75.5942-99.7338C93.3265-99.7338 105.775-89.6887 112.602-75.4246C113.491-73.5586 114.566-73.0001 116.724-73.0001C134.886-73.0001 148.512-60.2719 148.512-44.1738C148.512-28.2496 135.114-15.1951 117.979-15.1951ZM125.379 5.35639L39.493 5.35639C38.3676 5.35639 37.4453 6.13473 37.4453 7.11609C37.4453 8.17787 38.3676 8.88422 39.493 8.88422L125.379 8.88422C126.496 8.88422 127.355 8.17787 127.355 7.11609C127.355 6.13473 126.496 5.35639 125.379 5.35639ZM125.379 26.7481L39.493 26.7481C38.3676 26.7481 37.4453 27.5264 37.4453 28.5078C37.4453 29.5696 38.3676 30.2759 39.493 30.2759L125.379 30.2759C126.496 30.2759 127.355 29.5696 127.355 28.5078C127.355 27.5264 126.496 26.7481 125.379 26.7481Z"/>
  </g>
  <g id="Ultralight-L" transform="matrix(1 0 0 1 481.45 1556)">
   <path d="M38.1047-11.3446L117.73-11.3446C136.766-11.3446 151.698-25.6544 151.698-43.7484C151.698-62.0522 136.15-75.6562 116.041-75.6562C108.16-92.0309 94.8955-102.687 75.3485-102.687C52.9967-102.687 34.6569-84.1098 32.7358-60.7076C20.8872-57.6651 11.2588-48.636 11.2588-35.5411C11.2588-22.2947 21.1725-11.3446 38.1047-11.3446ZM38.1137-13.6696C22.5023-13.6696 13.6687-23.656 13.6687-35.559C13.6687-46.7253 21.4393-55.2772 32.9084-58.2617C34.5608-58.7173 35.0788-59.2932 35.1458-60.597C36.3341-82.217 54.7781-100.277 75.3485-100.277C93.8824-100.277 106.603-89.7275 113.443-75.3858C114.202-73.7913 115.109-73.3492 116.918-73.3492C134.976-73.3492 149.288-60.2848 149.288-43.592C149.288-27.1765 135.347-13.6696 117.604-13.6696ZM125.496 5.95112L38.7431 5.95112C37.8634 5.95112 37.1221 6.52259 37.1221 7.23245C37.1221 8.02272 37.8634 8.50929 38.7431 8.50929L125.496 8.50929C126.38 8.50929 127.032 8.02272 127.032 7.23245C127.032 6.52259 126.38 5.95112 125.496 5.95112ZM125.496 27.3428L38.7431 27.3428C37.8634 27.3428 37.1221 27.9143 37.1221 28.6241C37.1221 29.4144 37.8634 29.901 38.7431 29.901L125.496 29.901C126.38 29.901 127.032 29.4144 127.032 28.6241C127.032 27.9143 126.38 27.3428 125.496 27.3428Z"/>
  </g>
  <g id="Black-M" transform="matrix(1 0 0 1 2867.04 1126)">
   <path d="M35.6379-13.2085L97.5471-13.2085C115.357-13.2085 128.977-26.8063 128.977-44.1834C128.977-61.6717 115.625-75.4291 97.8374-75.4291C92.3025-86.0181 82.0269-94.9352 64.0845-94.9352C43.7994-94.9352 28.4106-80.5999 25.5339-62.1838C15.9513-58.7149 8.72266-50.2898 8.72266-38.7474C8.72266-24.2818 19.6601-13.2085 35.6379-13.2085ZM36.1979-28.3776C27.927-28.3776 23.8915-32.5673 23.8915-38.497C23.8915-44.0069 27.4346-47.8477 34.9653-49.7995C38.3059-50.663 39.1395-52.1574 39.6751-55.51C42.2874-71.8398 51.8606-79.7663 64.0845-79.7663C73.2053-79.7663 80.9876-74.5125 86.3922-64.5401C87.8695-61.8031 89.4308-60.8089 92.8444-60.8089C107.478-60.8089 113.808-53.4329 113.808-43.882C113.808-35.1022 107.324-28.3776 97.0259-28.3776ZM99.6581-1.454L39.0436-1.454C36.4787-1.454 34.5227 0.331319 34.5227 2.72548C34.5227 5.12485 36.4787 6.91045 39.0436 6.91045L99.6581 6.91045C102.218 6.91045 104.179 5.12485 104.179 2.72548C104.179 0.331319 102.218-1.454 99.6581-1.454ZM99.6581 15.119L39.0436 15.119C36.4787 15.119 34.5227 16.9044 34.5227 19.2985C34.5227 21.6979 36.4787 23.4835 39.0436 23.4835L99.6581 23.4835C102.218 23.4835 104.179 21.6979 104.179 19.2985C104.179 16.9044 102.218 15.119 99.6581 15.119Z"/>
  </g>
  <g id="Heavy-M" transform="matrix(1 0 0 1 2571.37 1126)">
   <path d="M34.7028-14.1557L96.2993-14.1557C113.686-14.1557 126.9-27.4085 126.9-44.2275C126.9-61.2611 113.7-74.4546 96.2123-74.4546C90.5426-85.3952 80.0192-94.0388 62.9849-94.0388C43.1526-94.0388 27.8207-79.69 25.2457-61.3413C15.8364-58.0956 8.72266-49.8386 8.72266-38.5868C8.72266-24.8133 19.0609-14.1557 34.7028-14.1557ZM35.1062-27.5908C26.4281-27.5908 22.1601-32.1092 22.1601-38.3467C22.1601-43.933 25.6751-48.1182 33.3822-50.1289C36.5754-50.9502 37.4374-52.3927 37.8979-55.6097C40.1631-71.8431 50.3019-80.6014 62.9849-80.6014C72.5337-80.6014 80.5314-75.167 85.8981-65.004C87.296-62.3477 88.824-61.39 92.1147-61.39C106.701-61.39 113.463-53.7049 113.463-43.9556C113.463-34.7418 106.508-27.5908 96.0085-27.5908ZM98.967-2.49522L37.6691-2.49522C35.3011-2.49522 33.4886-0.818176 33.4886 1.41449C33.4886 3.66584 35.3011 5.34061 37.6691 5.34061L98.967 5.34061C101.319 5.34061 103.145 3.66584 103.145 1.41449C103.145-0.818176 101.319-2.49522 98.967-2.49522ZM98.967 14.0778L37.6691 14.0778C35.3011 14.0778 33.4886 15.7549 33.4886 17.9875C33.4886 20.2389 35.3011 21.9137 37.6691 21.9137L98.967 21.9137C101.319 21.9137 103.145 20.2389 103.145 17.9875C103.145 15.7549 101.319 14.0778 98.967 14.0778Z"/>
  </g>
  <g id="Bold-M" transform="matrix(1 0 0 1 2275.82 1126)">
   <path d="M33.6567-15.2152L94.9034-15.2152C111.818-15.2152 124.577-28.0821 124.577-44.2768C124.577-60.8018 111.547-73.3645 94.3943-73.3645C88.574-84.6983 77.7732-93.0361 61.7548-93.0361C42.4291-93.0361 27.1609-78.6722 24.9232-60.3988C15.7077-57.403 8.72266-49.3338 8.72266-38.4071C8.72266-25.4079 18.3907-15.2152 33.6567-15.2152ZM33.8849-26.7107C24.7515-26.7107 20.2233-31.5969 20.2233-38.1785C20.2233-43.8504 23.7069-48.4208 31.6113-50.4975C34.6397-51.2715 35.5333-52.656 35.9099-55.7211C37.7869-71.8467 48.5582-81.5355 61.7548-81.5355C71.7824-81.5355 80.0211-75.8991 85.3455-65.523C86.6544-62.9569 88.1453-62.04 91.2984-62.04C105.831-62.04 113.077-54.0093 113.077-44.0379C113.077-34.3386 105.594-26.7107 94.8704-26.7107ZM98.1938-3.65996L36.1316-3.65996C33.9836-3.65996 32.3318-2.10405 32.3318-0.0520363C32.3318 2.03374 33.9836 3.58451 36.1316 3.58451L98.1938 3.58451C100.313 3.58451 101.988 2.03374 101.988-0.0520363C101.988-2.10405 100.313-3.65996 98.1938-3.65996ZM98.1938 12.9131L36.1316 12.9131C33.9836 12.9131 32.3318 14.469 32.3318 16.521C32.3318 18.6068 33.9836 20.1576 36.1316 20.1576L98.1938 20.1576C100.313 20.1576 101.988 18.6068 101.988 16.521C101.988 14.469 100.313 12.9131 98.1938 12.9131Z"/>
  </g>
  <g id="Semibold-M" transform="matrix(1 0 0 1 1979.91 1126)">
   <path d="M32.9355-15.9457L93.9411-15.9457C110.529-15.9457 122.976-28.5464 122.976-44.3108C122.976-60.4851 110.063-72.613 93.1411-72.613C87.2168-84.2179 76.2249-92.3448 60.9068-92.3448C41.9303-92.3448 26.706-77.9706 24.7008-59.7491C15.6191-56.9254 8.72266-48.9858 8.72266-38.2833C8.72266-25.8178 17.9286-15.9457 32.9355-15.9457ZM33.043-26.1039C23.5956-26.1039 18.888-31.2437 18.888-38.0625C18.888-43.7934 22.35-48.6293 30.3904-50.7516C33.3052-51.4929 34.2207-52.8375 34.5394-55.798C36.1487-71.8492 47.3562-82.1794 60.9068-82.1794C71.2645-82.1794 79.6693-76.4038 84.9644-65.8808C86.2121-63.3769 87.6773-62.4881 90.7357-62.4881C105.232-62.4881 112.81-54.2191 112.81-44.0947C112.81-34.0606 104.965-26.1039 94.0858-26.1039ZM97.6608-4.46293L35.0716-4.46293C33.0754-4.46293 31.5343-2.99053 31.5343-1.06305C31.5343 0.908573 33.0754 2.37387 35.0716 2.37387L97.6608 2.37387C99.6199 2.37387 101.191 0.908573 101.191-1.06305C101.191-2.99053 99.6199-4.46293 97.6608-4.46293ZM97.6608 12.1101L35.0716 12.1101C33.0754 12.1101 31.5343 13.5825 31.5343 15.51C31.5343 17.4816 33.0754 18.9469 35.0716 18.9469L97.6608 18.9469C99.6199 18.9469 101.191 17.4816 101.191 15.51C101.191 13.5825 99.6199 12.1101 97.6608 12.1101Z"/>
  </g>
  <g id="Medium-M" transform="matrix(1 0 0 1 1683.81 1126)">
   <path d="M32.3887-16.4995L93.2114-16.4995C109.553-16.4995 121.762-28.8985 121.762-44.3366C121.762-60.245 108.938-72.0432 92.1908-72.0432C86.1877-83.8536 75.0509-91.8206 60.2638-91.8206C41.5521-91.8206 26.3611-77.4385 24.5323-59.2565C15.5518-56.5633 8.72266-48.722 8.72266-38.1894C8.72266-26.1286 17.5782-16.4995 32.3887-16.4995ZM32.4046-25.6438C22.7192-25.6438 17.8756-30.9759 17.8756-37.9746C17.8756-43.7502 21.3212-48.7875 29.4647-50.9443C32.2933-51.6609 33.2254-52.9751 33.5002-55.8562C34.9065-71.8511 46.4447-82.6677 60.2638-82.6677C70.8718-82.6677 79.4025-76.7865 84.6755-66.1521C85.8767-63.6954 87.3225-62.8279 90.309-62.8279C104.778-62.8279 112.609-54.3782 112.609-44.1377C112.609-33.8499 104.488-25.6438 93.4909-25.6438ZM97.2567-5.07178L34.2678-5.07178C32.3868-5.07178 30.9296-3.66269 30.9296-1.82965C30.9296 0.0554259 32.3868 1.45591 34.2678 1.45591L97.2567 1.45591C99.0943 1.45591 100.586 0.0554259 100.586-1.82965C100.586-3.66269 99.0943-5.07178 97.2567-5.07178ZM97.2567 11.5013L34.2678 11.5013C32.3868 11.5013 30.9296 12.9104 30.9296 14.7434C30.9296 16.6285 32.3868 18.029 34.2678 18.029L97.2567 18.029C99.0943 18.029 100.586 16.6285 100.586 14.7434C100.586 12.9104 99.0943 11.5013 97.2567 11.5013Z"/>
  </g>
  <g id="Regular-M" transform="matrix(1 0 0 1 1387.89 1126)">
   <path d="M31.6754-17.2219L92.2597-17.2219C108.279-17.2219 120.178-29.3578 120.178-44.3702C120.178-59.9318 107.47-71.2999 90.9513-71.2999C84.8454-83.3785 73.5195-91.1369 59.4251-91.1369C41.0588-91.1369 25.9112-76.7445 24.3124-58.6139C15.4641-56.091 8.72266-48.3778 8.72266-38.0669C8.72266-26.534 17.1212-17.2219 31.6754-17.2219ZM31.5719-25.0437C21.5761-25.0437 16.555-30.6265 16.555-37.8599C16.555-43.6939 19.9792-48.9938 28.2572-51.1956C30.9735-51.8799 31.9272-53.1546 32.1447-55.9322C33.2863-71.8536 45.2558-83.3046 59.4251-83.3046C70.3596-83.3046 79.0546-77.2857 84.2987-66.5059C85.4393-64.1107 86.8597-63.2711 89.7524-63.2711C104.185-63.2711 112.345-54.5856 112.345-44.1939C112.345-33.5749 103.865-25.0437 92.7149-25.0437ZM96.7295-5.86592L33.2195-5.86592C31.4885-5.86592 30.1409-4.53943 30.1409-2.82955C30.1409-1.05737 31.4885 0.258571 33.2195 0.258571L96.7295 0.258571C98.4088 0.258571 99.7976-1.05737 99.7976-2.82955C99.7976-4.53943 98.4088-5.86592 96.7295-5.86592ZM96.7295 10.7071L33.2195 10.7071C31.4885 10.7071 30.1409 12.0336 30.1409 13.7435C30.1409 15.5157 31.4885 16.8316 33.2195 16.8316L96.7295 16.8316C98.4088 16.8316 99.7976 15.5157 99.7976 13.7435C99.7976 12.0336 98.4088 10.7071 96.7295 10.7071Z"/>
  </g>
  <g id="Light-M" transform="matrix(1 0 0 1 1091.59 1126)">
   <path d="M31.0081-17.0679L91.9346-17.0679C107.56-17.0679 119.356-28.8787 119.356-43.5831C119.356-58.717 106.854-69.8284 90.6262-69.8284C84.5203-82.0952 73.5195-90.0076 59.1-90.0076C41.0588-90.0076 26.2021-75.6152 24.6375-57.4846C15.6866-55.0131 8.72266-47.5223 8.72266-37.2627C8.72266-26.1233 16.8988-17.0679 31.0081-17.0679ZM30.9388-23.0247C20.2927-23.0247 14.707-29.2748 14.707-37.1241C14.707-43.8308 18.9355-49.5413 27.4017-51.7773C29.6731-52.359 30.4556-53.3771 30.6219-55.6071C31.695-71.7852 44.3832-84.0232 59.1-84.0232C71.0953-84.0232 80.1497-77.337 85.4109-66.4546C86.3804-64.4187 87.5784-63.7331 90.0091-63.7331C104.305-63.7331 113.372-54.6028 113.372-43.4239C113.372-32.1547 104.173-23.0247 92.2187-23.0247ZM96.8835-5.07882L32.2271-5.07882C30.8212-5.07882 29.7131-4.0261 29.7131-2.67555C29.7131-1.26271 30.8212-0.237647 32.2271-0.237647L96.8835-0.237647C98.2548-0.237647 99.3698-1.26271 99.3698-2.67555C99.3698-4.0261 98.2548-5.07882 96.8835-5.07882ZM96.8835 11.4942L32.2271 11.4942C30.8212 11.4942 29.7131 12.5469 29.7131 13.8975C29.7131 15.3103 30.8212 16.3354 32.2271 16.3354L96.8835 16.3354C98.2548 16.3354 99.3698 15.3103 99.3698 13.8975C99.3698 12.5469 98.2548 11.4942 96.8835 11.4942Z"/>
  </g>
  <g id="Thin-M" transform="matrix(1 0 0 1 795.418 1126)">
   <path d="M30.1255-16.8643L91.5046-16.8643C106.609-16.8643 118.27-28.245 118.27-42.5421C118.27-57.1102 106.039-67.8822 90.1962-67.8822C84.0903-80.3979 73.5195-88.514 58.67-88.514C41.0588-88.514 26.5868-74.1216 25.0675-55.9909C15.9808-53.5873 8.72266-46.3907 8.72266-36.199C8.72266-25.5802 16.6046-16.8643 30.1255-16.8643ZM30.1015-20.3542C18.5954-20.3542 12.2629-27.4869 12.2629-36.151C12.2629-44.0118 17.555-50.2655 26.2701-52.5468C27.9532-52.9927 28.5094-53.6713 28.6078-55.1772C29.5904-71.6946 43.229-84.9737 58.67-84.9737C72.0684-84.9737 81.598-77.4049 86.8819-66.3867C87.6251-64.8261 88.5289-64.3441 90.3485-64.3441C104.463-64.3441 114.73-54.6254 114.73-42.4055C114.73-30.2764 104.58-20.3542 91.5624-20.3542ZM97.0872-4.03781L30.9145-4.03781C29.9386-4.03781 29.1474-3.34718 29.1474-2.47188C29.1474-1.53427 29.9386-0.893934 30.9145-0.893934L97.0872-0.893934C98.0511-0.893934 98.804-1.53427 98.804-2.47188C98.804-3.34718 98.0511-4.03781 97.0872-4.03781ZM97.0872 12.5352L30.9145 12.5352C29.9386 12.5352 29.1474 13.2259 29.1474 14.1012C29.1474 15.0388 29.9386 15.6791 30.9145 15.6791L97.0872 15.6791C98.0511 15.6791 98.804 15.0388 98.804 14.1012C98.804 13.2259 98.0511 12.5352 97.0872 12.5352Z"/>
  </g>
  <g id="Ultralight-M" transform="matrix(1 0 0 1 498.985 1126)">
   <path d="M29.6734-16.7599L91.2844-16.7599C106.123-16.7599 117.714-27.9205 117.714-42.0089C117.714-56.2872 105.622-66.8853 89.976-66.8853C83.8701-79.5285 73.5195-87.749 58.4498-87.749C41.0588-87.749 26.7839-73.3566 25.2877-55.2259C16.1314-52.8571 8.72266-45.8112 8.72266-35.6543C8.72266-25.302 16.4539-16.7599 29.6734-16.7599ZM29.6726-18.9865C17.7261-18.9865 11.0111-26.5712 11.0111-35.6526C11.0111-44.1045 16.8479-50.6364 25.6906-52.9409C27.0722-53.3172 27.5126-53.822 27.5761-54.9569C28.5124-71.6483 42.6379-85.4605 58.4498-85.4605C72.5669-85.4605 82.3399-77.4397 87.6353-66.3519C88.2626-65.0347 89.0157-64.6571 90.5224-64.6571C104.544-64.6571 115.425-54.637 115.425-41.8839C115.425-29.3143 104.789-18.9865 91.2263-18.9865ZM97.1915-3.50461L30.2422-3.50461C29.4865-3.50461 28.8576-2.99944 28.8576-2.36756C28.8576-1.67337 29.4865-1.23008 30.2422-1.23008L97.1915-1.23008C97.9468-1.23008 98.5142-1.67337 98.5142-2.36756C98.5142-2.99944 97.9468-3.50461 97.1915-3.50461ZM97.1915 13.0684L30.2422 13.0684C29.4865 13.0684 28.8576 13.5736 28.8576 14.2055C28.8576 14.8997 29.4865 15.343 30.2422 15.343L97.1915 15.343C97.9468 15.343 98.5142 14.8997 98.5142 14.2055C98.5142 13.5736 97.9468 13.0684 97.1915 13.0684Z"/>
  </g>
  <g id="Black-S" transform="matrix(1 0 0 1 2881.11 696)">
   <path d="M28.1738-17.6758L76.8066-17.6758C90.8691-17.6758 101.66-28.418 101.66-42.1875C101.66-56.0059 91.1621-66.9434 77.1484-66.9434C72.8516-75.1465 64.8926-82.2266 50.5371-82.2266C34.5215-82.2266 22.4609-70.9961 20.1172-56.543C12.5488-53.7598 6.83594-47.1191 6.83594-37.9883C6.83594-26.4648 15.5762-17.6758 28.1738-17.6758ZM28.6621-29.9805C22.2656-29.9805 19.1406-33.2031 19.1406-37.793C19.1406-42.1387 21.9727-45.0684 27.832-46.582C30.4688-47.2656 31.1035-48.4375 31.543-51.0742C33.6914-63.916 41.0645-69.9219 50.5371-69.9219C57.6172-69.9219 63.6719-65.8203 67.9199-58.0566C69.0918-55.9082 70.3125-55.127 72.998-55.127C84.4727-55.127 89.3555-49.4141 89.3555-41.9434C89.3555-35.1562 84.375-29.9805 76.3184-29.9805ZM78.3203-8.39844L30.957-8.39844C28.9062-8.39844 27.3438-6.98242 27.3438-5.07812C27.3438-3.17383 28.9062-1.75781 30.957-1.75781L78.3203-1.75781C80.3711-1.75781 81.9336-3.17383 81.9336-5.07812C81.9336-6.98242 80.3711-8.39844 78.3203-8.39844ZM78.3203 4.58984L30.957 4.58984C28.9062 4.58984 27.3438 6.00586 27.3438 7.91016C27.3438 9.81445 28.9062 11.2305 30.957 11.2305L78.3203 11.2305C80.3711 11.2305 81.9336 9.81445 81.9336 7.91016C81.9336 6.00586 80.3711 4.58984 78.3203 4.58984Z"/>
  </g>
  <g id="Heavy-S" transform="matrix(1 0 0 1 2585.23 696)">
   <path d="M27.4593-18.5055L75.781-18.5055C89.5323-18.5055 99.9891-28.9942 99.9891-42.3258C99.9891-55.8099 89.5948-66.298 75.8001-66.298C71.388-74.7777 63.1754-81.6042 49.6382-81.6042C33.9683-81.6042 21.9193-70.3622 19.8291-55.9667C12.4221-53.3679 6.83594-46.8426 6.83594-37.9537C6.83594-26.9719 15.0921-18.5055 27.4593-18.5055ZM27.8093-29.5656C21.1478-29.5656 17.896-32.9842 17.896-37.7584C17.896-42.058 20.6012-45.2297 26.5874-46.7895C29.155-47.45 29.8358-48.6104 30.2177-51.201C32.078-63.9275 39.8429-70.5442 49.6382-70.5442C56.9488-70.5442 63.1417-66.3735 67.3552-58.46C68.481-56.3346 69.7017-55.5649 72.3412-55.5649C83.7927-55.5649 88.9291-49.6446 88.9291-42.1047C88.9291-35.0295 83.6374-29.5656 75.5116-29.5656ZM77.7095-9.38954L29.9083-9.38954C27.9843-9.38954 26.514-8.03115 26.514-6.21905C26.514-4.39542 27.9843-3.03703 29.9083-3.03703L77.7095-3.03703C79.622-3.03703 81.1038-4.39542 81.1038-6.21905C81.1038-8.03115 79.622-9.38954 77.7095-9.38954ZM77.7095 3.59874L29.9083 3.59874C27.9843 3.59874 26.514 4.95713 26.514 6.76923C26.514 8.59286 27.9843 9.95125 29.9083 9.95125L77.7095 9.95125C79.622 9.95125 81.1038 8.59286 81.1038 6.76923C81.1038 4.95713 79.622 3.59874 77.7095 3.59874Z"/>
  </g>
  <g id="Bold-S" transform="matrix(1 0 0 1 2289.45 696)">
   <path d="M26.6602-19.4336L74.6338-19.4336C88.0371-19.4336 98.1201-29.6387 98.1201-42.4805C98.1201-55.5908 87.8418-65.5762 74.292-65.5762C69.751-74.3652 61.2549-80.9082 48.6328-80.9082C33.3496-80.9082 21.3135-69.6533 19.5068-55.3223C12.2803-52.9297 6.83594-46.5332 6.83594-37.915C6.83594-27.5391 14.5508-19.4336 26.6602-19.4336ZM26.8555-29.1016C19.8975-29.1016 16.5039-32.7393 16.5039-37.7197C16.5039-41.9678 19.0674-45.4102 25.1953-47.0215C27.6855-47.6562 28.418-48.8037 28.7354-51.3428C30.2734-63.9404 38.4766-71.2402 48.6328-71.2402C56.2012-71.2402 62.5488-66.9922 66.7236-58.9111C67.7979-56.8115 69.0186-56.0547 71.6064-56.0547C83.0322-56.0547 88.4521-49.9023 88.4521-42.2852C88.4521-34.8877 82.8125-29.1016 74.6094-29.1016ZM77.0264-10.498L28.7354-10.498C26.9531-10.498 25.5859-9.2041 25.5859-7.49512C25.5859-5.76172 26.9531-4.46777 28.7354-4.46777L77.0264-4.46777C78.7842-4.46777 80.1758-5.76172 80.1758-7.49512C80.1758-9.2041 78.7842-10.498 77.0264-10.498ZM77.0264 2.49023L28.7354 2.49023C26.9531 2.49023 25.5859 3.78418 25.5859 5.49316C25.5859 7.22656 26.9531 8.52051 28.7354 8.52051L77.0264 8.52051C78.7842 8.52051 80.1758 7.22656 80.1758 5.49316C80.1758 3.78418 78.7842 2.49023 77.0264 2.49023Z"/>
  </g>
  <g id="Semibold-S" transform="matrix(1 0 0 1 1993.39 696)">
   <path d="M26.1092-20.0734L73.8429-20.0734C87.0062-20.0734 96.8315-30.083 96.8315-42.5871C96.8315-55.4397 86.6332-65.0785 73.2522-65.0785C68.6224-74.0809 59.9308-80.4283 47.9396-80.4283C32.923-80.4283 20.8958-69.1646 19.2847-54.8779C12.1825-52.6275 6.83594-46.3199 6.83594-37.8884C6.83594-27.9301 14.1775-20.0734 26.1092-20.0734ZM26.1979-28.7816C19.0354-28.7816 15.5441-32.5704 15.5441-37.6931C15.5441-41.9056 18.0099-45.5346 24.2355-47.1814C26.6725-47.7984 27.4404-48.937 27.7134-51.4405C29.0293-63.9493 37.5346-71.7201 47.9396-71.7201C55.6857-71.7201 62.14-67.4188 66.2882-59.2222C67.3269-57.1403 68.5476-56.3924 71.0999-56.3924C82.5079-56.3924 88.1233-50.0801 88.1233-42.4096C88.1233-34.7899 82.2438-28.7816 73.9873-28.7816ZM76.5554-11.2623L27.9267-11.2623C26.2422-11.2623 24.9461-10.0128 24.9461-8.3749C24.9461-6.70371 26.2422-5.4542 27.9267-5.4542L76.5554-5.4542C78.2065-5.4542 79.5359-6.70371 79.5359-8.3749C79.5359-10.0128 78.2065-11.2623 76.5554-11.2623ZM76.5554 1.72598L27.9267 1.72598C26.2422 1.72598 24.9461 2.97549 24.9461 4.61338C24.9461 6.28457 26.2422 7.53408 27.9267 7.53408L76.5554 7.53408C78.2065 7.53408 79.5359 6.28457 79.5359 4.61338C79.5359 2.97549 78.2065 1.72598 76.5554 1.72598Z"/>
  </g>
  <g id="Medium-S" transform="matrix(1 0 0 1 1697.16 696)">
   <path d="M25.6914-20.5586L73.2432-20.5586C86.2246-20.5586 95.8545-30.4199 95.8545-42.668C95.8545-55.3252 85.7168-64.7012 72.4639-64.7012C67.7666-73.8652 58.9268-80.0645 47.4141-80.0645C32.5996-80.0645 20.5791-68.7939 19.1162-54.541C12.1084-52.3984 6.83594-46.1582 6.83594-37.8682C6.83594-28.2266 13.8945-20.5586 25.6914-20.5586ZM25.6992-28.5391C18.3818-28.5391 14.8164-32.4424 14.8164-37.6729C14.8164-41.8584 17.208-45.6289 23.5078-47.3027C25.9043-47.9062 26.6992-49.0381 26.9385-51.5146C28.0859-63.9561 36.8203-72.084 47.4141-72.084C55.2949-72.084 61.8301-67.7422 65.958-59.458C66.9697-57.3896 68.1904-56.6484 70.7158-56.6484C82.1104-56.6484 87.874-50.2148 87.874-42.5039C87.874-34.7158 81.8125-28.5391 73.5156-28.5391ZM76.1982-11.8418L27.3135-11.8418C25.7031-11.8418 24.4609-10.626 24.4609-9.04199C24.4609-7.41797 25.7031-6.20215 27.3135-6.20215L76.1982-6.20215C77.7686-6.20215 79.0508-7.41797 79.0508-9.04199C79.0508-10.626 77.7686-11.8418 76.1982-11.8418ZM76.1982 1.14648L27.3135 1.14648C25.7031 1.14648 24.4609 2.3623 24.4609 3.94629C24.4609 5.57031 25.7031 6.78613 27.3135 6.78613L76.1982 6.78613C77.7686 6.78613 79.0508 5.57031 79.0508 3.94629C79.0508 2.3623 77.7686 1.14648 76.1982 1.14648Z"/>
  </g>
  <g id="Regular-S" transform="matrix(1 0 0 1 1401.09 696)">
   <path d="M25.1465-21.1914L72.4609-21.1914C85.2051-21.1914 94.5801-30.8594 94.5801-42.7734C94.5801-55.1758 84.5215-64.209 71.4355-64.209C66.6504-73.584 57.6172-79.5898 46.7285-79.5898C32.1777-79.5898 20.166-68.3105 18.8965-54.1016C12.0117-52.0996 6.83594-45.9473 6.83594-37.8418C6.83594-28.6133 13.5254-21.1914 25.1465-21.1914ZM25.0488-28.2227C17.5293-28.2227 13.8672-32.2754 13.8672-37.6465C13.8672-41.7969 16.1621-45.752 22.5586-47.4609C24.9023-48.0469 25.7324-49.1699 25.9277-51.6113C26.8555-63.9648 35.8887-72.5586 46.7285-72.5586C54.7852-72.5586 61.4258-68.1641 65.5273-59.7656C66.5039-57.7148 67.7246-56.9824 70.2148-56.9824C81.5918-56.9824 87.5488-50.3906 87.5488-42.627C87.5488-34.6191 81.25-28.2227 72.9004-28.2227ZM75.7324-12.5977L26.5137-12.5977C25-12.5977 23.8281-11.4258 23.8281-9.91211C23.8281-8.34961 25-7.17773 26.5137-7.17773L75.7324-7.17773C77.1973-7.17773 78.418-8.34961 78.418-9.91211C78.418-11.4258 77.1973-12.5977 75.7324-12.5977ZM75.7324 0.390625L26.5137 0.390625C25 0.390625 23.8281 1.5625 23.8281 3.07617C23.8281 4.63867 25 5.81055 26.5137 5.81055L75.7324 5.81055C77.1973 5.81055 78.418 4.63867 78.418 3.07617C78.418 1.5625 77.1973 0.390625 75.7324 0.390625Z"/>
  </g>
  <g id="Light-S" transform="matrix(1 0 0 1 1104.74 696)">
   <path d="M24.5562-21.0552L72.1733-21.0552C84.5693-21.0552 93.8535-30.4356 93.8535-42.0772C93.8535-54.1011 83.9766-62.9072 71.148-62.9072C66.3628-72.4487 57.6172-78.5908 46.4409-78.5908C32.1777-78.5908 20.4233-67.3115 19.1841-53.1025C12.2085-51.146 6.83594-45.1904 6.83594-37.1304C6.83594-28.25 13.3286-21.0552 24.5562-21.0552ZM24.4888-26.4365C16.3941-26.4365 12.2324-31.0796 12.2324-36.9956C12.2324-41.918 15.2388-46.2363 21.8018-47.9756C23.752-48.4707 24.4307-49.3667 24.5806-51.3237C25.4478-63.9043 35.1167-73.1943 46.4409-73.1943C55.436-73.1943 62.3945-68.2095 66.5112-59.7202C67.3364-57.9873 68.3603-57.3911 70.4419-57.3911C81.6978-57.3911 88.457-50.4058 88.457-41.9458C88.457-33.3628 81.5225-26.4365 72.4614-26.4365ZM75.8687-11.9014L25.6357-11.9014C24.4097-11.9014 23.4497-10.9717 23.4497-9.77588C23.4497-8.53125 24.4097-7.6167 25.6357-7.6167L75.8687-7.6167C77.061-7.6167 78.0396-8.53125 78.0396-9.77588C78.0396-10.9717 77.061-11.9014 75.8687-11.9014ZM75.8687 1.08691L25.6357 1.08691C24.4097 1.08691 23.4497 2.0166 23.4497 3.2124C23.4497 4.45703 24.4097 5.37159 25.6357 5.37159L75.8687 5.37159C77.061 5.37159 78.0396 4.45703 78.0396 3.2124C78.0396 2.0166 77.061 1.08691 75.8687 1.08691Z"/>
  </g>
  <g id="Thin-S" transform="matrix(1 0 0 1 808.511 696)">
   <path d="M23.7754-20.875L71.793-20.875C83.7285-20.875 92.8926-29.875 92.8926-41.1563C92.8926-52.6797 83.2559-61.1856 70.7676-61.1856C65.9824-70.9473 57.6172-77.2695 46.0606-77.2695C32.1777-77.2695 20.7637-65.9903 19.5644-51.7813C12.4687-49.8848 6.83594-44.1895 6.83594-36.1895C6.83594-27.7695 13.0684-20.875 23.7754-20.875ZM23.7481-24.0743C14.8926-24.0743 10.0703-29.4981 10.0703-36.1348C10.0703-42.0781 14.0176-46.8769 20.8008-48.6562C22.2305-49.0312 22.709-49.6269 22.7989-50.9434C23.586-63.8242 34.0957-74.0351 46.0606-74.0351C56.2969-74.0351 63.6758-68.2695 67.8125-59.6602C68.4375-58.3477 69.2012-57.9316 70.7422-57.9316C81.8379-57.9316 89.6582-50.4258 89.6582-41.0449C89.6582-31.7012 81.8828-24.0743 71.8809-24.0743ZM76.0488-10.9805L24.4746-10.9805C23.6289-10.9805 22.9492-10.3711 22.9492-9.59571C22.9492-8.77148 23.6289-8.19726 24.4746-8.19726L76.0488-8.19726C76.8809-8.19726 77.5391-8.77148 77.5391-9.59571C77.5391-10.3711 76.8809-10.9805 76.0488-10.9805ZM76.0488 2.0078L24.4746 2.0078C23.6289 2.0078 22.9492 2.61718 22.9492 3.39258C22.9492 4.2168 23.6289 4.79102 24.4746 4.79102L76.0488 4.79102C76.8809 4.79102 77.5391 4.2168 77.5391 3.39258C77.5391 2.61718 76.8809 2.0078 76.0488 2.0078Z"/>
  </g>
  <g id="Ultralight-S" transform="matrix(1 0 0 1 512.046 696)">
   <path d="M23.3755-20.7827L71.5982-20.7827C83.2979-20.7827 92.4004-29.5879 92.4004-40.6846C92.4004-51.9517 82.8867-60.3037 70.5728-60.3037C65.7876-70.1782 57.6172-76.5928 45.8657-76.5928C32.1777-76.5928 20.938-65.3135 19.7593-51.1045C12.602-49.2388 6.83594-43.6768 6.83594-35.7075C6.83594-27.5234 12.9351-20.7827 23.3755-20.7827ZM23.3687-22.8643C14.1236-22.8643 8.96293-28.688 8.96293-35.6939C8.96293-42.1602 13.3921-47.2051 20.2881-49.0049C21.4512-49.3183 21.8272-49.7602 21.8863-50.7485C22.6324-63.7832 33.5728-74.4658 45.8657-74.4658C56.7378-74.4658 64.332-68.3003 68.479-59.6294C69.0014-58.5322 69.6318-58.2085 70.896-58.2085C81.9097-58.2085 90.2734-50.436 90.2734-40.5835C90.2734-30.8501 82.0674-22.8643 71.5835-22.8643ZM76.1411-10.5088L23.8799-10.5088C23.229-10.5088 22.6929-10.0635 22.6929-9.50342C22.6929-8.89453 23.229-8.49462 23.8799-8.49462L76.1411-8.49462C76.7886-8.49462 77.2827-8.89453 77.2827-9.50342C77.2827-10.0635 76.7886-10.5088 76.1411-10.5088ZM76.1411 2.47948L23.8799 2.47948C23.229 2.47948 22.6929 2.92479 22.6929 3.48486C22.6929 4.09375 23.229 4.49366 23.8799 4.49366L76.1411 4.49366C76.7886 4.49366 77.2827 4.09375 77.2827 3.48486C77.2827 2.92479 76.7886 2.47948 76.1411 2.47948Z"/>
  </g>
 </g>
</svg>
