<?xml version="1.0" encoding="UTF-8"?>
<!--Generator: Apple Native CoreSVG 175.5-->
<!DOCTYPE svg
PUBLIC "-//W3C//DTD SVG 1.1//EN"
       "http://www.w3.org/Graphics/SVG/1.1/DTD/svg11.dtd">
<svg version="1.1" xmlns="http://www.w3.org/2000/svg" xmlns:xlink="http://www.w3.org/1999/xlink" width="3300" height="2200">
 <!--glyph: "uni1001D2.medium", point size: 100.0, font version: "18.0d12e2", template writer version: "101"-->
 <g id="Notes">
  <rect height="2200" id="artboard" style="fill:white;opacity:1" width="3300" x="0" y="0"/>
  <line style="fill:none;stroke:black;opacity:1;stroke-width:0.5;" x1="263" x2="3036" y1="292" y2="292"/>
  <text style="stroke:none;fill:black;font-family:sans-serif;font-size:13;font-weight:bold;" transform="matrix(1 0 0 1 263 322)">Weight/Scale Variations</text>
  <text style="stroke:none;fill:black;font-family:sans-serif;font-size:13;text-anchor:middle;" transform="matrix(1 0 0 1 559.711 322)">Ultralight</text>
  <text style="stroke:none;fill:black;font-family:sans-serif;font-size:13;text-anchor:middle;" transform="matrix(1 0 0 1 856.422 322)">Thin</text>
  <text style="stroke:none;fill:black;font-family:sans-serif;font-size:13;text-anchor:middle;" transform="matrix(1 0 0 1 1153.13 322)">Light</text>
  <text style="stroke:none;fill:black;font-family:sans-serif;font-size:13;text-anchor:middle;" transform="matrix(1 0 0 1 1449.84 322)">Regular</text>
  <text style="stroke:none;fill:black;font-family:sans-serif;font-size:13;text-anchor:middle;" transform="matrix(1 0 0 1 1746.56 322)">Medium</text>
  <text style="stroke:none;fill:black;font-family:sans-serif;font-size:13;text-anchor:middle;" transform="matrix(1 0 0 1 2043.27 322)">Semibold</text>
  <text style="stroke:none;fill:black;font-family:sans-serif;font-size:13;text-anchor:middle;" transform="matrix(1 0 0 1 2339.98 322)">Bold</text>
  <text style="stroke:none;fill:black;font-family:sans-serif;font-size:13;text-anchor:middle;" transform="matrix(1 0 0 1 2636.69 322)">Heavy</text>
  <text style="stroke:none;fill:black;font-family:sans-serif;font-size:13;text-anchor:middle;" transform="matrix(1 0 0 1 2933.4 322)">Black</text>
  <line style="fill:none;stroke:black;opacity:1;stroke-width:0.5;" x1="263" x2="3036" y1="1903" y2="1903"/>
  <g transform="matrix(1 0 0 1 263 1933)">
   <path d="M9.24805 0.830078C13.5547 0.830078 17.1387-2.74414 17.1387-7.05078C17.1387-11.3574 13.5449-14.9316 9.23828-14.9316C4.94141-14.9316 1.36719-11.3574 1.36719-7.05078C1.36719-2.74414 4.95117 0.830078 9.24805 0.830078ZM9.24805-0.654297C5.70312-0.654297 2.87109-3.49609 2.87109-7.05078C2.87109-10.6055 5.69336-13.4473 9.23828-13.4473C12.793-13.4473 15.6445-10.6055 15.6445-7.05078C15.6445-3.49609 12.8027-0.654297 9.24805-0.654297ZM5.6543-7.05078C5.6543-6.62109 5.95703-6.32812 6.40625-6.32812L8.50586-6.32812L8.50586-4.20898C8.50586-3.76953 8.79883-3.4668 9.22852-3.4668C9.67773-3.4668 9.9707-3.76953 9.9707-4.20898L9.9707-6.32812L12.0898-6.32812C12.5293-6.32812 12.832-6.62109 12.832-7.05078C12.832-7.49023 12.5293-7.79297 12.0898-7.79297L9.9707-7.79297L9.9707-9.90234C9.9707-10.3516 9.67773-10.6543 9.22852-10.6543C8.79883-10.6543 8.50586-10.3516 8.50586-9.90234L8.50586-7.79297L6.40625-7.79297C5.95703-7.79297 5.6543-7.49023 5.6543-7.05078Z"/>
  </g>
  <g transform="matrix(1 0 0 1 281.867 1933)">
   <path d="M11.709 2.91016C17.1582 2.91016 21.6699-1.61133 21.6699-7.05078C21.6699-12.5 17.1484-17.0117 11.6992-17.0117C6.25977-17.0117 1.74805-12.5 1.74805-7.05078C1.74805-1.61133 6.26953 2.91016 11.709 2.91016ZM11.709 1.25C7.09961 1.25 3.41797-2.44141 3.41797-7.05078C3.41797-11.6602 7.08984-15.3516 11.6992-15.3516C16.3086-15.3516 20.0098-11.6602 20.0098-7.05078C20.0098-2.44141 16.3184 1.25 11.709 1.25ZM7.17773-7.05078C7.17773-6.57227 7.50977-6.25 8.00781-6.25L10.8789-6.25L10.8789-3.36914C10.8789-2.88086 11.2109-2.53906 11.6895-2.53906C12.1777-2.53906 12.5195-2.87109 12.5195-3.36914L12.5195-6.25L15.4004-6.25C15.8887-6.25 16.2305-6.57227 16.2305-7.05078C16.2305-7.53906 15.8887-7.88086 15.4004-7.88086L12.5195-7.88086L12.5195-10.752C12.5195-11.25 12.1777-11.5918 11.6895-11.5918C11.2109-11.5918 10.8789-11.25 10.8789-10.752L10.8789-7.88086L8.00781-7.88086C7.50977-7.88086 7.17773-7.53906 7.17773-7.05078Z"/>
  </g>
  <g transform="matrix(1 0 0 1 305.646 1933)">
   <path d="M14.9707 5.66406C21.9336 5.66406 27.6953-0.0976562 27.6953-7.05078C27.6953-14.0137 21.9238-19.7754 14.9609-19.7754C8.00781-19.7754 2.25586-14.0137 2.25586-7.05078C2.25586-0.0976562 8.01758 5.66406 14.9707 5.66406ZM14.9707 3.84766C8.93555 3.84766 4.08203-1.01562 4.08203-7.05078C4.08203-13.0957 8.92578-17.9492 14.9609-17.9492C21.0059-17.9492 25.8691-13.0957 25.8691-7.05078C25.8691-1.01562 21.0156 3.84766 14.9707 3.84766ZM9.19922-7.05078C9.19922-6.5332 9.57031-6.17188 10.1172-6.17188L14.0625-6.17188L14.0625-2.2168C14.0625-1.67969 14.4336-1.29883 14.9512-1.29883C15.4883-1.29883 15.8594-1.66992 15.8594-2.2168L15.8594-6.17188L19.8145-6.17188C20.3516-6.17188 20.7324-6.5332 20.7324-7.05078C20.7324-7.59766 20.3613-7.96875 19.8145-7.96875L15.8594-7.96875L15.8594-11.9141C15.8594-12.4609 15.4883-12.8418 14.9512-12.8418C14.4336-12.8418 14.0625-12.4609 14.0625-11.9141L14.0625-7.96875L10.1172-7.96875C9.57031-7.96875 9.19922-7.59766 9.19922-7.05078Z"/>
  </g>
  <text style="stroke:none;fill:black;font-family:sans-serif;font-size:13;font-weight:bold;" transform="matrix(1 0 0 1 263 1953)">Design Variations</text>
  <text style="stroke:none;fill:black;font-family:sans-serif;font-size:13;" transform="matrix(1 0 0 1 263 1971)">Symbols are supported in up to nine weights and three scales.</text>
  <text style="stroke:none;fill:black;font-family:sans-serif;font-size:13;" transform="matrix(1 0 0 1 263 1989)">For optimal layout with text and other symbols, vertically align</text>
  <text style="stroke:none;fill:black;font-family:sans-serif;font-size:13;" transform="matrix(1 0 0 1 263 2007)">symbols with the adjacent text.</text>
  <line style="fill:none;stroke:#00AEEF;stroke-width:0.5;opacity:1.0;" x1="776" x2="776" y1="1919" y2="1933"/>
  <g transform="matrix(1 0 0 1 776 1933)">
   <path d="M3.31055 0.15625C3.82812 0.15625 4.08203-0.0390625 4.26758-0.585938L5.52734-4.0332L11.2891-4.0332L12.5488-0.585938C12.7344-0.0390625 12.9883 0.15625 13.4961 0.15625C14.0137 0.15625 14.3457-0.15625 14.3457-0.644531C14.3457-0.810547 14.3164-0.966797 14.2383-1.17188L9.6582-13.3691C9.43359-13.9648 9.0332-14.2676 8.4082-14.2676C7.80273-14.2676 7.39258-13.9746 7.17773-13.3789L2.59766-1.16211C2.51953-0.957031 2.49023-0.800781 2.49023-0.634766C2.49023-0.146484 2.80273 0.15625 3.31055 0.15625ZM6.00586-5.51758L8.37891-12.0898L8.42773-12.0898L10.8008-5.51758Z"/>
  </g>
  <line style="fill:none;stroke:#00AEEF;stroke-width:0.5;opacity:1.0;" x1="793.197" x2="793.197" y1="1919" y2="1933"/>
  <text style="stroke:none;fill:black;font-family:sans-serif;font-size:13;font-weight:bold;" transform="matrix(1 0 0 1 776 1953)">Margins</text>
  <text style="stroke:none;fill:black;font-family:sans-serif;font-size:13;" transform="matrix(1 0 0 1 776 1971)">Leading and trailing margins on the left and right side of each symbol</text>
  <text style="stroke:none;fill:black;font-family:sans-serif;font-size:13;" transform="matrix(1 0 0 1 776 1989)">can be adjusted by modifying the x-location of the margin guidelines.</text>
  <text style="stroke:none;fill:black;font-family:sans-serif;font-size:13;" transform="matrix(1 0 0 1 776 2007)">Modifications are automatically applied proportionally to all</text>
  <text style="stroke:none;fill:black;font-family:sans-serif;font-size:13;" transform="matrix(1 0 0 1 776 2025)">scales and weights.</text>
  <g transform="matrix(1 0 0 1 1289 1933)">
   <path d="M2.8418 1.86523L4.54102 3.57422C5.40039 4.44336 6.38672 4.38477 7.31445 3.35938L18.0078-8.42773L17.041-9.4043L6.42578 2.27539C6.07422 2.67578 5.74219 2.77344 5.27344 2.30469L4.10156 1.14258C3.63281 0.683594 3.74023 0.341797 4.14062-0.0195312L15.6152-10.8203L14.6387-11.7871L3.04688-0.898438C2.06055 0.0195312 1.98242 0.996094 2.8418 1.86523ZM9.25781-16.3281C8.83789-15.918 8.80859-15.3418 9.04297-14.9512C9.27734-14.5898 9.73633-14.3555 10.3809-14.5215C11.8457-14.8633 13.3691-14.9219 14.7949-13.9844L14.209-12.5293C13.8672-11.6992 14.043-11.1133 14.5801-10.5664L16.875-8.25195C17.3633-7.76367 17.7734-7.74414 18.3398-7.8418L19.4043-8.03711L20.0684-7.36328L20.0293-6.80664C19.9902-6.30859 20.1172-5.92773 20.6055-5.44922L21.3672-4.70703C21.8457-4.22852 22.4609-4.19922 22.9297-4.66797L25.8398-7.58789C26.3086-8.05664 26.2891-8.65234 25.8105-9.13086L25.0391-9.89258C24.5605-10.3711 24.1895-10.5273 23.7109-10.4883L23.1348-10.4395L22.4902-11.0742L22.7344-12.1973C22.8613-12.7637 22.7051-13.2031 22.1191-13.7891L19.9219-15.9766C16.582-19.2969 12.1484-19.2188 9.25781-16.3281ZM10.752-15.957C13.1836-17.7344 16.4746-17.4316 18.7012-15.2051L21.1328-12.793C21.3672-12.5586 21.4062-12.373 21.3379-12.0312L21.0156-10.5469L22.5195-9.0625L23.5059-9.12109C23.7598-9.13086 23.8379-9.11133 24.0332-8.91602L24.6094-8.33984L22.168-5.89844L21.5918-6.47461C21.3965-6.66992 21.3672-6.74805 21.377-7.01172L21.4453-7.98828L19.9512-9.47266L18.4277-9.21875C18.1055-9.15039 17.959-9.17969 17.7148-9.41406L15.7129-11.416C15.459-11.6504 15.4297-11.8164 15.5859-12.1875L16.4648-14.2773C14.9023-15.7324 12.8711-16.3574 10.8398-15.7617C10.6836-15.7227 10.625-15.8496 10.752-15.957Z"/>
  </g>
  <text style="stroke:none;fill:black;font-family:sans-serif;font-size:13;font-weight:bold;" transform="matrix(1 0 0 1 1289 1953)">Exporting</text>
  <text style="stroke:none;fill:black;font-family:sans-serif;font-size:13;" transform="matrix(1 0 0 1 1289 1971)">Symbols should be outlined when exporting to ensure the</text>
  <text style="stroke:none;fill:black;font-family:sans-serif;font-size:13;" transform="matrix(1 0 0 1 1289 1989)">design is preserved when submitting to Xcode.</text>
  <text id="template-version" style="stroke:none;fill:black;font-family:sans-serif;font-size:13;text-anchor:end;" transform="matrix(1 0 0 1 3036 1933)">Template v.4.0</text>
  <text style="stroke:none;fill:black;font-family:sans-serif;font-size:13;text-anchor:end;" transform="matrix(1 0 0 1 3036 1951)">Requires Xcode 14 or greater</text>
  <text id="descriptive-name" style="stroke:none;fill:black;font-family:sans-serif;font-size:13;text-anchor:end;" transform="matrix(1 0 0 1 3036 1969)">Generated from cloud.bolt</text>
  <text style="stroke:none;fill:black;font-family:sans-serif;font-size:13;text-anchor:end;" transform="matrix(1 0 0 1 3036 1987)">Typeset at 100 points</text>
  <text style="stroke:none;fill:black;font-family:sans-serif;font-size:13;" transform="matrix(1 0 0 1 263 726)">Small</text>
  <text style="stroke:none;fill:black;font-family:sans-serif;font-size:13;" transform="matrix(1 0 0 1 263 1156)">Medium</text>
  <text style="stroke:none;fill:black;font-family:sans-serif;font-size:13;" transform="matrix(1 0 0 1 263 1586)">Large</text>
 </g>
 <g id="Guides">
  <g id="H-reference" style="fill:#27AAE1;stroke:none;" transform="matrix(1 0 0 1 339 696)">
   <path d="M0.993654 0L3.63775 0L29.3281-67.1323L30.0303-67.1323L30.0303-70.459L28.1226-70.459ZM11.6885-24.4799L46.9815-24.4799L46.2315-26.7285L12.4385-26.7285ZM55.1196 0L57.7637 0L30.6382-70.459L29.4326-70.459L29.4326-67.1323Z"/>
  </g>
  <line id="Baseline-S" style="fill:none;stroke:#27AAE1;opacity:1;stroke-width:0.5;" x1="263" x2="3036" y1="696" y2="696"/>
  <line id="Capline-S" style="fill:none;stroke:#27AAE1;opacity:1;stroke-width:0.5;" x1="263" x2="3036" y1="625.541" y2="625.541"/>
  <g id="H-reference" style="fill:#27AAE1;stroke:none;" transform="matrix(1 0 0 1 339 1126)">
   <path d="M0.993654 0L3.63775 0L29.3281-67.1323L30.0303-67.1323L30.0303-70.459L28.1226-70.459ZM11.6885-24.4799L46.9815-24.4799L46.2315-26.7285L12.4385-26.7285ZM55.1196 0L57.7637 0L30.6382-70.459L29.4326-70.459L29.4326-67.1323Z"/>
  </g>
  <line id="Baseline-M" style="fill:none;stroke:#27AAE1;opacity:1;stroke-width:0.5;" x1="263" x2="3036" y1="1126" y2="1126"/>
  <line id="Capline-M" style="fill:none;stroke:#27AAE1;opacity:1;stroke-width:0.5;" x1="263" x2="3036" y1="1055.54" y2="1055.54"/>
  <g id="H-reference" style="fill:#27AAE1;stroke:none;" transform="matrix(1 0 0 1 339 1556)">
   <path d="M0.993654 0L3.63775 0L29.3281-67.1323L30.0303-67.1323L30.0303-70.459L28.1226-70.459ZM11.6885-24.4799L46.9815-24.4799L46.2315-26.7285L12.4385-26.7285ZM55.1196 0L57.7637 0L30.6382-70.459L29.4326-70.459L29.4326-67.1323Z"/>
  </g>
  <line id="Baseline-L" style="fill:none;stroke:#27AAE1;opacity:1;stroke-width:0.5;" x1="263" x2="3036" y1="1556" y2="1556"/>
  <line id="Capline-L" style="fill:none;stroke:#27AAE1;opacity:1;stroke-width:0.5;" x1="263" x2="3036" y1="1485.54" y2="1485.54"/>
  <line id="left-margin-Regular-M" style="fill:none;stroke:#00AEEF;stroke-width:0.5;opacity:1.0;" x1="1387.89" x2="1387.89" y1="1030.79" y2="1150.12"/>
  <line id="right-margin-Regular-M" style="fill:none;stroke:#00AEEF;stroke-width:0.5;opacity:1.0;" x1="1511.8" x2="1511.8" y1="1030.79" y2="1150.12"/>
 </g>
 <g id="Symbols">
  <g id="Black-L" transform="matrix(1 0 0 1 2848.89 1556)">
   <path d="M44.9908-7.89272L124.519-7.89272C147.058-7.89272 164.185-25.0781 164.185-46.8985C164.185-68.989 147.107-86.1266 124.465-86.1266C117.168-100.179 103.598-111.366 81.4948-111.366C55.8002-111.366 35.9789-92.8474 32.6054-69.1532C20.4413-64.925 11.2588-54.2236 11.2588-39.6509C11.2588-21.734 24.7138-7.89272 44.9908-7.89272ZM45.5332-25.6507C34.4465-25.6507 29.018-31.3793 29.018-39.3341C29.018-46.4644 33.4964-51.7806 43.4021-54.364C47.5816-55.4387 48.7031-57.3288 49.3133-61.5452C52.2966-82.4934 65.2387-93.6068 81.4948-93.6068C93.6702-93.6068 103.932-86.6728 110.863-73.5927C112.693-70.1234 114.688-68.8694 118.991-68.8694C137.836-68.8694 146.426-59.0329 146.426-46.5416C146.426-34.7674 137.578-25.6507 124.121-25.6507ZM107.065 14.9834L90.545 14.9834L90.0673 19.3016L97.5894 4.86021C98.3132 3.49307 97.7503 2.38801 96.3235 2.38801L77.5467 2.38801C75.7179 2.38801 75.0745 3.03137 74.5116 4.37769L65.223 25.5451C64.5785 27.0754 65.1486 28.0977 66.835 28.0977L80.7792 28.0977L80.9409 23.111L70.5904 48.1959C70.2091 49.0609 70.4296 49.7847 70.9937 50.0259C71.5579 50.2672 72.262 50.1052 72.9834 49.4582L108.018 18.233C109.515 16.9231 108.972 14.9834 107.065 14.9834Z"/>
  </g>
  <g id="Heavy-L" transform="matrix(1 0 0 1 2553.29 1556)">
   <path d="M43.964-8.84542L123.208-8.84542C145.273-8.84542 161.974-25.6436 161.974-46.8607C161.974-68.4411 145.073-84.9749 122.769-84.9749C115.334-99.4063 101.544-110.33 80.3358-110.33C55.1386-110.33 35.4061-91.7978 32.3447-68.1725C20.3471-64.1781 11.2588-53.672 11.2588-39.402C11.2588-22.2345 24.0775-8.84542 43.964-8.84542ZM44.3498-24.6333C32.7782-24.6333 27.0523-30.7685 27.0523-39.1028C27.0523-46.4032 31.5867-52.1149 41.6926-54.7623C45.6746-55.7829 46.8071-57.593 47.335-61.6129C49.9561-82.4895 63.5524-94.5366 80.3358-94.5366C93.0606-94.5366 103.58-87.3477 110.475-74.0619C112.206-70.7129 114.143-69.5125 118.272-69.5125C137.054-69.5125 146.181-59.313 146.181-46.5358C146.181-34.2492 136.776-24.6333 123.028-24.6333ZM104.761 14.2748L88.8302 14.2748L88.4644 18.2058L96.0512 3.62086C96.775 2.25372 96.2121 1.15803 94.7947 1.15803L77.439 1.15803C75.6196 1.15803 74.9762 1.80139 74.4133 3.13834L65.2862 23.9501C64.6372 25.4894 65.2339 26.4934 66.9114 26.4934L80.2572 26.4934L80.5705 21.8012L70.2668 46.7825C69.8949 47.6425 70.106 48.3663 70.6746 48.6075C71.2431 48.8488 71.9423 48.6823 72.6549 48.0221L105.735 17.4836C107.188 16.1555 106.649 14.2748 104.761 14.2748Z"/>
  </g>
  <g id="Bold-L" transform="matrix(1 0 0 1 2257.88 1556)">
   <path d="M42.7109-9.88706L121.691-9.88706C143.165-9.88706 159.373-26.2013 159.373-46.6953C159.373-67.6381 142.702-83.4563 120.82-83.4563C113.231-98.3416 99.2468-108.995 78.9883-108.995C54.3985-108.995 34.8109-90.447 32.104-66.8988C20.2765-63.174 11.2588-52.921 11.2588-38.9978C11.2588-22.7301 23.3309-9.88706 42.7109-9.88706ZM42.9269-23.1794C30.7112-23.1794 24.5644-29.8738 24.5644-38.729C24.5644-46.3562 29.2871-52.5745 39.6465-55.2988C43.3378-56.2429 44.4559-57.9233 44.8839-61.6378C47.089-82.4745 61.5295-95.6892 78.9883-95.6892C92.4938-95.6892 103.358-88.1107 110.214-74.5787C111.807-71.4205 113.646-70.3041 117.507-70.3041C136.197-70.3041 146.067-59.629 146.067-46.4089C146.067-33.4474 135.926-23.1794 121.727-23.1794ZM101.738 13.7044L86.5826 13.7044L86.385 17.1514L94.1083 2.28533C94.8321 0.918194 94.2692-0.169698 92.8596-0.169698L77.4872-0.169698C75.6755-0.169698 75.0321 0.473661 74.4692 1.80281L65.5121 22.2436C64.8555 23.7981 65.4979 24.7791 67.1602 24.7791L79.716 24.7791L80.199 20.4108L69.9343 45.3137C69.5702 46.1736 69.7735 46.8974 70.3496 47.1386C70.9258 47.3799 71.6248 47.2058 72.3222 46.5228L102.758 16.8594C104.142 15.5083 103.604 13.7044 101.738 13.7044Z"/>
  </g>
  <g id="Semibold-L" transform="matrix(1 0 0 1 1962.06 1556)">
   <path d="M41.847-10.6052L120.645-10.6052C141.711-10.6052 157.579-26.5858 157.579-46.5813C157.579-67.0846 141.068-82.4094 119.476-82.4094C111.781-97.6076 97.6629-108.074 78.0594-108.074C53.8882-108.074 34.4006-89.5157 31.938-66.0207C20.2279-62.4817 11.2588-52.4034 11.2588-38.7191C11.2588-23.0718 22.8161-10.6052 41.847-10.6052ZM41.946-22.1771C29.2863-22.1771 22.8492-29.2569 22.8492-38.4713C22.8492-46.3238 27.7019-52.8914 38.2358-55.6687C41.7269-56.56 42.835-58.151 43.1941-61.6549C45.1124-82.4641 60.1349-96.4838 78.0594-96.4838C92.1031-96.4838 103.205-88.6367 110.035-74.935C111.533-71.9083 113.303-70.8498 116.98-70.8498C135.607-70.8498 145.989-59.8469 145.989-46.3214C145.989-32.8946 135.34-22.1771 120.831-22.1771ZM99.6548 13.3111L85.0332 13.3111L84.9515 16.4245L92.7689 1.36463C93.4927-0.00251173 92.9298-1.08503 91.5256-1.08503L77.5204-1.08503C75.7141-1.08503 75.0707-0.441666 74.5078 0.882107L65.6679 21.0672C65.006 22.6321 65.6799 23.5972 67.3317 23.5972L79.3429 23.5972L79.9428 19.4523L69.7051 44.3012C69.3463 45.1609 69.5442 45.8847 70.1256 46.126C70.7071 46.3672 71.406 46.1879 72.0928 45.4891L100.706 16.4291C102.043 15.0621 101.505 13.3111 99.6548 13.3111Z"/>
  </g>
  <g id="Medium-L" transform="matrix(1 0 0 1 1666.03 1556)">
   <path d="M41.192-11.1496L119.852-11.1496C140.609-11.1496 156.22-26.8773 156.22-46.4949C156.22-66.6649 139.828-81.6156 118.458-81.6156C110.682-97.051 96.462-107.376 77.3551-107.376C53.5014-107.376 34.0894-88.8096 31.8121-65.3549C20.191-61.9568 11.2588-52.0108 11.2588-38.5077C11.2588-23.3309 22.4259-11.1496 41.192-11.1496ZM41.2023-21.4171C28.2058-21.4171 21.5487-28.7893 21.5487-38.2759C21.5487-46.2993 26.4998-53.1316 37.1663-55.9492C40.5055-56.8005 41.6059-58.3237 41.9128-61.6679C43.6137-82.4563 59.0774-97.0863 77.3551-97.0863C91.8068-97.0863 103.09-89.0355 109.899-75.2052C111.325-72.2782 113.043-71.2636 116.58-71.2636C135.159-71.2636 145.93-60.0121 145.93-46.2551C145.93-32.4754 134.896-21.4171 120.151-21.4171ZM98.0749 13.0129L83.8583 13.0129L83.8645 15.8733L91.7534 0.666509C92.4771-0.700629 91.9142-1.77906 90.5141-1.77906L77.5455-1.77906C75.7433-1.77906 75.1-1.13571 74.537 0.18399L65.786 20.1751C65.1202 21.748 65.8179 22.7011 67.4618 22.7011L79.0601 22.7011L79.7486 18.7256L69.5312 43.5335C69.1766 44.3931 69.3704 45.1169 69.9558 45.3581C70.5412 45.5994 71.24 45.4161 71.9189 44.7053L99.1498 16.1029C100.451 14.7238 99.9127 13.0129 98.0749 13.0129Z"/>
  </g>
  <g id="Regular-L" transform="matrix(1 0 0 1 1370.21 1556)">
   <path d="M40.3376-11.8599L118.818-11.8599C139.171-11.8599 154.446-27.2575 154.446-46.3822C154.446-66.1174 138.211-80.5802 117.129-80.5802C109.248-96.3251 94.8955-106.466 76.4364-106.466C52.9967-106.466 33.6836-87.8886 31.648-64.4865C20.1428-61.2722 11.2588-51.4988 11.2588-38.2321C11.2588-23.6688 21.9168-11.8599 40.3376-11.8599ZM40.2321-20.4257C26.7965-20.4257 19.8523-28.1792 19.8523-38.021C19.8523-46.2672 24.9319-53.445 35.7712-56.315C38.9123-57.1141 40.0028-58.5489 40.2415-61.6849C41.6589-82.446 57.6982-97.8721 76.4364-97.8721C91.4204-97.8721 102.938-89.5557 109.721-75.5575C111.053-72.7607 112.704-71.8033 116.059-71.8033C134.575-71.8033 145.852-60.2275 145.852-46.1686C145.852-31.9287 134.317-20.4257 119.265-20.4257ZM96.0143 12.6239L82.3259 12.6239L82.4467 15.1544L90.4287-0.244079C91.1524-1.61122 90.5895-2.68433 89.1947-2.68433L77.5784-2.68433C75.7815-2.68433 75.1381-2.04097 74.5752-0.726598L65.94 19.0116C65.269 20.5949 65.9979 21.5323 67.6314 21.5323L78.6911 21.5323L79.4953 17.7776L69.3045 42.5321C68.9552 43.3916 69.1437 44.1154 69.7343 44.3566C70.3249 44.5979 71.0235 44.4094 71.692 43.683L97.1202 15.6773C98.3741 14.2825 97.8363 12.6239 96.0143 12.6239Z"/>
  </g>
  <g id="Light-L" transform="matrix(1 0 0 1 1073.96 1556)">
   <path d="M39.5933-11.6881L118.455-11.6881C138.37-11.6881 153.53-26.7231 153.53-45.5042C153.53-64.7624 137.524-78.9389 116.766-78.9389C108.885-94.8937 94.8955-105.206 76.0738-105.206C52.9967-105.206 34.008-86.629 32.0106-63.2268C20.3909-60.0698 11.2588-50.5446 11.2588-37.3351C11.2588-23.2108 21.6687-11.6881 39.5933-11.6881ZM39.526-18.1737C25.3651-18.1737 17.7911-26.6715 17.7911-37.2004C17.7911-46.4199 23.7677-54.0557 34.8169-56.9639C37.4618-57.6485 38.3615-58.797 38.5429-61.3223C39.884-82.3696 56.7248-98.6737 76.0738-98.6737C92.2411-98.6737 104.16-89.613 110.962-75.5003C112.103-73.1042 113.506-72.3186 116.345-72.3186C134.709-72.3186 146.997-60.2466 146.997-45.3097C146.997-30.3447 134.66-18.1737 118.711-18.1737ZM92.8462 14.208L79.9784 14.208L80.4046 16.3758L88.8446 0.118541C89.5684-1.2486 89.0054-2.3408 87.5915-2.3408L78.7807-2.3408C76.9647-2.3408 76.3214-1.69744 75.7584-0.363978L67.047 19.5651C66.3569 21.1865 67.2003 22.1048 68.7956 22.1048L78.9965 22.1048L79.8007 18.312L69.5145 43.3336C69.146 44.2313 69.3536 44.9551 69.9633 45.1964C70.573 45.4376 71.3098 45.23 71.9401 44.4465L94.1047 17.2041C95.2251 15.7902 94.6491 14.208 92.8462 14.208Z"/>
  </g>
  <g id="Thin-L" transform="matrix(1 0 0 1 777.851 1556)">
   <path d="M38.6089-11.4609L117.975-11.4609C137.309-11.4609 152.318-26.0164 152.318-44.3431C152.318-62.9702 136.615-76.7681 116.287-76.7681C108.406-93.0006 94.8955-103.54 75.5942-103.54C52.9967-103.54 34.4372-84.9631 32.4902-61.5609C20.7191-58.4796 11.2588-49.2825 11.2588-36.1487C11.2588-22.605 21.3405-11.4609 38.6089-11.4609ZM38.592-15.1951C23.472-15.1951 15.065-24.6774 15.065-36.115C15.065-46.6218 22.228-54.8635 33.5548-57.8221C35.5434-58.3553 36.1907-59.1252 36.2964-60.8427C37.5365-82.2687 55.4375-99.7338 75.5942-99.7338C93.3265-99.7338 105.775-89.6887 112.602-75.4246C113.491-73.5586 114.566-73.0001 116.724-73.0001C134.886-73.0001 148.512-60.2719 148.512-44.1738C148.512-28.2496 135.114-15.1951 117.979-15.1951ZM88.656 16.303L76.8736 16.303L77.7037 17.9913L86.7495 0.598136C87.4733-0.769003 86.9104-1.88645 85.4712-1.88645L80.371-1.88645C78.5297-1.88645 77.8864-1.24309 77.3234 0.115616L68.511 20.2971C67.7957 21.969 68.7905 22.8621 70.3353 22.8621L79.4003 22.8621L80.2045 19.0188L69.7921 44.3938C69.3985 45.342 69.6313 46.0657 70.2662 46.307C70.9011 46.5483 71.6884 46.3154 72.2683 45.4561L90.1165 19.2235C91.0602 17.7843 90.4337 16.303 88.656 16.303Z"/>
  </g>
  <g id="Ultralight-L" transform="matrix(1 0 0 1 481.45 1556)">
   <path d="M38.1047-11.3446L117.73-11.3446C136.766-11.3446 151.698-25.6544 151.698-43.7484C151.698-62.0522 136.15-75.6562 116.041-75.6562C108.16-92.0309 94.8955-102.687 75.3485-102.687C52.9967-102.687 34.6569-84.1098 32.7358-60.7076C20.8872-57.6651 11.2588-48.636 11.2588-35.5411C11.2588-22.2947 21.1725-11.3446 38.1047-11.3446ZM38.1137-13.6696C22.5023-13.6696 13.6687-23.656 13.6687-35.559C13.6687-46.7253 21.4393-55.2772 32.9084-58.2617C34.5608-58.7173 35.0788-59.2932 35.1458-60.597C36.3341-82.217 54.7781-100.277 75.3485-100.277C93.8824-100.277 106.603-89.7275 113.443-75.3858C114.202-73.7913 115.109-73.3492 116.918-73.3492C134.976-73.3492 149.288-60.2848 149.288-43.592C149.288-27.1765 135.347-13.6696 117.604-13.6696ZM86.5098 17.3761L75.2834 17.3761L76.3203 18.8188L85.6764 0.843782C86.4002-0.523357 85.8373-1.65373 84.3852-1.65373L81.1855-1.65373C79.3313-1.65373 78.688-1.01037 78.125 0.361262L69.2609 20.672C68.5326 22.3698 69.605 23.2499 71.124 23.2499L79.6072 23.2499L80.4114 19.3808L69.9343 44.9368C69.5277 45.9108 69.7735 46.6346 70.4213 46.8759C71.0692 47.1171 71.8824 46.8714 72.4363 45.9733L88.0738 20.2578C88.9269 18.8057 88.2746 17.3761 86.5098 17.3761Z"/>
  </g>
  <g id="Black-M" transform="matrix(1 0 0 1 2867.04 1126)">
   <path d="M35.6379-13.2085L97.5471-13.2085C115.357-13.2085 128.977-26.8063 128.977-44.1834C128.977-61.6717 115.625-75.4291 97.8374-75.4291C92.3025-86.0181 82.0269-94.9352 64.0845-94.9352C43.7994-94.9352 28.4106-80.5999 25.5339-62.1838C15.9513-58.7149 8.72266-50.2898 8.72266-38.7474C8.72266-24.2818 19.6601-13.2085 35.6379-13.2085ZM36.1979-28.3776C27.927-28.3776 23.8915-32.5673 23.8915-38.497C23.8915-44.0069 27.4346-47.8477 34.9653-49.7995C38.3059-50.663 39.1395-52.1574 39.6751-55.51C42.2874-71.8398 51.8606-79.7663 64.0845-79.7663C73.2053-79.7663 80.9876-74.5125 86.3922-64.5401C87.8695-61.8031 89.4308-60.8089 92.8444-60.8089C107.478-60.8089 113.808-53.4329 113.808-43.882C113.808-35.1022 107.324-28.3776 97.0259-28.3776ZM84.4991 4.49613L71.3048 4.49613L70.8798 8.12521L76.714-3.05606C77.2747-4.11524 76.8386-4.98202 75.7226-4.98202L60.3342-4.98202C58.9067-4.98202 58.4082-4.48358 57.9721-3.42989L50.6267 13.3008C50.1285 14.484 50.563 15.2891 51.8719 15.2891L63.0731 15.2891L63.0681 11.1675L54.9959 30.727C54.6899 31.4066 54.8713 31.9673 55.3072 32.1542C55.743 32.3412 56.298 32.2168 56.8593 31.7192L85.2393 7.04106C86.4199 6.03926 85.9895 4.49613 84.4991 4.49613Z"/>
  </g>
  <g id="Heavy-M" transform="matrix(1 0 0 1 2571.37 1126)">
   <path d="M34.7028-14.1557L96.2993-14.1557C113.686-14.1557 126.9-27.4085 126.9-44.2275C126.9-61.2611 113.7-74.4546 96.2123-74.4546C90.5426-85.3952 80.0192-94.0388 62.9849-94.0388C43.1526-94.0388 27.8207-79.69 25.2457-61.3413C15.8364-58.0956 8.72266-49.8386 8.72266-38.5868C8.72266-24.8133 19.0609-14.1557 34.7028-14.1557ZM35.1062-27.5908C26.4281-27.5908 22.1601-32.1092 22.1601-38.3467C22.1601-43.933 25.6751-48.1182 33.3822-50.1289C36.5754-50.9502 37.4374-52.3927 37.8979-55.6097C40.1631-71.8431 50.3019-80.6014 62.9849-80.6014C72.5337-80.6014 80.5314-75.167 85.8981-65.004C87.296-62.3477 88.824-61.39 92.1147-61.39C106.701-61.39 113.463-53.7049 113.463-43.9556C113.463-34.7418 106.508-27.5908 96.0085-27.5908ZM82.5386 3.65732L69.845 3.65732L69.5013 6.94138L75.3564-4.30106C75.9172-5.36024 75.481-6.21609 74.376-6.21609L60.118-6.21609C58.7014-6.21609 58.2029-5.71766 57.7668-4.67488L50.5863 11.6906C50.0856 12.879 50.5354 13.668 51.8392 13.668L62.5346 13.668L62.6778 9.83772L54.6602 29.2713C54.3651 29.9425 54.5356 30.5033 54.974 30.6902C55.4124 30.8771 55.959 30.7502 56.5152 30.245L83.2857 6.16763C84.4349 5.1498 84.0129 3.65732 82.5386 3.65732Z"/>
  </g>
  <g id="Bold-M" transform="matrix(1 0 0 1 2275.82 1126)">
   <path d="M33.6567-15.2152L94.9034-15.2152C111.818-15.2152 124.577-28.0821 124.577-44.2768C124.577-60.8018 111.547-73.3645 94.3943-73.3645C88.574-84.6983 77.7732-93.0361 61.7548-93.0361C42.4291-93.0361 27.1609-78.6722 24.9232-60.3988C15.7077-57.403 8.72266-49.3338 8.72266-38.4071C8.72266-25.4079 18.3907-15.2152 33.6567-15.2152ZM33.8849-26.7107C24.7515-26.7107 20.2233-31.5969 20.2233-38.1785C20.2233-43.8504 23.7069-48.4208 31.6113-50.4975C34.6397-51.2715 35.5333-52.656 35.9099-55.7211C37.7869-71.8467 48.5582-81.5355 61.7548-81.5355C71.7824-81.5355 80.0211-75.8991 85.3455-65.523C86.6544-62.9569 88.1453-62.04 91.2984-62.04C105.831-62.04 113.077-54.0093 113.077-44.0379C113.077-34.3386 105.594-26.7107 94.8704-26.7107ZM80.3454 2.71899L68.2119 2.71899L67.9592 5.61708L73.8378-5.69376C74.3985-6.75294 73.9624-7.59659 72.8695-7.59659L59.8761-7.59659C58.4717-7.59659 57.9733-7.09815 57.5372-6.06759L50.5412 9.88938C50.0376 11.0834 50.5046 11.8545 51.8027 11.8545L61.9322 11.8545L62.2412 8.35016L54.2847 27.6429C54.0018 28.3048 54.1601 28.8655 54.6014 29.0525C55.0426 29.2394 55.5799 29.1096 56.1303 28.5958L81.1004 5.19057C82.2145 4.1548 81.8018 2.71899 80.3454 2.71899Z"/>
  </g>
  <g id="Semibold-M" transform="matrix(1 0 0 1 1979.91 1126)">
   <path d="M32.9355-15.9457L93.9411-15.9457C110.529-15.9457 122.976-28.5464 122.976-44.3108C122.976-60.4851 110.063-72.613 93.1411-72.613C87.2168-84.2179 76.2249-92.3448 60.9068-92.3448C41.9303-92.3448 26.706-77.9706 24.7008-59.7491C15.6191-56.9254 8.72266-48.9858 8.72266-38.2833C8.72266-25.8178 17.9286-15.9457 32.9355-15.9457ZM33.043-26.1039C23.5956-26.1039 18.888-31.2437 18.888-38.0625C18.888-43.7934 22.35-48.6293 30.3904-50.7516C33.3052-51.4929 34.2207-52.8375 34.5394-55.798C36.1487-71.8492 47.3562-82.1794 60.9068-82.1794C71.2645-82.1794 79.6693-76.4038 84.9644-65.8808C86.2121-63.3769 87.6773-62.4881 90.7357-62.4881C105.232-62.4881 112.81-54.2191 112.81-44.0947C112.81-34.0606 104.965-26.1039 94.0858-26.1039ZM78.8335 2.07211L67.0861 2.07211L66.8961 4.70413L72.7908-6.65389C73.3516-7.71307 72.9154-8.54829 71.831-8.54829L59.7094-8.54829C58.3134-8.54829 57.815-8.04985 57.3788-7.02771L50.5101 8.64762C50.0045 9.84562 50.4833 10.6043 51.7775 10.6043L61.5169 10.6043L61.9402 7.32466L54.0258 26.5203C53.7513 27.1758 53.9012 27.7365 54.3444 27.9234C54.7877 28.1103 55.3185 27.9786 55.865 27.4589L79.5938 4.51699C80.6837 3.46886 80.2775 2.07211 78.8335 2.07211Z"/>
  </g>
  <g id="Medium-M" transform="matrix(1 0 0 1 1683.81 1126)">
   <path d="M32.3887-16.4995L93.2114-16.4995C109.553-16.4995 121.762-28.8985 121.762-44.3366C121.762-60.245 108.938-72.0432 92.1908-72.0432C86.1877-83.8536 75.0509-91.8206 60.2638-91.8206C41.5521-91.8206 26.3611-77.4385 24.5323-59.2565C15.5518-56.5633 8.72266-48.722 8.72266-38.1894C8.72266-26.1286 17.5782-16.4995 32.3887-16.4995ZM32.4046-25.6438C22.7192-25.6438 17.8756-30.9759 17.8756-37.9746C17.8756-43.7502 21.3212-48.7875 29.4647-50.9443C32.2933-51.6609 33.2254-52.9751 33.5002-55.8562C34.9065-71.8511 46.4447-82.6677 60.2638-82.6677C70.8718-82.6677 79.4025-76.7865 84.6755-66.1521C85.8767-63.6954 87.3225-62.8279 90.309-62.8279C104.778-62.8279 112.609-54.3782 112.609-44.1377C112.609-33.8499 104.488-25.6438 93.4909-25.6438ZM77.687 1.58162L66.2325 1.58162L66.09 4.01188L71.997-7.38189C72.5577-8.44107 72.1216-9.26991 71.0436-9.26991L59.5829-9.26991C58.1934-9.26991 57.6949-8.77147 57.2588-7.75572L50.4865 7.70607C49.9794 8.90706 50.4672 9.65639 51.7584 9.65639L61.202 9.65639L61.712 6.54707L53.8295 25.6691C53.5614 26.3197 53.7049 26.8804 54.1496 27.0673C54.5944 27.2542 55.1203 27.121 55.6638 26.5968L78.4515 4.00626C79.523 2.94875 79.1217 1.58162 77.687 1.58162Z"/>
  </g>
  <g id="Regular-M" transform="matrix(1 0 0 1 1387.89 1126)">
   <path d="M31.6754-17.2219L92.2597-17.2219C108.279-17.2219 120.178-29.3578 120.178-44.3702C120.178-59.9318 107.47-71.2999 90.9513-71.2999C84.8454-83.3785 73.5195-91.1369 59.4251-91.1369C41.0588-91.1369 25.9112-76.7445 24.3124-58.6139C15.4641-56.091 8.72266-48.3778 8.72266-38.0669C8.72266-26.534 17.1212-17.2219 31.6754-17.2219ZM31.5719-25.0437C21.5761-25.0437 16.555-30.6265 16.555-37.8599C16.555-43.6939 19.9792-48.9938 28.2572-51.1956C30.9735-51.8799 31.9272-53.1546 32.1447-55.9322C33.2863-71.8536 45.2558-83.3046 59.4251-83.3046C70.3596-83.3046 79.0546-77.2857 84.2987-66.5059C85.4393-64.1107 86.8597-63.2711 89.7524-63.2711C104.185-63.2711 112.345-54.5856 112.345-44.1939C112.345-33.5749 103.865-25.0437 92.7149-25.0437ZM76.1917 0.941849L65.119 0.941849L65.0386 3.10896L70.9616-8.33146C71.5223-9.39064 71.0862-10.2112 70.0164-10.2112L59.418-10.2112C58.0368-10.2112 57.5383-9.71272 57.1022-8.70529L50.4557 6.47795C49.9467 7.68284 50.4462 8.41995 51.7335 8.41995L60.7913 8.41995L61.4143 5.53283L53.5735 24.5589C53.3137 25.203 53.4489 25.7638 53.8956 25.9507C54.3422 26.1376 54.8618 26.0024 55.4014 25.4723L76.9615 3.34008C78.0091 2.27035 77.6141 0.941849 76.1917 0.941849Z"/>
  </g>
  <g id="Light-M" transform="matrix(1 0 0 1 1091.59 1126)">
   <path d="M31.0081-17.0679L91.9346-17.0679C107.56-17.0679 119.356-28.8787 119.356-43.5831C119.356-58.717 106.854-69.8284 90.6262-69.8284C84.5203-82.0952 73.5195-90.0076 59.1-90.0076C41.0588-90.0076 26.2021-75.6152 24.6375-57.4846C15.6866-55.0131 8.72266-47.5223 8.72266-37.2627C8.72266-26.1233 16.8988-17.0679 31.0081-17.0679ZM30.9388-23.0247C20.2927-23.0247 14.707-29.2748 14.707-37.1241C14.707-43.8308 18.9355-49.5413 27.4017-51.7773C29.6731-52.359 30.4556-53.3771 30.6219-55.6071C31.695-71.7852 44.3832-84.0232 59.1-84.0232C71.0953-84.0232 80.1497-77.337 85.4109-66.4546C86.3804-64.4187 87.5784-63.7331 90.0091-63.7331C104.305-63.7331 113.372-54.6028 113.372-43.4239C113.372-32.1547 104.173-23.0247 92.2187-23.0247ZM73.3513 2.36206L63.0144 2.36206L63.2077 4.20406L69.5414-8.00636C70.1021-9.06554 69.666-9.90316 68.5791-9.90316L60.496-9.90316C59.0977-9.90316 58.5992-9.40472 58.1631-8.38018L51.4481 6.97417C50.922 8.21328 51.5241 8.93328 52.7772 8.93328L61.0651 8.93328L61.6881 6.01194L53.7617 25.2775C53.4848 25.9559 53.6371 26.5166 54.1009 26.7036C54.5647 26.8905 55.1184 26.7382 55.6239 26.1568L74.2579 4.70895C75.1858 3.62211 74.7566 2.36206 73.3513 2.36206Z"/>
  </g>
  <g id="Thin-M" transform="matrix(1 0 0 1 795.418 1126)">
   <path d="M30.1255-16.8643L91.5046-16.8643C106.609-16.8643 118.27-28.245 118.27-42.5421C118.27-57.1102 106.039-67.8822 90.1962-67.8822C84.0903-80.3979 73.5195-88.514 58.67-88.514C41.0588-88.514 26.5868-74.1216 25.0675-55.9909C15.9808-53.5873 8.72266-46.3907 8.72266-36.199C8.72266-25.5802 16.6046-16.8643 30.1255-16.8643ZM30.1015-20.3542C18.5954-20.3542 12.2629-27.4869 12.2629-36.151C12.2629-44.0118 17.555-50.2655 26.2701-52.5468C27.9532-52.9927 28.5094-53.6713 28.6078-55.1772C29.5904-71.6946 43.229-84.9737 58.67-84.9737C72.0684-84.9737 81.598-77.4049 86.8819-66.3867C87.6251-64.8261 88.5289-64.3441 90.3485-64.3441C104.463-64.3441 114.73-54.6254 114.73-42.4055C114.73-30.2764 104.58-20.3542 91.5624-20.3542ZM69.5946 4.2404L60.2308 4.2404L60.7863 5.65242L67.663-7.57637C68.2238-8.63555 67.7876-9.49581 66.6782-9.49581L61.9218-9.49581C60.5008-9.49581 60.0023-8.99737 59.5662-7.9502L52.7607 7.63046C52.212 8.91483 52.9499 9.6122 54.1577 9.6122L61.4271 9.6122L62.0502 6.64559L54.0106 26.228C53.7111 26.9516 53.886 27.5124 54.3725 27.6993C54.8589 27.8862 55.4579 27.7113 55.9181 27.062L70.6823 6.5194C71.4517 5.40993 70.9773 4.2404 69.5946 4.2404Z"/>
  </g>
  <g id="Ultralight-M" transform="matrix(1 0 0 1 498.985 1126)">
   <path d="M29.6734-16.7599L91.2844-16.7599C106.123-16.7599 117.714-27.9205 117.714-42.0089C117.714-56.2872 105.622-66.8853 89.976-66.8853C83.8701-79.5285 73.5195-87.749 58.4498-87.749C41.0588-87.749 26.7839-73.3566 25.2877-55.2259C16.1314-52.8571 8.72266-45.8112 8.72266-35.6543C8.72266-25.302 16.4539-16.7599 29.6734-16.7599ZM29.6726-18.9865C17.7261-18.9865 11.0111-26.5712 11.0111-35.6526C11.0111-44.1045 16.8479-50.6364 25.6906-52.9409C27.0722-53.3172 27.5126-53.822 27.5761-54.9569C28.5124-71.6483 42.6379-85.4605 58.4498-85.4605C72.5669-85.4605 82.3399-77.4397 87.6353-66.3519C88.2626-65.0347 89.0157-64.6571 90.5224-64.6571C104.544-64.6571 115.425-54.637 115.425-41.8839C115.425-29.3143 104.789-18.9865 91.2263-18.9865ZM67.6704 5.20247L58.8051 5.20247L59.546 6.39426L66.7009-7.35614C67.2617-8.41532 66.8256-9.28716 65.7045-9.28716L62.652-9.28716C61.2194-9.28716 60.721-8.78873 60.2848-7.72997L53.433 7.9666C52.8727 9.27416 53.6801 9.95993 54.8648 9.95993L61.6126 9.95993L62.2356 6.97015L54.1381 26.7148C53.827 27.4617 54.0135 28.0224 54.5116 28.2093C55.0096 28.3962 55.6318 28.2097 56.0687 27.5256L68.8509 7.4467C69.5392 6.32564 69.0416 5.20247 67.6704 5.20247Z"/>
  </g>
  <g id="Black-S" transform="matrix(1 0 0 1 2881.11 696)">
   <path d="M28.1738-17.6758L76.8066-17.6758C90.8691-17.6758 101.66-28.418 101.66-42.1875C101.66-56.0059 91.1621-66.9434 77.1484-66.9434C72.8516-75.1465 64.8926-82.2266 50.5371-82.2266C34.5215-82.2266 22.4609-70.9961 20.1172-56.543C12.5488-53.7598 6.83594-47.1191 6.83594-37.9883C6.83594-26.4648 15.5762-17.6758 28.1738-17.6758ZM28.6621-29.9805C22.2656-29.9805 19.1406-33.2031 19.1406-37.793C19.1406-42.1387 21.9727-45.0684 27.832-46.582C30.4688-47.2656 31.1035-48.4375 31.543-51.0742C33.6914-63.916 41.0645-69.9219 50.5371-69.9219C57.6172-69.9219 63.6719-65.8203 67.9199-58.0566C69.0918-55.9082 70.3125-55.127 72.998-55.127C84.4727-55.127 89.3555-49.4141 89.3555-41.9434C89.3555-35.1562 84.375-29.9805 76.3184-29.9805ZM66.6504-3.75977L56.2012-3.75977L55.8594-0.830078L60.4492-9.61914C60.8887-10.4492 60.5469-11.1328 59.668-11.1328L47.4121-11.1328C46.2891-11.1328 45.8984-10.7422 45.5566-9.91211L39.7461 3.32031C39.3555 4.24805 39.6973 4.88281 40.7227 4.88281L49.6094 4.88281L49.5605 1.5625L43.2129 16.9434C42.9688 17.4805 43.1152 17.9199 43.457 18.0664C43.7988 18.2129 44.2383 18.1152 44.6777 17.7246L67.2363-1.75781C68.1641-2.53906 67.8223-3.75977 66.6504-3.75977Z"/>
  </g>
  <g id="Heavy-S" transform="matrix(1 0 0 1 2585.23 696)">
   <path d="M27.4593-18.5055L75.781-18.5055C89.5323-18.5055 99.9891-28.9942 99.9891-42.3258C99.9891-55.8099 89.5948-66.298 75.8001-66.298C71.388-74.7777 63.1754-81.6042 49.6382-81.6042C33.9683-81.6042 21.9193-70.3622 19.8291-55.9667C12.4221-53.3679 6.83594-46.8426 6.83594-37.9537C6.83594-26.9719 15.0921-18.5055 27.4593-18.5055ZM27.8093-29.5656C21.1478-29.5656 17.896-32.9842 17.896-37.7584C17.896-42.058 20.6012-45.2297 26.5874-46.7895C29.155-47.45 29.8358-48.6104 30.2177-51.201C32.078-63.9275 39.8429-70.5442 49.6382-70.5442C56.9488-70.5442 63.1417-66.3735 67.3552-58.46C68.481-56.3346 69.7017-55.5649 72.3412-55.5649C83.7927-55.5649 88.9291-49.6446 88.9291-42.1047C88.9291-35.0295 83.6374-29.5656 75.5116-29.5656ZM65.3366-4.65867L55.2216-4.65867L54.9144-1.98252L59.4696-10.7255C59.9091-11.5556 59.5673-12.2276 58.6999-12.2276L47.0894-12.2276C45.9779-12.2276 45.5873-11.837 45.2455-11.0185L39.5848 1.87975C39.1941 2.80749 39.5359 3.43073 40.5613 3.43073L49.1138 3.43073L49.1918 0.363956L42.9017 15.6065C42.6691 16.1321 42.8041 16.5716 43.1459 16.718C43.4877 16.8645 43.9156 16.7669 44.355 16.3762L65.911-2.67977C66.8272-3.47254 66.497-4.65867 65.3366-4.65867Z"/>
  </g>
  <g id="Bold-S" transform="matrix(1 0 0 1 2289.45 696)">
   <path d="M26.6602-19.4336L74.6338-19.4336C88.0371-19.4336 98.1201-29.6387 98.1201-42.4805C98.1201-55.5908 87.8418-65.5762 74.292-65.5762C69.751-74.3652 61.2549-80.9082 48.6328-80.9082C33.3496-80.9082 21.3135-69.6533 19.5068-55.3223C12.2803-52.9297 6.83594-46.5332 6.83594-37.915C6.83594-27.5391 14.5508-19.4336 26.6602-19.4336ZM26.8555-29.1016C19.8975-29.1016 16.5039-32.7393 16.5039-37.7197C16.5039-41.9678 19.0674-45.4102 25.1953-47.0215C27.6855-47.6562 28.418-48.8037 28.7354-51.3428C30.2734-63.9404 38.4766-71.2402 48.6328-71.2402C56.2012-71.2402 62.5488-66.9922 66.7236-58.9111C67.7979-56.8115 69.0186-56.0547 71.6064-56.0547C83.0322-56.0547 88.4521-49.9023 88.4521-42.2852C88.4521-34.8877 82.8125-29.1016 74.6094-29.1016ZM63.8672-5.66406L54.126-5.66406L53.8574-3.27148L58.374-11.9629C58.8135-12.793 58.4717-13.4521 57.6172-13.4521L46.7285-13.4521C45.6299-13.4521 45.2393-13.0615 44.8975-12.2559L39.4043 0.268555C39.0137 1.19629 39.3555 1.80664 40.3809 1.80664L48.5596 1.80664L48.7793-0.976562L42.5537 14.1113C42.334 14.624 42.4561 15.0635 42.7979 15.21C43.1396 15.3564 43.5547 15.2588 43.9941 14.8682L64.4287-3.71094C65.332-4.5166 65.0146-5.66406 63.8672-5.66406Z"/>
  </g>
  <g id="Semibold-S" transform="matrix(1 0 0 1 1993.39 696)">
   <path d="M26.1092-20.0734L73.8429-20.0734C87.0062-20.0734 96.8315-30.083 96.8315-42.5871C96.8315-55.4397 86.6332-65.0785 73.2522-65.0785C68.6224-74.0809 59.9308-80.4283 47.9396-80.4283C32.923-80.4283 20.8958-69.1646 19.2847-54.8779C12.1825-52.6275 6.83594-46.3199 6.83594-37.8884C6.83594-27.9301 14.1775-20.0734 26.1092-20.0734ZM26.1979-28.7816C19.0354-28.7816 15.5441-32.5704 15.5441-37.6931C15.5441-41.9056 18.0099-45.5346 24.2355-47.1814C26.6725-47.7984 27.4404-48.937 27.7134-51.4405C29.0293-63.9493 37.5346-71.7201 47.9396-71.7201C55.6857-71.7201 62.14-67.4188 66.2882-59.2222C67.3269-57.1403 68.5476-56.3924 71.0999-56.3924C82.5079-56.3924 88.1233-50.0801 88.1233-42.4096C88.1233-34.7899 82.2438-28.7816 73.9873-28.7816ZM62.8541-6.35723L53.3706-6.35723L53.1287-4.16016L57.6187-12.816C58.0581-13.6461 57.7163-14.2964 56.8707-14.2964L46.4797-14.2964C45.3899-14.2964 44.9993-13.9058 44.6575-13.109L39.2799-0.842285C38.8893 0.0854492 39.2311 0.686914 40.2564 0.686914L48.1774 0.686914L48.4949-1.90078L42.3138 13.0805C42.1029 13.5843 42.2161 14.0237 42.5579 14.1702C42.8997 14.3167 43.3059 14.219 43.7453 13.8284L63.4067-4.42188C64.3012-5.23643 63.9927-6.35723 62.8541-6.35723Z"/>
  </g>
  <g id="Medium-S" transform="matrix(1 0 0 1 1697.16 696)">
   <path d="M25.6914-20.5586L73.2432-20.5586C86.2246-20.5586 95.8545-30.4199 95.8545-42.668C95.8545-55.3252 85.7168-64.7012 72.4639-64.7012C67.7666-73.8652 58.9268-80.0645 47.4141-80.0645C32.5996-80.0645 20.5791-68.7939 19.1162-54.541C12.1084-52.3984 6.83594-46.1582 6.83594-37.8682C6.83594-28.2266 13.8945-20.5586 25.6914-20.5586ZM25.6992-28.5391C18.3818-28.5391 14.8164-32.4424 14.8164-37.6729C14.8164-41.8584 17.208-45.6289 23.5078-47.3027C25.9043-47.9062 26.6992-49.0381 26.9385-51.5146C28.0859-63.9561 36.8203-72.084 47.4141-72.084C55.2949-72.084 61.8301-67.7422 65.958-59.458C66.9697-57.3896 68.1904-56.6484 70.7158-56.6484C82.1104-56.6484 87.874-50.2148 87.874-42.5039C87.874-34.7158 81.8125-28.5391 73.5156-28.5391ZM62.0859-6.88281L52.7979-6.88281L52.5762-4.83398L57.0459-13.4629C57.4854-14.293 57.1436-14.9365 56.3047-14.9365L46.291-14.9365C45.208-14.9365 44.8174-14.5459 44.4756-13.7559L39.1855-1.68457C38.7949-0.756836 39.1367-0.162109 40.1621-0.162109L47.8877-0.162109L48.2793-2.60156L42.1318 12.2988C41.9277 12.7959 42.0342 13.2354 42.376 13.3818C42.7178 13.5283 43.1172 13.4307 43.5566 13.04L62.6318-4.96094C63.5195-5.78223 63.2178-6.88281 62.0859-6.88281Z"/>
  </g>
  <g id="Regular-S" transform="matrix(1 0 0 1 1401.09 696)">
   <path d="M25.1465-21.1914L72.4609-21.1914C85.2051-21.1914 94.5801-30.8594 94.5801-42.7734C94.5801-55.1758 84.5215-64.209 71.4355-64.209C66.6504-73.584 57.6172-79.5898 46.7285-79.5898C32.1777-79.5898 20.166-68.3105 18.8965-54.1016C12.0117-52.0996 6.83594-45.9473 6.83594-37.8418C6.83594-28.6133 13.5254-21.1914 25.1465-21.1914ZM25.0488-28.2227C17.5293-28.2227 13.8672-32.2754 13.8672-37.6465C13.8672-41.7969 16.1621-45.752 22.5586-47.4609C24.9023-48.0469 25.7324-49.1699 25.9277-51.6113C26.8555-63.9648 35.8887-72.5586 46.7285-72.5586C54.7852-72.5586 61.4258-68.1641 65.5273-59.7656C66.5039-57.7148 67.7246-56.9824 70.2148-56.9824C81.5918-56.9824 87.5488-50.3906 87.5488-42.627C87.5488-34.6191 81.25-28.2227 72.9004-28.2227ZM61.084-7.56836L52.0508-7.56836L51.8555-5.71289L56.2988-14.3066C56.7383-15.1367 56.3965-15.7715 55.5664-15.7715L46.0449-15.7715C44.9707-15.7715 44.5801-15.3809 44.2383-14.5996L39.0625-2.7832C38.6719-1.85547 39.0137-1.26953 40.0391-1.26953L47.5098-1.26953L47.998-3.51562L41.8945 11.2793C41.6992 11.7676 41.7969 12.207 42.1387 12.3535C42.4805 12.5 42.8711 12.4023 43.3105 12.0117L61.6211-5.66406C62.5-6.49414 62.207-7.56836 61.084-7.56836Z"/>
  </g>
  <g id="Light-S" transform="matrix(1 0 0 1 1104.74 696)">
   <path d="M24.5562-21.0552L72.1733-21.0552C84.5693-21.0552 93.8535-30.4356 93.8535-42.0772C93.8535-54.1011 83.9766-62.9072 71.148-62.9072C66.3628-72.4487 57.6172-78.5908 46.4409-78.5908C32.1777-78.5908 20.4233-67.3115 19.1841-53.1025C12.2085-51.146 6.83594-45.1904 6.83594-37.1304C6.83594-28.25 13.3286-21.0552 24.5562-21.0552ZM24.4888-26.4365C16.3941-26.4365 12.2324-31.0796 12.2324-36.9956C12.2324-41.918 15.2388-46.2363 21.8018-47.9756C23.752-48.4707 24.4307-49.3667 24.5806-51.3237C25.4478-63.9043 35.1167-73.1943 46.4409-73.1943C55.436-73.1943 62.3945-68.2095 66.5112-59.7202C67.3364-57.9873 68.3603-57.3911 70.4419-57.3911C81.6978-57.3911 88.457-50.4058 88.457-41.9458C88.457-33.3628 81.5225-26.4365 72.4614-26.4365ZM58.5713-6.31202L50.189-6.31202L50.2359-4.74415L55.0425-14.019C55.4819-14.8491 55.1401-15.499 54.2949-15.499L46.9985-15.499C45.9092-15.499 45.5185-15.1084 45.1768-14.312L39.9404-2.34424C39.5347-1.38623 39.9673-0.815433 40.9624-0.815433L47.752-0.815433L48.2402-3.0918L42.061 11.915C41.8506 12.4336 41.9634 12.873 42.3203 13.0195C42.6772 13.166 43.0981 13.0532 43.5073 12.6172L59.2295-4.45313C60.0025-5.29835 59.6792-6.31202 58.5713-6.31202Z"/>
  </g>
  <g id="Thin-S" transform="matrix(1 0 0 1 808.511 696)">
   <path d="M23.7754-20.875L71.793-20.875C83.7285-20.875 92.8926-29.875 92.8926-41.1563C92.8926-52.6797 83.2559-61.1856 70.7676-61.1856C65.9824-70.9473 57.6172-77.2695 46.0606-77.2695C32.1777-77.2695 20.7637-65.9903 19.5644-51.7813C12.4687-49.8848 6.83594-44.1895 6.83594-36.1895C6.83594-27.7695 13.0684-20.875 23.7754-20.875ZM23.7481-24.0743C14.8926-24.0743 10.0703-29.4981 10.0703-36.1348C10.0703-42.0781 14.0176-46.8769 20.8008-48.6562C22.2305-49.0312 22.709-49.6269 22.7989-50.9434C23.586-63.8242 34.0957-74.0351 46.0606-74.0351C56.2969-74.0351 63.6758-68.2695 67.8125-59.6602C68.4375-58.3477 69.2012-57.9316 70.7422-57.9316C81.8379-57.9316 89.6582-50.4258 89.6582-41.0449C89.6582-31.7012 81.8828-24.0743 71.8809-24.0743ZM55.2481-4.65041L47.7266-4.65041L48.0938-3.46291L53.3809-13.6387C53.8203-14.4688 53.4785-15.1387 52.6133-15.1387L48.2597-15.1387C47.1504-15.1387 46.7597-14.7481 46.418-13.9316L41.1015-1.76368C40.6758-0.765634 41.2285-0.214852 42.1836-0.214852L48.0723-0.214852L48.5605-2.53126L42.2812 12.7558C42.0508 13.3144 42.1836 13.7539 42.5605 13.9004C42.9375 14.0469 43.3984 13.9141 43.7676 13.418L56.0664-2.85158C56.6993-3.71682 56.336-4.65041 55.2481-4.65041Z"/>
  </g>
  <g id="Ultralight-S" transform="matrix(1 0 0 1 512.046 696)">
   <path d="M23.3755-20.7827L71.5982-20.7827C83.2979-20.7827 92.4004-29.5879 92.4004-40.6846C92.4004-51.9517 82.8867-60.3037 70.5728-60.3037C65.7876-70.1782 57.6172-76.5928 45.8657-76.5928C32.1777-76.5928 20.938-65.3135 19.7593-51.1045C12.602-49.2388 6.83594-43.6768 6.83594-35.7075C6.83594-27.5234 12.9351-20.7827 23.3755-20.7827ZM23.3687-22.8643C14.1236-22.8643 8.96293-28.688 8.96293-35.6939C8.96293-42.1602 13.3921-47.2051 20.2881-49.0049C21.4512-49.3183 21.8272-49.7602 21.8863-50.7485C22.6324-63.7832 33.5728-74.4658 45.8657-74.4658C56.7378-74.4658 64.332-68.3003 68.479-59.6294C69.0014-58.5322 69.6318-58.2085 70.896-58.2085C81.9097-58.2085 90.2734-50.436 90.2734-40.5835C90.2734-30.8501 82.0674-22.8643 71.5835-22.8643ZM53.546-3.79935L46.4654-3.79935L46.9966-2.80666L52.5298-13.4439C52.9693-14.2739 52.6275-14.9541 51.752-14.9541L48.9057-14.9541C47.7861-14.9541 47.3955-14.5635 47.0537-13.7368L41.6963-1.46632C41.2602-0.447765 41.8745 0.0927627 42.8091 0.0927627L48.2363 0.0927627L48.7246-2.24415L42.394 13.1865C42.1533 13.7656 42.2964 14.2051 42.6836 14.3515C43.0708 14.498 43.5522 14.355 43.9009 13.8281L54.4463-2.03128C55.0074-2.90677 54.6236-3.79935 53.546-3.79935Z"/>
  </g>
 </g>
</svg>
