<?xml version="1.0" encoding="UTF-8"?>
<!--Generator: Apple Native CoreSVG 175.5-->
<!DOCTYPE svg
PUBLIC "-//W3C//DTD SVG 1.1//EN"
       "http://www.w3.org/Graphics/SVG/1.1/DTD/svg11.dtd">
<svg version="1.1" xmlns="http://www.w3.org/2000/svg" xmlns:xlink="http://www.w3.org/1999/xlink" width="3300" height="2200">
 <!--glyph: "uni1001AD.medium", point size: 100.0, font version: "18.0d12e2", template writer version: "101"-->
 <g id="Notes">
  <rect height="2200" id="artboard" style="fill:white;opacity:1" width="3300" x="0" y="0"/>
  <line style="fill:none;stroke:black;opacity:1;stroke-width:0.5;" x1="263" x2="3036" y1="292" y2="292"/>
  <text style="stroke:none;fill:black;font-family:sans-serif;font-size:13;font-weight:bold;" transform="matrix(1 0 0 1 263 322)">Weight/Scale Variations</text>
  <text style="stroke:none;fill:black;font-family:sans-serif;font-size:13;text-anchor:middle;" transform="matrix(1 0 0 1 559.711 322)">Ultralight</text>
  <text style="stroke:none;fill:black;font-family:sans-serif;font-size:13;text-anchor:middle;" transform="matrix(1 0 0 1 856.422 322)">Thin</text>
  <text style="stroke:none;fill:black;font-family:sans-serif;font-size:13;text-anchor:middle;" transform="matrix(1 0 0 1 1153.13 322)">Light</text>
  <text style="stroke:none;fill:black;font-family:sans-serif;font-size:13;text-anchor:middle;" transform="matrix(1 0 0 1 1449.84 322)">Regular</text>
  <text style="stroke:none;fill:black;font-family:sans-serif;font-size:13;text-anchor:middle;" transform="matrix(1 0 0 1 1746.56 322)">Medium</text>
  <text style="stroke:none;fill:black;font-family:sans-serif;font-size:13;text-anchor:middle;" transform="matrix(1 0 0 1 2043.27 322)">Semibold</text>
  <text style="stroke:none;fill:black;font-family:sans-serif;font-size:13;text-anchor:middle;" transform="matrix(1 0 0 1 2339.98 322)">Bold</text>
  <text style="stroke:none;fill:black;font-family:sans-serif;font-size:13;text-anchor:middle;" transform="matrix(1 0 0 1 2636.69 322)">Heavy</text>
  <text style="stroke:none;fill:black;font-family:sans-serif;font-size:13;text-anchor:middle;" transform="matrix(1 0 0 1 2933.4 322)">Black</text>
  <line style="fill:none;stroke:black;opacity:1;stroke-width:0.5;" x1="263" x2="3036" y1="1903" y2="1903"/>
  <g transform="matrix(1 0 0 1 263 1933)">
   <path d="M9.24805 0.830078C13.5547 0.830078 17.1387-2.74414 17.1387-7.05078C17.1387-11.3574 13.5449-14.9316 9.23828-14.9316C4.94141-14.9316 1.36719-11.3574 1.36719-7.05078C1.36719-2.74414 4.95117 0.830078 9.24805 0.830078ZM9.24805-0.654297C5.70312-0.654297 2.87109-3.49609 2.87109-7.05078C2.87109-10.6055 5.69336-13.4473 9.23828-13.4473C12.793-13.4473 15.6445-10.6055 15.6445-7.05078C15.6445-3.49609 12.8027-0.654297 9.24805-0.654297ZM5.6543-7.05078C5.6543-6.62109 5.95703-6.32812 6.40625-6.32812L8.50586-6.32812L8.50586-4.20898C8.50586-3.76953 8.79883-3.4668 9.22852-3.4668C9.67773-3.4668 9.9707-3.76953 9.9707-4.20898L9.9707-6.32812L12.0898-6.32812C12.5293-6.32812 12.832-6.62109 12.832-7.05078C12.832-7.49023 12.5293-7.79297 12.0898-7.79297L9.9707-7.79297L9.9707-9.90234C9.9707-10.3516 9.67773-10.6543 9.22852-10.6543C8.79883-10.6543 8.50586-10.3516 8.50586-9.90234L8.50586-7.79297L6.40625-7.79297C5.95703-7.79297 5.6543-7.49023 5.6543-7.05078Z"/>
  </g>
  <g transform="matrix(1 0 0 1 281.867 1933)">
   <path d="M11.709 2.91016C17.1582 2.91016 21.6699-1.61133 21.6699-7.05078C21.6699-12.5 17.1484-17.0117 11.6992-17.0117C6.25977-17.0117 1.74805-12.5 1.74805-7.05078C1.74805-1.61133 6.26953 2.91016 11.709 2.91016ZM11.709 1.25C7.09961 1.25 3.41797-2.44141 3.41797-7.05078C3.41797-11.6602 7.08984-15.3516 11.6992-15.3516C16.3086-15.3516 20.0098-11.6602 20.0098-7.05078C20.0098-2.44141 16.3184 1.25 11.709 1.25ZM7.17773-7.05078C7.17773-6.57227 7.50977-6.25 8.00781-6.25L10.8789-6.25L10.8789-3.36914C10.8789-2.88086 11.2109-2.53906 11.6895-2.53906C12.1777-2.53906 12.5195-2.87109 12.5195-3.36914L12.5195-6.25L15.4004-6.25C15.8887-6.25 16.2305-6.57227 16.2305-7.05078C16.2305-7.53906 15.8887-7.88086 15.4004-7.88086L12.5195-7.88086L12.5195-10.752C12.5195-11.25 12.1777-11.5918 11.6895-11.5918C11.2109-11.5918 10.8789-11.25 10.8789-10.752L10.8789-7.88086L8.00781-7.88086C7.50977-7.88086 7.17773-7.53906 7.17773-7.05078Z"/>
  </g>
  <g transform="matrix(1 0 0 1 305.646 1933)">
   <path d="M14.9707 5.66406C21.9336 5.66406 27.6953-0.0976562 27.6953-7.05078C27.6953-14.0137 21.9238-19.7754 14.9609-19.7754C8.00781-19.7754 2.25586-14.0137 2.25586-7.05078C2.25586-0.0976562 8.01758 5.66406 14.9707 5.66406ZM14.9707 3.84766C8.93555 3.84766 4.08203-1.01562 4.08203-7.05078C4.08203-13.0957 8.92578-17.9492 14.9609-17.9492C21.0059-17.9492 25.8691-13.0957 25.8691-7.05078C25.8691-1.01562 21.0156 3.84766 14.9707 3.84766ZM9.19922-7.05078C9.19922-6.5332 9.57031-6.17188 10.1172-6.17188L14.0625-6.17188L14.0625-2.2168C14.0625-1.67969 14.4336-1.29883 14.9512-1.29883C15.4883-1.29883 15.8594-1.66992 15.8594-2.2168L15.8594-6.17188L19.8145-6.17188C20.3516-6.17188 20.7324-6.5332 20.7324-7.05078C20.7324-7.59766 20.3613-7.96875 19.8145-7.96875L15.8594-7.96875L15.8594-11.9141C15.8594-12.4609 15.4883-12.8418 14.9512-12.8418C14.4336-12.8418 14.0625-12.4609 14.0625-11.9141L14.0625-7.96875L10.1172-7.96875C9.57031-7.96875 9.19922-7.59766 9.19922-7.05078Z"/>
  </g>
  <text style="stroke:none;fill:black;font-family:sans-serif;font-size:13;font-weight:bold;" transform="matrix(1 0 0 1 263 1953)">Design Variations</text>
  <text style="stroke:none;fill:black;font-family:sans-serif;font-size:13;" transform="matrix(1 0 0 1 263 1971)">Symbols are supported in up to nine weights and three scales.</text>
  <text style="stroke:none;fill:black;font-family:sans-serif;font-size:13;" transform="matrix(1 0 0 1 263 1989)">For optimal layout with text and other symbols, vertically align</text>
  <text style="stroke:none;fill:black;font-family:sans-serif;font-size:13;" transform="matrix(1 0 0 1 263 2007)">symbols with the adjacent text.</text>
  <line style="fill:none;stroke:#00AEEF;stroke-width:0.5;opacity:1.0;" x1="776" x2="776" y1="1919" y2="1933"/>
  <g transform="matrix(1 0 0 1 776 1933)">
   <path d="M3.31055 0.15625C3.82812 0.15625 4.08203-0.0390625 4.26758-0.585938L5.52734-4.0332L11.2891-4.0332L12.5488-0.585938C12.7344-0.0390625 12.9883 0.15625 13.4961 0.15625C14.0137 0.15625 14.3457-0.15625 14.3457-0.644531C14.3457-0.810547 14.3164-0.966797 14.2383-1.17188L9.6582-13.3691C9.43359-13.9648 9.0332-14.2676 8.4082-14.2676C7.80273-14.2676 7.39258-13.9746 7.17773-13.3789L2.59766-1.16211C2.51953-0.957031 2.49023-0.800781 2.49023-0.634766C2.49023-0.146484 2.80273 0.15625 3.31055 0.15625ZM6.00586-5.51758L8.37891-12.0898L8.42773-12.0898L10.8008-5.51758Z"/>
  </g>
  <line style="fill:none;stroke:#00AEEF;stroke-width:0.5;opacity:1.0;" x1="793.197" x2="793.197" y1="1919" y2="1933"/>
  <text style="stroke:none;fill:black;font-family:sans-serif;font-size:13;font-weight:bold;" transform="matrix(1 0 0 1 776 1953)">Margins</text>
  <text style="stroke:none;fill:black;font-family:sans-serif;font-size:13;" transform="matrix(1 0 0 1 776 1971)">Leading and trailing margins on the left and right side of each symbol</text>
  <text style="stroke:none;fill:black;font-family:sans-serif;font-size:13;" transform="matrix(1 0 0 1 776 1989)">can be adjusted by modifying the x-location of the margin guidelines.</text>
  <text style="stroke:none;fill:black;font-family:sans-serif;font-size:13;" transform="matrix(1 0 0 1 776 2007)">Modifications are automatically applied proportionally to all</text>
  <text style="stroke:none;fill:black;font-family:sans-serif;font-size:13;" transform="matrix(1 0 0 1 776 2025)">scales and weights.</text>
  <g transform="matrix(1 0 0 1 1289 1933)">
   <path d="M2.8418 1.86523L4.54102 3.57422C5.40039 4.44336 6.38672 4.38477 7.31445 3.35938L18.0078-8.42773L17.041-9.4043L6.42578 2.27539C6.07422 2.67578 5.74219 2.77344 5.27344 2.30469L4.10156 1.14258C3.63281 0.683594 3.74023 0.341797 4.14062-0.0195312L15.6152-10.8203L14.6387-11.7871L3.04688-0.898438C2.06055 0.0195312 1.98242 0.996094 2.8418 1.86523ZM9.25781-16.3281C8.83789-15.918 8.80859-15.3418 9.04297-14.9512C9.27734-14.5898 9.73633-14.3555 10.3809-14.5215C11.8457-14.8633 13.3691-14.9219 14.7949-13.9844L14.209-12.5293C13.8672-11.6992 14.043-11.1133 14.5801-10.5664L16.875-8.25195C17.3633-7.76367 17.7734-7.74414 18.3398-7.8418L19.4043-8.03711L20.0684-7.36328L20.0293-6.80664C19.9902-6.30859 20.1172-5.92773 20.6055-5.44922L21.3672-4.70703C21.8457-4.22852 22.4609-4.19922 22.9297-4.66797L25.8398-7.58789C26.3086-8.05664 26.2891-8.65234 25.8105-9.13086L25.0391-9.89258C24.5605-10.3711 24.1895-10.5273 23.7109-10.4883L23.1348-10.4395L22.4902-11.0742L22.7344-12.1973C22.8613-12.7637 22.7051-13.2031 22.1191-13.7891L19.9219-15.9766C16.582-19.2969 12.1484-19.2188 9.25781-16.3281ZM10.752-15.957C13.1836-17.7344 16.4746-17.4316 18.7012-15.2051L21.1328-12.793C21.3672-12.5586 21.4062-12.373 21.3379-12.0312L21.0156-10.5469L22.5195-9.0625L23.5059-9.12109C23.7598-9.13086 23.8379-9.11133 24.0332-8.91602L24.6094-8.33984L22.168-5.89844L21.5918-6.47461C21.3965-6.66992 21.3672-6.74805 21.377-7.01172L21.4453-7.98828L19.9512-9.47266L18.4277-9.21875C18.1055-9.15039 17.959-9.17969 17.7148-9.41406L15.7129-11.416C15.459-11.6504 15.4297-11.8164 15.5859-12.1875L16.4648-14.2773C14.9023-15.7324 12.8711-16.3574 10.8398-15.7617C10.6836-15.7227 10.625-15.8496 10.752-15.957Z"/>
  </g>
  <text style="stroke:none;fill:black;font-family:sans-serif;font-size:13;font-weight:bold;" transform="matrix(1 0 0 1 1289 1953)">Exporting</text>
  <text style="stroke:none;fill:black;font-family:sans-serif;font-size:13;" transform="matrix(1 0 0 1 1289 1971)">Symbols should be outlined when exporting to ensure the</text>
  <text style="stroke:none;fill:black;font-family:sans-serif;font-size:13;" transform="matrix(1 0 0 1 1289 1989)">design is preserved when submitting to Xcode.</text>
  <text id="template-version" style="stroke:none;fill:black;font-family:sans-serif;font-size:13;text-anchor:end;" transform="matrix(1 0 0 1 3036 1933)">Template v.4.0</text>
  <text style="stroke:none;fill:black;font-family:sans-serif;font-size:13;text-anchor:end;" transform="matrix(1 0 0 1 3036 1951)">Requires Xcode 14 or greater</text>
  <text id="descriptive-name" style="stroke:none;fill:black;font-family:sans-serif;font-size:13;text-anchor:end;" transform="matrix(1 0 0 1 3036 1969)">Generated from sun.max</text>
  <text style="stroke:none;fill:black;font-family:sans-serif;font-size:13;text-anchor:end;" transform="matrix(1 0 0 1 3036 1987)">Typeset at 100 points</text>
  <text style="stroke:none;fill:black;font-family:sans-serif;font-size:13;" transform="matrix(1 0 0 1 263 726)">Small</text>
  <text style="stroke:none;fill:black;font-family:sans-serif;font-size:13;" transform="matrix(1 0 0 1 263 1156)">Medium</text>
  <text style="stroke:none;fill:black;font-family:sans-serif;font-size:13;" transform="matrix(1 0 0 1 263 1586)">Large</text>
 </g>
 <g id="Guides">
  <g id="H-reference" style="fill:#27AAE1;stroke:none;" transform="matrix(1 0 0 1 339 696)">
   <path d="M0.993654 0L3.63775 0L29.3281-67.1323L30.0303-67.1323L30.0303-70.459L28.1226-70.459ZM11.6885-24.4799L46.9815-24.4799L46.2315-26.7285L12.4385-26.7285ZM55.1196 0L57.7637 0L30.6382-70.459L29.4326-70.459L29.4326-67.1323Z"/>
  </g>
  <line id="Baseline-S" style="fill:none;stroke:#27AAE1;opacity:1;stroke-width:0.5;" x1="263" x2="3036" y1="696" y2="696"/>
  <line id="Capline-S" style="fill:none;stroke:#27AAE1;opacity:1;stroke-width:0.5;" x1="263" x2="3036" y1="625.541" y2="625.541"/>
  <g id="H-reference" style="fill:#27AAE1;stroke:none;" transform="matrix(1 0 0 1 339 1126)">
   <path d="M0.993654 0L3.63775 0L29.3281-67.1323L30.0303-67.1323L30.0303-70.459L28.1226-70.459ZM11.6885-24.4799L46.9815-24.4799L46.2315-26.7285L12.4385-26.7285ZM55.1196 0L57.7637 0L30.6382-70.459L29.4326-70.459L29.4326-67.1323Z"/>
  </g>
  <line id="Baseline-M" style="fill:none;stroke:#27AAE1;opacity:1;stroke-width:0.5;" x1="263" x2="3036" y1="1126" y2="1126"/>
  <line id="Capline-M" style="fill:none;stroke:#27AAE1;opacity:1;stroke-width:0.5;" x1="263" x2="3036" y1="1055.54" y2="1055.54"/>
  <g id="H-reference" style="fill:#27AAE1;stroke:none;" transform="matrix(1 0 0 1 339 1556)">
   <path d="M0.993654 0L3.63775 0L29.3281-67.1323L30.0303-67.1323L30.0303-70.459L28.1226-70.459ZM11.6885-24.4799L46.9815-24.4799L46.2315-26.7285L12.4385-26.7285ZM55.1196 0L57.7637 0L30.6382-70.459L29.4326-70.459L29.4326-67.1323Z"/>
  </g>
  <line id="Baseline-L" style="fill:none;stroke:#27AAE1;opacity:1;stroke-width:0.5;" x1="263" x2="3036" y1="1556" y2="1556"/>
  <line id="Capline-L" style="fill:none;stroke:#27AAE1;opacity:1;stroke-width:0.5;" x1="263" x2="3036" y1="1485.54" y2="1485.54"/>
  <line id="left-margin-Regular-M" style="fill:none;stroke:#00AEEF;stroke-width:0.5;opacity:1.0;" x1="1388.33" x2="1388.33" y1="1030.79" y2="1150.12"/>
  <line id="right-margin-Regular-M" style="fill:none;stroke:#00AEEF;stroke-width:0.5;opacity:1.0;" x1="1511.36" x2="1511.36" y1="1030.79" y2="1150.12"/>
 </g>
 <g id="Symbols">
  <g id="Black-L" transform="matrix(1 0 0 1 2845.52 1556)">
   <path d="M87.8616 1.22102C107.846 1.22102 124.331-15.2449 124.331-35.2697C124.331-55.2945 107.846-71.7604 87.8616-71.7604C67.8576-71.7604 51.3709-55.2945 51.3709-35.2697C51.3709-15.2449 67.8576 1.22102 87.8616 1.22102ZM87.8616-17.6005C78.2426-17.6005 70.1924-25.6703 70.1924-35.2697C70.1924-44.8691 78.2426-52.9389 87.8616-52.9389C97.461-52.9389 105.51-44.8691 105.51-35.2697C105.51-25.6703 97.461-17.6005 87.8616-17.6005ZM87.864-81.8978C92.8411-81.8978 97.0241-86.1016 97.0241-91.0787L97.0241-102.582C97.0241-107.558 92.8411-111.8 87.864-111.8C82.8672-111.8 78.6843-107.558 78.6843-102.582L78.6843-91.0787C78.6843-86.1016 82.8672-81.8978 87.864-81.8978ZM120.932-67.9494C124.37-64.513 130.388-64.5506 133.905-68.1246L142.022-76.2782C145.437-79.717 145.379-85.7552 141.847-89.3108C138.408-92.746 132.391-92.6292 128.895-89.1356L120.756-80.9391C117.342-77.5003 117.4-71.5038 120.932-67.9494ZM134.626-35.2697C134.626-30.2938 138.831-26.0888 143.807-26.0888L155.269-26.0888C160.267-26.0888 164.508-30.2938 164.508-35.2697C164.508-40.2456 160.267-44.4506 155.269-44.4506L143.807-44.4506C138.831-44.4506 134.626-40.2456 134.626-35.2697ZM120.756-2.33559C117.342 1.10201 117.4 7.04016 120.932 10.5958L129.128 18.7338C132.566 22.169 138.583 22.0898 142.139 18.5378C145.554 15.099 145.496 9.08163 141.963 5.58443L133.767-2.5108C130.329-5.9472 124.312-5.8888 120.756-2.33559ZM87.864 11.3584C82.8672 11.3584 78.6843 15.5622 78.6843 20.5393L78.6843 32.043C78.6843 37.0189 82.8672 41.2603 87.864 41.2603C92.8411 41.2603 97.0241 37.0189 97.0241 32.043L97.0241 20.5393C97.0241 15.5622 92.8411 11.3584 87.864 11.3584ZM54.9519-2.33559C51.3963-5.8888 45.3581-5.9472 41.9205-2.5108L33.7656 5.56361C30.2124 9.06081 30.154 15.0782 33.5696 18.517C37.124 22.069 43.1426 22.1482 46.5802 18.713L54.7558 10.5958C58.3078 7.04016 58.3663 1.10201 54.9519-2.33559ZM41.1399-35.2697C41.1399-40.2456 36.8985-44.4506 31.9017-44.4506L20.4397-44.4506C15.4417-44.4506 11.2588-40.2456 11.2588-35.2697C11.2588-30.2938 15.4417-26.0888 20.4397-26.0888L31.9017-26.0888C36.8985-26.0888 41.1399-30.2938 41.1399-35.2697ZM54.7558-67.9494C58.3078-71.483 58.3663-77.5212 54.9519-80.9391L46.8346-89.1356C43.3594-92.6084 37.32-92.746 33.9033-89.3108C30.3501-85.7552 30.2917-79.717 33.7072-76.2991L41.8037-68.1246C45.2997-64.5714 51.317-64.513 54.7558-67.9494Z"/>
  </g>
  <g id="Heavy-L" transform="matrix(1 0 0 1 2550.85 1556)">
   <path d="M85.8219 0.122439C105.186 0.122439 121.184-15.851 121.184-35.2697C121.184-54.6884 105.186-70.6618 85.8219-70.6618C66.4334-70.6618 50.4298-54.6884 50.4298-35.2697C50.4298-15.851 66.4334 0.122439 85.8219 0.122439ZM85.8219-16.3779C75.523-16.3779 66.9301-24.9953 66.9301-35.2697C66.9301-45.5441 75.523-54.1615 85.8219-54.1615C96.0964-54.1615 104.684-45.5441 104.684-35.2697C104.684-24.9953 96.0964-16.3779 85.8219-16.3779ZM85.8332-81.3015C90.2919-81.3015 94.0203-85.0602 94.0203-89.5189L94.0203-101.589C94.0203-106.042 90.2919-109.815 85.8332-109.815C81.3499-109.815 77.6214-106.042 77.6214-101.589L77.6214-89.5189C77.6214-85.0602 81.3499-81.3015 85.8332-81.3015ZM118.431-67.5851C121.529-64.4984 126.887-64.5128 130.054-67.719L138.584-76.2577C141.64-79.3556 141.596-84.744 138.45-87.9312C135.352-91.0123 129.994-90.9231 126.857-87.7973L118.297-79.1927C115.246-76.0948 115.291-70.7667 118.431-67.5851ZM131.938-35.2697C131.938-30.8166 135.703-27.0524 140.156-27.0524L152.166-27.0524C156.655-27.0524 160.428-30.8166 160.428-35.2697C160.428-39.7228 156.655-43.487 152.166-43.487L140.156-43.487C135.703-43.487 131.938-39.7228 131.938-35.2697ZM118.297-2.74561C115.246 0.346707 115.291 5.63017 118.431 8.81735L127.035 17.3774C130.128 20.4585 135.486 20.3837 138.673 17.2133C141.73 14.1154 141.685 8.75712 138.539 5.61456L129.935-2.87948C126.842-5.96619 121.484-5.92156 118.297-2.74561ZM85.8332 10.7621C81.3499 10.7621 77.6214 14.5208 77.6214 18.9794L77.6214 31.0496C77.6214 35.5027 81.3499 39.2758 85.8332 39.2758C90.2919 39.2758 94.0203 35.5027 94.0203 31.0496L94.0203 18.9794C94.0203 14.5208 90.2919 10.7621 85.8332 10.7621ZM53.3449-2.74561C50.1577-5.92156 44.7692-5.96619 41.6769-2.87948L33.1326 5.58438C29.9567 8.72693 29.9121 14.0852 32.9686 17.1831C36.1502 20.3535 41.514 20.4283 44.6064 17.3472L53.1808 8.81735C56.3512 5.63017 56.3958 0.346707 53.3449-2.74561ZM39.7423-35.2697C39.7423-39.7228 35.9692-43.487 31.486-43.487L19.4761-43.487C14.9873-43.487 11.2588-39.7228 11.2588-35.2697C11.2588-30.8166 14.9873-27.0524 19.4761-27.0524L31.486-27.0524C35.9692-27.0524 39.7423-30.8166 39.7423-35.2697ZM53.1808-67.5851C56.3512-70.7365 56.3958-76.125 53.3449-79.1927L44.815-87.7973C41.7083-90.8929 36.3142-91.0123 33.2521-87.9312C30.0761-84.744 30.0315-79.3556 33.088-76.2878L41.5877-67.719C44.7246-64.543 50.0829-64.4984 53.1808-67.5851Z"/>
  </g>
  <g id="Bold-L" transform="matrix(1 0 0 1 2256.48 1556)">
   <path d="M83.4654-1.23764C102.068-1.23764 117.459-16.604 117.459-35.2697C117.459-53.9354 102.068-69.3018 83.4654-69.3018C64.8376-69.3018 49.4333-53.9354 49.4333-35.2697C49.4333-16.604 64.8376-1.23764 83.4654-1.23764ZM83.4654-14.879C72.3362-14.879 63.0747-24.1652 63.0747-35.2697C63.0747-46.3742 72.3362-55.6604 83.4654-55.6604C94.5698-55.6604 103.818-46.3742 103.818-35.2697C103.818-24.1652 94.5698-14.879 83.4654-14.879ZM83.4918-80.7576C87.2903-80.7576 90.4354-83.9407 90.4354-87.7391L90.4354-100.561C90.4354-104.346 87.2903-107.52 83.4918-107.52C79.6687-107.52 76.5235-104.346 76.5235-100.561L76.5235-87.7391C76.5235-83.9407 79.6687-80.7576 83.4918-80.7576ZM115.655-67.266C118.315-64.632 122.829-64.6232 125.543-67.3536L134.618-76.4059C137.214-79.0663 137.184-83.6182 134.53-86.3371C131.87-88.9578 127.356-88.8994 124.679-86.2495L115.567-77.1079C112.984-74.4475 113.013-69.9716 115.655-67.266ZM128.991-35.2697C128.991-31.4845 132.188-28.2882 135.973-28.2882L148.719-28.2882C152.555-28.2882 155.729-31.4845 155.729-35.2697C155.729-39.0549 152.555-42.2512 148.719-42.2512L135.973-42.2512C132.188-42.2512 128.991-39.0549 128.991-35.2697ZM115.567-3.11864C112.984-0.471442 113.013 3.97527 115.655 6.6941L124.796 15.8065C127.443 18.4272 131.957 18.36 134.676 15.6809C137.272 13.0204 137.243 8.50652 134.588 5.8169L125.447-3.20625C122.8-5.84021 118.286-5.81101 115.567-3.11864ZM83.4918 10.2182C79.6687 10.2182 76.5235 13.4013 76.5235 17.1997L76.5235 30.0214C76.5235 33.8066 79.6687 36.9809 83.4918 36.9809C87.2903 36.9809 90.4354 33.8066 90.4354 30.0214L90.4354 17.1997C90.4354 13.4013 87.2903 10.2182 83.4918 10.2182ZM51.392-3.11864C48.6732-5.81101 44.1213-5.84021 41.4741-3.20625L32.4085 5.77891C29.7161 8.46854 29.6869 12.9824 32.2829 15.6429C34.9885 18.322 39.5156 18.3892 42.1628 15.7685L51.2664 6.6941C53.9455 3.97527 53.9747-0.471442 51.392-3.11864ZM37.9835-35.2697C37.9835-39.0549 34.8092-42.2512 30.986-42.2512L18.2403-42.2512C14.4039-42.2512 11.2588-39.0549 11.2588-35.2697C11.2588-31.4845 14.4039-28.2882 18.2403-28.2882L30.986-28.2882C34.8092-28.2882 37.9835-31.4845 37.9835-35.2697ZM51.2664-67.266C53.9455-69.9336 53.9747-74.4855 51.392-77.1079L42.3176-86.2495C39.6792-88.8614 35.1141-88.9578 32.5049-86.3371C29.8125-83.6182 29.7833-79.0663 32.3793-76.4439L41.4157-67.3536C44.0921-64.6612 48.606-64.632 51.2664-67.266Z"/>
  </g>
  <g id="Semibold-L" transform="matrix(1 0 0 1 1961.39 1556)">
   <path d="M81.8408-2.17527C99.9192-2.17527 114.892-17.1231 114.892-35.2697C114.892-53.4164 99.9192-68.3641 81.8408-68.3641C63.7375-68.3641 48.7463-53.4164 48.7463-35.2697C48.7463-17.1231 63.7375-2.17527 81.8408-2.17527ZM81.8408-13.8457C70.1392-13.8457 60.4168-23.593 60.4168-35.2697C60.4168-46.9464 70.1392-56.6937 81.8408-56.6937C93.5175-56.6937 103.221-46.9464 103.221-35.2697C103.221-23.593 93.5175-13.8457 81.8408-13.8457ZM81.8777-80.3826C85.221-80.3826 87.964-83.1689 87.964-86.5122L87.964-99.8519C87.964-103.177 85.221-105.938 81.8777-105.938C78.5096-105.938 75.7666-103.177 75.7666-99.8519L75.7666-86.5122C75.7666-83.1689 78.5096-80.3826 81.8777-80.3826ZM113.741-67.046C116.099-64.7241 120.031-64.6993 122.434-67.1017L131.883-76.5081C134.162-78.867 134.143-82.8421 131.828-85.2381C129.469-87.5414 125.537-87.5043 123.178-85.1824L113.685-75.6707C111.425-73.3119 111.443-69.4234 113.741-67.046ZM126.96-35.2697C126.96-31.9449 129.764-29.1401 133.089-29.1401L146.342-29.1401C149.729-29.1401 152.49-31.9449 152.49-35.2697C152.49-38.5945 149.729-41.3993 146.342-41.3993L133.089-41.3993C129.764-41.3993 126.96-38.5945 126.96-35.2697ZM113.685-3.3758C111.425-1.03547 111.443 2.8344 113.741 5.23035L123.252 14.7235C125.593 17.0268 129.524 16.9649 131.92 14.6244C134.199 12.2656 134.18 8.33377 131.865 5.95639L122.353-3.43152C120.013-5.75336 116.081-5.73479 113.685-3.3758ZM81.8777 9.84319C78.5096 9.84319 75.7666 12.6295 75.7666 15.9728L75.7666 29.3125C75.7666 32.6373 78.5096 35.3988 81.8777 35.3988C85.221 35.3988 87.964 32.6373 87.964 29.3125L87.964 15.9728C87.964 12.6295 85.221 9.84319 81.8777 9.84319ZM50.0457-3.3758C47.6497-5.73479 43.6745-5.75336 41.3342-3.43152L31.9093 5.91302C29.5503 8.2904 29.5317 12.2222 31.8102 14.581C34.1877 16.9215 38.1379 16.9835 40.4783 14.6801L49.9466 5.23035C52.2871 2.8344 52.3057-1.03547 50.0457-3.3758ZM36.7711-35.2697C36.7711-38.5945 34.0095-41.3993 30.6414-41.3993L17.3884-41.3993C14.0018-41.3993 11.2588-38.5945 11.2588-35.2697C11.2588-31.9449 14.0018-29.1401 17.3884-29.1401L30.6414-29.1401C34.0095-29.1401 36.7711-31.9449 36.7711-35.2697ZM49.9466-67.046C52.2871-69.3801 52.3057-73.3552 50.0457-75.6707L40.5959-85.1824C38.2804-87.4609 34.2867-87.5414 31.9898-85.2381C29.6308-82.8421 29.6122-78.867 31.8907-76.5515L41.2971-67.1017C43.656-64.7427 47.5878-64.7241 49.9466-67.046Z"/>
  </g>
  <g id="Medium-L" transform="matrix(1 0 0 1 1665.91 1556)">
   <path d="M80.6089-2.88622C98.2896-2.88622 112.945-17.5166 112.945-35.2697C112.945-53.0228 98.2896-67.6532 80.6089-67.6532C62.9033-67.6532 48.2254-53.0228 48.2254-35.2697C48.2254-17.5166 62.9033-2.88622 80.6089-2.88622ZM80.6089-13.0623C68.4734-13.0623 58.4015-23.1591 58.4015-35.2697C58.4015-47.3803 68.4734-57.4772 80.6089-57.4772C92.7195-57.4772 102.769-47.3803 102.769-35.2697C102.769-23.1591 92.7195-13.0623 80.6089-13.0623ZM80.6539-80.0983C83.652-80.0983 86.09-82.5838 86.09-85.5819L86.09-99.3144C86.09-102.29 83.652-104.739 80.6539-104.739C77.6308-104.739 75.1927-102.29 75.1927-99.3144L75.1927-85.5819C75.1927-82.5838 77.6308-80.0983 80.6539-80.0983ZM112.289-66.8791C114.42-64.7939 117.91-64.757 120.076-66.9107L129.81-76.5857C131.848-78.7158 131.837-82.2536 129.778-84.4048C127.648-86.4675 124.158-86.4465 122.04-84.3732L112.258-74.5809C110.243-72.4508 110.253-69.0078 112.289-66.8791ZM125.419-35.2697C125.419-32.2941 127.927-29.7861 130.903-29.7861L144.54-29.7861C147.586-29.7861 150.034-32.2941 150.034-35.2697C150.034-38.2454 147.586-40.7533 144.54-40.7533L130.903-40.7533C127.927-40.7533 125.419-38.2454 125.419-35.2697ZM112.258-3.57078C110.243-1.46314 110.253 1.96934 112.289 4.12047L122.082 13.9023C124.189 15.965 127.68 15.9071 129.831 13.8233C131.869 11.6932 131.858 8.20278 129.799 6.06215L120.007-3.60232C117.899-5.68751 114.409-5.67699 112.258-3.57078ZM80.6539 9.55886C77.6308 9.55886 75.1927 12.0444 75.1927 15.0425L75.1927 28.775C75.1927 31.7507 77.6308 34.1992 80.6539 34.1992C83.652 34.1992 86.09 31.7507 86.09 28.775L86.09 15.0425C86.09 12.0444 83.652 9.55886 80.6539 9.55886ZM49.0248-3.57078C46.8737-5.67699 43.3358-5.68751 41.2282-3.60232L31.5307 6.01471C29.4245 8.15533 29.414 11.6458 31.4517 13.7759C33.5804 15.8596 37.0933 15.9176 39.201 13.8549L48.9459 4.12047C51.0296 1.96934 51.0401-1.46314 49.0248-3.57078ZM35.8517-35.2697C35.8517-38.2454 33.4031-40.7533 30.3801-40.7533L16.7424-40.7533C13.6968-40.7533 11.2588-38.2454 11.2588-35.2697C11.2588-32.2941 13.6968-29.7861 16.7424-29.7861L30.3801-29.7861C33.4031-29.7861 35.8517-32.2941 35.8517-35.2697ZM48.9459-66.8791C51.0296-68.9604 51.0401-72.4982 49.0248-74.5809L39.2905-84.3732C37.2197-86.399 33.6594-86.4675 31.5992-84.4048C29.493-82.2536 29.4825-78.7158 31.5202-76.6331L41.2072-66.9107C43.3253-64.8045 46.8158-64.7939 48.9459-66.8791Z"/>
  </g>
  <g id="Regular-L" transform="matrix(1 0 0 1 1370.8 1556)">
   <path d="M79.0022-3.81355C96.164-3.81355 110.406-18.03 110.406-35.2697C110.406-52.5094 96.164-66.7259 79.0022-66.7259C61.8153-66.7259 47.546-52.5094 47.546-35.2697C47.546-18.03 61.8153-3.81355 79.0022-3.81355ZM79.0022-12.0403C66.3005-12.0403 55.7728-22.5932 55.7728-35.2697C55.7728-47.9462 66.3005-58.4991 79.0022-58.4991C91.6787-58.4991 102.179-47.9462 102.179-35.2697C102.179-22.5932 91.6787-12.0403 79.0022-12.0403ZM79.0575-79.7274C81.6054-79.7274 83.6457-81.8205 83.6457-84.3684L83.6457-98.6133C83.6457-101.134 81.6054-103.174 79.0575-103.174C76.4844-103.174 74.4441-101.134 74.4441-98.6133L74.4441-84.3684C74.4441-81.8205 76.4844-79.7274 79.0575-79.7274ZM110.397-66.6615C112.228-64.885 115.143-64.8323 117-66.6615L127.106-76.6868C128.829-78.5186 128.829-81.4861 127.106-83.3179C125.274-85.0667 122.359-85.0667 120.555-83.3179L110.397-73.1594C108.7-71.3276 108.7-68.4657 110.397-66.6615ZM123.41-35.2697C123.41-32.7494 125.53-30.6287 128.051-30.6287L142.19-30.6287C144.791-30.6287 146.831-32.7494 146.831-35.2697C146.831-37.79 144.791-39.9107 142.19-39.9107L128.051-39.9107C125.53-39.9107 123.41-37.79 123.41-35.2697ZM110.397-3.82512C108.7-2.02097 108.7 0.840999 110.397 2.67281L120.555 12.8312C122.359 14.5801 125.274 14.5273 127.106 12.7785C128.829 10.9466 128.829 8.03192 127.106 6.20011L116.947-3.82512C115.143-5.60161 112.228-5.60161 110.397-3.82512ZM79.0575 9.188C76.4844 9.188 74.4441 11.2811 74.4441 13.829L74.4441 28.0739C74.4441 30.5942 76.4844 32.6345 79.0575 32.6345C81.6054 32.6345 83.6457 30.5942 83.6457 28.0739L83.6457 13.829C83.6457 11.2811 81.6054 9.188 79.0575 9.188ZM47.6933-3.82512C45.8615-5.60161 42.894-5.60161 41.0899-3.82512L31.037 6.14735C29.2605 7.97915 29.2605 10.8939 30.9842 12.7257C32.7884 14.4745 35.7308 14.5273 37.5349 12.7785L47.6406 2.67281C49.3894 0.840999 49.3894-2.02097 47.6933-3.82512ZM34.6525-35.2697C34.6525-37.79 32.6122-39.9107 30.0392-39.9107L15.8998-39.9107C13.2991-39.9107 11.2588-37.79 11.2588-35.2697C11.2588-32.7494 13.2991-30.6287 15.8998-30.6287L30.0392-30.6287C32.6122-30.6287 34.6525-32.7494 34.6525-35.2697ZM47.6406-66.6615C49.3894-68.4129 49.3894-71.3804 47.6933-73.1594L37.5877-83.3179C35.8363-85.0139 32.8411-85.0667 31.0898-83.3179C29.3133-81.4861 29.3133-78.5186 31.037-76.7395L41.0899-66.6615C42.894-64.885 45.8088-64.885 47.6406-66.6615Z"/>
  </g>
  <g id="Light-L" transform="matrix(1 0 0 1 1074.57 1556)">
   <path d="M78.4678-4.74873C95.1525-4.74873 108.955-18.5644 108.955-35.2697C108.955-51.975 95.1525-65.7907 78.4678-65.7907C61.7962-65.7907 47.9468-51.975 47.9468-35.2697C47.9468-18.5644 61.7962-4.74873 78.4678-4.74873ZM78.4678-11.1051C65.2699-11.1051 54.3032-22.0588 54.3032-35.2697C54.3032-48.4806 65.2699-59.4343 78.4678-59.4343C91.6787-59.4343 102.599-48.4806 102.599-35.2697C102.599-22.0588 91.6787-11.1051 78.4678-11.1051ZM78.5613-80.6053C80.5367-80.6053 82.0426-82.1449 82.0426-84.1203L82.0426-99.205C82.0426-101.134 80.5367-102.64 78.5613-102.64C76.599-102.64 75.093-101.134 75.093-99.205L75.093-84.1203C75.093-82.1449 76.599-80.6053 78.5613-80.6053ZM110.549-67.2913C111.98-65.9538 114.132-65.9201 115.55-67.2913L126.247-77.9082C127.551-79.3392 127.551-81.5242 126.247-82.9552C124.816-84.246 122.664-84.246 121.28-82.9552L110.549-72.2243C109.292-70.7933 109.292-68.6756 110.549-67.2913ZM123.83-35.2697C123.83-33.3411 125.416-31.7547 127.345-31.7547L142.362-31.7547C144.371-31.7547 145.877-33.3411 145.877-35.2697C145.877-37.1983 144.371-38.7847 142.362-38.7847L127.345-38.7847C125.416-38.7847 123.83-37.1983 123.83-35.2697ZM110.549-3.21439C109.292-1.83011 109.292 0.287526 110.549 1.71854L121.28 12.4495C122.664 13.7403 124.816 13.7066 126.247 12.4158C127.551 10.9848 127.551 8.8335 126.247 7.40248L115.516-3.21439C114.132-4.55192 111.98-4.55192 110.549-3.21439ZM78.5613 10.0659C76.599 10.0659 75.093 11.6055 75.093 13.5809L75.093 28.6656C75.093 30.5942 76.599 32.1001 78.5613 32.1001C80.5367 32.1001 82.0426 30.5942 82.0426 28.6656L82.0426 13.5809C82.0426 11.6055 80.5367 10.0659 78.5613 10.0659ZM46.5864-3.21439C45.1554-4.55192 42.9704-4.55192 41.5861-3.21439L30.9225 7.3688C29.5849 8.79982 29.5849 10.9511 30.8888 12.3822C32.2731 13.6729 34.4711 13.7066 35.8554 12.4158L46.5527 1.71854C47.8435 0.287526 47.8435-1.83011 46.5864-3.21439ZM33.2593-35.2697C33.2593-37.1983 31.7534-38.7847 29.7911-38.7847L14.7738-38.7847C12.7647-38.7847 11.2588-37.1983 11.2588-35.2697C11.2588-33.3411 12.7647-31.7547 14.7738-31.7547L29.7911-31.7547C31.7534-31.7547 33.2593-33.3411 33.2593-35.2697ZM46.5527-67.2913C47.8435-68.6419 47.8435-70.8269 46.5864-72.2243L35.8891-82.9552C34.5385-84.2124 32.3068-84.246 30.9562-82.9552C29.6186-81.5242 29.6186-79.3392 30.9225-77.9419L41.5861-67.2913C42.9704-65.9538 45.1217-65.9538 46.5527-67.2913Z"/>
  </g>
  <g id="Thin-L" transform="matrix(1 0 0 1 778.485 1556)">
   <path d="M77.761-5.98558C93.8146-5.98558 107.037-19.2712 107.037-35.2697C107.037-51.2682 93.8146-64.5538 77.761-64.5538C61.7709-64.5538 48.4769-51.2682 48.4769-35.2697C48.4769-19.2712 61.7709-5.98558 77.761-5.98558ZM77.761-9.86828C63.9069-9.86828 52.3596-21.352 52.3596-35.2697C52.3596-49.1874 63.9069-60.6711 77.761-60.6711C91.6787-60.6711 103.154-49.1874 103.154-35.2697C103.154-21.352 91.6787-9.86828 77.761-9.86828ZM77.905-81.7665C79.1231-81.7665 79.9223-82.574 79.9223-83.7922L79.9223-99.9875C79.9223-101.134 79.1231-101.933 77.905-101.933C76.7504-101.933 75.9513-101.134 75.9513-99.9875L75.9513-83.7922C75.9513-82.574 76.7504-81.7665 77.905-81.7665ZM110.751-68.1243C111.652-67.3673 112.794-67.3589 113.631-68.1243L125.111-79.5237C125.859-80.4246 125.859-81.5747 125.111-82.4756C124.21-83.1606 123.068-83.1606 122.239-82.4756L110.751-70.9874C110.075-70.0865 110.075-68.9533 110.751-68.1243ZM124.385-35.2697C124.385-34.1236 125.264-33.244 126.411-33.244L142.589-33.244C143.816-33.244 144.615-34.1236 144.615-35.2697C144.615-36.4158 143.816-37.2954 142.589-37.2954L126.411-37.2954C125.264-37.2954 124.385-36.4158 124.385-35.2697ZM110.751-2.40665C110.075-1.5777 110.075-0.444487 110.751 0.456451L122.239 11.9447C123.068 12.6297 124.21 12.6212 125.111 11.9362C125.859 11.0353 125.859 9.89366 125.111 8.99272L113.623-2.40665C112.794-3.16362 111.652-3.16362 110.751-2.40665ZM77.905 11.227C76.7504 11.227 75.9513 12.0346 75.9513 13.2528L75.9513 29.4481C75.9513 30.5942 76.7504 31.3934 77.905 31.3934C79.1231 31.3934 79.9223 30.5942 79.9223 29.4481L79.9223 13.2528C79.9223 12.0346 79.1231 11.227 77.905 11.227ZM45.1224-2.40665C44.2214-3.16362 43.0713-3.16362 42.2424-2.40665L30.771 8.98428C30.0141 9.88522 30.0141 11.0269 30.7626 11.9278C31.5915 12.6128 32.8052 12.6212 33.6341 11.9362L45.1139 0.456451C45.7989-0.444487 45.7989-1.5777 45.1224-2.40665ZM31.4167-35.2697C31.4167-36.4158 30.6175-37.2954 29.4629-37.2954L13.2845-37.2954C12.0579-37.2954 11.2588-36.4158 11.2588-35.2697C11.2588-34.1236 12.0579-33.244 13.2845-33.244L29.4629-33.244C30.6175-33.244 31.4167-34.1236 31.4167-35.2697ZM45.1139-68.1243C45.7989-68.9448 45.7989-70.0949 45.1224-70.9874L33.6426-82.4756C32.822-83.1522 31.6-83.1606 30.7795-82.4756C30.0225-81.5747 30.0225-80.4246 30.771-79.5321L42.2424-68.1243C43.0713-67.3673 44.213-67.3673 45.1139-68.1243Z"/>
  </g>
  <g id="Ultralight-L" transform="matrix(1 0 0 1 482.098 1556)">
   <path d="M77.399-6.61909C93.1294-6.61909 106.054-19.6332 106.054-35.2697C106.054-50.9062 93.1294-63.9203 77.399-63.9203C61.758-63.9203 48.7484-50.9062 48.7484-35.2697C48.7484-19.6332 61.758-6.61909 77.399-6.61909ZM77.399-9.23477C63.2087-9.23477 51.3641-20.99 51.3641-35.2697C51.3641-49.5494 63.2087-61.3046 77.399-61.3046C91.6787-61.3046 103.438-49.5494 103.438-35.2697C103.438-20.99 91.6787-9.23477 77.399-9.23477ZM77.5688-82.3612C78.3991-82.3612 78.8362-82.7938 78.8362-83.6241L78.8362-100.388C78.8362-101.134 78.3991-101.571 77.5688-101.571C76.828-101.571 76.3908-101.134 76.3908-100.388L76.3908-83.6241C76.3908-82.7938 76.828-82.3612 77.5688-82.3612ZM110.855-68.551C111.484-68.0914 112.109-68.0958 112.649-68.551L124.529-80.3511C124.993-80.9806 124.993-81.6006 124.529-82.23C123.9-82.6047 123.275-82.6047 122.731-82.23L110.855-70.3539C110.475-69.7245 110.475-69.0955 110.855-68.551ZM124.669-35.2697C124.669-34.5244 125.187-34.0068 125.932-34.0068L142.705-34.0068C143.531-34.0068 143.968-34.5244 143.968-35.2697C143.968-36.0151 143.531-36.5326 142.705-36.5326L125.932-36.5326C125.187-36.5326 124.669-36.0151 124.669-35.2697ZM110.855-1.99293C110.475-1.44841 110.475-0.819421 110.855-0.189985L122.731 11.6861C123.275 12.0608 123.9 12.0653 124.529 11.6906C124.993 11.0612 124.993 10.4367 124.529 9.80723L112.653-1.99293C112.109-2.45254 111.484-2.45254 110.855-1.99293ZM77.5688 11.8218C76.828 11.8218 76.3908 12.2544 76.3908 13.0847L76.3908 29.8489C76.3908 30.5942 76.828 31.0314 77.5688 31.0314C78.3991 31.0314 78.8362 30.5942 78.8362 29.8489L78.8362 13.0847C78.8362 12.2544 78.3991 11.8218 77.5688 11.8218ZM44.3725-1.99293C43.7431-2.45254 43.123-2.45254 42.5785-1.99293L30.6935 9.81172C30.2338 10.4412 30.2338 11.0657 30.6979 11.6951C31.2425 12.0698 31.9519 12.0653 32.4964 11.6906L44.377-0.189985C44.7517-0.819421 44.7517-1.44841 44.3725-1.99293ZM30.4729-35.2697C30.4729-36.0151 30.0357-36.5326 29.2949-36.5326L12.5217-36.5326C11.6959-36.5326 11.2588-36.0151 11.2588-35.2697C11.2588-34.5244 11.6959-34.0068 12.5217-34.0068L29.2949-34.0068C30.0357-34.0068 30.4729-34.5244 30.4729-35.2697ZM44.377-68.551C44.7517-69.1 44.7517-69.72 44.3725-70.3539L32.4919-82.23C31.9429-82.6092 31.238-82.6047 30.689-82.23C30.2294-81.6006 30.2294-80.9806 30.6935-80.3466L42.5785-68.551C43.123-68.0914 43.7475-68.0914 44.377-68.551Z"/>
  </g>
  <g id="Black-M" transform="matrix(1 0 0 1 2863.62 1126)">
   <path d="M69.7506-6.1723C85.7019-6.1723 98.8334-19.2981 98.8334-35.2606C98.8334-51.2232 85.7019-64.349 69.7506-64.349C53.7935-64.349 40.6622-51.2232 40.6622-35.2606C40.6622-19.2981 53.7935-6.1723 69.7506-6.1723ZM69.7506-22.4957C62.8155-22.4957 56.9856-28.3313 56.9856-35.2606C56.9856-42.19 62.8155-48.0256 69.7506-48.0256C76.6799-48.0256 82.51-42.19 82.51-35.2606C82.51-28.3313 76.6799-22.4957 69.7506-22.4957ZM69.75-72.0168C73.974-72.0168 77.5329-75.5812 77.5329-79.8052L77.5329-88.3445C77.5329-92.5688 73.974-96.1848 69.75-96.1848C65.5202-96.1848 61.9613-92.5688 61.9613-88.3445L61.9613-79.8052C61.9613-75.5812 65.5202-72.0168 69.75-72.0168ZM95.8609-60.9773C98.7637-58.074 103.889-58.1256 106.854-61.1486L112.869-67.2149C115.767-70.1177 115.709-75.2481 112.697-78.2651C109.795-81.1688 104.67-81.0546 101.709-78.0938L95.6896-72.0169C92.7914-69.1141 92.8485-63.9946 95.8609-60.9773ZM106.666-35.2606C106.666-31.0364 110.231-27.4723 114.455-27.4723L122.983-27.4723C127.213-27.4723 130.829-31.0364 130.829-35.2606C130.829-39.4849 127.213-43.049 122.983-43.049L114.455-43.049C110.231-43.049 106.666-39.4849 106.666-35.2606ZM95.6896-9.31007C92.7914-6.40696 92.8485-1.34462 95.8609 1.67239L101.938 7.69222C104.841 10.5959 109.966 10.5333 112.983 7.51544C115.881 4.61262 115.824-0.512312 112.812-3.47223L106.735-9.48136C103.832-12.3847 98.7066-12.3276 95.6896-9.31007ZM69.75 1.49554C65.5202 1.49554 61.9613 5.05993 61.9613 9.28392L61.9613 17.8232C61.9613 22.0475 65.5202 25.6635 69.75 25.6635C73.974 25.6635 77.5329 22.0475 77.5329 17.8232L77.5329 9.28392C77.5329 5.05993 73.974 1.49554 69.75 1.49554ZM43.8046-9.31007C40.7876-12.3276 35.6572-12.3847 32.7541-9.48136L26.6882-3.47772C23.6706-0.517803 23.6135 4.60713 26.5114 7.50995C29.5287 10.5278 34.6533 10.5904 37.5564 7.68673L43.6279 1.67239C46.6457-1.34462 46.7028-6.40696 43.8046-9.31007ZM32.8851-35.2606C32.8851-39.4849 29.2691-43.049 25.0394-43.049L16.511-43.049C12.2816-43.049 8.72266-39.4849 8.72266-35.2606C8.72266-31.0364 12.2816-27.4723 16.511-27.4723L25.0394-27.4723C29.2691-27.4723 32.8851-31.0364 32.8851-35.2606ZM43.6279-60.9773C46.6457-63.9891 46.7028-69.1196 43.8046-72.0169L37.7903-78.0938C34.8356-81.0491 29.7055-81.1688 26.8078-78.2651C23.7903-75.2481 23.7332-70.1177 26.6311-67.2204L32.6399-61.1486C35.6001-58.1311 40.725-58.074 43.6279-60.9773Z"/>
  </g>
  <g id="Heavy-M" transform="matrix(1 0 0 1 2568.86 1126)">
   <path d="M67.806-7.15996C83.1948-7.15996 95.8903-19.8413 95.8903-35.2606C95.8903-50.68 83.1948-63.3613 67.806-63.3613C52.4031-63.3613 39.7053-50.68 39.7053-35.2606C39.7053-19.8413 52.4031-7.15996 67.806-7.15996ZM67.806-21.3867C60.252-21.3867 53.9321-27.7207 53.9321-35.2606C53.9321-42.8005 60.252-49.1346 67.806-49.1346C75.3459-49.1346 81.6635-42.8005 81.6635-35.2606C81.6635-27.7207 75.3459-21.3867 67.806-21.3867ZM67.8105-71.3529C71.5805-71.3529 74.7444-74.5332 74.7444-78.3032L74.7444-87.3188C74.7444-91.0866 71.5805-94.2941 67.8105-94.2941C64.0264-94.2941 60.8625-91.0866 60.8625-87.3188L60.8625-78.3032C60.8625-74.5332 64.0264-71.3529 67.8105-71.3529ZM93.402-60.5632C96.0086-57.9611 100.56-57.9883 103.224-60.694L109.587-67.0821C112.173-69.6886 112.129-74.2561 109.456-76.9499C106.85-79.5497 102.299-79.4624 99.6506-76.819L93.2711-70.3959C90.6878-67.7893 90.7314-63.2547 93.402-60.5632ZM104.001-35.2606C104.001-31.4929 107.183-28.3103 110.951-28.3103L119.934-28.3103C123.72-28.3103 126.928-31.4929 126.928-35.2606C126.928-39.0284 123.72-42.211 119.934-42.211L110.951-42.211C107.183-42.211 104.001-39.0284 104.001-35.2606ZM93.2711-9.76724C90.6878-7.16293 90.7314-2.67192 93.402 0.0219007L99.8251 6.4014C102.429 9.00116 106.98 8.94113 109.674 6.25413C112.26 3.64755 112.216-0.903489 109.543-3.55369L103.12-9.8981C100.516-12.5001 95.9649-12.4565 93.2711-9.76724ZM67.8105 0.831621C64.0264 0.831621 60.8625 4.01195 60.8625 7.78194L60.8625 16.7976C60.8625 20.5653 64.0264 23.7728 67.8105 23.7728C71.5805 23.7728 74.7444 20.5653 74.7444 16.7976L74.7444 7.78194C74.7444 4.01195 71.5805 0.831621 67.8105 0.831621ZM42.3358-9.76724C39.642-12.4565 35.0745-12.5001 32.4702-9.8981L26.0799-3.5701C23.3907-0.919899 23.347 3.63114 25.9327 6.23772C28.6242 8.92472 33.1775 8.98475 35.7818 6.38499L42.1885 0.0219007C44.8755-2.67192 44.9192-7.16293 42.3358-9.76724ZM31.6474-35.2606C31.6474-39.0284 28.4399-42.211 24.6558-42.211L15.673-42.211C11.8866-42.211 8.72266-39.0284 8.72266-35.2606C8.72266-31.4929 11.8866-28.3103 15.673-28.3103L24.6558-28.3103C28.4399-28.3103 31.6474-31.4929 31.6474-35.2606ZM42.1885-60.5632C44.8755-63.2383 44.9192-67.8057 42.3358-70.3959L35.9727-76.819C33.3412-79.446 28.7715-79.5497 26.1836-76.9499C23.4943-74.2561 23.4507-69.6886 26.0363-67.0985L32.383-60.694C35.0309-58.0047 39.582-57.9611 42.1885-60.5632Z"/>
  </g>
  <g id="Bold-M" transform="matrix(1 0 0 1 2274.33 1126)">
   <path d="M65.6307-8.26481C80.3903-8.26481 92.5979-20.449 92.5979-35.2606C92.5979-50.0723 80.3903-62.2565 65.6307-62.2565C50.8476-62.2565 38.6349-50.0723 38.6349-35.2606C38.6349-20.449 50.8476-8.26481 65.6307-8.26481ZM65.6307-20.1462C57.3843-20.1462 50.5163-27.0377 50.5163-35.2606C50.5163-43.4836 57.3843-50.3751 65.6307-50.3751C73.8536-50.3751 80.7165-43.4836 80.7165-35.2606C80.7165-27.0377 73.8536-20.1462 65.6307-20.1462ZM65.641-70.6102C68.9031-70.6102 71.6252-73.3609 71.6252-76.623L71.6252-86.1715C71.6252-89.4285 68.9031-92.1791 65.641-92.1791C62.3553-92.1791 59.6333-89.4285 59.6333-86.1715L59.6333-76.623C59.6333-73.3609 62.3553-70.6102 65.641-70.6102ZM90.6514-60.0998C92.9266-57.8349 96.8356-57.8348 99.1628-60.1855L105.916-66.9335C108.152-69.2087 108.124-73.1464 105.83-75.4787C103.555-77.7385 99.6462-77.6814 97.3476-75.393L90.5657-68.5826C88.3345-66.3074 88.3631-62.427 90.6514-60.0998ZM101.019-35.2606C101.019-32.0037 103.775-29.2478 107.032-29.2478L116.523-29.2478C119.814-29.2478 122.564-32.0037 122.564-35.2606C122.564-38.5176 119.814-41.2735 116.523-41.2735L107.032-41.2735C103.775-41.2735 101.019-38.5176 101.019-35.2606ZM90.5657-10.2786C88.3345-8.00859 88.3631-4.1567 90.6514-1.82441L97.4618 4.95744C99.7318 7.21724 103.641 7.16007 105.973 4.84318C108.209 2.56798 108.181-1.34108 105.888-3.64482L99.0771-10.3643C96.8071-12.6292 92.898-12.6007 90.5657-10.2786ZM65.641 0.0889304C62.3553 0.0889304 59.6333 2.83962 59.6333 6.10175L59.6333 15.6502C59.6333 18.9072 62.3553 21.6578 65.641 21.6578C68.9031 21.6578 71.6252 18.9072 71.6252 15.6502L71.6252 6.10175C71.6252 2.83962 68.9031 0.0889304 65.641 0.0889304ZM40.6927-10.2786C38.3604-12.6007 34.4227-12.6292 32.1527-10.3643L25.3995-3.67344C23.0775-1.3697 23.049 2.53936 25.2853 4.81455C27.6124 7.13144 31.5266 7.18861 33.7967 4.92882L40.5785-1.82441C42.8953-4.1567 42.9239-8.00859 40.6927-10.2786ZM30.2629-35.2606C30.2629-38.5176 27.5123-41.2735 24.2267-41.2735L14.7355-41.2735C11.4447-41.2735 8.72266-38.5176 8.72266-35.2606C8.72266-32.0037 11.4447-29.2478 14.7355-29.2478L24.2267-29.2478C27.5123-29.2478 30.2629-32.0037 30.2629-35.2606ZM40.5785-60.0998C42.8953-62.3984 42.9239-66.336 40.6927-68.5826L33.9395-75.393C31.6695-77.6527 27.7267-77.7385 25.4853-75.4787C23.1632-73.1464 23.1347-69.2087 25.371-66.9621L32.0956-60.1855C34.3942-57.8634 38.3033-57.8349 40.5785-60.0998Z"/>
  </g>
  <g id="Semibold-M" transform="matrix(1 0 0 1 1979.13 1126)">
   <path d="M64.1311-9.02649C78.4569-9.02649 90.3282-20.8679 90.3282-35.2606C90.3282-49.6534 78.4569-61.4948 64.1311-61.4948C49.7753-61.4948 37.8969-49.6534 37.8969-35.2606C37.8969-20.8679 49.7753-9.02649 64.1311-9.02649ZM64.1311-19.291C55.4073-19.291 48.1614-26.5669 48.1614-35.2606C48.1614-43.9544 55.4073-51.2303 64.1311-51.2303C72.8249-51.2303 80.0636-43.9544 80.0636-35.2606C80.0636-26.5669 72.8249-19.291 64.1311-19.291ZM64.1453-70.0982C67.0573-70.0982 69.4747-72.5527 69.4747-75.4647L69.4747-85.3805C69.4747-88.2854 67.0573-90.721 64.1453-90.721C61.2033-90.721 58.7859-88.2854 58.7859-85.3805L58.7859-75.4647C58.7859-72.5527 61.2033-70.0982 64.1453-70.0982ZM88.7551-59.7804C90.8018-57.7479 94.2683-57.729 96.3631-59.8349L103.385-66.8311C105.381-68.8778 105.363-72.3813 103.331-74.4644C101.284-76.4898 97.8176-76.4535 95.7598-74.4099L88.7006-67.3325C86.7122-65.2858 86.7304-61.8564 88.7551-59.7804ZM98.9632-35.2606C98.9632-32.3557 101.425-29.8941 104.33-29.8941L114.171-29.8941C117.12-29.8941 119.556-32.3557 119.556-35.2606C119.556-38.1655 117.12-40.6272 114.171-40.6272L104.33-40.6272C101.425-40.6272 98.9632-38.1655 98.9632-35.2606ZM88.7006-10.6312C86.7122-8.59158 86.7304-5.18029 88.7551-3.09724L95.8325 3.96199C97.8721 5.98741 101.339 5.93221 103.422 3.87047C105.417 1.82374 105.399-1.64275 103.367-3.70764L96.2898-10.6857C94.2502-12.7182 90.7837-12.7001 88.7006-10.6312ZM64.1453-0.423076C61.2033-0.423076 58.7859 2.03143 58.7859 4.94344L58.7859 14.8592C58.7859 17.7641 61.2033 20.1997 64.1453 20.1997C67.0573 20.1997 69.4747 17.7641 69.4747 14.8592L69.4747 4.94344C69.4747 2.03143 67.0573-0.423076 64.1453-0.423076ZM39.56-10.6312C37.4769-12.7001 33.9734-12.7182 31.9338-10.6857L24.9305-3.74469C22.8616-1.67979 22.8435 1.78669 24.839 3.83343C26.9149 5.89517 30.3885 5.95037 32.4281 3.92494L39.4685-3.09724C41.5302-5.18029 41.5484-8.59158 39.56-10.6312ZM29.3084-35.2606C29.3084-38.1655 26.8728-40.6272 23.9309-40.6272L14.0892-40.6272C11.1401-40.6272 8.72266-38.1655 8.72266-35.2606C8.72266-32.3557 11.1401-29.8941 14.0892-29.8941L23.9309-29.8941C26.8728-29.8941 29.3084-32.3557 29.3084-35.2606ZM39.4685-59.7804C41.5302-61.8193 41.5484-65.3228 39.56-67.3325L32.5378-74.4099C30.5171-76.4165 27.0064-76.4898 25.0038-74.4644C22.935-72.3813 22.9168-68.8778 24.9123-66.8681L31.8975-59.8349C33.9553-57.766 37.4217-57.7479 39.4685-59.7804Z"/>
  </g>
  <g id="Medium-M" transform="matrix(1 0 0 1 1683.56 1126)">
   <path d="M62.994-9.60403C76.9909-9.60403 88.6072-21.1855 88.6072-35.2606C88.6072-49.3358 76.9909-60.9173 62.994-60.9173C48.9623-60.9173 37.3374-49.3358 37.3374-35.2606C37.3374-21.1855 48.9623-9.60403 62.994-9.60403ZM62.994-18.6426C53.9083-18.6426 46.3759-26.2098 46.3759-35.2606C46.3759-44.3115 53.9083-51.8787 62.994-51.8787C72.0448-51.8787 79.5686-44.3115 79.5686-35.2606C79.5686-26.2098 72.0448-18.6426 62.994-18.6426ZM63.0112-69.71C65.6577-69.71 67.8442-71.9399 67.8442-74.5864L67.8442-84.7808C67.8442-87.4187 65.6577-89.6155 63.0112-89.6155C60.3298-89.6155 58.1433-87.4187 58.1433-84.7808L58.1433-74.5864C58.1433-71.9399 60.3298-69.71 63.0112-69.71ZM87.3173-59.5382C89.1908-57.6819 92.3217-57.6488 94.2403-59.569L101.466-66.7534C103.279-68.6269 103.269-71.8013 101.436-73.6953C99.5621-75.543 96.4312-75.5225 94.556-73.6645L87.2864-66.3847C85.4821-64.5112 85.4924-61.4237 87.3173-59.5382ZM97.4045-35.2606C97.4045-32.6227 99.643-30.3842 102.281-30.3842L112.388-30.3842C115.078-30.3842 117.275-32.6227 117.275-35.2606C117.275-37.8986 115.078-40.1371 112.388-40.1371L102.281-40.1371C99.643-40.1371 97.4045-37.8986 97.4045-35.2606ZM87.2864-10.8985C85.4821-9.03363 85.4924-5.95643 87.3173-4.06236L94.5971 3.20719C96.462 5.0549 99.5929 5.0012 101.487 3.13293C103.3 1.25942 103.29-1.87149 101.456-3.75528L94.1763-10.9294C92.3114-12.7857 89.1805-12.7754 87.2864-10.8985ZM63.0112-0.8113C60.3298-0.8113 58.1433 1.41862 58.1433 4.06516L58.1433 14.2595C58.1433 16.8974 60.3298 19.0942 63.0112 19.0942C65.6577 19.0942 67.8442 16.8974 67.8442 14.2595L67.8442 4.06516C67.8442 1.41862 65.6577-0.8113 63.0112-0.8113ZM38.7011-10.8985C36.807-12.7754 33.6327-12.7857 31.7678-10.9294L24.5748-3.79871C22.6979-1.91492 22.6877 1.21599 24.5006 3.0895C26.386 4.95777 29.5255 5.01147 31.3904 3.16376L38.6268-4.06236C40.4951-5.95643 40.5054-9.03363 38.7011-10.8985ZM28.5847-35.2606C28.5847-37.8986 26.3879-40.1371 23.7066-40.1371L13.5991-40.1371C10.9092-40.1371 8.72266-37.8986 8.72266-35.2606C8.72266-32.6227 10.9092-30.3842 13.5991-30.3842L23.7066-30.3842C26.3879-30.3842 28.5847-32.6227 28.5847-35.2606ZM38.6268-59.5382C40.4951-61.3803 40.5054-64.5546 38.7011-66.3847L31.475-73.6645C29.6432-75.4791 26.4603-75.543 24.6388-73.6953C22.7619-71.8013 22.7517-68.6269 24.5645-66.7968L31.7472-59.569C33.6224-57.6922 36.7533-57.6819 38.6268-59.5382Z"/>
  </g>
  <g id="Regular-M" transform="matrix(1 0 0 1 1388.33 1126)">
   <path d="M61.5108-10.3573C75.0787-10.3573 86.3624-21.5998 86.3624-35.2606C86.3624-48.9215 75.0787-60.164 61.5108-60.164C47.9018-60.164 36.6075-48.9215 36.6075-35.2606C36.6075-21.5998 47.9018-10.3573 61.5108-10.3573ZM61.5108-17.7968C51.9531-17.7968 44.0469-25.7441 44.0469-35.2606C44.0469-44.7772 51.9531-52.7245 61.5108-52.7245C71.0273-52.7245 78.9229-44.7772 78.9229-35.2606C78.9229-25.7441 71.0273-17.7968 61.5108-17.7968ZM61.5319-69.2036C63.8322-69.2036 65.7174-71.1406 65.7174-73.4409L65.7174-83.9985C65.7174-86.2882 63.8322-88.1734 61.5319-88.1734C59.1905-88.1734 57.3052-86.2882 57.3052-83.9985L57.3052-73.4409C57.3052-71.1406 59.1905-69.2036 61.5319-69.2036ZM85.4418-59.2223C87.0894-57.5958 89.7826-57.5441 91.4714-59.2223L98.9635-66.6521C100.538-68.2997 100.538-71.0446 98.9635-72.6922C97.3159-74.3081 94.6227-74.3081 92.9857-72.6922L85.4418-65.1483C83.8777-63.5008 83.8777-60.8593 85.4418-59.2223ZM95.3714-35.2606C95.3714-32.9709 97.3189-31.0234 99.6086-31.0234L110.063-31.0234C112.415-31.0234 114.3-32.9709 114.3-35.2606C114.3-37.5504 112.415-39.4979 110.063-39.4979L99.6086-39.4979C97.3189-39.4979 95.3714-37.5504 95.3714-35.2606ZM85.4418-11.2472C83.8777-9.61021 83.8777-6.96877 85.4418-5.3212L92.9857 2.22267C94.6227 3.83859 97.3159 3.78683 98.9635 2.17092C100.538 0.523348 100.538-2.16984 98.9635-3.81741L91.4196-11.2472C89.7826-12.8737 87.0894-12.8737 85.4418-11.2472ZM61.5319-1.31768C59.1905-1.31768 57.3052 0.619309 57.3052 2.91957L57.3052 13.4772C57.3052 15.7669 59.1905 17.6521 61.5319 17.6521C63.8322 17.6521 65.7174 15.7669 65.7174 13.4772L65.7174 2.91957C65.7174 0.619309 63.8322-1.31768 61.5319-1.31768ZM37.5808-11.2472C35.9332-12.8737 33.1883-12.8737 31.5513-11.2472L24.1109-3.86917C22.4844-2.2216 22.4844 0.471595 24.0592 2.11916C25.6962 3.73508 28.3999 3.78683 30.0369 2.17092L37.5291-5.3212C39.145-6.96877 39.145-9.61021 37.5808-11.2472ZM27.6407-35.2606C27.6407-37.5504 25.7555-39.4979 23.414-39.4979L12.9599-39.4979C10.6079-39.4979 8.72266-37.5504 8.72266-35.2606C8.72266-32.9709 10.6079-31.0234 12.9599-31.0234L23.414-31.0234C25.7555-31.0234 27.6407-32.9709 27.6407-35.2606ZM37.5291-59.2223C39.145-60.8076 39.145-63.5525 37.5808-65.1483L30.0887-72.6922C28.5034-74.2564 25.7479-74.3081 24.1627-72.6922C22.5362-71.0446 22.5362-68.2997 24.1109-66.7039L31.5513-59.2223C33.1883-57.5958 35.8815-57.5958 37.5291-59.2223Z"/>
  </g>
  <g id="Light-M" transform="matrix(1 0 0 1 1092.05 1126)">
   <path d="M61.0317-11.1958C74.1718-11.1958 85.0619-22.0789 85.0619-35.2606C85.0619-48.4424 74.1718-59.3255 61.0317-59.3255C47.8846-59.3255 36.9668-48.4424 36.9668-35.2606C36.9668-22.0789 47.8846-11.1958 61.0317-11.1958ZM61.0317-16.9583C51.0291-16.9583 42.7294-25.265 42.7294-35.2606C42.7294-45.2563 51.0291-53.563 61.0317-53.563C71.0273-53.563 79.2994-45.2563 79.2994-35.2606C79.2994-25.265 71.0273-16.9583 61.0317-16.9583ZM61.087-69.9907C62.874-69.9907 64.2801-71.4315 64.2801-73.2184L64.2801-84.5289C64.2801-86.2882 62.874-87.6943 61.087-87.6943C59.2931-87.6943 57.887-86.2882 57.887-84.5289L57.887-73.2184C57.887-71.4315 59.2931-69.9907 61.087-69.9907ZM85.5787-59.787C86.867-58.5541 88.8757-58.5194 90.1709-59.787L98.1935-67.7472C99.3918-69.0355 99.3918-71.0789 98.1935-72.3671C96.9053-73.5724 94.8965-73.5724 93.6359-72.3671L85.5787-64.3099C84.4081-63.0217 84.4081-61.0475 85.5787-59.787ZM95.7478-35.2606C95.7478-33.5014 97.2163-32.0329 98.9755-32.0329L110.217-32.0329C112.038-32.0329 113.444-33.5014 113.444-35.2606C113.444-37.0199 112.038-38.4884 110.217-38.4884L98.9755-38.4884C97.2163-38.4884 95.7478-37.0199 95.7478-35.2606ZM85.5787-10.6997C84.4081-9.4391 84.4081-7.46499 85.5787-6.17675L93.6359 1.88045C94.8965 3.08571 96.9053 3.05106 98.1935 1.84581C99.3918 0.55757 99.3918-1.45119 98.1935-2.73942L90.1363-10.6997C88.8757-11.9326 86.867-11.9326 85.5787-10.6997ZM61.087-0.530576C59.2931-0.530576 57.887 0.910195 57.887 2.69713L57.887 14.0076C57.887 15.7669 59.2931 17.173 61.087 17.173C62.874 17.173 64.2801 15.7669 64.2801 14.0076L64.2801 2.69713C64.2801 0.910195 62.874-0.530576 61.087-0.530576ZM36.5884-10.6997C35.3001-11.9326 33.2567-11.9326 31.9962-10.6997L24.0082-2.77407C22.7753-1.48583 22.7753 0.522927 23.9736 1.81117C25.2342 3.01642 27.2706 3.05106 28.5312 1.84581L36.5537-6.17675C37.759-7.46499 37.759-9.4391 36.5884-10.6997ZM26.3916-35.2606C26.3916-37.0199 24.9855-38.4884 23.1916-38.4884L11.9504-38.4884C10.1288-38.4884 8.72266-37.0199 8.72266-35.2606C8.72266-33.5014 10.1288-32.0329 11.9504-32.0329L23.1916-32.0329C24.9855-32.0329 26.3916-33.5014 26.3916-35.2606ZM36.5537-59.787C37.759-61.0129 37.759-63.0563 36.5884-64.3099L28.5658-72.3671C27.3399-73.5377 25.2688-73.5724 24.0429-72.3671C22.81-71.0789 22.81-69.0355 24.0082-67.7819L31.9962-59.787C33.2567-58.5541 35.2655-58.5541 36.5537-59.787Z"/>
  </g>
  <g id="Thin-M" transform="matrix(1 0 0 1 795.904 1126)">
   <path d="M60.3981-12.3047C72.9724-12.3047 83.342-22.7126 83.342-35.2606C83.342-47.8087 72.9724-58.2166 60.3981-58.2166C47.862-58.2166 37.4421-47.8087 37.4421-35.2606C37.4421-22.7126 47.862-12.3047 60.3981-12.3047ZM60.3981-15.8494C49.8071-15.8494 40.9868-24.6314 40.9868-35.2606C40.9868-45.8899 49.8071-54.6719 60.3981-54.6719C71.0273-54.6719 79.7973-45.8899 79.7973-35.2606C79.7973-24.6314 71.0273-15.8494 60.3981-15.8494ZM60.4986-71.0317C61.6067-71.0317 62.3791-71.8162 62.3791-72.9242L62.3791-85.2305C62.3791-86.2882 61.6067-87.0607 60.4986-87.0607C59.4289-87.0607 58.6564-86.2882 58.6564-85.2305L58.6564-72.9242C58.6564-71.8162 59.4289-71.0317 60.4986-71.0317ZM85.7598-60.5338C86.5728-59.8214 87.6763-59.8094 88.451-60.5338L97.1751-69.1956C97.8755-70.0086 97.8755-71.1241 97.1751-71.9371C96.3621-72.5992 95.2586-72.5992 94.4959-71.9371L85.7598-63.201C85.1097-62.388 85.1097-61.2965 85.7598-60.5338ZM96.2457-35.2606C96.2457-34.2029 97.0805-33.3681 98.1382-33.3681L110.42-33.3681C111.54-33.3681 112.313-34.2029 112.313-35.2606C112.313-36.3184 111.54-37.1531 110.42-37.1531L98.1382-37.1531C97.0805-37.1531 96.2457-36.3184 96.2457-35.2606ZM85.7598-9.9755C85.1097-9.2128 85.1097-8.12128 85.7598-7.30828L94.4959 1.42784C95.2586 2.08996 96.3621 2.07795 97.1751 1.41583C97.8755 0.602831 97.8755-0.5007 97.1751-1.3137L88.439-9.9755C87.6763-10.6879 86.5728-10.6879 85.7598-9.9755ZM60.4986 0.510431C59.4289 0.510431 58.6564 1.29492 58.6564 2.40293L58.6564 14.7092C58.6564 15.7669 59.4289 16.5394 60.4986 16.5394C61.6067 16.5394 62.3791 15.7669 62.3791 14.7092L62.3791 2.40293C62.3791 1.29492 61.6067 0.510431 60.4986 0.510431ZM35.2758-9.9755C34.4628-10.6879 33.3473-10.6879 32.5846-9.9755L23.8725-1.32571C23.1601-0.512712 23.1601 0.590819 23.8605 1.40382C24.6232 2.06593 25.777 2.07795 26.5397 1.41583L35.2638-7.30828C35.9259-8.12128 35.9259-9.2128 35.2758-9.9755ZM24.7396-35.2606C24.7396-36.3184 23.9671-37.1531 22.8974-37.1531L10.6152-37.1531C9.49513-37.1531 8.72266-36.3184 8.72266-35.2606C8.72266-34.2029 9.49513-33.3681 10.6152-33.3681L22.8974-33.3681C23.9671-33.3681 24.7396-34.2029 24.7396-35.2606ZM35.2638-60.5338C35.9259-61.2845 35.9259-62.4 35.2758-63.201L26.5517-71.9371C25.801-72.5872 24.6352-72.5992 23.8845-71.9371C23.1721-71.1241 23.1721-70.0086 23.8725-69.2076L32.5846-60.5338C33.3473-59.8214 34.4508-59.8214 35.2638-60.5338Z"/>
  </g>
  <g id="Ultralight-M" transform="matrix(1 0 0 1 499.483 1126)">
   <path d="M60.0735-12.8726C72.358-12.8726 82.4611-23.0371 82.4611-35.2606C82.4611-47.4841 72.358-57.6486 60.0735-57.6486C47.8504-57.6486 37.6855-47.4841 37.6855-35.2606C37.6855-23.0371 47.8504-12.8726 60.0735-12.8726ZM60.0735-15.2815C49.1811-15.2815 40.0943-24.3068 40.0943-35.2606C40.0943-46.2145 49.1811-55.2398 60.0735-55.2398C71.0273-55.2398 80.0523-46.2145 80.0523-35.2606C80.0523-24.3068 71.0273-15.2815 60.0735-15.2815ZM60.1973-71.5649C60.9576-71.5649 61.4055-72.0133 61.4055-72.7735L61.4055-85.5898C61.4055-86.2882 60.9576-86.7361 60.1973-86.7361C59.4985-86.7361 59.0505-86.2882 59.0505-85.5898L59.0505-72.7735C59.0505-72.0133 59.4985-71.5649 60.1973-71.5649ZM85.8525-60.9163C86.4221-60.4705 87.062-60.4701 87.5701-60.9163L96.6535-69.9374C97.0989-70.507 97.0989-71.1473 96.6535-71.7169C96.0839-72.1008 95.444-72.1008 94.9364-71.7169L85.8525-62.633C85.469-62.0634 85.469-61.424 85.8525-60.9163ZM96.5007-35.2606C96.5007-34.5622 97.0109-34.052 97.7093-34.052L110.525-34.052C111.285-34.052 111.733-34.5622 111.733-35.2606C111.733-35.959 111.285-36.4693 110.525-36.4693L97.7093-36.4693C97.0109-36.4693 96.5007-35.959 96.5007-35.2606ZM85.8525-9.60458C85.469-9.09688 85.469-8.45742 85.8525-7.88785L94.9364 1.19601C95.444 1.57994 96.0839 1.57952 96.6535 1.19559C97.0989 0.626014 97.0989-0.0138664 96.6535-0.583446L87.5696-9.60458C87.062-10.0504 86.4221-10.0504 85.8525-9.60458ZM60.1973 1.04363C59.4985 1.04363 59.0505 1.49197 59.0505 2.25225L59.0505 15.0685C59.0505 15.7669 59.4985 16.2148 60.1973 16.2148C60.9576 16.2148 61.4055 15.7669 61.4055 15.0685L61.4055 2.25225C61.4055 1.49197 60.9576 1.04363 60.1973 1.04363ZM34.6035-9.60458C34.0339-10.0504 33.3936-10.0504 32.8859-9.60458L23.8029-0.583867C23.3571-0.0142873 23.3571 0.625593 23.8025 1.19517C24.3102 1.5791 25.012 1.57952 25.5197 1.19559L34.6031-7.88785C34.987-8.45742 34.987-9.09688 34.6035-9.60458ZM23.8934-35.2606C23.8934-35.959 23.4455-36.4693 22.7467-36.4693L9.93127-36.4693C9.17057-36.4693 8.72266-35.959 8.72266-35.2606C8.72266-34.5622 9.17057-34.052 9.93127-34.052L22.7467-34.052C23.4455-34.052 23.8934-34.5622 23.8934-35.2606ZM34.6031-60.9163C34.987-61.4236 34.987-62.0639 34.6035-62.633L25.5201-71.7169C25.0128-72.1004 24.3106-72.1008 23.8033-71.7169C23.3575-71.1473 23.3575-70.507 23.8029-69.9378L32.8859-60.9163C33.3936-60.4705 34.0335-60.4705 34.6031-60.9163Z"/>
  </g>
  <g id="Black-S" transform="matrix(1 0 0 1 2878.15 696)">
   <path d="M55.2246-12.207C67.8711-12.207 78.2715-22.6074 78.2715-35.2539C78.2715-47.9004 67.8711-58.3008 55.2246-58.3008C42.5781-58.3008 32.1777-47.9004 32.1777-35.2539C32.1777-22.6074 42.5781-12.207 55.2246-12.207ZM55.2246-25.5371C49.9512-25.5371 45.5078-29.9805 45.5078-35.2539C45.5078-40.5273 49.9512-44.9707 55.2246-44.9707C60.498-44.9707 64.9414-40.5273 64.9414-35.2539C64.9414-29.9805 60.498-25.5371 55.2246-25.5371ZM55.2246-64.3066C58.6426-64.3066 61.5234-67.1875 61.5234-70.6055L61.5234-77.1973C61.5234-80.6152 58.6426-83.5449 55.2246-83.5449C51.8066-83.5449 48.9258-80.6152 48.9258-77.1973L48.9258-70.6055C48.9258-67.1875 51.8066-64.3066 55.2246-64.3066ZM75.8789-55.5664C78.2227-53.2227 82.373-53.2715 84.7656-55.7129L89.4043-60.4004C91.748-62.7441 91.6992-66.8945 89.2578-69.3359C86.9141-71.6797 82.7637-71.582 80.3711-69.1895L75.7324-64.502C73.3887-62.1582 73.4375-58.0078 75.8789-55.5664ZM84.4238-35.2539C84.4238-31.8359 87.3047-28.9551 90.7227-28.9551L97.3145-28.9551C100.732-28.9551 103.662-31.8359 103.662-35.2539C103.662-38.6719 100.732-41.5527 97.3145-41.5527L90.7227-41.5527C87.3047-41.5527 84.4238-38.6719 84.4238-35.2539ZM75.7324-14.7461C73.3887-12.4023 73.4375-8.30078 75.8789-5.85938L80.5664-1.2207C82.9102 1.12305 87.0605 1.07422 89.502-1.36719C91.8457-3.71094 91.7969-7.86133 89.3555-10.2539L84.668-14.8926C82.3242-17.2363 78.1738-17.1875 75.7324-14.7461ZM55.2246-6.20117C51.8066-6.20117 48.9258-3.32031 48.9258 0.0976562L48.9258 6.68945C48.9258 10.1074 51.8066 13.0371 55.2246 13.0371C58.6426 13.0371 61.5234 10.1074 61.5234 6.68945L61.5234 0.0976562C61.5234-3.32031 58.6426-6.20117 55.2246-6.20117ZM34.7168-14.7461C32.2754-17.1875 28.125-17.2363 25.7812-14.8926L21.0938-10.2539C18.6523-7.86133 18.6035-3.71094 20.9473-1.36719C23.3887 1.07422 27.5391 1.12305 29.8828-1.2207L34.5703-5.85938C37.0117-8.30078 37.0605-12.4023 34.7168-14.7461ZM26.0742-35.2539C26.0742-38.6719 23.1445-41.5527 19.7266-41.5527L13.1348-41.5527C9.7168-41.5527 6.83594-38.6719 6.83594-35.2539C6.83594-31.8359 9.7168-28.9551 13.1348-28.9551L19.7266-28.9551C23.1445-28.9551 26.0742-31.8359 26.0742-35.2539ZM34.5703-55.5664C37.0117-58.0078 37.0605-62.1582 34.7168-64.502L30.0781-69.1895C27.6855-71.582 23.5352-71.6797 21.1914-69.3359C18.75-66.8945 18.7012-62.7441 21.0449-60.4004L25.6836-55.7129C28.0762-53.2715 32.2266-53.2227 34.5703-55.5664Z"/>
  </g>
  <g id="Heavy-S" transform="matrix(1 0 0 1 2583.05 696)">
   <path d="M53.6227-12.9446C65.8428-12.9446 75.9205-23.0108 75.9205-35.2539C75.9205-47.497 65.8428-57.5632 53.6227-57.5632C41.3911-57.5632 31.3134-47.497 31.3134-35.2539C31.3134-23.0108 41.3911-12.9446 53.6227-12.9446ZM53.6227-24.6958C47.8768-24.6958 43.0646-29.5195 43.0646-35.2539C43.0646-40.9883 47.8768-45.812 53.6227-45.812C59.3571-45.812 64.1693-40.9883 64.1693-35.2539C64.1693-29.5195 59.3571-24.6958 53.6227-24.6958ZM53.6227-63.6382C56.718-63.6382 59.3223-66.254 59.3223-69.3493L59.3223-76.2523C59.3223-79.3475 56.718-81.9891 53.6227-81.9891C50.5159-81.9891 47.9116-79.3475 47.9116-76.2523L47.9116-69.3493C47.9116-66.254 50.5159-63.6382 53.6227-63.6382ZM73.7584-55.14C75.8947-53.0037 79.6417-53.0295 81.8269-55.2519L86.696-60.1469C88.8208-62.2832 88.7835-66.0417 86.5841-68.2526C84.4478-70.3889 80.7008-70.3143 78.5272-68.1407L73.6465-63.2227C71.5217-61.0864 71.559-57.3509 73.7584-55.14ZM82.0959-35.2539C82.0959-32.1586 84.7117-29.5428 87.807-29.5428L94.6869-29.5428C97.7937-29.5428 100.435-32.1586 100.435-35.2539C100.435-38.3492 97.7937-40.965 94.6869-40.965L87.807-40.965C84.7117-40.965 82.0959-38.3492 82.0959-35.2539ZM73.6465-15.2071C71.5217-13.0708 71.559-9.37256 73.7584-7.16164L78.6764-2.28095C80.8127-0.144644 84.5597-0.193472 86.7707-2.40439C88.8954-4.5407 88.8581-8.28773 86.6587-10.4613L81.7408-15.319C79.6044-17.4553 75.8574-17.418 73.6465-15.2071ZM53.6227-6.86959C50.5159-6.86959 47.9116-4.25379 47.9116-1.15851L47.9116 5.74445C47.9116 8.83973 50.5159 11.4813 53.6227 11.4813C56.718 11.4813 59.3223 8.83973 59.3223 5.74445L59.3223-1.15851C59.3223-4.25379 56.718-6.86959 53.6227-6.86959ZM33.5874-15.2071C31.3765-17.418 27.6179-17.4553 25.4816-15.319L20.5867-10.4729C18.3758-8.29926 18.3385-4.55222 20.4632-2.41591C22.6742-0.204997 26.4212-0.156169 28.5575-2.29248L33.464-7.16164C35.6749-9.37256 35.7122-13.0708 33.5874-15.2071ZM25.1753-35.2539C25.1753-38.3492 22.5337-40.965 19.4269-40.965L12.547-40.965C9.44021-40.965 6.83594-38.3492 6.83594-35.2539C6.83594-32.1586 9.44021-29.5428 12.547-29.5428L19.4269-29.5428C22.5337-29.5428 25.1753-32.1586 25.1753-35.2539ZM33.464-55.14C35.6749-57.3394 35.7122-61.098 33.5874-63.2227L28.7182-68.1407C26.5561-70.3028 22.7976-70.3889 20.6728-68.2526C18.4619-66.0417 18.4246-62.2832 20.5494-60.1584L25.407-55.2519C27.5806-53.041 31.3277-53.0037 33.464-55.14Z"/>
  </g>
  <g id="Bold-S" transform="matrix(1 0 0 1 2288.15 696)">
   <path d="M51.8311-13.7695C63.5742-13.7695 73.291-23.4619 73.291-35.2539C73.291-47.0459 63.5742-56.7383 51.8311-56.7383C40.0635-56.7383 30.3467-47.0459 30.3467-35.2539C30.3467-23.4619 40.0635-13.7695 51.8311-13.7695ZM51.8311-23.7549C45.5566-23.7549 40.332-29.0039 40.332-35.2539C40.332-41.5039 45.5566-46.7529 51.8311-46.7529C58.0811-46.7529 63.3057-41.5039 63.3057-35.2539C63.3057-29.0039 58.0811-23.7549 51.8311-23.7549ZM51.8311-62.8906C54.5654-62.8906 56.8604-65.21 56.8604-67.9443L56.8604-75.1953C56.8604-77.9297 54.5654-80.249 51.8311-80.249C49.0723-80.249 46.7773-77.9297 46.7773-75.1953L46.7773-67.9443C46.7773-65.21 49.0723-62.8906 51.8311-62.8906ZM71.3867-54.6631C73.291-52.7588 76.5869-52.7588 78.54-54.7363L83.667-59.8633C85.5469-61.7676 85.5225-65.0879 83.5938-67.041C81.6895-68.9453 78.3936-68.8965 76.4648-66.9678L71.3135-61.792C69.4336-59.8877 69.458-56.6162 71.3867-54.6631ZM79.4922-35.2539C79.4922-32.5195 81.8115-30.2002 84.5459-30.2002L91.748-30.2002C94.5068-30.2002 96.8262-32.5195 96.8262-35.2539C96.8262-37.9883 94.5068-40.3076 91.748-40.3076L84.5459-40.3076C81.8115-40.3076 79.4922-37.9883 79.4922-35.2539ZM71.3135-15.7227C69.4336-13.8184 69.458-10.5713 71.3867-8.61816L76.5625-3.4668C78.4668-1.5625 81.7627-1.61133 83.7158-3.56445C85.5957-5.46875 85.5713-8.76465 83.6426-10.6934L78.4668-15.7959C76.5625-17.7002 73.2666-17.6758 71.3135-15.7227ZM51.8311-7.61719C49.0723-7.61719 46.7773-5.29785 46.7773-2.56348L46.7773 4.6875C46.7773 7.42188 49.0723 9.74121 51.8311 9.74121C54.5654 9.74121 56.8604 7.42188 56.8604 4.6875L56.8604-2.56348C56.8604-5.29785 54.5654-7.61719 51.8311-7.61719ZM32.3242-15.7227C30.3711-17.6758 27.0508-17.7002 25.1465-15.7959L20.0195-10.7178C18.0664-8.78906 18.042-5.49316 19.9219-3.58887C21.875-1.63574 25.1709-1.58691 27.0752-3.49121L32.2266-8.61816C34.1797-10.5713 34.2041-13.8184 32.3242-15.7227ZM24.1699-35.2539C24.1699-37.9883 21.8506-40.3076 19.0918-40.3076L11.8896-40.3076C9.13086-40.3076 6.83594-37.9883 6.83594-35.2539C6.83594-32.5195 9.13086-30.2002 11.8896-30.2002L19.0918-30.2002C21.8506-30.2002 24.1699-32.5195 24.1699-35.2539ZM32.2266-54.6631C34.1797-56.5918 34.2041-59.9121 32.3242-61.792L27.1973-66.9678C25.293-68.8721 21.9727-68.9453 20.0928-67.041C18.1396-65.0879 18.1152-61.7676 19.9951-59.8877L25.0977-54.7363C27.0264-52.7832 30.3223-52.7588 32.2266-54.6631Z"/>
  </g>
  <g id="Semibold-S" transform="matrix(1 0 0 1 1992.68 696)">
   <path d="M50.5958-14.3383C62.0102-14.3383 71.4781-23.7729 71.4781-35.2539C71.4781-46.7349 62.0102-56.1695 50.5958-56.1695C39.1481-56.1695 29.6802-46.7349 29.6802-35.2539C29.6802-23.7729 39.1481-14.3383 50.5958-14.3383ZM50.5958-23.1062C43.957-23.1062 38.448-28.6484 38.448-35.2539C38.448-41.8594 43.957-47.4017 50.5958-47.4017C57.2013-47.4017 62.7103-41.8594 62.7103-35.2539C62.7103-28.6484 57.2013-23.1062 50.5958-23.1062ZM50.5958-62.3752C53.0813-62.3752 55.163-64.4901 55.163-66.9757L55.163-74.4666C55.163-76.9521 53.0813-79.0493 50.5958-79.0493C48.077-79.0493 45.9953-76.9521 45.9953-74.4666L45.9953-66.9757C45.9953-64.4901 48.077-62.3752 50.5958-62.3752ZM69.7516-54.3343C71.4959-52.5899 74.4808-52.5722 76.2739-54.3809L81.5786-59.6678C83.2896-61.4121 83.2741-64.4303 81.532-66.2057C79.7877-67.95 76.8028-67.9189 75.043-66.1591L69.705-60.8056C67.9939-59.0612 68.0095-56.1097 69.7516-54.3343ZM77.6971-35.2539C77.6971-32.7684 79.812-30.6534 82.2976-30.6534L89.7219-30.6534C92.2407-30.6534 94.3379-32.7684 94.3379-35.2539C94.3379-37.7395 92.2407-39.8544 89.7219-39.8544L82.2976-39.8544C79.812-39.8544 77.6971-37.7395 77.6971-35.2539ZM69.705-16.0781C67.9939-14.3338 68.0095-11.3978 69.7516-9.62236L75.1051-4.28437C76.8494-2.54004 79.8343-2.58887 81.6097-4.36426C83.3207-6.10859 83.3052-9.09346 81.5631-10.8533L76.2096-16.1247C74.4652-17.869 71.4804-17.8535 69.705-16.0781ZM50.5958-8.13262C48.077-8.13262 45.9953-6.01768 45.9953-3.53213L45.9953 3.95879C45.9953 6.44434 48.077 8.5415 50.5958 8.5415C53.0813 8.5415 55.163 6.44434 55.163 3.95879L55.163-3.53213C55.163-6.01768 53.0813-8.13262 50.5958-8.13262ZM31.4533-16.0781C29.6779-17.8535 26.6598-17.869 24.9154-16.1247L19.6285-10.8866C17.8531-9.12676 17.8376-6.14189 19.5486-4.39756C21.324-2.62217 24.3089-2.57334 26.0532-4.31768L31.3734-9.62236C33.1488-11.3978 33.1644-14.3338 31.4533-16.0781ZM23.4768-35.2539C23.4768-37.7395 21.3796-39.8544 18.8607-39.8544L11.4364-39.8544C8.91758-39.8544 6.83594-37.7395 6.83594-35.2539C6.83594-32.7684 8.91758-30.6534 11.4364-30.6534L18.8607-30.6534C21.3796-30.6534 23.4768-32.7684 23.4768-35.2539ZM31.3734-54.3343C33.1488-56.0764 33.1644-59.0945 31.4533-60.8056L26.1486-66.1591C24.4221-67.8856 21.4039-67.95 19.6929-66.2057C17.9175-64.4303 17.902-61.4121 19.613-59.7011L24.8844-54.3809C26.6442-52.6055 29.6291-52.5899 31.3734-54.3343Z"/>
  </g>
  <g id="Medium-S" transform="matrix(1 0 0 1 1696.91 696)">
   <path d="M49.6592-14.7695C60.8242-14.7695 70.1035-24.0088 70.1035-35.2539C70.1035-46.499 60.8242-55.7383 49.6592-55.7383C38.4541-55.7383 29.1748-46.499 29.1748-35.2539C29.1748-24.0088 38.4541-14.7695 49.6592-14.7695ZM49.6592-22.6143C42.7441-22.6143 37.0195-28.3789 37.0195-35.2539C37.0195-42.1289 42.7441-47.8936 49.6592-47.8936C56.5342-47.8936 62.2588-42.1289 62.2588-35.2539C62.2588-28.3789 56.5342-22.6143 49.6592-22.6143ZM49.6592-61.9844C51.9561-61.9844 53.876-63.9443 53.876-66.2412L53.876-73.9141C53.876-76.2109 51.9561-78.1396 49.6592-78.1396C47.3223-78.1396 45.4023-76.2109 45.4023-73.9141L45.4023-66.2412C45.4023-63.9443 47.3223-61.9844 49.6592-61.9844ZM68.5117-54.085C70.1348-52.4619 72.8838-52.4307 74.5557-54.1113L79.9951-59.5195C81.5781-61.1426 81.5693-63.9316 79.9688-65.5723C78.3457-67.1953 75.5967-67.1777 73.9648-65.5459L68.4854-60.0576C66.9023-58.4346 66.9111-55.7256 68.5117-54.085ZM76.3359-35.2539C76.3359-32.957 78.2959-30.9971 80.5928-30.9971L88.1855-30.9971C90.5225-30.9971 92.4512-32.957 92.4512-35.2539C92.4512-37.5508 90.5225-39.5107 88.1855-39.5107L80.5928-39.5107C78.2959-39.5107 76.3359-37.5508 76.3359-35.2539ZM68.4854-16.3477C66.9023-14.7246 66.9111-12.0244 68.5117-10.3838L74-4.9043C75.623-3.28125 78.3721-3.33008 80.0127-4.9707C81.5957-6.59375 81.5869-9.34277 79.9863-10.9746L74.498-16.374C72.875-17.9971 70.126-17.9883 68.4854-16.3477ZM49.6592-8.52344C47.3223-8.52344 45.4023-6.56348 45.4023-4.2666L45.4023 3.40625C45.4023 5.70312 47.3223 7.63184 49.6592 7.63184C51.9561 7.63184 53.876 5.70312 53.876 3.40625L53.876-4.2666C53.876-6.56348 51.9561-8.52344 49.6592-8.52344ZM30.793-16.3477C29.1523-17.9883 26.3633-17.9971 24.7402-16.374L19.332-11.0146C17.6914-9.38281 17.6826-6.63379 19.2656-5.01074C20.9062-3.37012 23.6553-3.32129 25.2783-4.94434L30.7266-10.3838C32.3672-12.0244 32.376-14.7246 30.793-16.3477ZM22.9512-35.2539C22.9512-37.5508 21.0225-39.5107 18.6855-39.5107L11.0928-39.5107C8.75586-39.5107 6.83594-37.5508 6.83594-35.2539C6.83594-32.957 8.75586-30.9971 11.0928-30.9971L18.6855-30.9971C21.0225-30.9971 22.9512-32.957 22.9512-35.2539ZM30.7266-54.085C32.3672-55.6855 32.376-58.4746 30.793-60.0576L25.3535-65.5459C23.7617-67.1377 20.9727-67.1953 19.3896-65.5723C17.749-63.9316 17.7402-61.1426 19.3232-59.5596L24.7227-54.1113C26.3545-52.4707 29.1035-52.4619 30.7266-54.085Z"/>
  </g>
  <g id="Regular-S" transform="matrix(1 0 0 1 1401.43 696)">
   <path d="M48.4375-15.332C59.2773-15.332 68.3105-24.3164 68.3105-35.2539C68.3105-46.1914 59.2773-55.1758 48.4375-55.1758C37.5488-55.1758 28.5156-46.1914 28.5156-35.2539C28.5156-24.3164 37.5488-15.332 48.4375-15.332ZM48.4375-21.9727C41.1621-21.9727 35.1562-28.0273 35.1562-35.2539C35.1562-42.4805 41.1621-48.5352 48.4375-48.5352C55.6641-48.5352 61.6699-42.4805 61.6699-35.2539C61.6699-28.0273 55.6641-21.9727 48.4375-21.9727ZM48.4375-61.4746C50.4883-61.4746 52.1973-63.2324 52.1973-65.2832L52.1973-73.1934C52.1973-75.2441 50.4883-76.9531 48.4375-76.9531C46.3379-76.9531 44.6289-75.2441 44.6289-73.1934L44.6289-65.2832C44.6289-63.2324 46.3379-61.4746 48.4375-61.4746ZM66.8945-53.7598C68.3594-52.2949 70.8008-52.2461 72.3145-53.7598L77.9297-59.3262C79.3457-60.791 79.3457-63.2812 77.9297-64.7461C76.4648-66.2109 74.0234-66.2109 72.5586-64.7461L66.8945-59.082C65.4785-57.6172 65.4785-55.2246 66.8945-53.7598ZM74.5605-35.2539C74.5605-33.2031 76.3184-31.4453 78.3691-31.4453L86.1816-31.4453C88.2812-31.4453 89.9902-33.2031 89.9902-35.2539C89.9902-37.3047 88.2812-39.0625 86.1816-39.0625L78.3691-39.0625C76.3184-39.0625 74.5605-37.3047 74.5605-35.2539ZM66.8945-16.6992C65.4785-15.2344 65.4785-12.8418 66.8945-11.377L72.5586-5.71289C74.0234-4.24805 76.4648-4.29688 77.9297-5.76172C79.3457-7.22656 79.3457-9.66797 77.9297-11.1328L72.2656-16.6992C70.8008-18.1641 68.3594-18.1641 66.8945-16.6992ZM48.4375-9.0332C46.3379-9.0332 44.6289-7.27539 44.6289-5.22461L44.6289 2.68555C44.6289 4.73633 46.3379 6.44531 48.4375 6.44531C50.4883 6.44531 52.1973 4.73633 52.1973 2.68555L52.1973-5.22461C52.1973-7.27539 50.4883-9.0332 48.4375-9.0332ZM29.9316-16.6992C28.4668-18.1641 25.9766-18.1641 24.5117-16.6992L18.9453-11.1816C17.4805-9.7168 17.4805-7.27539 18.8965-5.81055C20.3613-4.3457 22.8027-4.29688 24.2676-5.76172L29.8828-11.377C31.3477-12.8418 31.3477-15.2344 29.9316-16.6992ZM22.2656-35.2539C22.2656-37.3047 20.5566-39.0625 18.457-39.0625L10.6445-39.0625C8.54492-39.0625 6.83594-37.3047 6.83594-35.2539C6.83594-33.2031 8.54492-31.4453 10.6445-31.4453L18.457-31.4453C20.5566-31.4453 22.2656-33.2031 22.2656-35.2539ZM29.8828-53.7598C31.3477-55.1758 31.3477-57.666 29.9316-59.082L24.3164-64.7461C22.9004-66.1621 20.4102-66.2109 18.9941-64.7461C17.5293-63.2812 17.5293-60.791 18.9453-59.375L24.5117-53.7598C25.9766-52.2949 28.418-52.2949 29.8828-53.7598Z"/>
  </g>
  <g id="Light-S" transform="matrix(1 0 0 1 1105.1 696)">
   <path d="M48.0137-16.0737C58.4751-16.0737 67.1602-24.7402 67.1602-35.2539C67.1602-45.7676 58.4751-54.4341 48.0137-54.4341C37.5337-54.4341 28.8335-45.7676 28.8335-35.2539C28.8335-24.7402 37.5337-16.0737 48.0137-16.0737ZM48.0137-21.231C40.3447-21.231 33.9907-27.6035 33.9907-35.2539C33.9907-42.9043 40.3447-49.2768 48.0137-49.2768C55.6641-49.2768 62.0029-42.9043 62.0029-35.2539C62.0029-27.6035 55.6641-21.231 48.0137-21.231ZM48.0439-62.1709C49.6406-62.1709 50.9258-63.4897 50.9258-65.0864L50.9258-73.6626C50.9258-75.2441 49.6406-76.5293 48.0439-76.5293C46.4287-76.5293 45.1436-75.2441 45.1436-73.6626L45.1436-65.0864C45.1436-63.4897 46.4287-62.1709 48.0439-62.1709ZM67.0156-54.2593C68.1626-53.1426 69.9985-53.1089 71.1641-54.2593L77.2485-60.2949C78.3316-61.4419 78.3316-63.3115 77.2485-64.4585C76.1016-65.5601 74.2656-65.5601 73.1338-64.4585L67.0156-58.3403C65.9478-57.1934 65.9478-55.3911 67.0156-54.2593ZM74.8936-35.2539C74.8936-33.6724 76.2275-32.3384 77.8091-32.3384L86.3179-32.3384C87.9482-32.3384 89.2334-33.6724 89.2334-35.2539C89.2334-36.8355 87.9482-38.1694 86.3179-38.1694L77.8091-38.1694C76.2275-38.1694 74.8936-36.8355 74.8936-35.2539ZM67.0156-16.2148C65.9478-15.083 65.9478-13.2808 67.0156-12.1338L73.1338-6.01562C74.2656-4.91406 76.1016-4.94775 77.2485-6.04931C78.3316-7.19629 78.3316-9.03223 77.2485-10.1792L71.1304-16.2148C69.9985-17.3315 68.1626-17.3315 67.0156-16.2148ZM48.0439-8.33692C46.4287-8.33692 45.1436-7.01807 45.1436-5.42139L45.1436 3.15478C45.1436 4.73633 46.4287 6.02149 48.0439 6.02149C49.6406 6.02149 50.9258 4.73633 50.9258 3.15478L50.9258-5.42139C50.9258-7.01807 49.6406-8.33692 48.0439-8.33692ZM29.0537-16.2148C27.9067-17.3315 26.0371-17.3315 24.9053-16.2148L18.8545-10.2129C17.7378-9.06592 17.7378-7.22998 18.8208-6.08301C19.9526-4.98144 21.8037-4.94775 22.9356-6.04931L29.02-12.1338C30.1216-13.2808 30.1216-15.083 29.0537-16.2148ZM21.1607-35.2539C21.1607-36.8355 19.8755-38.1694 18.2603-38.1694L9.75147-38.1694C8.1211-38.1694 6.83594-36.8355 6.83594-35.2539C6.83594-33.6724 8.1211-32.3384 9.75147-32.3384L18.2603-32.3384C19.8755-32.3384 21.1607-33.6724 21.1607-35.2539ZM29.02-54.2593C30.1216-55.3574 30.1216-57.2271 29.0537-58.3403L22.9692-64.4585C21.8711-65.5264 19.9863-65.5601 18.8882-64.4585C17.7715-63.3115 17.7715-61.4419 18.8545-60.3286L24.9053-54.2593C26.0371-53.1426 27.8731-53.1426 29.02-54.2593Z"/>
  </g>
  <g id="Thin-S" transform="matrix(1 0 0 1 808.888 696)">
   <path d="M47.4531-17.0547C57.4141-17.0547 65.6387-25.3008 65.6387-35.2539C65.6387-45.207 57.4141-53.4531 47.4531-53.4531C37.5137-53.4531 29.2539-45.207 29.2539-35.2539C29.2539-25.3008 37.5137-17.0547 47.4531-17.0547ZM47.4531-20.25C39.2637-20.25 32.4492-27.043 32.4492-35.2539C32.4492-43.4648 39.2637-50.2578 47.4531-50.2578C55.6641-50.2578 62.4434-43.4648 62.4434-35.2539C62.4434-27.043 55.6641-20.25 47.4531-20.25ZM47.5234-63.0918C48.5195-63.0918 49.2442-63.8301 49.2442-64.8262L49.2442-74.2832C49.2442-75.2441 48.5195-75.9688 47.5234-75.9688C46.5488-75.9688 45.8242-75.2441 45.8242-74.2832L45.8242-64.8262C45.8242-63.8301 46.5488-63.0918 47.5234-63.0918ZM67.1758-54.9199C67.9023-54.2637 68.9375-54.25 69.6426-54.9199L76.3477-61.5762C76.9903-62.3027 76.9903-63.3516 76.3477-64.0781C75.6211-64.6992 74.5859-64.6992 73.8945-64.0781L67.1758-57.3594C66.5684-56.6328 66.5684-55.6113 67.1758-54.9199ZM75.334-35.2539C75.334-34.293 76.1074-33.5195 77.0684-33.5195L86.498-33.5195C87.5078-33.5195 88.2324-34.293 88.2324-35.2539C88.2324-36.2149 87.5078-36.9883 86.498-36.9883L77.0684-36.9883C76.1074-36.9883 75.334-36.2149 75.334-35.2539ZM67.1758-15.5742C66.5684-14.8828 66.5684-13.8613 67.1758-13.1348L73.8945-6.41601C74.5859-5.79491 75.6211-5.80858 76.3477-6.42968C76.9903-7.15625 76.9903-8.19142 76.3477-8.91799L69.6289-15.5742C68.9375-16.2305 67.9023-16.2305 67.1758-15.5742ZM47.5234-7.41603C46.5488-7.41603 45.8242-6.67774 45.8242-5.68164L45.8242 3.77538C45.8242 4.73633 46.5488 5.46095 47.5234 5.46095C48.5195 5.46095 49.2442 4.73633 49.2442 3.77538L49.2442-5.68164C49.2442-6.67774 48.5195-7.41603 47.5234-7.41603ZM27.8926-15.5742C27.166-16.2305 26.1172-16.2305 25.4258-15.5742L18.7344-8.93166C18.0781-8.20509 18.0781-7.16992 18.7207-6.44335C19.4121-5.82225 20.4824-5.80858 21.1739-6.42968L27.8789-13.1348C28.5-13.8613 28.5-14.8828 27.8926-15.5742ZM19.6992-35.2539C19.6992-36.2149 18.9746-36.9883 18-36.9883L8.57033-36.9883C7.56055-36.9883 6.83594-36.2149 6.83594-35.2539C6.83594-34.293 7.56055-33.5195 8.57033-33.5195L18-33.5195C18.9746-33.5195 19.6992-34.293 19.6992-35.2539ZM27.8789-54.9199C28.5-55.5977 28.5-56.6465 27.8926-57.3594L21.1875-64.0781C20.5098-64.6856 19.4258-64.6992 18.748-64.0781C18.0918-63.3516 18.0918-62.3027 18.7344-61.5898L25.4258-54.9199C26.1172-54.2637 27.1524-54.2637 27.8789-54.9199Z"/>
  </g>
  <g id="Ultralight-S" transform="matrix(1 0 0 1 512.433 696)">
   <path d="M47.166-17.5571C56.8706-17.5571 64.8594-25.5879 64.8594-35.2539C64.8594-44.9199 56.8706-52.9507 47.166-52.9507C37.5034-52.9507 29.4692-44.9199 29.4692-35.2539C29.4692-25.5879 37.5034-17.5571 47.166-17.5571ZM47.166-19.7476C38.71-19.7476 31.6597-26.7559 31.6597-35.2539C31.6597-43.7519 38.71-50.7602 47.166-50.7602C55.6641-50.7602 62.6689-43.7519 62.6689-35.2539C62.6689-26.7559 55.6641-19.7476 47.166-19.7476ZM47.2568-63.5635C47.9453-63.5635 48.3828-64.0044 48.3828-64.6929L48.3828-74.6011C48.3828-75.2441 47.9453-75.6817 47.2568-75.6817C46.6103-75.6817 46.1728-75.2441 46.1728-74.6011L46.1728-64.6929C46.1728-64.0044 46.6103-63.5635 47.2568-63.5635ZM67.2578-55.2583C67.769-54.8379 68.3941-54.8345 68.8633-55.2583L75.8862-62.2324C76.3032-62.7436 76.3032-63.3721 75.8862-63.8833C75.375-64.2583 74.75-64.2583 74.2842-63.8833L67.2578-56.857C66.8862-56.3457 66.8862-55.7241 67.2578-55.2583ZM75.5596-35.2539C75.5596-34.6108 76.0459-34.1245 76.689-34.1245L86.5903-34.1245C87.2822-34.1245 87.7197-34.6108 87.7197-35.2539C87.7197-35.897 87.2822-36.3833 86.5903-36.3833L76.689-36.3833C76.0459-36.3833 75.5596-35.897 75.5596-35.2539ZM67.2578-15.2461C66.8862-14.7803 66.8862-14.1587 67.2578-13.6474L74.2842-6.62109C74.75-6.24608 75.375-6.2495 75.8862-6.6245C76.3032-7.13574 76.3032-7.76076 75.8862-8.272L68.8599-15.2461C68.3941-15.6665 67.769-15.6665 67.2578-15.2461ZM47.2568-6.94435C46.6103-6.94435 46.1728-6.50342 46.1728-5.81494L46.1728 4.09325C46.1728 4.73633 46.6103 5.17384 47.2568 5.17384C47.9453 5.17384 48.3828 4.73633 48.3828 4.09325L48.3828-5.81494C48.3828-6.50342 47.9453-6.94435 47.2568-6.94435ZM27.2979-15.2461C26.7866-15.6665 26.1582-15.6665 25.6924-15.2461L18.6729-8.27541C18.2524-7.76418 18.2524-7.13916 18.6694-6.62792C19.1353-6.25291 19.8057-6.2495 20.2715-6.6245L27.2945-13.6474C27.6695-14.1587 27.6695-14.7803 27.2979-15.2461ZM18.9507-35.2539C18.9507-35.897 18.5132-36.3833 17.8667-36.3833L7.96535-36.3833C7.27345-36.3833 6.83594-35.897 6.83594-35.2539C6.83594-34.6108 7.27345-34.1245 7.96535-34.1245L17.8667-34.1245C18.5132-34.1245 18.9507-34.6108 18.9507-35.2539ZM27.2945-55.2583C27.6695-55.7207 27.6695-56.3491 27.2979-56.857L20.2749-63.8833C19.8125-64.2549 19.1387-64.2583 18.6763-63.8833C18.2559-63.3721 18.2559-62.7436 18.6729-62.2358L25.6924-55.2583C26.1582-54.8379 26.7832-54.8379 27.2945-55.2583Z"/>
  </g>
 </g>
</svg>
