<?xml version="1.0" encoding="UTF-8"?>
<!--Generator: Apple Native CoreSVG 175.5-->
<!DOCTYPE svg
PUBLIC "-//W3C//DTD SVG 1.1//EN"
       "http://www.w3.org/Graphics/SVG/1.1/DTD/svg11.dtd">
<svg version="1.1" xmlns="http://www.w3.org/2000/svg" xmlns:xlink="http://www.w3.org/1999/xlink" width="3300" height="2200">
 <!--glyph: "uni1001C2.medium", point size: 100.0, font version: "18.0d12e2", template writer version: "101"-->
 <g id="Notes">
  <rect height="2200" id="artboard" style="fill:white;opacity:1" width="3300" x="0" y="0"/>
  <line style="fill:none;stroke:black;opacity:1;stroke-width:0.5;" x1="263" x2="3036" y1="292" y2="292"/>
  <text style="stroke:none;fill:black;font-family:sans-serif;font-size:13;font-weight:bold;" transform="matrix(1 0 0 1 263 322)">Weight/Scale Variations</text>
  <text style="stroke:none;fill:black;font-family:sans-serif;font-size:13;text-anchor:middle;" transform="matrix(1 0 0 1 559.711 322)">Ultralight</text>
  <text style="stroke:none;fill:black;font-family:sans-serif;font-size:13;text-anchor:middle;" transform="matrix(1 0 0 1 856.422 322)">Thin</text>
  <text style="stroke:none;fill:black;font-family:sans-serif;font-size:13;text-anchor:middle;" transform="matrix(1 0 0 1 1153.13 322)">Light</text>
  <text style="stroke:none;fill:black;font-family:sans-serif;font-size:13;text-anchor:middle;" transform="matrix(1 0 0 1 1449.84 322)">Regular</text>
  <text style="stroke:none;fill:black;font-family:sans-serif;font-size:13;text-anchor:middle;" transform="matrix(1 0 0 1 1746.56 322)">Medium</text>
  <text style="stroke:none;fill:black;font-family:sans-serif;font-size:13;text-anchor:middle;" transform="matrix(1 0 0 1 2043.27 322)">Semibold</text>
  <text style="stroke:none;fill:black;font-family:sans-serif;font-size:13;text-anchor:middle;" transform="matrix(1 0 0 1 2339.98 322)">Bold</text>
  <text style="stroke:none;fill:black;font-family:sans-serif;font-size:13;text-anchor:middle;" transform="matrix(1 0 0 1 2636.69 322)">Heavy</text>
  <text style="stroke:none;fill:black;font-family:sans-serif;font-size:13;text-anchor:middle;" transform="matrix(1 0 0 1 2933.4 322)">Black</text>
  <line style="fill:none;stroke:black;opacity:1;stroke-width:0.5;" x1="263" x2="3036" y1="1903" y2="1903"/>
  <g transform="matrix(1 0 0 1 263 1933)">
   <path d="M9.24805 0.830078C13.5547 0.830078 17.1387-2.74414 17.1387-7.05078C17.1387-11.3574 13.5449-14.9316 9.23828-14.9316C4.94141-14.9316 1.36719-11.3574 1.36719-7.05078C1.36719-2.74414 4.95117 0.830078 9.24805 0.830078ZM9.24805-0.654297C5.70312-0.654297 2.87109-3.49609 2.87109-7.05078C2.87109-10.6055 5.69336-13.4473 9.23828-13.4473C12.793-13.4473 15.6445-10.6055 15.6445-7.05078C15.6445-3.49609 12.8027-0.654297 9.24805-0.654297ZM5.6543-7.05078C5.6543-6.62109 5.95703-6.32812 6.40625-6.32812L8.50586-6.32812L8.50586-4.20898C8.50586-3.76953 8.79883-3.4668 9.22852-3.4668C9.67773-3.4668 9.9707-3.76953 9.9707-4.20898L9.9707-6.32812L12.0898-6.32812C12.5293-6.32812 12.832-6.62109 12.832-7.05078C12.832-7.49023 12.5293-7.79297 12.0898-7.79297L9.9707-7.79297L9.9707-9.90234C9.9707-10.3516 9.67773-10.6543 9.22852-10.6543C8.79883-10.6543 8.50586-10.3516 8.50586-9.90234L8.50586-7.79297L6.40625-7.79297C5.95703-7.79297 5.6543-7.49023 5.6543-7.05078Z"/>
  </g>
  <g transform="matrix(1 0 0 1 281.867 1933)">
   <path d="M11.709 2.91016C17.1582 2.91016 21.6699-1.61133 21.6699-7.05078C21.6699-12.5 17.1484-17.0117 11.6992-17.0117C6.25977-17.0117 1.74805-12.5 1.74805-7.05078C1.74805-1.61133 6.26953 2.91016 11.709 2.91016ZM11.709 1.25C7.09961 1.25 3.41797-2.44141 3.41797-7.05078C3.41797-11.6602 7.08984-15.3516 11.6992-15.3516C16.3086-15.3516 20.0098-11.6602 20.0098-7.05078C20.0098-2.44141 16.3184 1.25 11.709 1.25ZM7.17773-7.05078C7.17773-6.57227 7.50977-6.25 8.00781-6.25L10.8789-6.25L10.8789-3.36914C10.8789-2.88086 11.2109-2.53906 11.6895-2.53906C12.1777-2.53906 12.5195-2.87109 12.5195-3.36914L12.5195-6.25L15.4004-6.25C15.8887-6.25 16.2305-6.57227 16.2305-7.05078C16.2305-7.53906 15.8887-7.88086 15.4004-7.88086L12.5195-7.88086L12.5195-10.752C12.5195-11.25 12.1777-11.5918 11.6895-11.5918C11.2109-11.5918 10.8789-11.25 10.8789-10.752L10.8789-7.88086L8.00781-7.88086C7.50977-7.88086 7.17773-7.53906 7.17773-7.05078Z"/>
  </g>
  <g transform="matrix(1 0 0 1 305.646 1933)">
   <path d="M14.9707 5.66406C21.9336 5.66406 27.6953-0.0976562 27.6953-7.05078C27.6953-14.0137 21.9238-19.7754 14.9609-19.7754C8.00781-19.7754 2.25586-14.0137 2.25586-7.05078C2.25586-0.0976562 8.01758 5.66406 14.9707 5.66406ZM14.9707 3.84766C8.93555 3.84766 4.08203-1.01562 4.08203-7.05078C4.08203-13.0957 8.92578-17.9492 14.9609-17.9492C21.0059-17.9492 25.8691-13.0957 25.8691-7.05078C25.8691-1.01562 21.0156 3.84766 14.9707 3.84766ZM9.19922-7.05078C9.19922-6.5332 9.57031-6.17188 10.1172-6.17188L14.0625-6.17188L14.0625-2.2168C14.0625-1.67969 14.4336-1.29883 14.9512-1.29883C15.4883-1.29883 15.8594-1.66992 15.8594-2.2168L15.8594-6.17188L19.8145-6.17188C20.3516-6.17188 20.7324-6.5332 20.7324-7.05078C20.7324-7.59766 20.3613-7.96875 19.8145-7.96875L15.8594-7.96875L15.8594-11.9141C15.8594-12.4609 15.4883-12.8418 14.9512-12.8418C14.4336-12.8418 14.0625-12.4609 14.0625-11.9141L14.0625-7.96875L10.1172-7.96875C9.57031-7.96875 9.19922-7.59766 9.19922-7.05078Z"/>
  </g>
  <text style="stroke:none;fill:black;font-family:sans-serif;font-size:13;font-weight:bold;" transform="matrix(1 0 0 1 263 1953)">Design Variations</text>
  <text style="stroke:none;fill:black;font-family:sans-serif;font-size:13;" transform="matrix(1 0 0 1 263 1971)">Symbols are supported in up to nine weights and three scales.</text>
  <text style="stroke:none;fill:black;font-family:sans-serif;font-size:13;" transform="matrix(1 0 0 1 263 1989)">For optimal layout with text and other symbols, vertically align</text>
  <text style="stroke:none;fill:black;font-family:sans-serif;font-size:13;" transform="matrix(1 0 0 1 263 2007)">symbols with the adjacent text.</text>
  <line style="fill:none;stroke:#00AEEF;stroke-width:0.5;opacity:1.0;" x1="776" x2="776" y1="1919" y2="1933"/>
  <g transform="matrix(1 0 0 1 776 1933)">
   <path d="M3.31055 0.15625C3.82812 0.15625 4.08203-0.0390625 4.26758-0.585938L5.52734-4.0332L11.2891-4.0332L12.5488-0.585938C12.7344-0.0390625 12.9883 0.15625 13.4961 0.15625C14.0137 0.15625 14.3457-0.15625 14.3457-0.644531C14.3457-0.810547 14.3164-0.966797 14.2383-1.17188L9.6582-13.3691C9.43359-13.9648 9.0332-14.2676 8.4082-14.2676C7.80273-14.2676 7.39258-13.9746 7.17773-13.3789L2.59766-1.16211C2.51953-0.957031 2.49023-0.800781 2.49023-0.634766C2.49023-0.146484 2.80273 0.15625 3.31055 0.15625ZM6.00586-5.51758L8.37891-12.0898L8.42773-12.0898L10.8008-5.51758Z"/>
  </g>
  <line style="fill:none;stroke:#00AEEF;stroke-width:0.5;opacity:1.0;" x1="793.197" x2="793.197" y1="1919" y2="1933"/>
  <text style="stroke:none;fill:black;font-family:sans-serif;font-size:13;font-weight:bold;" transform="matrix(1 0 0 1 776 1953)">Margins</text>
  <text style="stroke:none;fill:black;font-family:sans-serif;font-size:13;" transform="matrix(1 0 0 1 776 1971)">Leading and trailing margins on the left and right side of each symbol</text>
  <text style="stroke:none;fill:black;font-family:sans-serif;font-size:13;" transform="matrix(1 0 0 1 776 1989)">can be adjusted by modifying the x-location of the margin guidelines.</text>
  <text style="stroke:none;fill:black;font-family:sans-serif;font-size:13;" transform="matrix(1 0 0 1 776 2007)">Modifications are automatically applied proportionally to all</text>
  <text style="stroke:none;fill:black;font-family:sans-serif;font-size:13;" transform="matrix(1 0 0 1 776 2025)">scales and weights.</text>
  <g transform="matrix(1 0 0 1 1289 1933)">
   <path d="M2.8418 1.86523L4.54102 3.57422C5.40039 4.44336 6.38672 4.38477 7.31445 3.35938L18.0078-8.42773L17.041-9.4043L6.42578 2.27539C6.07422 2.67578 5.74219 2.77344 5.27344 2.30469L4.10156 1.14258C3.63281 0.683594 3.74023 0.341797 4.14062-0.0195312L15.6152-10.8203L14.6387-11.7871L3.04688-0.898438C2.06055 0.0195312 1.98242 0.996094 2.8418 1.86523ZM9.25781-16.3281C8.83789-15.918 8.80859-15.3418 9.04297-14.9512C9.27734-14.5898 9.73633-14.3555 10.3809-14.5215C11.8457-14.8633 13.3691-14.9219 14.7949-13.9844L14.209-12.5293C13.8672-11.6992 14.043-11.1133 14.5801-10.5664L16.875-8.25195C17.3633-7.76367 17.7734-7.74414 18.3398-7.8418L19.4043-8.03711L20.0684-7.36328L20.0293-6.80664C19.9902-6.30859 20.1172-5.92773 20.6055-5.44922L21.3672-4.70703C21.8457-4.22852 22.4609-4.19922 22.9297-4.66797L25.8398-7.58789C26.3086-8.05664 26.2891-8.65234 25.8105-9.13086L25.0391-9.89258C24.5605-10.3711 24.1895-10.5273 23.7109-10.4883L23.1348-10.4395L22.4902-11.0742L22.7344-12.1973C22.8613-12.7637 22.7051-13.2031 22.1191-13.7891L19.9219-15.9766C16.582-19.2969 12.1484-19.2188 9.25781-16.3281ZM10.752-15.957C13.1836-17.7344 16.4746-17.4316 18.7012-15.2051L21.1328-12.793C21.3672-12.5586 21.4062-12.373 21.3379-12.0312L21.0156-10.5469L22.5195-9.0625L23.5059-9.12109C23.7598-9.13086 23.8379-9.11133 24.0332-8.91602L24.6094-8.33984L22.168-5.89844L21.5918-6.47461C21.3965-6.66992 21.3672-6.74805 21.377-7.01172L21.4453-7.98828L19.9512-9.47266L18.4277-9.21875C18.1055-9.15039 17.959-9.17969 17.7148-9.41406L15.7129-11.416C15.459-11.6504 15.4297-11.8164 15.5859-12.1875L16.4648-14.2773C14.9023-15.7324 12.8711-16.3574 10.8398-15.7617C10.6836-15.7227 10.625-15.8496 10.752-15.957Z"/>
  </g>
  <text style="stroke:none;fill:black;font-family:sans-serif;font-size:13;font-weight:bold;" transform="matrix(1 0 0 1 1289 1953)">Exporting</text>
  <text style="stroke:none;fill:black;font-family:sans-serif;font-size:13;" transform="matrix(1 0 0 1 1289 1971)">Symbols should be outlined when exporting to ensure the</text>
  <text style="stroke:none;fill:black;font-family:sans-serif;font-size:13;" transform="matrix(1 0 0 1 1289 1989)">design is preserved when submitting to Xcode.</text>
  <text id="template-version" style="stroke:none;fill:black;font-family:sans-serif;font-size:13;text-anchor:end;" transform="matrix(1 0 0 1 3036 1933)">Template v.4.0</text>
  <text style="stroke:none;fill:black;font-family:sans-serif;font-size:13;text-anchor:end;" transform="matrix(1 0 0 1 3036 1951)">Requires Xcode 14 or greater</text>
  <text id="descriptive-name" style="stroke:none;fill:black;font-family:sans-serif;font-size:13;text-anchor:end;" transform="matrix(1 0 0 1 3036 1969)">Generated from cloud</text>
  <text style="stroke:none;fill:black;font-family:sans-serif;font-size:13;text-anchor:end;" transform="matrix(1 0 0 1 3036 1987)">Typeset at 100 points</text>
  <text style="stroke:none;fill:black;font-family:sans-serif;font-size:13;" transform="matrix(1 0 0 1 263 726)">Small</text>
  <text style="stroke:none;fill:black;font-family:sans-serif;font-size:13;" transform="matrix(1 0 0 1 263 1156)">Medium</text>
  <text style="stroke:none;fill:black;font-family:sans-serif;font-size:13;" transform="matrix(1 0 0 1 263 1586)">Large</text>
 </g>
 <g id="Guides">
  <g id="H-reference" style="fill:#27AAE1;stroke:none;" transform="matrix(1 0 0 1 339 696)">
   <path d="M0.993654 0L3.63775 0L29.3281-67.1323L30.0303-67.1323L30.0303-70.459L28.1226-70.459ZM11.6885-24.4799L46.9815-24.4799L46.2315-26.7285L12.4385-26.7285ZM55.1196 0L57.7637 0L30.6382-70.459L29.4326-70.459L29.4326-67.1323Z"/>
  </g>
  <line id="Baseline-S" style="fill:none;stroke:#27AAE1;opacity:1;stroke-width:0.5;" x1="263" x2="3036" y1="696" y2="696"/>
  <line id="Capline-S" style="fill:none;stroke:#27AAE1;opacity:1;stroke-width:0.5;" x1="263" x2="3036" y1="625.541" y2="625.541"/>
  <g id="H-reference" style="fill:#27AAE1;stroke:none;" transform="matrix(1 0 0 1 339 1126)">
   <path d="M0.993654 0L3.63775 0L29.3281-67.1323L30.0303-67.1323L30.0303-70.459L28.1226-70.459ZM11.6885-24.4799L46.9815-24.4799L46.2315-26.7285L12.4385-26.7285ZM55.1196 0L57.7637 0L30.6382-70.459L29.4326-70.459L29.4326-67.1323Z"/>
  </g>
  <line id="Baseline-M" style="fill:none;stroke:#27AAE1;opacity:1;stroke-width:0.5;" x1="263" x2="3036" y1="1126" y2="1126"/>
  <line id="Capline-M" style="fill:none;stroke:#27AAE1;opacity:1;stroke-width:0.5;" x1="263" x2="3036" y1="1055.54" y2="1055.54"/>
  <g id="H-reference" style="fill:#27AAE1;stroke:none;" transform="matrix(1 0 0 1 339 1556)">
   <path d="M0.993654 0L3.63775 0L29.3281-67.1323L30.0303-67.1323L30.0303-70.459L28.1226-70.459ZM11.6885-24.4799L46.9815-24.4799L46.2315-26.7285L12.4385-26.7285ZM55.1196 0L57.7637 0L30.6382-70.459L29.4326-70.459L29.4326-67.1323Z"/>
  </g>
  <line id="Baseline-L" style="fill:none;stroke:#27AAE1;opacity:1;stroke-width:0.5;" x1="263" x2="3036" y1="1556" y2="1556"/>
  <line id="Capline-L" style="fill:none;stroke:#27AAE1;opacity:1;stroke-width:0.5;" x1="263" x2="3036" y1="1485.54" y2="1485.54"/>
  <line id="left-margin-Regular-M" style="fill:none;stroke:#00AEEF;stroke-width:0.5;opacity:1.0;" x1="1384.03" x2="1384.03" y1="1030.79" y2="1150.12"/>
  <line id="right-margin-Regular-M" style="fill:none;stroke:#00AEEF;stroke-width:0.5;opacity:1.0;" x1="1515.66" x2="1515.66" y1="1030.79" y2="1150.12"/>
 </g>
 <g id="Symbols">
  <g id="Black-L" transform="matrix(1 0 0 1 2842.92 1556)">
   <path d="M46.5499 17.4176L131.224 17.4176C154.699 17.4176 172.91-0.426224 172.91-23.5261C172.91-46.8865 155.036-65.0075 130.598-65.0063C121.632-82.2613 105.936-91.5492 85.4085-91.5492C59.3554-91.5492 37.7484-73.1875 33.9233-46.6602C19.7824-41.8 11.2588-30.0303 11.2588-15.8181C11.2588 3.26785 25.6428 17.4176 46.5499 17.4176ZM47.1508-0.227136C35.7444-0.227136 28.9047-5.99526 28.9047-15.422C28.9047-23.7184 34.2704-29.3841 44.7576-32.1023C48.5878-33.0614 49.847-34.5815 50.5155-39.1899C53.6377-60.6927 66.8943-73.9045 85.4085-73.9045C98.7437-73.9045 109.861-66.2503 117.33-52.2532C119.159-48.7255 121.096-47.6079 125.363-47.6079C144.396-47.6079 155.243-37.9834 155.243-23.09C155.243-9.82877 145.011-0.227136 130.809-0.227136Z"/>
  </g>
  <g id="Heavy-L" transform="matrix(1 0 0 1 2547.55 1556)">
   <path d="M45.4492 16.5726L129.541 16.5726C152.449 16.5726 170.239-0.81848 170.239-23.2886C170.239-45.9955 152.626-63.5132 128.588-63.5076C119.759-80.6187 104.175-90.1339 84.0421-90.1339C58.391-90.1339 37.0285-71.6221 33.5887-45.4334C19.8194-40.8754 11.2588-29.4057 11.2588-15.3832C11.2588 2.82929 24.8868 16.5726 45.4492 16.5726ZM45.8797 0.857131C34.0502 0.857131 26.9799-5.27462 26.9799-15.0092C26.9799-23.5428 32.4918-29.464 42.951-32.1906C46.6709-33.1275 47.9228-34.6453 48.4954-38.9933C51.2415-60.4879 65.2201-74.4184 84.0421-74.4184C97.8904-74.4184 109.202-66.5225 116.578-52.3892C118.303-48.9955 120.201-47.909 124.321-47.909C143.498-47.909 154.488-37.7053 154.488-22.8889C154.488-9.25251 143.849 0.857131 129.376 0.857131Z"/>
  </g>
  <g id="Bold-L" transform="matrix(1 0 0 1 2252.39 1556)">
   <path d="M44.1189 15.4828L127.615 15.4828C149.846 15.4828 167.136-1.36969 167.136-23.0711C167.136-44.9934 149.831-61.7881 126.307-61.7749C117.64-78.7465 102.231-88.5533 82.4708-88.5533C57.3042-88.5533 36.2712-69.8496 33.2707-44.0611C19.9252-39.8571 11.2588-28.7713 11.2588-14.9422C11.2588 2.23164 24.009 15.4828 44.1189 15.4828ZM44.3641 2.20922C31.9301 2.20922 24.5456-4.45776 24.5456-14.6062C24.5456-23.499 30.3015-29.8024 40.8044-32.5516C44.3338-33.4505 45.5482-34.9309 46.0054-38.8965C48.3202-60.4356 63.2349-75.2797 82.4708-75.2797C97.0537-75.2797 108.64-67.0171 115.923-52.7072C117.503-49.5198 119.326-48.4866 123.209-48.4866C142.518-48.4866 153.811-37.5683 153.811-22.7174C153.811-8.56774 142.613 2.20922 127.698 2.20922Z"/>
  </g>
  <g id="Semibold-L" transform="matrix(1 0 0 1 1956.75 1556)">
   <path d="M43.2017 14.7316L126.287 14.7316C148.052 14.7316 164.997-1.74969 164.997-22.9211C164.997-44.3026 147.904-60.5988 124.734-60.5804C116.179-77.4558 100.891-87.4637 81.3876-87.4637C56.555-87.4637 35.7492-68.6277 33.0514-43.1151C19.998-39.1552 11.2588-28.334 11.2588-14.6381C11.2588 1.81962 23.4039 14.7316 43.2017 14.7316ZM43.3193 3.14135C30.4685 3.14135 22.8675-3.89463 22.8675-14.3284C22.8675-23.4688 28.7915-30.0356 39.3245-32.8004C42.7226-33.6731 43.9112-35.1278 44.2888-38.8298C46.3062-60.3995 61.8663-75.8735 81.3876-75.8735C96.4769-75.8735 108.254-67.358 115.473-52.9265C116.952-49.8813 118.722-48.8848 122.442-48.8848C141.843-48.8848 153.345-37.4738 153.345-22.5992C153.345-8.09566 141.761 3.14135 126.541 3.14135Z"/>
  </g>
  <g id="Medium-L" transform="matrix(1 0 0 1 1660.85 1556)">
   <path d="M42.5063 14.1619L125.28 14.1619C146.691 14.1619 163.375-2.03783 163.375-22.8074C163.375-43.7788 146.443-59.6971 123.542-59.6746C115.071-76.4771 99.875-86.6375 80.5662-86.6375C55.9869-86.6375 35.3534-67.7012 32.8852-42.3977C20.0533-38.6229 11.2588-28.0023 11.2588-14.4076C11.2588 1.50721 22.945 14.1619 42.5063 14.1619ZM42.5271 3.84813C29.3603 3.84813 21.595-3.46763 21.595-14.1178C21.595-23.4459 27.6465-30.2125 38.2024-32.9891C41.501-33.8419 42.6699-35.277 42.9873-38.7792C44.7791-60.3721 60.8286-76.3237 80.5662-76.3237C96.0395-76.3237 107.96-67.6165 115.131-53.0928C116.534-50.1553 118.264-49.1867 121.861-49.1867C141.33-49.1867 152.991-37.4021 152.991-22.5096C152.991-7.73771 141.115 3.84813 125.664 3.84813Z"/>
  </g>
  <g id="Regular-L" transform="matrix(1 0 0 1 1365.19 1556)">
   <path d="M41.5993 13.4189L123.967 13.4189C144.916 13.4189 161.259-2.41366 161.259-22.6591C161.259-43.0955 144.537-58.5209 121.987-58.4932C113.626-75.2005 98.5497-85.5598 79.4949-85.5598C55.2459-85.5598 34.8371-66.4926 32.6683-41.462C20.1254-37.9287 11.2588-27.5698 11.2588-14.1069C11.2588 1.09971 22.3465 13.4189 41.5993 13.4189ZM41.4937 4.77001C27.9147 4.77001 19.9353-2.91069 19.9353-13.8431C19.9353-23.416 26.1531-30.4431 36.7388-33.2353C39.9075-34.062 41.0508-35.4717 41.2895-38.7132C42.7873-60.3364 59.475-76.9109 79.4949-76.9109C95.469-76.9109 107.578-67.9537 114.685-53.3097C115.989-50.5128 117.667-49.5805 121.103-49.5805C140.662-49.5805 152.53-37.3086 152.53-22.3927C152.53-7.27082 140.273 4.77001 124.52 4.77001Z"/>
  </g>
  <g id="Light-L" transform="matrix(1 0 0 1 1068.89 1556)">
   <path d="M40.8931 12.3883L123.662 12.3883C144.306 12.3883 160.438-3.21524 160.438-23.0026C160.438-43.0574 143.831-58.1392 121.758-58.0924C113.454-74.9524 98.7406-85.5789 79.1895-85.5789C55.1887-85.5789 35.1807-66.34 33.0691-41.462C20.5834-38.0432 11.2588-28.0278 11.2588-14.4314C11.2588 0.336304 22.1175 12.3883 40.8931 12.3883ZM40.8258 5.76244C26.3116 5.76244 17.9314-2.83435 17.9314-14.263C17.9314-24.5039 24.7217-32.2181 35.8418-35.1056C38.5334-35.837 39.4668-36.9986 39.6482-39.5912C41.0696-61.596 58.6735-78.9531 79.1895-78.9531C96.3088-78.9531 108.837-69.3088 116.021-54.4929C117.115-52.0969 118.564-51.2982 121.484-51.2982C140.834-51.2982 153.732-38.5492 153.732-22.7744C153.732-6.98454 140.731 5.76244 123.985 5.76244Z"/>
  </g>
  <g id="Thin-L" transform="matrix(1 0 0 1 772.725 1556)">
   <path d="M39.9592 11.0252L123.258 11.0252C143.498 11.0252 159.353-4.27539 159.353-23.457C159.353-43.0069 142.897-57.6343 121.455-57.5623C113.227-74.6243 98.993-85.6041 78.7857-85.6041C55.113-85.6041 35.635-66.138 33.5992-41.462C21.1892-38.1946 11.2588-28.6336 11.2588-14.8605C11.2588-0.673369 21.8146 11.0252 39.9592 11.0252ZM39.9423 7.07502C24.1913 7.07502 15.281-2.73338 15.281-14.8183C15.281-25.9426 22.8286-34.5656 34.6554-37.5793C36.7159-38.1845 37.3717-39.0179 37.4774-40.7523C38.7979-63.262 57.6133-81.6539 78.7857-81.6539C97.4194-81.6539 110.503-71.101 117.788-56.0579C118.604-54.192 119.751-53.57 121.989-53.57C141.061-53.57 155.322-40.1899 155.322-23.2793C155.322-6.60591 141.337 7.07502 123.279 7.07502Z"/>
  </g>
  <g id="Ultralight-L" transform="matrix(1 0 0 1 476.292 1556)">
   <path d="M39.4808 10.3271L123.051 10.3271C143.084 10.3271 158.797-4.8184 158.797-23.6897C158.797-42.981 142.418-57.3757 121.3-57.2908C113.11-74.4562 99.1223-85.6171 78.5788-85.6171C55.0742-85.6171 35.8677-66.0346 33.8707-41.462C21.4995-38.2722 11.2588-28.9439 11.2588-15.0803C11.2588-1.19052 21.6595 10.3271 39.4808 10.3271ZM39.4898 7.74731C23.1052 7.74731 13.9234-2.68166 13.9234-15.1027C13.9234-26.6796 21.859-35.7679 34.0477-38.8464C35.7851-39.3868 36.2986-40.0522 36.3655-41.347C37.6343-64.1153 57.0703-83.0373 78.5788-83.0373C97.9883-83.0373 111.356-72.0189 118.693-56.8595C119.367-55.265 120.359-54.7336 122.248-54.7336C141.177-54.7336 156.137-41.0303 156.137-23.5378C156.137-6.41198 141.647 7.74731 122.917 7.74731Z"/>
  </g>
  <g id="Black-M" transform="matrix(1 0 0 1 2862.21 1126)">
   <path d="M36.9145 6.14501L103.07 6.14501C121.703 6.14501 136.145-8.03743 136.145-26.4131C136.145-45.0212 122.089-59.5323 102.877-59.5326C95.8198-73.0451 83.6131-80.0817 67.3024-80.0817C46.8061-80.0817 29.9106-65.9617 26.6236-45.1397C15.3564-41.13 8.72266-31.8003 8.72266-20.6084C8.72266-5.13051 20.4852 6.14501 36.9145 6.14501ZM37.5316-8.90909C28.9316-8.90909 23.7765-13.1895 23.7765-20.2955C23.7765-26.6096 27.8853-30.8726 36.1066-32.9843C39.1043-33.7334 40.0576-34.8794 40.6503-38.5856C43.382-55.3035 53.156-65.0276 67.3024-65.0276C77.348-65.0276 85.8516-59.2122 91.7278-48.4619C93.2054-45.6679 94.7093-44.7936 98.071-44.7936C112.664-44.7936 121.086-37.7701 121.086-26.0491C121.086-16.0069 113.407-8.90909 102.503-8.90909Z"/>
  </g>
  <g id="Heavy-M" transform="matrix(1 0 0 1 2566.77 1126)">
   <path d="M35.9036 5.41405L101.453 5.41405C119.56 5.41405 133.61-8.34694 133.61-26.1492C133.61-44.1537 119.798-58.1068 100.932-58.1045C94.0046-71.4622 81.8735-78.6964 65.9949-78.6964C45.8687-78.6964 29.1751-64.4456 26.2596-43.9404C15.3504-40.2156 8.72266-31.1475 8.72266-20.1533C8.72266-5.4888 19.7673 5.41405 35.9036 5.41405ZM36.3506-7.9407C27.4232-7.9407 22.0797-12.4921 22.0797-19.8532C22.0797-26.3376 26.2787-30.787 34.4234-32.898C37.3571-33.6343 38.3227-34.801 38.8269-38.3125C41.198-54.9871 51.5934-65.3416 65.9949-65.3416C76.4364-65.3416 85.0906-59.3533 90.8692-48.4857C92.2648-45.7858 93.7515-44.9294 97.0172-44.9294C111.771-44.9294 120.236-37.3838 120.236-25.8173C120.236-15.47 112.229-7.9407 101.151-7.9407Z"/>
  </g>
  <g id="Bold-M" transform="matrix(1 0 0 1 2271.48 1126)">
   <path d="M34.7728 4.59636L99.6433 4.59636C117.162 4.59636 130.773-8.69317 130.773-25.854C130.773-43.1833 117.235-56.5121 98.7577-56.5069C91.9741-69.6916 79.9275-77.1467 64.5322-77.1467C44.82-77.1467 28.3523-62.7496 25.8524-42.5989C15.3437-39.1927 8.72266-30.4172 8.72266-19.6442C8.72266-5.8896 18.9643 4.59636 34.7728 4.59636ZM35.0296-6.85741C25.7359-6.85741 20.1816-11.7119 20.1816-19.3584C20.1816-26.0334 24.4815-30.6912 32.5404-32.8015C35.4027-33.5235 36.382-34.7133 36.7872-38.0069C38.755-54.6333 49.8453-65.6929 64.5322-65.6929C75.4167-65.6929 84.2393-59.5112 89.9088-48.5123C91.2126-45.9177 92.68-45.0813 95.8384-45.0813C110.771-45.0813 119.286-36.9517 119.286-25.558C119.286-14.8694 110.911-6.85741 99.639-6.85741Z"/>
  </g>
  <g id="Semibold-M" transform="matrix(1 0 0 1 1975.74 1126)">
   <path d="M33.9932 4.03266L98.396 4.03266C115.509 4.03266 128.818-8.93186 128.818-25.6505C128.818-42.5143 115.468-55.4127 97.2584-55.4056C90.5743-68.4709 78.5859-76.0783 63.5239-76.0783C44.0971-76.0783 27.7851-61.5803 25.5716-41.674C15.3391-38.4875 8.72266-29.9138 8.72266-19.2933C8.72266-6.16592 18.4106 4.03266 33.9932 4.03266ZM34.1189-6.1106C24.5727-6.1106 18.873-11.174 18.873-19.0173C18.873-25.8236 23.2425-30.6252 31.2423-32.735C34.0553-33.4471 35.0441-34.6528 35.381-37.7963C37.0707-54.3893 48.6402-65.935 63.5239-65.935C74.7137-65.935 83.6525-59.62 89.2466-48.5306C90.4872-46.0086 91.9414-45.1861 95.0257-45.1861C110.083-45.1861 118.631-36.6539 118.631-25.3792C118.631-14.4553 110.002-6.1106 98.5966-6.1106Z"/>
  </g>
  <g id="Medium-M" transform="matrix(1 0 0 1 1679.77 1126)">
   <path d="M33.4021 3.60523L97.4502 3.60523C114.256 3.60523 127.336-9.11284 127.336-25.4962C127.336-42.0071 114.128-54.5791 96.1216-54.5705C89.5129-67.5454 77.5687-75.2682 62.7593-75.2682C43.549-75.2682 27.355-60.6938 25.3588-40.9728C15.3355-37.9528 8.72266-29.5321 8.72266-19.0272C8.72266-6.37543 17.9909 3.60523 33.4021 3.60523ZM33.4283-5.54434C23.6907-5.54434 17.8808-10.7662 17.8808-18.7586C17.8808-25.6646 22.303-30.5752 30.258-32.6845C33.0336-33.3891 34.0297-34.6069 34.3148-37.6366C35.7937-54.2043 47.7264-66.1187 62.7593-66.1187C74.1806-66.1187 83.2075-59.7025 88.7446-48.5445C89.9372-46.0775 91.3813-45.2655 94.4095-45.2655C109.56-45.2655 118.134-36.428 118.134-25.2436C118.134-14.1414 109.313-5.54434 97.8062-5.54434Z"/>
  </g>
  <g id="Regular-M" transform="matrix(1 0 0 1 1384.03 1126)">
   <path d="M32.6311 3.04772L96.2165 3.04772C112.621 3.04772 125.402-9.34891 125.402-25.2949C125.402-41.3454 112.381-53.4918 94.6388-53.4813C88.1285-66.3381 76.2418-74.2116 61.762-74.2116C42.834-74.2116 26.794-59.5374 25.0811-40.0581C15.331-37.2554 8.72266-29.0342 8.72266-18.6801C8.72266-6.6487 17.4433 3.04772 32.6311 3.04772ZM32.5276-4.80574C22.5403-4.80574 16.5867-10.2343 16.5867-18.4213C16.5867-25.4572 21.0776-30.5099 28.9742-32.6187C31.7011-33.3136 32.7065-34.5471 32.9241-37.4282C34.1279-53.9631 46.5346-66.3582 61.762-66.3582C73.4853-66.3582 82.627-59.8102 88.0897-48.5627C89.2198-46.1674 90.6508-45.369 93.6057-45.369C108.879-45.369 117.486-36.1334 117.486-25.0668C117.486-13.7319 108.414-4.80574 96.7753-4.80574Z"/>
  </g>
  <g id="Light-M" transform="matrix(1 0 0 1 1087.69 1126)">
   <path d="M31.998 2.12373L95.9428 2.12373C112.073 2.12373 124.666-10.0676 124.666-25.6029C124.666-41.3112 111.748-53.1496 94.4335-53.1219C87.9745-66.1157 76.4129-74.2287 61.4883-74.2287C42.7826-74.2287 27.102-59.4005 25.4405-40.0581C15.7416-37.3581 8.72266-29.4448 8.72266-18.9709C8.72266-7.33314 17.238 2.12373 31.998 2.12373ZM31.9287-3.91597C21.103-3.91597 14.79-10.1658 14.79-18.7977C14.79-26.4325 19.7943-32.1012 28.17-34.2955C30.4691-34.9049 31.2863-35.916 31.4525-38.2153C32.588-55.0924 45.8159-68.189 61.4883-68.189C74.2382-68.189 83.7564-61.025 89.2875-49.6235C90.2293-47.5876 91.455-46.909 93.948-46.909C109.033-46.909 118.564-37.2456 118.564-25.409C118.564-13.4752 108.825-3.91597 96.2962-3.91597Z"/>
  </g>
  <g id="Thin-M" transform="matrix(1 0 0 1 791.461 1126)">
   <path d="M31.1607 0.901682L95.5807 0.901682C111.349 0.901682 123.693-11.018 123.693-26.0102C123.693-41.2659 110.911-52.697 94.1619-52.6467C87.7708-65.8215 76.6393-74.2514 61.1262-74.2514C42.7147-74.2514 27.5094-59.2194 25.9157-40.0581C16.2848-37.4938 8.72266-29.988 8.72266-19.3557C8.72266-8.23836 16.9664 0.901682 31.1607 0.901682ZM31.1366-2.73918C19.202-2.73918 12.4138-10.0753 12.4138-19.2956C12.4138-27.7224 18.097-34.2058 27.1064-36.5133C28.8397-37.0095 29.4079-37.7264 29.5063-39.2563C30.5512-56.586 44.8654-70.6105 61.1262-70.6105C75.234-70.6105 85.25-62.6318 90.8717-51.0266C91.5645-49.466 92.5186-48.9458 94.4006-48.9458C109.237-48.9458 119.99-38.7166 119.99-25.8616C119.99-13.1357 109.368-2.73918 95.6625-2.73918Z"/>
  </g>
  <g id="Ultralight-M" transform="matrix(1 0 0 1 494.999 1126)">
   <path d="M30.7318 0.275752L95.3952 0.275752C110.978 0.275752 123.194-11.5049 123.194-26.2189C123.194-41.2427 110.482-52.4652 94.0228-52.4033C87.6665-65.6708 76.7552-74.263 60.9407-74.263C42.68-74.263 27.718-59.1267 26.1591-40.0581C16.5629-37.5634 8.72266-30.2662 8.72266-19.5527C8.72266-8.70201 16.8273 0.275752 30.7318 0.275752ZM30.7309-2.13643C18.2283-2.13643 11.1967-10.0289 11.1967-19.5506C11.1967-28.3831 17.2277-35.2838 26.5616-37.6493C28.0051-38.0875 28.4459-38.6537 28.5094-39.7895C29.508-57.351 44.3786-71.8508 60.9407-71.8508C75.744-71.8508 86.015-63.4548 91.683-51.7453C92.2484-50.4281 93.0634-49.989 94.6324-49.989C109.341-49.989 120.72-39.47 120.72-26.0934C120.72-12.9619 109.646-2.13643 95.338-2.13643Z"/>
  </g>
  <g id="Black-S" transform="matrix(1 0 0 1 2877.25 696)">
   <path d="M29.1992-2.63672L81.25-2.63672C95.9961-2.63672 107.422-13.8672 107.422-28.418C107.422-43.1641 96.3379-54.6875 81.2012-54.6875C75.6348-65.332 66.0645-70.8008 53.125-70.8008C36.9629-70.8008 23.6816-59.7656 20.9961-43.3594C12.0605-40.1367 6.83594-32.7637 6.83594-23.9258C6.83594-11.5723 16.2598-2.63672 29.1992-2.63672ZM29.7363-14.8438C23.0469-14.8438 19.043-18.1641 19.043-23.6816C19.043-28.6133 22.2656-31.9336 28.7598-33.5938C31.1035-34.1797 31.8359-35.0586 32.3242-37.9883C34.5703-51.123 42.0898-58.5938 53.125-58.5938C60.9375-58.5938 67.5781-54.0527 72.2168-45.6543C73.3887-43.457 74.5605-42.7734 77.1973-42.7734C88.5742-42.7734 95.2148-37.4023 95.2148-28.125C95.2148-20.3125 89.2578-14.8438 80.7129-14.8438Z"/>
  </g>
  <g id="Heavy-S" transform="matrix(1 0 0 1 2581.57 696)">
   <path d="M28.4156-3.1438L79.9016-3.1438C94.2329-3.1438 105.347-14.0401 105.347-28.1529C105.347-42.4265 94.4594-53.512 79.5647-53.512C74.102-64.0067 64.5547-69.6138 52.0417-69.6138C36.1677-69.6138 23.0132-58.4864 20.6388-42.3337C12.0029-39.3415 6.83594-32.1529 6.83594-23.4994C6.83594-11.7912 15.672-3.1438 28.4156-3.1438ZM28.8028-14.1292C21.9405-14.1292 17.8214-17.5763 17.8214-23.2552C17.8214-28.256 21.0556-31.657 27.4229-33.3056C29.7667-33.8916 30.5337-34.8166 30.9528-37.6541C32.8993-50.7082 40.8452-58.6283 52.0417-58.6283C60.0616-58.6283 66.7829-54.0182 71.3294-45.5391C72.4552-43.3764 73.6386-42.6928 76.2523-42.6928C87.7906-42.6928 94.3505-36.9298 94.3505-27.883C94.3505-19.8861 88.1976-14.1292 79.6181-14.1292Z"/>
  </g>
  <g id="Bold-S" transform="matrix(1 0 0 1 2286.02 696)">
   <path d="M27.5391-3.71094L78.3936-3.71094C92.2607-3.71094 103.027-14.2334 103.027-27.8564C103.027-41.6016 92.3584-52.1973 77.7344-52.1973C72.3877-62.5244 62.8662-68.2861 50.8301-68.2861C35.2783-68.2861 22.2656-57.0557 20.2393-41.1865C11.9385-38.4521 6.83594-31.4697 6.83594-23.0225C6.83594-12.0361 15.0146-3.71094 27.5391-3.71094ZM27.7588-13.3301C20.7031-13.3301 16.4551-16.9189 16.4551-22.7783C16.4551-27.8564 19.7021-31.3477 25.9277-32.9834C28.2715-33.5693 29.0771-34.5459 29.4189-37.2803C31.0303-50.2441 39.4531-58.667 50.8301-58.667C59.082-58.667 65.8936-53.9795 70.3369-45.4102C71.4111-43.2861 72.6074-42.6025 75.1953-42.6025C86.9141-42.6025 93.3838-36.4014 93.3838-27.6123C93.3838-19.4092 87.0117-13.3301 78.3936-13.3301Z"/>
  </g>
  <g id="Semibold-S" transform="matrix(1 0 0 1 1990.11 696)">
   <path d="M26.9348-4.10195L77.3538-4.10195C90.9011-4.10195 101.428-14.3667 101.428-27.6521C101.428-41.0328 90.9099-51.2908 76.4725-51.2908C71.2058-61.5024 61.7021-67.3708 49.9947-67.3708C34.6651-67.3708 21.7502-56.0692 19.9638-40.3956C11.894-37.839 6.83594-30.9987 6.83594-22.6937C6.83594-12.205 14.5614-4.10195 26.9348-4.10195ZM27.039-12.7791C19.85-12.7791 15.5131-16.4657 15.5131-22.4495C15.5131-27.581 18.769-31.1344 24.8969-32.7612C27.2406-33.3472 28.0729-34.3593 28.3614-37.0226C29.7417-49.9242 38.4934-58.6937 49.9947-58.6937C58.4066-58.6937 65.2804-53.9528 69.6526-45.3213C70.6913-43.2239 71.8965-42.5403 74.4666-42.5403C86.3098-42.5403 92.7173-36.037 92.7173-27.4257C92.7173-19.0804 86.1941-12.7791 77.5493-12.7791Z"/>
  </g>
  <g id="Medium-S" transform="matrix(1 0 0 1 1694.01 696)">
   <path d="M26.4766-4.39844L76.5654-4.39844C89.8701-4.39844 100.215-14.4678 100.215-27.4971C100.215-40.6016 89.8115-50.6035 75.5156-50.6035C70.3096-60.7275 60.8193-66.6768 49.3613-66.6768C34.2002-66.6768 21.3594-55.3213 19.7549-39.7959C11.8604-37.374 6.83594-30.6416 6.83594-22.4443C6.83594-12.333 14.2178-4.39844 26.4766-4.39844ZM26.4932-12.3613C19.2031-12.3613 14.7988-16.1221 14.7988-22.2002C14.7988-27.3721 18.0615-30.9727 24.1152-32.5928C26.459-33.1787 27.3115-34.2178 27.5596-36.8271C28.7646-49.6816 37.7656-58.7139 49.3613-58.7139C57.8945-58.7139 64.8154-53.9326 69.1338-45.2539C70.1455-43.1768 71.3574-42.4932 73.9141-42.4932C85.8516-42.4932 92.2119-35.7607 92.2119-27.2842C92.2119-18.8311 85.5742-12.3613 76.9092-12.3613Z"/>
  </g>
  <g id="Regular-S" transform="matrix(1 0 0 1 1398.09 696)">
   <path d="M25.8789-4.78516L75.5371-4.78516C88.5254-4.78516 98.6328-14.5996 98.6328-27.2949C98.6328-40.0391 88.3789-49.707 74.2676-49.707C69.1406-59.7168 59.668-65.7715 48.5352-65.7715C33.5938-65.7715 20.8496-54.3457 19.4824-39.0137C11.8164-36.7676 6.83594-30.1758 6.83594-22.1191C6.83594-12.5 13.7695-4.78516 25.8789-4.78516ZM25.7812-11.8164C18.3594-11.8164 13.8672-15.6738 13.8672-21.875C13.8672-27.0996 17.1387-30.7617 23.0957-32.373C25.4395-32.959 26.3184-34.0332 26.5137-36.5723C27.4902-49.3652 36.8164-58.7402 48.5352-58.7402C57.2266-58.7402 64.209-53.9062 68.457-45.166C69.4336-43.1152 70.6543-42.4316 73.1934-42.4316C85.2539-42.4316 91.5527-35.4004 91.5527-27.0996C91.5527-18.5059 84.7656-11.8164 76.0742-11.8164Z"/>
  </g>
  <g id="Light-S" transform="matrix(1 0 0 1 1101.7 696)">
   <path d="M25.3189-5.60253L75.2949-5.60253C88.041-5.60253 97.9819-15.2353 97.9819-27.5674C97.9819-40.0088 87.8189-49.4043 74.0859-49.3892C69.0044-59.52 59.8193-65.7866 48.293-65.7866C33.5483-65.7866 21.1221-54.2246 19.8003-39.0137C12.1797-36.8584 6.83594-30.5391 6.83594-22.3765C6.83594-13.1055 13.5879-5.60253 25.3189-5.60253ZM25.2515-11.0293C17.0879-11.0293 12.2778-15.6133 12.2778-22.208C12.2778-27.9624 16.0034-32.1694 22.3843-33.8564C24.3496-34.3667 25.062-35.2441 25.2119-37.2685C26.1279-50.3642 36.1807-60.3599 48.293-60.3599C57.8926-60.3599 65.208-54.9809 69.5166-46.1045C70.3267-44.3716 71.3657-43.7939 73.4961-43.7939C85.3901-43.7939 92.5063-36.3843 92.5063-27.4023C92.5063-18.2788 85.1289-11.0293 75.6504-11.0293Z"/>
  </g>
  <g id="Thin-S" transform="matrix(1 0 0 1 805.42 696)">
   <path d="M24.5781-6.68358L74.9746-6.68358C87.4004-6.68358 97.1211-16.0762 97.1211-27.9277C97.1211-39.9688 87.0781-49.0039 73.8457-48.9688C68.8242-59.2598 60.0195-65.8066 47.9727-65.8066C33.4883-65.8066 21.4824-54.0645 20.2207-39.0137C12.6601-36.9785 6.83594-31.0195 6.83594-22.7168C6.83594-13.9062 13.3477-6.68358 24.5781-6.68358ZM24.5508-9.9883C15.4063-9.9883 10.1758-15.5332 10.1758-22.6484C10.1758-29.1035 14.502-34.0312 21.4434-35.8183C22.9082-36.2285 23.4004-36.8457 23.4903-38.1894C24.3262-51.6855 35.3399-62.5019 47.9727-62.5019C58.7734-62.5019 66.5293-56.4023 70.9179-47.3457C71.5078-46.0332 72.3066-45.5957 73.8965-45.5957C85.5703-45.5957 93.7676-37.6855 93.7676-27.8027C93.7676-17.9785 85.6094-9.9883 75.0899-9.9883Z"/>
  </g>
  <g id="Ultralight-S" transform="matrix(1 0 0 1 508.93 696)">
   <path d="M24.1987-7.23729L74.8106-7.23729C87.0723-7.23729 96.6802-16.5068 96.6802-28.1123C96.6802-39.9482 86.6987-48.7988 73.7227-48.7534C68.7319-59.1265 60.1221-65.8169 47.8086-65.8169C33.4575-65.8169 21.667-53.9824 20.436-39.0137C12.9062-37.04 6.83594-31.2656 6.83594-22.8911C6.83594-14.3164 13.2246-7.23729 24.1987-7.23729ZM24.1919-9.4551C14.545-9.4551 9.09916-15.4922 9.09916-22.874C9.09916-29.688 13.7329-34.9848 20.9614-36.8232C22.1699-37.1821 22.5493-37.666 22.6084-38.6611C23.4034-52.3623 34.9092-63.5991 47.8086-63.5991C59.2246-63.5991 67.206-57.1303 71.6357-47.9814C72.1128-46.8842 72.7886-46.5185 74.1016-46.5185C85.6626-46.5185 94.4136-38.352 94.4136-28.0078C94.4136-17.8247 85.8555-9.4551 74.8027-9.4551Z"/>
  </g>
 </g>
</svg>
