<?xml version="1.0" encoding="UTF-8"?>
<!--Generator: Apple Native CoreSVG 175.5-->
<!DOCTYPE svg
PUBLIC "-//W3C//DTD SVG 1.1//EN"
       "http://www.w3.org/Graphics/SVG/1.1/DTD/svg11.dtd">
<svg version="1.1" xmlns="http://www.w3.org/2000/svg" xmlns:xlink="http://www.w3.org/1999/xlink" width="3300" height="2200">
 <!--glyph: "uni1001C6.medium", point size: 100.0, font version: "18.0d12e2", template writer version: "101"-->
 <g id="Notes">
  <rect height="2200" id="artboard" style="fill:white;opacity:1" width="3300" x="0" y="0"/>
  <line style="fill:none;stroke:black;opacity:1;stroke-width:0.5;" x1="263" x2="3036" y1="292" y2="292"/>
  <text style="stroke:none;fill:black;font-family:sans-serif;font-size:13;font-weight:bold;" transform="matrix(1 0 0 1 263 322)">Weight/Scale Variations</text>
  <text style="stroke:none;fill:black;font-family:sans-serif;font-size:13;text-anchor:middle;" transform="matrix(1 0 0 1 559.711 322)">Ultralight</text>
  <text style="stroke:none;fill:black;font-family:sans-serif;font-size:13;text-anchor:middle;" transform="matrix(1 0 0 1 856.422 322)">Thin</text>
  <text style="stroke:none;fill:black;font-family:sans-serif;font-size:13;text-anchor:middle;" transform="matrix(1 0 0 1 1153.13 322)">Light</text>
  <text style="stroke:none;fill:black;font-family:sans-serif;font-size:13;text-anchor:middle;" transform="matrix(1 0 0 1 1449.84 322)">Regular</text>
  <text style="stroke:none;fill:black;font-family:sans-serif;font-size:13;text-anchor:middle;" transform="matrix(1 0 0 1 1746.56 322)">Medium</text>
  <text style="stroke:none;fill:black;font-family:sans-serif;font-size:13;text-anchor:middle;" transform="matrix(1 0 0 1 2043.27 322)">Semibold</text>
  <text style="stroke:none;fill:black;font-family:sans-serif;font-size:13;text-anchor:middle;" transform="matrix(1 0 0 1 2339.98 322)">Bold</text>
  <text style="stroke:none;fill:black;font-family:sans-serif;font-size:13;text-anchor:middle;" transform="matrix(1 0 0 1 2636.69 322)">Heavy</text>
  <text style="stroke:none;fill:black;font-family:sans-serif;font-size:13;text-anchor:middle;" transform="matrix(1 0 0 1 2933.4 322)">Black</text>
  <line style="fill:none;stroke:black;opacity:1;stroke-width:0.5;" x1="263" x2="3036" y1="1903" y2="1903"/>
  <g transform="matrix(1 0 0 1 263 1933)">
   <path d="M9.24805 0.830078C13.5547 0.830078 17.1387-2.74414 17.1387-7.05078C17.1387-11.3574 13.5449-14.9316 9.23828-14.9316C4.94141-14.9316 1.36719-11.3574 1.36719-7.05078C1.36719-2.74414 4.95117 0.830078 9.24805 0.830078ZM9.24805-0.654297C5.70312-0.654297 2.87109-3.49609 2.87109-7.05078C2.87109-10.6055 5.69336-13.4473 9.23828-13.4473C12.793-13.4473 15.6445-10.6055 15.6445-7.05078C15.6445-3.49609 12.8027-0.654297 9.24805-0.654297ZM5.6543-7.05078C5.6543-6.62109 5.95703-6.32812 6.40625-6.32812L8.50586-6.32812L8.50586-4.20898C8.50586-3.76953 8.79883-3.4668 9.22852-3.4668C9.67773-3.4668 9.9707-3.76953 9.9707-4.20898L9.9707-6.32812L12.0898-6.32812C12.5293-6.32812 12.832-6.62109 12.832-7.05078C12.832-7.49023 12.5293-7.79297 12.0898-7.79297L9.9707-7.79297L9.9707-9.90234C9.9707-10.3516 9.67773-10.6543 9.22852-10.6543C8.79883-10.6543 8.50586-10.3516 8.50586-9.90234L8.50586-7.79297L6.40625-7.79297C5.95703-7.79297 5.6543-7.49023 5.6543-7.05078Z"/>
  </g>
  <g transform="matrix(1 0 0 1 281.867 1933)">
   <path d="M11.709 2.91016C17.1582 2.91016 21.6699-1.61133 21.6699-7.05078C21.6699-12.5 17.1484-17.0117 11.6992-17.0117C6.25977-17.0117 1.74805-12.5 1.74805-7.05078C1.74805-1.61133 6.26953 2.91016 11.709 2.91016ZM11.709 1.25C7.09961 1.25 3.41797-2.44141 3.41797-7.05078C3.41797-11.6602 7.08984-15.3516 11.6992-15.3516C16.3086-15.3516 20.0098-11.6602 20.0098-7.05078C20.0098-2.44141 16.3184 1.25 11.709 1.25ZM7.17773-7.05078C7.17773-6.57227 7.50977-6.25 8.00781-6.25L10.8789-6.25L10.8789-3.36914C10.8789-2.88086 11.2109-2.53906 11.6895-2.53906C12.1777-2.53906 12.5195-2.87109 12.5195-3.36914L12.5195-6.25L15.4004-6.25C15.8887-6.25 16.2305-6.57227 16.2305-7.05078C16.2305-7.53906 15.8887-7.88086 15.4004-7.88086L12.5195-7.88086L12.5195-10.752C12.5195-11.25 12.1777-11.5918 11.6895-11.5918C11.2109-11.5918 10.8789-11.25 10.8789-10.752L10.8789-7.88086L8.00781-7.88086C7.50977-7.88086 7.17773-7.53906 7.17773-7.05078Z"/>
  </g>
  <g transform="matrix(1 0 0 1 305.646 1933)">
   <path d="M14.9707 5.66406C21.9336 5.66406 27.6953-0.0976562 27.6953-7.05078C27.6953-14.0137 21.9238-19.7754 14.9609-19.7754C8.00781-19.7754 2.25586-14.0137 2.25586-7.05078C2.25586-0.0976562 8.01758 5.66406 14.9707 5.66406ZM14.9707 3.84766C8.93555 3.84766 4.08203-1.01562 4.08203-7.05078C4.08203-13.0957 8.92578-17.9492 14.9609-17.9492C21.0059-17.9492 25.8691-13.0957 25.8691-7.05078C25.8691-1.01562 21.0156 3.84766 14.9707 3.84766ZM9.19922-7.05078C9.19922-6.5332 9.57031-6.17188 10.1172-6.17188L14.0625-6.17188L14.0625-2.2168C14.0625-1.67969 14.4336-1.29883 14.9512-1.29883C15.4883-1.29883 15.8594-1.66992 15.8594-2.2168L15.8594-6.17188L19.8145-6.17188C20.3516-6.17188 20.7324-6.5332 20.7324-7.05078C20.7324-7.59766 20.3613-7.96875 19.8145-7.96875L15.8594-7.96875L15.8594-11.9141C15.8594-12.4609 15.4883-12.8418 14.9512-12.8418C14.4336-12.8418 14.0625-12.4609 14.0625-11.9141L14.0625-7.96875L10.1172-7.96875C9.57031-7.96875 9.19922-7.59766 9.19922-7.05078Z"/>
  </g>
  <text style="stroke:none;fill:black;font-family:sans-serif;font-size:13;font-weight:bold;" transform="matrix(1 0 0 1 263 1953)">Design Variations</text>
  <text style="stroke:none;fill:black;font-family:sans-serif;font-size:13;" transform="matrix(1 0 0 1 263 1971)">Symbols are supported in up to nine weights and three scales.</text>
  <text style="stroke:none;fill:black;font-family:sans-serif;font-size:13;" transform="matrix(1 0 0 1 263 1989)">For optimal layout with text and other symbols, vertically align</text>
  <text style="stroke:none;fill:black;font-family:sans-serif;font-size:13;" transform="matrix(1 0 0 1 263 2007)">symbols with the adjacent text.</text>
  <line style="fill:none;stroke:#00AEEF;stroke-width:0.5;opacity:1.0;" x1="776" x2="776" y1="1919" y2="1933"/>
  <g transform="matrix(1 0 0 1 776 1933)">
   <path d="M3.31055 0.15625C3.82812 0.15625 4.08203-0.0390625 4.26758-0.585938L5.52734-4.0332L11.2891-4.0332L12.5488-0.585938C12.7344-0.0390625 12.9883 0.15625 13.4961 0.15625C14.0137 0.15625 14.3457-0.15625 14.3457-0.644531C14.3457-0.810547 14.3164-0.966797 14.2383-1.17188L9.6582-13.3691C9.43359-13.9648 9.0332-14.2676 8.4082-14.2676C7.80273-14.2676 7.39258-13.9746 7.17773-13.3789L2.59766-1.16211C2.51953-0.957031 2.49023-0.800781 2.49023-0.634766C2.49023-0.146484 2.80273 0.15625 3.31055 0.15625ZM6.00586-5.51758L8.37891-12.0898L8.42773-12.0898L10.8008-5.51758Z"/>
  </g>
  <line style="fill:none;stroke:#00AEEF;stroke-width:0.5;opacity:1.0;" x1="793.197" x2="793.197" y1="1919" y2="1933"/>
  <text style="stroke:none;fill:black;font-family:sans-serif;font-size:13;font-weight:bold;" transform="matrix(1 0 0 1 776 1953)">Margins</text>
  <text style="stroke:none;fill:black;font-family:sans-serif;font-size:13;" transform="matrix(1 0 0 1 776 1971)">Leading and trailing margins on the left and right side of each symbol</text>
  <text style="stroke:none;fill:black;font-family:sans-serif;font-size:13;" transform="matrix(1 0 0 1 776 1989)">can be adjusted by modifying the x-location of the margin guidelines.</text>
  <text style="stroke:none;fill:black;font-family:sans-serif;font-size:13;" transform="matrix(1 0 0 1 776 2007)">Modifications are automatically applied proportionally to all</text>
  <text style="stroke:none;fill:black;font-family:sans-serif;font-size:13;" transform="matrix(1 0 0 1 776 2025)">scales and weights.</text>
  <g transform="matrix(1 0 0 1 1289 1933)">
   <path d="M2.8418 1.86523L4.54102 3.57422C5.40039 4.44336 6.38672 4.38477 7.31445 3.35938L18.0078-8.42773L17.041-9.4043L6.42578 2.27539C6.07422 2.67578 5.74219 2.77344 5.27344 2.30469L4.10156 1.14258C3.63281 0.683594 3.74023 0.341797 4.14062-0.0195312L15.6152-10.8203L14.6387-11.7871L3.04688-0.898438C2.06055 0.0195312 1.98242 0.996094 2.8418 1.86523ZM9.25781-16.3281C8.83789-15.918 8.80859-15.3418 9.04297-14.9512C9.27734-14.5898 9.73633-14.3555 10.3809-14.5215C11.8457-14.8633 13.3691-14.9219 14.7949-13.9844L14.209-12.5293C13.8672-11.6992 14.043-11.1133 14.5801-10.5664L16.875-8.25195C17.3633-7.76367 17.7734-7.74414 18.3398-7.8418L19.4043-8.03711L20.0684-7.36328L20.0293-6.80664C19.9902-6.30859 20.1172-5.92773 20.6055-5.44922L21.3672-4.70703C21.8457-4.22852 22.4609-4.19922 22.9297-4.66797L25.8398-7.58789C26.3086-8.05664 26.2891-8.65234 25.8105-9.13086L25.0391-9.89258C24.5605-10.3711 24.1895-10.5273 23.7109-10.4883L23.1348-10.4395L22.4902-11.0742L22.7344-12.1973C22.8613-12.7637 22.7051-13.2031 22.1191-13.7891L19.9219-15.9766C16.582-19.2969 12.1484-19.2188 9.25781-16.3281ZM10.752-15.957C13.1836-17.7344 16.4746-17.4316 18.7012-15.2051L21.1328-12.793C21.3672-12.5586 21.4062-12.373 21.3379-12.0312L21.0156-10.5469L22.5195-9.0625L23.5059-9.12109C23.7598-9.13086 23.8379-9.11133 24.0332-8.91602L24.6094-8.33984L22.168-5.89844L21.5918-6.47461C21.3965-6.66992 21.3672-6.74805 21.377-7.01172L21.4453-7.98828L19.9512-9.47266L18.4277-9.21875C18.1055-9.15039 17.959-9.17969 17.7148-9.41406L15.7129-11.416C15.459-11.6504 15.4297-11.8164 15.5859-12.1875L16.4648-14.2773C14.9023-15.7324 12.8711-16.3574 10.8398-15.7617C10.6836-15.7227 10.625-15.8496 10.752-15.957Z"/>
  </g>
  <text style="stroke:none;fill:black;font-family:sans-serif;font-size:13;font-weight:bold;" transform="matrix(1 0 0 1 1289 1953)">Exporting</text>
  <text style="stroke:none;fill:black;font-family:sans-serif;font-size:13;" transform="matrix(1 0 0 1 1289 1971)">Symbols should be outlined when exporting to ensure the</text>
  <text style="stroke:none;fill:black;font-family:sans-serif;font-size:13;" transform="matrix(1 0 0 1 1289 1989)">design is preserved when submitting to Xcode.</text>
  <text id="template-version" style="stroke:none;fill:black;font-family:sans-serif;font-size:13;text-anchor:end;" transform="matrix(1 0 0 1 3036 1933)">Template v.4.0</text>
  <text style="stroke:none;fill:black;font-family:sans-serif;font-size:13;text-anchor:end;" transform="matrix(1 0 0 1 3036 1951)">Requires Xcode 14 or greater</text>
  <text id="descriptive-name" style="stroke:none;fill:black;font-family:sans-serif;font-size:13;text-anchor:end;" transform="matrix(1 0 0 1 3036 1969)">Generated from cloud.rain</text>
  <text style="stroke:none;fill:black;font-family:sans-serif;font-size:13;text-anchor:end;" transform="matrix(1 0 0 1 3036 1987)">Typeset at 100 points</text>
  <text style="stroke:none;fill:black;font-family:sans-serif;font-size:13;" transform="matrix(1 0 0 1 263 726)">Small</text>
  <text style="stroke:none;fill:black;font-family:sans-serif;font-size:13;" transform="matrix(1 0 0 1 263 1156)">Medium</text>
  <text style="stroke:none;fill:black;font-family:sans-serif;font-size:13;" transform="matrix(1 0 0 1 263 1586)">Large</text>
 </g>
 <g id="Guides">
  <g id="H-reference" style="fill:#27AAE1;stroke:none;" transform="matrix(1 0 0 1 339 696)">
   <path d="M0.993654 0L3.63775 0L29.3281-67.1323L30.0303-67.1323L30.0303-70.459L28.1226-70.459ZM11.6885-24.4799L46.9815-24.4799L46.2315-26.7285L12.4385-26.7285ZM55.1196 0L57.7637 0L30.6382-70.459L29.4326-70.459L29.4326-67.1323Z"/>
  </g>
  <line id="Baseline-S" style="fill:none;stroke:#27AAE1;opacity:1;stroke-width:0.5;" x1="263" x2="3036" y1="696" y2="696"/>
  <line id="Capline-S" style="fill:none;stroke:#27AAE1;opacity:1;stroke-width:0.5;" x1="263" x2="3036" y1="625.541" y2="625.541"/>
  <g id="H-reference" style="fill:#27AAE1;stroke:none;" transform="matrix(1 0 0 1 339 1126)">
   <path d="M0.993654 0L3.63775 0L29.3281-67.1323L30.0303-67.1323L30.0303-70.459L28.1226-70.459ZM11.6885-24.4799L46.9815-24.4799L46.2315-26.7285L12.4385-26.7285ZM55.1196 0L57.7637 0L30.6382-70.459L29.4326-70.459L29.4326-67.1323Z"/>
  </g>
  <line id="Baseline-M" style="fill:none;stroke:#27AAE1;opacity:1;stroke-width:0.5;" x1="263" x2="3036" y1="1126" y2="1126"/>
  <line id="Capline-M" style="fill:none;stroke:#27AAE1;opacity:1;stroke-width:0.5;" x1="263" x2="3036" y1="1055.54" y2="1055.54"/>
  <g id="H-reference" style="fill:#27AAE1;stroke:none;" transform="matrix(1 0 0 1 339 1556)">
   <path d="M0.993654 0L3.63775 0L29.3281-67.1323L30.0303-67.1323L30.0303-70.459L28.1226-70.459ZM11.6885-24.4799L46.9815-24.4799L46.2315-26.7285L12.4385-26.7285ZM55.1196 0L57.7637 0L30.6382-70.459L29.4326-70.459L29.4326-67.1323Z"/>
  </g>
  <line id="Baseline-L" style="fill:none;stroke:#27AAE1;opacity:1;stroke-width:0.5;" x1="263" x2="3036" y1="1556" y2="1556"/>
  <line id="Capline-L" style="fill:none;stroke:#27AAE1;opacity:1;stroke-width:0.5;" x1="263" x2="3036" y1="1485.54" y2="1485.54"/>
  <line id="left-margin-Regular-M" style="fill:none;stroke:#00AEEF;stroke-width:0.5;opacity:1.0;" x1="1387.89" x2="1387.89" y1="1030.79" y2="1150.12"/>
  <line id="right-margin-Regular-M" style="fill:none;stroke:#00AEEF;stroke-width:0.5;opacity:1.0;" x1="1511.8" x2="1511.8" y1="1030.79" y2="1150.12"/>
 </g>
 <g id="Symbols">
  <g id="Black-L" transform="matrix(1 0 0 1 2848.89 1556)">
   <path d="M44.9908-7.89272L124.519-7.89272C147.058-7.89272 164.185-25.0781 164.185-46.8985C164.185-68.989 147.107-86.1266 124.465-86.1266C117.168-100.179 103.598-111.366 81.4948-111.366C55.8002-111.366 35.9789-92.8474 32.6054-69.1532C20.4413-64.925 11.2588-54.2236 11.2588-39.6509C11.2588-21.734 24.7138-7.89272 44.9908-7.89272ZM45.5332-25.6507C34.4465-25.6507 29.018-31.3793 29.018-39.3341C29.018-46.4644 33.4964-51.7806 43.4021-54.364C47.5816-55.4387 48.7031-57.3288 49.3133-61.5452C52.2966-82.4934 65.2387-93.6068 81.4948-93.6068C93.6702-93.6068 103.932-86.6728 110.863-73.5927C112.693-70.1234 114.688-68.8694 118.991-68.8694C137.836-68.8694 146.426-59.0329 146.426-46.5416C146.426-34.7674 137.578-25.6507 124.121-25.6507ZM47.9056 25.4925L55.7435 11.977C57.175 9.47314 56.5376 6.32398 53.9402 4.8156C51.3231 3.33043 48.4672 4.25984 46.898 6.93889L39.0394 20.4741C37.6311 22.9375 38.2076 26.049 40.8259 27.5354C43.4233 29.023 46.4961 27.9547 47.9056 25.4925ZM62.7013 43.307L80.9329 11.8965C82.3644 9.41353 81.727 6.26438 79.1504 4.77682C76.575 3.29164 73.5982 4.25864 72.1083 6.87929L53.9391 38.2469C52.5099 40.7519 53.0865 43.8635 55.684 45.3498C58.2606 46.8374 61.2917 45.79 62.7013 43.307ZM98.0669 25.4717L105.905 11.9573C107.336 9.47314 106.699 6.30317 104.101 4.79479C101.484 3.30961 98.6284 4.23902 97.0593 6.91808L89.2214 20.4532C87.7923 22.9166 88.3689 26.0282 90.9871 27.5146C93.5845 29.0021 96.6573 27.9339 98.0669 25.4717ZM112.862 43.2861L131.094 11.8769C132.526 9.39272 131.888 6.26438 129.312 4.756C126.736 3.27083 123.78 4.23783 122.269 6.85847L104.1 38.226C102.671 40.7311 103.248 43.8426 105.845 45.329C108.422 46.8166 111.453 45.7691 112.862 43.2861Z"/>
  </g>
  <g id="Heavy-L" transform="matrix(1 0 0 1 2553.29 1556)">
   <path d="M43.964-8.84542L123.208-8.84542C145.273-8.84542 161.974-25.6436 161.974-46.8607C161.974-68.4411 145.073-84.9749 122.769-84.9749C115.334-99.4063 101.544-110.33 80.3358-110.33C55.1386-110.33 35.4061-91.7978 32.3447-68.1725C20.3471-64.1781 11.2588-53.672 11.2588-39.402C11.2588-22.2345 24.0775-8.84542 43.964-8.84542ZM44.3498-24.6333C32.7782-24.6333 27.0523-30.7685 27.0523-39.1028C27.0523-46.4032 31.5867-52.1149 41.6926-54.7623C45.6746-55.7829 46.8071-57.593 47.335-61.6129C49.9561-82.4895 63.5524-94.5366 80.3358-94.5366C93.0606-94.5366 103.58-87.3477 110.475-74.0619C112.206-70.7129 114.143-69.5125 118.272-69.5125C137.054-69.5125 146.181-59.313 146.181-46.5358C146.181-34.2492 136.776-24.6333 123.028-24.6333ZM46.5063 23.6633L54.4811 9.89986C55.8266 7.54499 55.2113 4.65894 52.8086 3.24986C50.3813 1.88219 47.724 2.7206 46.259 5.20935L38.2541 18.9973C36.95 21.2975 37.5095 24.1691 39.9424 25.5423C42.3451 26.9212 45.1966 25.9578 46.5063 23.6633ZM61.2689 41.4964L79.6424 9.81944C80.9879 7.49475 80.3726 4.6087 78 3.22981C75.6331 1.86214 72.8406 2.71498 71.4505 5.15911L53.1676 36.7701C51.8333 39.1306 52.3928 42.0022 54.7955 43.3755C57.168 44.7544 59.9592 43.8211 61.2689 41.4964ZM96.6582 23.6331L104.633 9.87529C105.978 7.54499 105.363 4.62875 102.96 3.21968C100.533 1.85201 97.8758 2.69041 96.4109 5.17916L88.4361 18.9671C87.1019 21.2673 87.6613 24.1389 90.0942 25.5122C92.4969 26.8911 95.3485 25.9276 96.6582 23.6331ZM111.421 41.4663L129.794 9.79487C131.14 7.46457 130.524 4.6087 128.152 3.19962C125.785 1.83195 123.023 2.6848 121.602 5.12893L103.319 36.7399C101.985 39.1004 102.545 41.972 104.947 43.3453C107.32 44.7242 110.111 43.791 111.421 41.4663Z"/>
  </g>
  <g id="Bold-L" transform="matrix(1 0 0 1 2257.88 1556)">
   <path d="M42.7109-9.88706L121.691-9.88706C143.165-9.88706 159.373-26.2013 159.373-46.6953C159.373-67.6381 142.702-83.4563 120.82-83.4563C113.231-98.3416 99.2468-108.995 78.9883-108.995C54.3985-108.995 34.8109-90.447 32.104-66.8988C20.2765-63.174 11.2588-52.921 11.2588-38.9978C11.2588-22.7301 23.3309-9.88706 42.7109-9.88706ZM42.9269-23.1794C30.7112-23.1794 24.5644-29.8738 24.5644-38.729C24.5644-46.3562 29.2871-52.5745 39.6465-55.2988C43.3378-56.2429 44.4559-57.9233 44.8839-61.6378C47.089-82.4745 61.5295-95.6892 78.9883-95.6892C92.4938-95.6892 103.358-88.1107 110.214-74.5787C111.807-71.4205 113.646-70.3041 117.507-70.3041C136.197-70.3041 146.067-59.629 146.067-46.4089C146.067-33.4474 135.926-23.1794 121.727-23.1794ZM44.7028 21.6946L52.9137 7.51209C54.1442 5.36398 53.567 2.82311 51.4249 1.55188C49.2581 0.3451 46.8764 1.06832 45.5496 3.30404L37.3007 17.5113C36.1346 19.5967 36.6562 22.1464 38.8362 23.3664C40.9783 24.5996 43.5235 23.7668 44.7028 21.6946ZM59.4418 39.5434L78.0516 7.43167C79.2821 5.32155 78.7048 2.78068 76.6008 1.54744C74.5099 0.340653 71.9851 1.05509 70.7254 3.26161L52.2296 35.2841C51.0256 37.4455 51.5471 39.9951 53.6892 41.2151C55.7932 42.4484 58.2625 41.6535 59.4418 39.5434ZM94.8468 21.6566L103.058 7.48733C104.288 5.36398 103.711 2.78513 101.569 1.5139C99.4021 0.307113 97.0205 1.03034 95.6936 3.26605L87.4827 17.4734C86.2787 19.5587 86.8002 22.1084 88.9803 23.3284C91.1224 24.5616 93.6676 23.7288 94.8468 21.6566ZM109.586 39.5054L128.196 7.40691C129.426 5.28356 128.849 2.78068 126.745 1.50945C124.654 0.302666 122.167 1.01711 120.869 3.22362L102.374 35.2462C101.17 37.4075 101.691 39.9571 103.833 41.1772C105.937 42.4104 108.407 41.6155 109.586 39.5054Z"/>
  </g>
  <g id="Semibold-L" transform="matrix(1 0 0 1 1962.06 1556)">
   <path d="M41.847-10.6052L120.645-10.6052C141.711-10.6052 157.579-26.5858 157.579-46.5813C157.579-67.0846 141.068-82.4094 119.476-82.4094C111.781-97.6076 97.6629-108.074 78.0594-108.074C53.8882-108.074 34.4006-89.5157 31.938-66.0207C20.2279-62.4817 11.2588-52.4034 11.2588-38.7191C11.2588-23.0718 22.8161-10.6052 41.847-10.6052ZM41.946-22.1771C29.2863-22.1771 22.8492-29.2569 22.8492-38.4713C22.8492-46.3238 27.7019-52.8914 38.2358-55.6687C41.7269-56.56 42.835-58.151 43.1941-61.6549C45.1124-82.4641 60.1349-96.4838 78.0594-96.4838C92.1031-96.4838 103.205-88.6367 110.035-74.935C111.533-71.9083 113.303-70.8498 116.98-70.8498C135.607-70.8498 145.989-59.8469 145.989-46.3214C145.989-32.8946 135.34-22.1771 120.831-22.1771ZM43.4594 20.3375L51.8331 5.86597C52.9843 3.86041 52.4334 1.55751 50.471 0.381309C48.4837-0.714561 46.2922-0.0707423 45.0604 1.99053L36.6434 16.4869C35.5725 18.4242 36.0679 20.7519 38.0737 21.8663C40.0361 22.9991 42.3701 22.2563 43.4594 20.3375ZM58.1821 38.197L76.9549 5.78555C78.1061 3.82336 77.5551 1.52045 75.6361 0.387619C73.7356-0.708251 71.3954-0.0892237 70.2256 1.95348L51.583 34.2597C50.4687 36.2837 50.9641 38.6114 52.9265 39.7258C54.8455 40.8586 57.0928 40.1592 58.1821 38.197ZM93.5981 20.2941L101.972 5.84108C103.123 3.86041 102.572 1.51414 100.61 0.337944C98.6224-0.757926 96.4308-0.114108 95.1991 1.94717L86.8255 16.4435C85.7112 18.3808 86.2066 20.7085 88.2124 21.8229C90.1747 22.9557 92.5087 22.2129 93.5981 20.2941ZM108.321 38.1536L127.094 5.76066C128.245 3.77999 127.694 1.52045 125.775 0.344254C123.874-0.751616 121.577-0.132589 120.364 1.91011L101.722 34.2163C100.607 36.2404 101.103 38.5681 103.065 39.6824C104.984 40.8153 107.231 40.1158 108.321 38.1536Z"/>
  </g>
  <g id="Medium-L" transform="matrix(1 0 0 1 1666.03 1556)">
   <path d="M41.192-11.1496L119.852-11.1496C140.609-11.1496 156.22-26.8773 156.22-46.4949C156.22-66.6649 139.828-81.6156 118.458-81.6156C110.682-97.051 96.462-107.376 77.3551-107.376C53.5014-107.376 34.0894-88.8096 31.8121-65.3549C20.191-61.9568 11.2588-52.0108 11.2588-38.5077C11.2588-23.3309 22.4259-11.1496 41.192-11.1496ZM41.2023-21.4171C28.2058-21.4171 21.5487-28.7893 21.5487-38.2759C21.5487-46.2993 26.4998-53.1316 37.1663-55.9492C40.5055-56.8005 41.6059-58.3237 41.9128-61.6679C43.6137-82.4563 59.0774-97.0863 77.3551-97.0863C91.8068-97.0863 103.09-89.0355 109.899-75.2052C111.325-72.2782 113.043-71.2636 116.58-71.2636C135.159-71.2636 145.93-60.0121 145.93-46.2551C145.93-32.4754 134.896-21.4171 120.151-21.4171ZM42.5167 19.3084L51.0138 4.61781C52.1049 2.72034 51.5738 0.59787 49.7477-0.50627C47.8966-1.51804 45.8492-0.93443 44.6896 0.994579L36.1451 15.7101C35.1463 17.5352 35.6219 19.6946 37.4955 20.7288C39.3216 21.7855 41.4955 21.111 42.5167 19.3084ZM57.2271 37.1761L76.1233 4.53739C77.2144 2.68736 76.6834 0.564894 74.9047-0.491802C73.1485-1.50357 70.9482-0.956894 69.8466 0.961603L51.0926 33.4829C50.0465 35.4029 50.5221 37.5623 52.3482 38.5965C54.1269 39.6532 56.2059 39.0261 57.2271 37.1761ZM92.6513 19.2609L101.148 4.59283C102.239 2.72034 101.708 0.550427 99.8823-0.553713C98.0312-1.56548 95.9838-0.981874 94.8242 0.947136L86.3271 15.6627C85.2809 17.4877 85.7565 19.6471 87.6301 20.6814C89.4562 21.7381 91.6301 21.0635 92.6513 19.2609ZM107.362 37.1286L126.258 4.51241C127.349 2.63992 126.818 0.564894 125.039-0.539246C123.283-1.55102 121.13-1.00434 119.981 0.914159L101.227 33.4355C100.181 35.3554 100.657 37.5148 102.483 38.5491C104.261 39.6058 106.34 38.9787 107.362 37.1286Z"/>
  </g>
  <g id="Regular-L" transform="matrix(1 0 0 1 1370.21 1556)">
   <path d="M40.3376-11.8599L118.818-11.8599C139.171-11.8599 154.446-27.2575 154.446-46.3822C154.446-66.1174 138.211-80.5802 117.129-80.5802C109.248-96.3251 94.8955-106.466 76.4364-106.466C52.9967-106.466 33.6836-87.8886 31.648-64.4865C20.1428-61.2722 11.2588-51.4988 11.2588-38.2321C11.2588-23.6688 21.9168-11.8599 40.3376-11.8599ZM40.2321-20.4257C26.7965-20.4257 19.8523-28.1792 19.8523-38.021C19.8523-46.2672 24.9319-53.445 35.7712-56.315C38.9123-57.1141 40.0028-58.5489 40.2415-61.6849C41.6589-82.446 57.6982-97.8721 76.4364-97.8721C91.4204-97.8721 102.938-89.5557 109.721-75.5575C111.053-72.7607 112.704-71.8033 116.059-71.8033C134.575-71.8033 145.852-60.2275 145.852-46.1686C145.852-31.9287 134.317-20.4257 119.265-20.4257ZM41.287 17.9661L49.9451 2.98978C50.9578 1.23329 50.4527-0.653829 48.8043-1.66398C47.1308-2.56606 45.2713-2.06098 44.2059-0.304492L35.495 14.697C34.5904 16.3756 35.0401 18.3155 36.7413 19.2452C38.3897 20.2026 40.3547 19.6171 41.287 17.9661ZM55.9813 35.8445L75.0386 2.90936C76.0514 1.20564 75.5463-0.681485 73.9506-1.63887C72.3826-2.54095 70.3649-2.08864 69.3522-0.332149L50.4531 32.4698C49.4957 34.2539 49.9455 36.1938 51.5939 37.1235C53.1895 38.0809 55.049 37.5482 55.9813 35.8445ZM91.4163 17.9134L100.074 2.96467C101.087 1.23329 100.582-0.706592 98.9336-1.71674C97.26-2.61882 95.4006-2.11374 94.3351-0.357256L85.677 14.6442C84.7196 16.3228 85.1694 18.2627 86.8706 19.1924C88.519 20.1498 90.484 19.5643 91.4163 17.9134ZM106.111 35.7917L125.168 2.88425C126.181 1.15287 125.676-0.681485 124.08-1.69164C122.512-2.59371 120.547-2.1414 119.481-0.384912L100.582 32.417C99.625 34.2011 100.075 36.141 101.723 37.0708C103.319 38.0282 105.178 37.4954 106.111 35.7917Z"/>
  </g>
  <g id="Light-L" transform="matrix(1 0 0 1 1073.96 1556)">
   <path d="M39.5933-11.6881L118.455-11.6881C138.37-11.6881 153.53-26.7231 153.53-45.5042C153.53-64.7624 137.524-78.9389 116.766-78.9389C108.885-94.8937 94.8955-105.206 76.0738-105.206C52.9967-105.206 34.008-86.629 32.0106-63.2268C20.3909-60.0698 11.2588-50.5446 11.2588-37.3351C11.2588-23.2108 21.6687-11.6881 39.5933-11.6881ZM39.526-18.1737C25.3651-18.1737 17.7911-26.6715 17.7911-37.2004C17.7911-46.4199 23.7677-54.0557 34.8169-56.9639C37.4618-57.6485 38.3615-58.797 38.5429-61.3223C39.884-82.3696 56.7248-98.6737 76.0738-98.6737C92.2411-98.6737 104.16-89.613 110.962-75.5003C112.103-73.1042 113.506-72.3186 116.345-72.3186C134.709-72.3186 146.997-60.2466 146.997-45.3097C146.997-30.3447 134.66-18.1737 118.711-18.1737ZM39.5884 18.5196L48.8381 2.53173C49.7172 1.06152 49.3076-0.462976 47.9645-1.28228C46.6346-1.97441 45.1568-1.56476 44.244-0.0945544L34.9606 15.8803C34.2087 17.3298 34.5248 18.888 35.9016 19.6269C37.2446 20.4125 38.7897 19.9225 39.5884 18.5196ZM54.3781 36.3598L73.989 2.45131C74.8681 1.01478 74.4584-0.509718 73.149-1.29534C71.8864-1.98748 70.3076-1.61151 69.4285-0.141296L49.9187 33.6531C49.1331 35.17 49.4493 36.7282 50.7923 37.4671C52.1017 38.2527 53.5794 37.7963 54.3781 36.3598ZM89.7368 18.4859L98.9865 2.5448C99.8656 1.06152 99.4559-0.496654 98.1129-1.31595C96.7829-2.00809 95.3052-1.59844 94.3924-0.128232L85.1426 15.8466C84.357 17.2962 84.6732 18.8543 86.0499 19.5932C87.393 20.3788 88.9381 19.8888 89.7368 18.4859ZM104.526 36.3261L124.137 2.46438C125.016 0.981105 124.607-0.509718 123.297-1.32902C122.035-2.02115 120.49-1.64518 119.577-0.174974L100.067 33.6194C99.2814 35.1363 99.5976 36.6945 100.941 37.4334C102.25 38.219 103.728 37.7626 104.526 36.3261Z"/>
  </g>
  <g id="Thin-L" transform="matrix(1 0 0 1 777.851 1556)">
   <path d="M38.6089-11.4609L117.975-11.4609C137.309-11.4609 152.318-26.0164 152.318-44.3431C152.318-62.9702 136.615-76.7681 116.287-76.7681C108.406-93.0006 94.8955-103.54 75.5942-103.54C52.9967-103.54 34.4372-84.9631 32.4902-61.5609C20.7191-58.4796 11.2588-49.2825 11.2588-36.1487C11.2588-22.605 21.3405-11.4609 38.6089-11.4609ZM38.592-15.1951C23.472-15.1951 15.065-24.6774 15.065-36.115C15.065-46.6218 22.228-54.8635 33.5548-57.8221C35.5434-58.3553 36.1907-59.1252 36.2964-60.8427C37.5365-82.2687 55.4375-99.7338 75.5942-99.7338C93.3265-99.7338 105.775-89.6887 112.602-75.4246C113.491-73.5586 114.566-73.0001 116.724-73.0001C134.886-73.0001 148.512-60.2719 148.512-44.1738C148.512-28.2496 135.114-15.1951 117.979-15.1951ZM37.3419 19.2516L47.3741 1.92593C48.0765 0.834348 47.7931-0.210558 46.8539-0.777439C45.9783-1.19192 45.0054-0.908476 44.2945 0.183106L34.2538 17.4452C33.7038 18.5919 33.8433 19.6453 34.7909 20.1317C35.7301 20.6902 36.7199 20.3263 37.3419 19.2516ZM52.2578 37.0413L72.6007 1.84551C73.3031 0.762364 73.0196-0.282542 72.0889-0.840987C71.2301-1.25546 70.2319-0.98046 69.5295 0.111122L49.2119 35.218C48.6535 36.3816 48.793 37.435 49.7322 37.9214C50.6629 38.4799 51.6358 38.1244 52.2578 37.0413ZM87.5155 19.2432L97.5477 1.98948C98.2501 0.834348 97.9667-0.218994 97.0275-0.785875C96.1519-1.20035 95.1789-0.916912 94.4681 0.174669L84.4359 17.4368C83.8774 18.5835 84.0169 19.6368 84.9645 20.1233C85.9037 20.6817 86.8935 20.3179 87.5155 19.2432ZM102.431 37.0329L122.774 1.90906C123.477 0.753928 123.193-0.282542 122.262-0.849423C121.404-1.2639 120.414-0.988896 119.703 0.102686L99.3855 35.2096C98.8271 36.3732 98.9666 37.4265 99.9057 37.913C100.836 38.4714 101.809 38.116 102.431 37.0329Z"/>
  </g>
  <g id="Ultralight-L" transform="matrix(1 0 0 1 481.45 1556)">
   <path d="M38.1047-11.3446L117.73-11.3446C136.766-11.3446 151.698-25.6544 151.698-43.7484C151.698-62.0522 136.15-75.6562 116.041-75.6562C108.16-92.0309 94.8955-102.687 75.3485-102.687C52.9967-102.687 34.6569-84.1098 32.7358-60.7076C20.8872-57.6651 11.2588-48.636 11.2588-35.5411C11.2588-22.2947 21.1725-11.3446 38.1047-11.3446ZM38.1137-13.6696C22.5023-13.6696 13.6687-23.656 13.6687-35.559C13.6687-46.7253 21.4393-55.2772 32.9084-58.2617C34.5608-58.7173 35.0788-59.2932 35.1458-60.597C36.3341-82.217 54.7781-100.277 75.3485-100.277C93.8824-100.277 106.603-89.7275 113.443-75.3858C114.202-73.7913 115.109-73.3492 116.918-73.3492C134.976-73.3492 149.288-60.2848 149.288-43.592C149.288-27.1765 135.347-13.6696 117.604-13.6696ZM36.1912 19.6265L46.6242 1.61564C47.2362 0.71799 47.0174-0.0812705 46.285-0.518864C45.6421-0.791126 44.9278-0.572329 44.3204 0.325322L33.8918 18.2468C33.4453 19.2384 33.4942 20.0331 34.2221 20.3903C34.9544 20.8324 35.6597 20.5332 36.1912 19.6265ZM51.1718 37.3904L71.8896 1.53522C72.5015 0.633077 72.2827-0.166183 71.5459-0.608269C70.894-0.880531 70.1931-0.657241 69.5812 0.240409L48.8499 36.0196C48.4079 37.0022 48.4568 37.797 49.1891 38.1541C49.926 38.5962 50.6403 38.2925 51.1718 37.3904ZM86.3777 19.631L96.8108 1.70505C97.4227 0.71799 97.2039-0.0767779 96.4716-0.514372C95.8287-0.786633 95.1143-0.567836 94.5069 0.329814L84.0739 18.2513C83.6318 19.2429 83.6808 20.0376 84.4086 20.3948C85.1409 20.8369 85.8463 20.5377 86.3777 19.631ZM101.358 37.3949L122.076 1.62463C122.688 0.63757 122.469-0.166183 121.732-0.603777C121.081-0.876038 120.375-0.652749 119.768 0.244902L99.0365 36.0241C98.5944 37.0067 98.6433 37.8015 99.3757 38.1586C100.112 38.6007 100.827 38.297 101.358 37.3949Z"/>
  </g>
  <g id="Black-M" transform="matrix(1 0 0 1 2867.04 1126)">
   <path d="M35.6379-13.2085L97.5471-13.2085C115.357-13.2085 128.977-26.8063 128.977-44.1834C128.977-61.6717 115.625-75.4291 97.8374-75.4291C92.3025-86.0181 82.0269-94.9352 64.0845-94.9352C43.7994-94.9352 28.4106-80.5999 25.5339-62.1838C15.9513-58.7149 8.72266-50.2898 8.72266-38.7474C8.72266-24.2818 19.6601-13.2085 35.6379-13.2085ZM36.1979-28.3776C27.927-28.3776 23.8915-32.5673 23.8915-38.497C23.8915-44.0069 27.4346-47.8477 34.9653-49.7995C38.3059-50.663 39.1395-52.1574 39.6751-55.51C42.2874-71.8398 51.8606-79.7663 64.0845-79.7663C73.2053-79.7663 80.9876-74.5125 86.3922-64.5401C87.8695-61.8031 89.4308-60.8089 92.8444-60.8089C107.478-60.8089 113.808-53.4329 113.808-43.882C113.808-35.1022 107.324-28.3776 97.0259-28.3776ZM38.087 13.4615L44.1218 3.0664C45.2867 1.03735 44.7868-1.57943 42.6485-2.80752C40.5044-4.03068 38.1729-3.24535 36.8882-1.04501L30.848 9.35586C29.688 11.3736 30.1313 13.9388 32.2751 15.1617C34.4134 16.3843 36.9272 15.4796 38.087 13.4615ZM49.5911 27.2418L63.669 3.00409C64.8339 0.980532 64.334-1.63624 62.2012-2.85884C60.0681-4.082 57.663-3.24506 56.4409-1.10182L42.3795 23.1252C41.214 25.154 41.6574 27.7191 43.7957 28.942C45.9285 30.1646 48.4314 29.2654 49.5911 27.2418ZM76.9596 13.456L82.9944 3.06062C84.1593 1.03735 83.6595-1.58492 81.5212-2.81301C79.3771-4.03617 77.0455-3.25084 75.7609-1.0505L69.7261 9.35036C68.5606 11.3681 69.0039 13.9333 71.1477 15.1562C73.286 16.3788 75.7999 15.4741 76.9596 13.456ZM88.4637 27.2363L102.542 2.99832C103.707 0.975041 103.207-1.63624 101.074-2.86433C98.9407-4.0875 96.5411-3.25056 95.3136-1.10731L81.2522 23.1197C80.0867 25.1485 80.53 27.7136 82.6683 28.9365C84.8011 30.1591 87.304 29.2599 88.4637 27.2363Z"/>
  </g>
  <g id="Heavy-M" transform="matrix(1 0 0 1 2571.37 1126)">
   <path d="M34.7028-14.1557L96.2993-14.1557C113.686-14.1557 126.9-27.4085 126.9-44.2275C126.9-61.2611 113.7-74.4546 96.2123-74.4546C90.5426-85.3952 80.0192-94.0388 62.9849-94.0388C43.1526-94.0388 27.8207-79.69 25.2457-61.3413C15.8364-58.0956 8.72266-49.8386 8.72266-38.5868C8.72266-24.8133 19.0609-14.1557 34.7028-14.1557ZM35.1062-27.5908C26.4281-27.5908 22.1601-32.1092 22.1601-38.3467C22.1601-43.933 25.6751-48.1182 33.3822-50.1289C36.5754-50.9502 37.4374-52.3927 37.8979-55.6097C40.1631-71.8431 50.3019-80.6014 62.9849-80.6014C72.5337-80.6014 80.5314-75.167 85.8981-65.004C87.296-62.3477 88.824-61.39 92.1147-61.39C106.701-61.39 113.463-53.7049 113.463-43.9556C113.463-34.7418 106.508-27.5908 96.0085-27.5908ZM36.8758 11.6222L42.9898 1.07814C44.0829-0.831705 43.5959-3.22472 41.6197-4.37335C39.6295-5.50102 37.4568-4.79584 36.26-2.75512L30.1296 7.80309C29.0574 9.68239 29.4963 12.0482 31.4888 13.1781C33.465 14.3104 35.8013 13.4993 36.8758 11.6222ZM48.3388 25.4244L62.5042 1.01584C63.5974-0.877601 63.1103-3.27062 61.1506-4.40283C59.1931-5.5305 56.9277-4.79811 55.7909-2.80102L41.6746 21.5724C40.586 23.4845 41.0249 25.8504 43.0011 26.9803C44.9608 28.1125 47.2643 27.3178 48.3388 25.4244ZM75.7375 11.6058L81.8515 1.06401C82.9447-0.831705 82.4576-3.24113 80.4815-4.38976C78.4912-5.51742 76.3185-4.81225 75.1218-2.77153L69.0077 7.78668C67.9191 9.66598 68.358 12.0318 70.3506 13.1617C72.3267 14.2939 74.663 13.4828 75.7375 11.6058ZM87.2005 25.408L101.366 1.0017C102.459-0.89401 101.972-3.27062 100.012-4.41924C98.0549-5.54691 95.8058-4.81452 94.6526-2.81743L80.5364 21.556C79.4478 23.4681 79.8867 25.8339 81.8628 26.9639C83.8225 28.0961 86.126 27.3014 87.2005 25.408Z"/>
  </g>
  <g id="Bold-M" transform="matrix(1 0 0 1 2275.82 1126)">
   <path d="M33.6567-15.2152L94.9034-15.2152C111.818-15.2152 124.577-28.0821 124.577-44.2768C124.577-60.8018 111.547-73.3645 94.3943-73.3645C88.574-84.6983 77.7732-93.0361 61.7548-93.0361C42.4291-93.0361 27.1609-78.6722 24.9232-60.3988C15.7077-57.403 8.72266-49.3338 8.72266-38.4071C8.72266-25.4079 18.3907-15.2152 33.6567-15.2152ZM33.8849-26.7107C24.7515-26.7107 20.2233-31.5969 20.2233-38.1785C20.2233-43.8504 23.7069-48.4208 31.6113-50.4975C34.6397-51.2715 35.5333-52.656 35.9099-55.7211C37.7869-71.8467 48.5582-81.5355 61.7548-81.5355C71.7824-81.5355 80.0211-75.8991 85.3455-65.523C86.6544-62.9569 88.1453-62.04 91.2984-62.04C105.831-62.04 113.077-54.0093 113.077-44.0379C113.077-34.3386 105.594-26.7107 94.8704-26.7107ZM35.5208 9.56474L41.7236-1.146C42.7364-2.92251 42.2636-5.06523 40.4689-6.12496C38.6507-7.14579 36.6558-6.53029 35.5573-4.66814L29.326 6.06609C28.352 7.79049 28.786 9.93328 30.6093 10.9593C32.404 11.9904 34.5418 11.284 35.5208 9.56474ZM46.9379 23.3913L61.2014-1.20831C62.2142-2.95619 61.7414-5.09891 59.9753-6.13002C58.2144-7.15085 56.1051-6.53542 55.0637-4.70182L40.8861 19.8354C39.8835 21.6171 40.3175 23.7599 42.1122 24.7858C43.8783 25.8169 45.9588 25.1392 46.9379 23.3913ZM74.3703 9.53612L80.5731-1.16949C81.5859-2.92251 81.1131-5.09385 79.3184-6.15358C77.5002-7.17442 75.5054-6.55891 74.4068-4.69676L68.2041 6.03747C67.2015 7.76187 67.6355 9.90466 69.4588 10.9306C71.2535 11.9617 73.3913 11.2554 74.3703 9.53612ZM85.7874 23.3627L100.051-1.2318C101.064-2.98481 100.591-5.09891 98.8248-6.15864C97.0639-7.17948 94.9832-6.56404 93.9132-4.73044L79.7356 19.8068C78.733 21.5884 79.167 23.7312 80.9617 24.7572C82.7278 25.7883 84.8083 25.1106 85.7874 23.3627Z"/>
  </g>
  <g id="Semibold-M" transform="matrix(1 0 0 1 1979.91 1126)">
   <path d="M32.9355-15.9457L93.9411-15.9457C110.529-15.9457 122.976-28.5464 122.976-44.3108C122.976-60.4851 110.063-72.613 93.1411-72.613C87.2168-84.2179 76.2249-92.3448 60.9068-92.3448C41.9303-92.3448 26.706-77.9706 24.7008-59.7491C15.6191-56.9254 8.72266-48.9858 8.72266-38.2833C8.72266-25.8178 17.9286-15.9457 32.9355-15.9457ZM33.043-26.1039C23.5956-26.1039 18.888-31.2437 18.888-38.0625C18.888-43.7934 22.35-48.6293 30.3904-50.7516C33.3052-51.4929 34.2207-52.8375 34.5394-55.798C36.1487-71.8492 47.3562-82.1794 60.9068-82.1794C71.2645-82.1794 79.6693-76.4038 84.9644-65.8808C86.2121-63.3769 87.6773-62.4881 90.7357-62.4881C105.232-62.4881 112.81-54.2191 112.81-44.0947C112.81-34.0606 104.965-26.1039 94.0858-26.1039ZM34.5868 8.14632L40.8506-2.67932C41.8081-4.36389 41.3452-6.33406 39.6755-7.33251C37.9759-8.27969 36.1037-7.726 35.0728-5.98695L28.772 4.86862C27.8658 6.48622 28.2963 8.47527 30.003 9.42957C31.6726 10.391 33.6735 9.75682 34.5868 8.14632ZM45.9721 21.9897L60.3031-2.74162C61.2606-4.38916 60.7977-6.35932 59.1651-7.32073C57.5396-8.26792 55.538-7.73311 54.5624-6.01222L40.3425 18.638C39.3992 20.3296 39.8298 22.3187 41.4994 23.273C43.132 24.2344 45.0588 23.6373 45.9721 21.9897ZM73.4279 8.10928L79.6917-2.70925C80.6491-4.36389 80.1862-6.3711 78.5166-7.36955C76.817-8.31674 74.9447-7.76305 73.9139-6.024L67.6501 4.83158C66.7069 6.44918 67.1374 8.43823 68.8441 9.39253C70.5137 10.3539 72.5145 9.71978 73.4279 8.10928ZM84.8132 21.9527L99.1442-2.77156C100.102-4.4262 99.6388-6.35932 98.0062-7.35777C96.3807-8.30496 94.4162-7.77015 93.4035-6.04926L79.1836 18.6009C78.2403 20.2926 78.6709 22.2817 80.3405 23.2359C81.9731 24.1973 83.8998 23.6002 84.8132 21.9527Z"/>
  </g>
  <g id="Medium-M" transform="matrix(1 0 0 1 1683.81 1126)">
   <path d="M32.3887-16.4995L93.2114-16.4995C109.553-16.4995 121.762-28.8985 121.762-44.3366C121.762-60.245 108.938-72.0432 92.1908-72.0432C86.1877-83.8536 75.0509-91.8206 60.2638-91.8206C41.5521-91.8206 26.3611-77.4385 24.5323-59.2565C15.5518-56.5633 8.72266-48.722 8.72266-38.1894C8.72266-26.1286 17.5782-16.4995 32.3887-16.4995ZM32.4046-25.6438C22.7192-25.6438 17.8756-30.9759 17.8756-37.9746C17.8756-43.7502 21.3212-48.7875 29.4647-50.9443C32.2933-51.6609 33.2254-52.9751 33.5002-55.8562C34.9065-71.8511 46.4447-82.6677 60.2638-82.6677C70.8718-82.6677 79.4025-76.7865 84.6755-66.1521C85.8767-63.6954 87.3225-62.8279 90.309-62.8279C104.778-62.8279 112.609-54.3782 112.609-44.1377C112.609-33.8499 104.488-25.6438 93.4909-25.6438ZM33.8785 7.07082L40.1887-3.84194C41.1042-5.45681 40.6487-7.29614 39.0739-8.24812C37.4643-9.13947 35.685-8.63265 34.7055-6.98694L28.3519 3.96065C27.4971 5.49727 27.925 7.36975 29.5432 8.2697C31.118 9.17825 33.0151 8.59884 33.8785 7.07082ZM45.2398 20.927L59.6221-3.90424C60.5376-5.47569 60.0821-7.31502 58.5508-8.22357C57.028-9.11492 55.1081-8.64125 54.1823-7.00582L39.9303 17.73C39.032 19.3535 39.46 21.2259 41.0348 22.1259C42.5662 23.0344 44.3763 22.4985 45.2398 20.927ZM72.7132 7.02739L79.0234-3.87676C79.9389-5.45681 79.4834-7.33957 77.9086-8.29155C76.299-9.18289 74.5197-8.67607 73.5402-7.03036L67.23 3.91722C66.3318 5.45385 66.7597 7.32632 68.3779 8.22627C69.9527 9.13482 71.8498 8.55542 72.7132 7.02739ZM84.0745 20.8836L98.4568-3.93907C99.3723-5.51912 98.9168-7.31502 97.3855-8.267C95.8627-9.15834 93.9862-8.68467 93.017-7.04924L78.765 17.6866C77.8667 19.31 78.2947 21.1825 79.8695 22.0825C81.4009 22.991 83.211 22.455 84.0745 20.8836Z"/>
  </g>
  <g id="Regular-M" transform="matrix(1 0 0 1 1387.89 1126)">
   <path d="M31.6754-17.2219L92.2597-17.2219C108.279-17.2219 120.178-29.3578 120.178-44.3702C120.178-59.9318 107.47-71.2999 90.9513-71.2999C84.8454-83.3785 73.5195-91.1369 59.4251-91.1369C41.0588-91.1369 25.9112-76.7445 24.3124-58.6139C15.4641-56.091 8.72266-48.3778 8.72266-38.0669C8.72266-26.534 17.1212-17.2219 31.6754-17.2219ZM31.5719-25.0437C21.5761-25.0437 16.555-30.6265 16.555-37.8599C16.555-43.6939 19.9792-48.9938 28.2572-51.1956C30.9735-51.8799 31.9272-53.1546 32.1447-55.9322C33.2863-71.8536 45.2558-83.3046 59.4251-83.3046C70.3596-83.3046 79.0546-77.2857 84.2987-66.5059C85.4393-64.1107 86.8597-63.2711 89.7524-63.2711C104.185-63.2711 112.345-54.5856 112.345-44.1939C112.345-33.5749 103.865-25.0437 92.7149-25.0437ZM32.9547 5.66799L39.3253-5.3584C40.1861-6.88236 39.7404-8.55103 38.2893-9.4424C36.797-10.2609 35.1388-9.81522 34.2264-8.29126L27.804 2.77633C27.0161 4.20734 27.4407 5.92776 28.9436 6.75682C30.3947 7.59643 32.1563 7.08845 32.9547 5.66799ZM44.2846 19.5408L58.7338-5.42071C59.5945-6.89291 59.1488-8.56158 57.7494-9.40119C56.3606-10.2197 54.5473-9.82577 53.6865-8.30181L39.3927 16.5457C38.553 18.0802 38.9776 19.8006 40.4287 20.6297C41.8281 21.4693 43.4862 21.013 44.2846 19.5408ZM71.7811 5.61624L78.1517-5.3996C79.0124-6.88236 78.5667-8.60279 77.1156-9.49415C75.6233-10.3127 73.9652-9.86698 73.0527-8.34302L66.6821 2.72458C65.8425 4.15558 66.2671 5.87601 67.7699 6.70507C69.221 7.54468 70.9827 7.03669 71.7811 5.61624ZM83.111 19.4891L97.5601-5.46191C98.4208-6.94467 97.9752-8.56158 96.5758-9.45295C95.187-10.2715 93.4254-9.87753 92.5129-8.35357L78.219 16.4939C77.3794 18.0284 77.804 19.7489 79.2551 20.5779C80.6545 21.4175 82.3126 20.9613 83.111 19.4891Z"/>
  </g>
  <g id="Light-M" transform="matrix(1 0 0 1 1091.59 1126)">
   <path d="M31.0081-17.0679L91.9346-17.0679C107.56-17.0679 119.356-28.8787 119.356-43.5831C119.356-58.717 106.854-69.8284 90.6262-69.8284C84.5203-82.0952 73.5195-90.0076 59.1-90.0076C41.0588-90.0076 26.2021-75.6152 24.6375-57.4846C15.6866-55.0131 8.72266-47.5223 8.72266-37.2627C8.72266-26.1233 16.8988-17.0679 31.0081-17.0679ZM30.9388-23.0247C20.2927-23.0247 14.707-29.2748 14.707-37.1241C14.707-43.8308 18.9355-49.5413 27.4017-51.7773C29.6731-52.359 30.4556-53.3771 30.6219-55.6071C31.695-71.7852 44.3832-84.0232 59.1-84.0232C71.0953-84.0232 80.1497-77.337 85.4109-66.4546C86.3804-64.4187 87.5784-63.7331 90.0091-63.7331C104.305-63.7331 113.372-54.6028 113.372-43.4239C113.372-32.1547 104.173-23.0247 92.2187-23.0247ZM31.4318 6.16421L38.3329-5.76906C39.0738-7.03636 38.7137-8.37992 37.5364-9.10018C36.3521-9.73047 35.0362-9.37034 34.2606-8.10304L27.3249 3.83721C26.6739 5.06288 26.9787 6.44109 28.1907 7.09904C29.368 7.78465 30.7532 7.36222 31.4318 6.16421ZM42.8473 20.0028L57.7927-5.83137C58.5336-7.06402 58.1735-8.40759 57.0308-9.0932C55.9157-9.72349 54.4959-9.398 53.755-8.1307L38.9136 17.6065C38.2279 18.9015 38.5327 20.2797 39.7101 20.9377C40.8528 21.6233 42.1687 21.2355 42.8473 20.0028ZM70.2753 6.12957L77.1764-5.77604C77.9173-7.03636 77.5572-8.41457 76.3799-9.13482C75.1956-9.76511 73.8797-9.40498 73.1041-8.13769L66.203 3.80257C65.5174 5.02824 65.8222 6.40645 67.0342 7.0644C68.2115 7.75001 69.5967 7.32758 70.2753 6.12957ZM81.6908 19.9682L96.6361-5.83835C97.3771-7.09866 97.0169-8.40759 95.8743-9.12784C94.7592-9.75813 93.374-9.43264 92.5985-8.16535L77.757 17.5719C77.0714 18.8669 77.3762 20.2451 78.5536 20.903C79.6962 21.5886 81.0121 21.2008 81.6908 19.9682Z"/>
  </g>
  <g id="Thin-M" transform="matrix(1 0 0 1 795.418 1126)">
   <path d="M30.1255-16.8643L91.5046-16.8643C106.609-16.8643 118.27-28.245 118.27-42.5421C118.27-57.1102 106.039-67.8822 90.1962-67.8822C84.0903-80.3979 73.5195-88.514 58.67-88.514C41.0588-88.514 26.5868-74.1216 25.0675-55.9909C15.9808-53.5873 8.72266-46.3907 8.72266-36.199C8.72266-25.5802 16.6046-16.8643 30.1255-16.8643ZM30.1015-20.3542C18.5954-20.3542 12.2629-27.4869 12.2629-36.151C12.2629-44.0118 17.555-50.2655 26.2701-52.5468C27.9532-52.9927 28.5094-53.6713 28.6078-55.1772C29.5904-71.6946 43.229-84.9737 58.67-84.9737C72.0684-84.9737 81.598-77.4049 86.8819-66.3867C87.6251-64.8261 88.5289-64.3441 90.3485-64.3441C104.463-64.3441 114.73-54.6254 114.73-42.4055C114.73-30.2764 104.58-20.3542 91.5624-20.3542ZM29.4177 6.8205L37.0203-6.3122C37.6029-7.24004 37.3559-8.15362 36.5406-8.64757C35.7637-9.02892 34.9004-8.78194 34.3059-7.85411L26.6912 5.24031C26.2213 6.19441 26.3677 7.12001 27.1949 7.55165C28.0102 8.03359 28.8975 7.72431 29.4177 6.8205ZM40.9463 20.6139L56.548-6.3745C57.1305-7.29033 56.8835-8.20391 56.0803-8.68585C55.3274-9.0672 54.428-8.83224 53.8455-7.9044L38.2799 19.0096C37.798 19.9878 37.9443 20.9134 38.7596 21.345C39.5628 21.8269 40.4261 21.5297 40.9463 20.6139ZM68.2838 6.80848L75.8864-6.27392C76.469-7.24004 76.222-8.16563 75.4068-8.65958C74.6298-9.04093 73.7665-8.79396 73.172-7.86612L65.5693 5.2283C65.0874 6.1824 65.2338 7.108 66.0611 7.53964C66.8763 8.02158 67.7636 7.7123 68.2838 6.80848ZM79.8124 20.6018L95.4141-6.33622C95.9966-7.30234 95.7496-8.20391 94.9464-8.69786C94.1935-9.07921 93.3062-8.84425 92.7116-7.91641L77.146 18.9976C76.6641 19.9758 76.8105 20.9014 77.6257 21.333C78.4289 21.8149 79.2922 21.5177 79.8124 20.6018Z"/>
  </g>
  <g id="Ultralight-M" transform="matrix(1 0 0 1 498.985 1126)">
   <path d="M29.6734-16.7599L91.2844-16.7599C106.123-16.7599 117.714-27.9205 117.714-42.0089C117.714-56.2872 105.622-66.8853 89.976-66.8853C83.8701-79.5285 73.5195-87.749 58.4498-87.749C41.0588-87.749 26.7839-73.3566 25.2877-55.2259C16.1314-52.8571 8.72266-45.8112 8.72266-35.6543C8.72266-25.302 16.4539-16.7599 29.6734-16.7599ZM29.6726-18.9865C17.7261-18.9865 11.0111-26.5712 11.0111-35.6526C11.0111-44.1045 16.8479-50.6364 25.6906-52.9409C27.0722-53.3172 27.5126-53.822 27.5761-54.9569C28.5124-71.6483 42.6379-85.4605 58.4498-85.4605C72.5669-85.4605 82.3399-77.4397 87.6353-66.3519C88.2626-65.0347 89.0157-64.6571 90.5224-64.6571C104.544-64.6571 115.425-54.637 115.425-41.8839C115.425-29.3143 104.789-18.9865 91.2263-18.9865ZM28.3861 7.15664L36.348-6.59039C36.8494-7.34436 36.6604-8.0377 36.0306-8.41574C35.4623-8.66959 34.8308-8.48057 34.329-7.7266L26.3667 5.95897C25.9895 6.77398 26.0547 7.46775 26.6849 7.78348C27.3147 8.16109 27.947 7.90977 28.3861 7.15664ZM39.9727 20.9268L55.9105-6.65269C56.4118-7.40624 56.2228-8.09959 55.5935-8.4772C55.026-8.73105 54.3933-8.54245 53.8919-7.78849L37.9553 19.7283C37.5777 20.5442 37.643 21.2379 38.2728 21.5537C38.9021 21.9313 39.5336 21.6804 39.9727 20.9268ZM67.2638 7.15622L75.2257-6.52893C75.7271-7.34436 75.5381-8.03813 74.9083-8.41616C74.34-8.67001 73.7085-8.48099 73.2067-7.72702L65.2448 5.95855C64.8672 6.77356 64.9324 7.46733 65.5626 7.78306C66.1924 8.16067 66.8247 7.90935 67.2638 7.15622ZM78.8504 20.9264L94.7882-6.59123C95.2895-7.40666 95.1005-8.09959 94.4712-8.47762C93.9037-8.73147 93.2714-8.54288 92.7696-7.78891L76.833 19.7279C76.4554 20.5437 76.5207 21.2375 77.1505 21.5532C77.7798 21.9309 78.4113 21.6799 78.8504 20.9264Z"/>
  </g>
  <g id="Black-S" transform="matrix(1 0 0 1 2881.11 696)">
   <path d="M28.1738-17.6758L76.8066-17.6758C90.8691-17.6758 101.66-28.418 101.66-42.1875C101.66-56.0059 91.1621-66.9434 77.1484-66.9434C72.8516-75.1465 64.8926-82.2266 50.5371-82.2266C34.5215-82.2266 22.4609-70.9961 20.1172-56.543C12.5488-53.7598 6.83594-47.1191 6.83594-37.9883C6.83594-26.4648 15.5762-17.6758 28.1738-17.6758ZM28.6621-29.9805C22.2656-29.9805 19.1406-33.2031 19.1406-37.793C19.1406-42.1387 21.9727-45.0684 27.832-46.582C30.4688-47.2656 31.1035-48.4375 31.543-51.0742C33.6914-63.916 41.0645-69.9219 50.5371-69.9219C57.6172-69.9219 63.6719-65.8203 67.9199-58.0566C69.0918-55.9082 70.3125-55.127 72.998-55.127C84.4727-55.127 89.3555-49.4141 89.3555-41.9434C89.3555-35.1562 84.375-29.9805 76.3184-29.9805ZM30.127 3.51562L34.8633-4.63867C35.791-6.25 35.4004-8.34961 33.6914-9.32617C31.9824-10.3027 30.127-9.66797 29.1016-7.91016L24.3652 0.244141C23.4375 1.85547 23.7793 3.90625 25.4883 4.88281C27.1973 5.85938 29.1992 5.12695 30.127 3.51562ZM39.1602 14.3066L50.1953-4.6875C51.123-6.29883 50.7324-8.39844 49.0234-9.375C47.3145-10.3516 45.4102-9.66797 44.4336-7.95898L33.3984 11.0352C32.4707 12.6465 32.8125 14.6973 34.5215 15.6738C36.2305 16.6504 38.2324 15.918 39.1602 14.3066ZM60.5957 3.51562L65.332-4.63867C66.2598-6.25 65.8691-8.34961 64.1602-9.32617C62.4512-10.3027 60.5957-9.66797 59.5703-7.91016L54.834 0.244141C53.9062 1.85547 54.248 3.90625 55.957 4.88281C57.666 5.85938 59.668 5.12695 60.5957 3.51562ZM69.6289 14.3066L80.6641-4.6875C81.5918-6.29883 81.2012-8.39844 79.4922-9.375C77.7832-10.3516 75.8789-9.66797 74.9023-7.95898L63.8672 11.0352C62.9395 12.6465 63.2812 14.6973 64.9902 15.6738C66.6992 16.6504 68.7012 15.918 69.6289 14.3066Z"/>
  </g>
  <g id="Heavy-S" transform="matrix(1 0 0 1 2585.23 696)">
   <path d="M27.4593-18.5055L75.781-18.5055C89.5323-18.5055 99.9891-28.9942 99.9891-42.3258C99.9891-55.8099 89.5948-66.298 75.8001-66.298C71.388-74.7777 63.1754-81.6042 49.6382-81.6042C33.9683-81.6042 21.9193-70.3622 19.8291-55.9667C12.4221-53.3679 6.83594-46.8426 6.83594-37.9537C6.83594-26.9719 15.0921-18.5055 27.4593-18.5055ZM27.8093-29.5656C21.1478-29.5656 17.896-32.9842 17.896-37.7584C17.896-42.058 20.6012-45.2297 26.5874-46.7895C29.155-47.45 29.8358-48.6104 30.2177-51.201C32.078-63.9275 39.8429-70.5442 49.6382-70.5442C56.9488-70.5442 63.1417-66.3735 67.3552-58.46C68.481-56.3346 69.7017-55.5649 72.3412-55.5649C83.7927-55.5649 88.9291-49.6446 88.9291-42.1047C88.9291-35.0295 83.6374-29.5656 75.5116-29.5656ZM29.2857 1.87915L34.022-6.28667C34.9036-7.82885 34.513-9.77864 32.9077-10.7091C31.291-11.628 29.5277-11.0509 28.5599-9.39681L23.8121-1.21947C22.9419 0.299666 23.2953 2.22368 24.9121 3.14262C26.5173 4.06156 28.4156 3.39828 29.2857 1.87915ZM38.2728 12.6932L49.3195-6.3355C50.2011-7.86616 49.8105-9.81595 48.2167-10.7349C46.623-11.6538 44.7878-11.0509 43.8689-9.43412L32.8568 9.57155C31.9752 11.1137 32.3285 13.0377 33.9337 13.9567C35.5275 14.8756 37.4027 14.2239 38.2728 12.6932ZM59.7429 1.86763L64.4792-6.29819C65.3609-7.82885 64.9702-9.79017 63.365-10.7206C61.7482-11.6396 59.9849-11.0624 59.0171-9.40834L54.2808-1.23099C53.3992 0.288141 53.7525 2.21215 55.3693 3.13109C56.9745 4.05003 58.8728 3.38676 59.7429 1.86763ZM68.73 12.6817L79.7767-6.34702C80.6583-7.87768 80.2677-9.81595 78.674-10.7464C77.0802-11.6654 75.2566-11.0624 74.3261-9.44564L63.314 9.56002C62.4324 11.1022 62.7857 13.0262 64.391 13.9452C65.9847 14.8641 67.8599 14.2123 68.73 12.6817Z"/>
  </g>
  <g id="Bold-S" transform="matrix(1 0 0 1 2289.45 696)">
   <path d="M26.6602-19.4336L74.6338-19.4336C88.0371-19.4336 98.1201-29.6387 98.1201-42.4805C98.1201-55.5908 87.8418-65.5762 74.292-65.5762C69.751-74.3652 61.2549-80.9082 48.6328-80.9082C33.3496-80.9082 21.3135-69.6533 19.5068-55.3223C12.2803-52.9297 6.83594-46.5332 6.83594-37.915C6.83594-27.5391 14.5508-19.4336 26.6602-19.4336ZM26.8555-29.1016C19.8975-29.1016 16.5039-32.7393 16.5039-37.7197C16.5039-41.9678 19.0674-45.4102 25.1953-47.0215C27.6855-47.6562 28.418-48.8037 28.7354-51.3428C30.2734-63.9404 38.4766-71.2402 48.6328-71.2402C56.2012-71.2402 62.5488-66.9922 66.7236-58.9111C67.7979-56.8115 69.0186-56.0547 71.6064-56.0547C83.0322-56.0547 88.4521-49.9023 88.4521-42.2852C88.4521-34.8877 82.8125-29.1016 74.6094-29.1016ZM28.3447 0.0488281L33.0811-8.12988C33.9111-9.59473 33.5205-11.377 32.0312-12.2559C30.5176-13.1104 28.8574-12.5977 27.9541-11.0596L23.1934-2.85645C22.3877-1.44043 22.7539 0.341797 24.2676 1.19629C25.7568 2.05078 27.5391 1.46484 28.3447 0.0488281ZM37.2803 10.8887L48.3398-8.17871C49.1699-9.61914 48.7793-11.4014 47.3145-12.2559C45.8496-13.1104 44.0918-12.5977 43.2373-11.084L32.251 7.93457C31.4209 9.39941 31.7871 11.1816 33.2764 12.0361C34.7412 12.8906 36.4746 12.3291 37.2803 10.8887ZM58.7891 0.0244141L63.5254-8.1543C64.3555-9.59473 63.9648-11.4014 62.4756-12.2803C60.9619-13.1348 59.3018-12.6221 58.3984-11.084L53.6621-2.88086C52.832-1.46484 53.1982 0.317383 54.7119 1.17188C56.2012 2.02637 57.9834 1.44043 58.7891 0.0244141ZM67.7246 10.8643L78.7842-8.20312C79.6143-9.64355 79.2236-11.4014 77.7588-12.2803C76.2939-13.1348 74.5605-12.6221 73.6816-11.1084L62.6953 7.91016C61.8652 9.375 62.2314 11.1572 63.7207 12.0117C65.1855 12.8662 66.9189 12.3047 67.7246 10.8643Z"/>
  </g>
  <g id="Semibold-S" transform="matrix(1 0 0 1 1993.39 696)">
   <path d="M26.1092-20.0734L73.8429-20.0734C87.0062-20.0734 96.8315-30.083 96.8315-42.5871C96.8315-55.4397 86.6332-65.0785 73.2522-65.0785C68.6224-74.0809 59.9308-80.4283 47.9396-80.4283C32.923-80.4283 20.8958-69.1646 19.2847-54.8779C12.1825-52.6275 6.83594-46.3199 6.83594-37.8884C6.83594-27.9301 14.1775-20.0734 26.1092-20.0734ZM26.1979-28.7816C19.0354-28.7816 15.5441-32.5704 15.5441-37.6931C15.5441-41.9056 18.0099-45.5346 24.2355-47.1814C26.6725-47.7984 27.4404-48.937 27.7134-51.4405C29.0293-63.9493 37.5346-71.7201 47.9396-71.7201C55.6857-71.7201 62.14-67.4188 66.2882-59.2222C67.3269-57.1403 68.5476-56.3924 71.0999-56.3924C82.5079-56.3924 88.1233-50.0801 88.1233-42.4096C88.1233-34.7899 82.2438-28.7816 73.9873-28.7816ZM27.696-1.21309L32.4323-9.40068C33.2269-10.8122 32.8362-12.4789 31.427-13.3223C29.9844-14.1323 28.3953-13.6641 27.5364-12.206L22.7668-3.98506C22.0056-2.64014 22.3807-0.955664 23.8232-0.145605C25.2325 0.664453 26.9348 0.131836 27.696-1.21309ZM36.596 9.64453L47.6645-9.44951C48.459-10.8277 48.0684-12.4944 46.6924-13.3045C45.3164-14.1146 43.6119-13.6641 42.8019-12.2215L31.8333 6.80596C31.0388 8.21748 31.4139 9.90195 32.8231 10.712C34.1991 11.5221 35.8348 11.0228 36.596 9.64453ZM58.1314-1.24639L62.8678-9.43398C63.6623-10.8122 63.2717-12.5122 61.8624-13.3556C60.4198-14.1656 58.8308-13.6974 57.9719-12.2393L53.2355-4.01836C52.441-2.67344 52.8161-0.988965 54.2587-0.178906C55.668 0.631152 57.3702 0.0985352 58.1314-1.24639ZM67.0314 9.61123L78.0999-9.48281C78.8944-10.861 78.5038-12.4944 77.1278-13.3378C75.7519-14.1479 74.0807-13.6974 73.2373-12.2548L62.2687 6.77266C61.4742 8.18418 61.8493 9.86865 63.2586 10.6787C64.6346 11.4888 66.2702 10.9895 67.0314 9.61123Z"/>
  </g>
  <g id="Medium-S" transform="matrix(1 0 0 1 1697.16 696)">
   <path d="M25.6914-20.5586L73.2432-20.5586C86.2246-20.5586 95.8545-30.4199 95.8545-42.668C95.8545-55.3252 85.7168-64.7012 72.4639-64.7012C67.7666-73.8652 58.9268-80.0645 47.4141-80.0645C32.5996-80.0645 20.5791-68.7939 19.1162-54.541C12.1084-52.3984 6.83594-46.1582 6.83594-37.8682C6.83594-28.2266 13.8945-20.5586 25.6914-20.5586ZM25.6992-28.5391C18.3818-28.5391 14.8164-32.4424 14.8164-37.6729C14.8164-41.8584 17.208-45.6289 23.5078-47.3027C25.9043-47.9062 26.6992-49.0381 26.9385-51.5146C28.0859-63.9561 36.8203-72.084 47.4141-72.084C55.2949-72.084 61.8301-67.7422 65.958-59.458C66.9697-57.3896 68.1904-56.6484 70.7158-56.6484C82.1104-56.6484 87.874-50.2148 87.874-42.5039C87.874-34.7158 81.8125-28.5391 73.5156-28.5391ZM27.2041-2.16992L31.9404-10.3643C32.708-11.7354 32.3174-13.3145 30.9688-14.1309C29.5801-14.9072 28.0449-14.4727 27.2197-13.0752L22.4434-4.84082C21.7158-3.5498 22.0977-1.93945 23.4863-1.16309C24.835-0.386719 26.4766-0.878906 27.2041-2.16992ZM36.0771 8.70117L47.1523-10.4131C47.9199-11.7441 47.5293-13.3232 46.2207-14.0996C44.9121-14.876 43.248-14.4727 42.4717-13.084L31.5166 5.9502C30.749 7.32129 31.1309 8.93164 32.4795 9.70801C33.7881 10.4844 35.3496 10.0322 36.0771 8.70117ZM57.6328-2.20996L62.3691-10.4043C63.1367-11.7354 62.7461-13.3545 61.3975-14.1709C60.0088-14.9473 58.4736-14.5127 57.6484-13.1152L52.9121-4.88086C52.1445-3.58984 52.5264-1.97949 53.915-1.20312C55.2637-0.426758 56.9053-0.918945 57.6328-2.20996ZM66.5059 8.66113L77.5811-10.4531C78.3486-11.7842 77.958-13.3232 76.6494-14.1396C75.3408-14.916 73.7168-14.5127 72.9004-13.124L61.9453 5.91016C61.1777 7.28125 61.5596 8.8916 62.9082 9.66797C64.2168 10.4443 65.7783 9.99219 66.5059 8.66113Z"/>
  </g>
  <g id="Regular-S" transform="matrix(1 0 0 1 1401.09 696)">
   <path d="M25.1465-21.1914L72.4609-21.1914C85.2051-21.1914 94.5801-30.8594 94.5801-42.7734C94.5801-55.1758 84.5215-64.209 71.4355-64.209C66.6504-73.584 57.6172-79.5898 46.7285-79.5898C32.1777-79.5898 20.166-68.3105 18.8965-54.1016C12.0117-52.0996 6.83594-45.9473 6.83594-37.8418C6.83594-28.6133 13.5254-21.1914 25.1465-21.1914ZM25.0488-28.2227C17.5293-28.2227 13.8672-32.2754 13.8672-37.6465C13.8672-41.7969 16.1621-45.752 22.5586-47.4609C24.9023-48.0469 25.7324-49.1699 25.9277-51.6113C26.8555-63.9648 35.8887-72.5586 46.7285-72.5586C54.7852-72.5586 61.4258-68.1641 65.5273-59.7656C66.5039-57.7148 67.7246-56.9824 70.2148-56.9824C81.5918-56.9824 87.5488-50.3906 87.5488-42.627C87.5488-34.6191 81.25-28.2227 72.9004-28.2227ZM26.5625-3.41797L31.2988-11.6211C32.0312-12.9395 31.6406-14.4043 30.3711-15.1855C29.0527-15.918 27.5879-15.5273 26.8066-14.209L22.0215-5.95703C21.3379-4.73633 21.7285-3.22266 23.0469-2.49023C24.3164-1.75781 25.8789-2.19727 26.5625-3.41797ZM35.4004 7.4707L46.4844-11.6699C47.2168-12.9395 46.8262-14.4043 45.6055-15.1367C44.3848-15.8691 42.7734-15.5273 42.041-14.209L31.1035 4.83398C30.3711 6.15234 30.7617 7.66602 32.0312 8.39844C33.252 9.13086 34.7168 8.74023 35.4004 7.4707ZM56.9824-3.4668L61.7188-11.6699C62.4512-12.9395 62.0605-14.4531 60.791-15.2344C59.4727-15.9668 58.0078-15.5762 57.2266-14.2578L52.4902-6.00586C51.7578-4.78516 52.1484-3.27148 53.4668-2.53906C54.7363-1.80664 56.2988-2.24609 56.9824-3.4668ZM65.8203 7.42188L76.9043-11.7188C77.6367-12.9883 77.2461-14.4043 76.0254-15.1855C74.8047-15.918 73.2422-15.5762 72.4609-14.2578L61.5234 4.78516C60.791 6.10352 61.1816 7.61719 62.4512 8.34961C63.6719 9.08203 65.1367 8.69141 65.8203 7.42188Z"/>
  </g>
  <g id="Light-S" transform="matrix(1 0 0 1 1104.74 696)">
   <path d="M24.5562-21.0552L72.1733-21.0552C84.5693-21.0552 93.8535-30.4356 93.8535-42.0772C93.8535-54.1011 83.9766-62.9072 71.148-62.9072C66.3628-72.4487 57.6172-78.5908 46.4409-78.5908C32.1777-78.5908 20.4233-67.3115 19.1841-53.1025C12.2085-51.146 6.83594-45.1904 6.83594-37.1304C6.83594-28.25 13.3286-21.0552 24.5562-21.0552ZM24.4888-26.4365C16.3941-26.4365 12.2324-31.0796 12.2324-36.9956C12.2324-41.918 15.2388-46.2363 21.8018-47.9756C23.752-48.4707 24.4307-49.3667 24.5806-51.3237C25.4478-63.9043 35.1167-73.1943 46.4409-73.1943C55.436-73.1943 62.3945-68.2095 66.5112-59.7202C67.3364-57.9873 68.3603-57.3911 70.4419-57.3911C81.6978-57.3911 88.457-50.4058 88.457-41.9458C88.457-33.3628 81.5225-26.4365 72.4614-26.4365ZM25.2153-2.97901L30.4209-11.9844C31.0474-13.0757 30.7324-14.2529 29.7051-14.8828C28.6592-15.4487 27.4971-15.1338 26.8369-14.0425L21.5977-5.01856C21.0352-3.9795 21.3198-2.76856 22.3809-2.1875C23.4082-1.59131 24.6377-1.95508 25.2153-2.97901ZM34.1289 7.87939L45.6519-12.0332C46.2783-13.0908 45.9634-14.2681 44.9697-14.8643C43.9912-15.4302 42.728-15.1489 42.1016-14.0576L30.6797 5.77245C30.0835 6.8789 30.3682 8.08984 31.3955 8.6709C32.3892 9.26709 33.5513 8.93701 34.1289 7.87939ZM55.6504-3.0127L60.856-12.0029C61.4824-13.0757 61.1675-14.2866 60.1401-14.9165C59.0942-15.4824 57.9321-15.1675 57.272-14.0762L52.0664-5.05225C51.4702-4.01319 51.7549-2.80225 52.8159-2.22119C53.8433-1.625 55.0728-1.98877 55.6504-3.0127ZM64.564 7.8457L76.0869-12.0518C76.7134-13.1245 76.3984-14.2681 75.4048-14.898C74.4263-15.4639 73.1968-15.1826 72.5366-14.0913L61.1147 5.73876C60.5186 6.84521 60.8032 8.05615 61.8306 8.6372C62.8242 9.2334 63.9863 8.90332 64.564 7.8457Z"/>
  </g>
  <g id="Thin-S" transform="matrix(1 0 0 1 808.511 696)">
   <path d="M23.7754-20.875L71.793-20.875C83.7285-20.875 92.8926-29.875 92.8926-41.1563C92.8926-52.6797 83.2559-61.1856 70.7676-61.1856C65.9824-70.9473 57.6172-77.2695 46.0606-77.2695C32.1777-77.2695 20.7637-65.9903 19.5644-51.7813C12.4687-49.8848 6.83594-44.1895 6.83594-36.1895C6.83594-27.7695 13.0684-20.875 23.7754-20.875ZM23.7481-24.0743C14.8926-24.0743 10.0703-29.4981 10.0703-36.1348C10.0703-42.0781 14.0176-46.8769 20.8008-48.6562C22.2305-49.0312 22.709-49.6269 22.7989-50.9434C23.586-63.8242 34.0957-74.0351 46.0606-74.0351C56.2969-74.0351 63.6758-68.2695 67.8125-59.6602C68.4375-58.3477 69.2012-57.9316 70.7422-57.9316C81.8379-57.9316 89.6582-50.4258 89.6582-41.0449C89.6582-31.7012 81.8828-24.0743 71.8809-24.0743ZM23.4336-2.39845L29.2598-12.4648C29.7461-13.2559 29.5313-14.0527 28.8242-14.4824C28.1387-14.8281 27.377-14.6133 26.877-13.8223L21.0371-3.77736C20.6348-2.97853 20.7793-2.16798 21.5-1.78711C22.207-1.3711 22.9961-1.63477 23.4336-2.39845ZM32.4473 8.41991L44.5508-12.5137C45.0371-13.291 44.8223-14.0879 44.1289-14.5039C43.4707-14.8496 42.668-14.6484 42.1816-13.8574L30.1191 7.01365C29.7031 7.83983 29.8477 8.65038 30.5547 9.03125C31.2481 9.44726 32.0098 9.19726 32.4473 8.41991ZM53.8887-2.41212L59.7149-12.4434C60.2012-13.2559 59.9863-14.0664 59.2793-14.4961C58.5938-14.8418 57.832-14.627 57.332-13.8359L51.5059-3.79103C51.0898-2.9922 51.2344-2.18165 51.9551-1.80079C52.6621-1.38477 53.4512-1.64844 53.8887-2.41212ZM62.9024 8.40624L75.0059-12.4922C75.4922-13.3047 75.2774-14.0879 74.584-14.5176C73.9258-14.8633 73.1367-14.6621 72.6367-13.8711L60.5742 6.99998C60.1582 7.82616 60.3027 8.63671 61.0098 9.01757C61.7031 9.43359 62.4649 9.18359 62.9024 8.40624Z"/>
  </g>
  <g id="Ultralight-S" transform="matrix(1 0 0 1 512.046 696)">
   <path d="M23.3755-20.7827L71.5982-20.7827C83.2979-20.7827 92.4004-29.5879 92.4004-40.6846C92.4004-51.9517 82.8867-60.3037 70.5728-60.3037C65.7876-70.1782 57.6172-76.5928 45.8657-76.5928C32.1777-76.5928 20.938-65.3135 19.7593-51.1045C12.602-49.2388 6.83594-43.6768 6.83594-35.7075C6.83594-27.5234 12.9351-20.7827 23.3755-20.7827ZM23.3687-22.8643C14.1236-22.8643 8.96293-28.688 8.96293-35.6939C8.96293-42.1602 13.3921-47.2051 20.2881-49.0049C21.4512-49.3183 21.8272-49.7602 21.8863-50.7485C22.6324-63.7832 33.5728-74.4658 45.8657-74.4658C56.7378-74.4658 64.332-68.3003 68.479-59.6294C69.0014-58.5322 69.6318-58.2085 70.896-58.2085C81.9097-58.2085 90.2734-50.436 90.2734-40.5835C90.2734-30.8501 82.0674-22.8643 71.5835-22.8643ZM22.521-2.10108L28.6651-12.7109C29.0796-13.3481 28.916-13.9502 28.3731-14.2774C27.8721-14.5103 27.3154-14.3467 26.8975-13.7095L20.75-3.14162C20.4297-2.46584 20.5025-1.86036 21.0488-1.58204C21.5918-1.2583 22.1553-1.47071 22.521-2.10108ZM31.586 8.69677L43.9868-12.7598C44.4014-13.3936 44.2378-13.9956 43.6983-14.3193C43.2041-14.5523 42.6372-14.3921 42.2227-13.7549L29.832 7.64939C29.5083 8.33201 29.5811 8.93749 30.124 9.21581C30.6636 9.53955 31.2202 9.33056 31.586 8.69677ZM52.9864-2.1045L59.1304-12.6689C59.5449-13.3481 59.3814-13.9536 58.8384-14.2808C58.3374-14.5137 57.7808-14.3501 57.3628-13.7129L51.2188-3.14504C50.895-2.46926 50.9678-1.86378 51.5142-1.58546C52.0572-1.26172 52.6206-1.47413 52.9864-2.1045ZM62.0513 8.69335L74.4522-12.7178C74.8667-13.397 74.7031-13.9956 74.1636-14.3228C73.6694-14.5557 73.106-14.3955 72.688-13.7583L60.2974 7.64597C59.9736 8.3286 60.0464 8.93407 60.5894 9.2124C61.1289 9.53613 61.6856 9.32714 62.0513 8.69335Z"/>
  </g>
 </g>
</svg>
